<?xml version="1.0" encoding="UTF-8"?>
<svg xmlns="http://www.w3.org/2000/svg" version="1.1" viewBox="0 0 800 800">
  <g>
    <path class="primary" d="M677.7,140.9c-51.8-24.2-107.2-41.8-165-51.9-7.1,12.9-15.4,30.1-21.1,43.9-61.5-9.3-122.5-9.3-182.9,0-5.7-13.8-14.2-31-21.4-43.9-58,10-113.4,27.7-165.2,52C17.6,298.9-10.8,452.8,3.4,604.5c69.3,51.7,136.4,83.2,202.4,103.7,16.3-22.4,30.8-46.3,43.4-71.4-23.8-9.1-46.7-20.2-68.3-33.2,5.7-4.2,11.3-8.7,16.7-13.2,131.6,61.6,274.7,61.6,404.7,0,5.5,4.6,11.1,9,16.7,13.2-21.6,13-44.5,24.2-68.4,33.3,12.5,25.1,27,49,43.4,71.4,66.1-20.6,133.3-52,202.5-103.8,16.6-175.9-28.4-328.4-118.9-463.6ZM267.1,511.2c-39.5,0-71.9-36.9-71.9-81.8s31.7-81.9,71.9-81.9,72.6,36.9,71.9,81.9c0,44.9-31.7,81.8-71.9,81.8ZM532.9,511.2c-39.5,0-71.9-36.9-71.9-81.8s31.7-81.9,71.9-81.9,72.6,36.9,71.9,81.9c0,44.9-31.7,81.8-71.9,81.8Z"/>
  </g>
</svg>