<svg xmlns="http://www.w3.org/2000/svg" viewBox="0 0 309.644 252.84"><g stroke="#000" stroke-linecap="round" stroke-linejoin="round" stroke-width="7"><path d="M46.125 243.132l-27.276-54.067c-4.971-9.855-1.006-21.893 8.848-26.864L252.273 48.907c9.854-4.971 21.893-1.006 26.864 8.849l24.86 49.279c4.972 9.855 1.007 21.893-8.848 26.865L65.786 249.609c-7.213 3.638-16.022.736-19.66-6.476z" fill="#1e1e1e"/><circle cx="257.038" cy="99.813" r="29.748" fill="#919191"/><path d="M108.574 147.152l86.814-43.156a8 8 0 0110.789 3.406l15.737 30.258a8 8 0 01-3.406 10.789l-86.814 43.156a8 8 0 01-10.789-3.406l-15.737-30.258a8 8 0 013.406-10.789z"/><circle cx="70.92" cy="196.925" r="29.748" fill="none"/><path d="M61.684 9.483l197.74 42.031c25.246 5.366 41.362 30.182 35.995 55.428l-.423 1.99c-5.331 25.081-29.985 41.091-55.065 35.76L41.892 102.598C6.428 93.466.795 95.076 4.465 74.438l13.321-54.586C22.682-3.184 30.528 2.898 61.684 9.483z" fill="#d1d1d1"/><circle cx="243.248" cy="97.435" r="29.748" fill="#919191"/></g></svg>