<svg xmlns="http://www.w3.org/2000/svg" viewBox="0 0 217.505 305.598"><path d="M179.388 301.098H6.471c-2.428-.558-1.567-4.644-1.594-7.366-.053-5.271-.171-12.858-.171-21.321L4.5 34.258c0-8.463.018-19.427.018-24.699 0-3.513 1.915-4.967 3.691-4.954C49.811 4.9 179.387 4.5 179.387 4.5c22.008.828 33.617 16.473 33.617 36.794v223.009c0 20.321-15.051 36.794-33.617 36.794z" fill="#d1d1d1" stroke="#303030" stroke-linecap="round" stroke-linejoin="round" stroke-width="9"/><path d="M175.332 298.578H.736l.085-7.366S.65 283.354.65 274.891L.444 36.738c0-8.463.018-24.699.018-24.699l.104-5.042 174.766-.017c22.008.828 33.617 16.473 33.617 36.794v223.009c0 20.321-15.051 31.794-33.617 31.794z" fill="#d1d1d1"/><path fill="none" stroke="#d1d1d1" stroke-linejoin="round" stroke-width="8" d="M5.112 7.605l.171 290.476"/><g opacity=".4" fill="none" stroke="#999" stroke-width="2"><path d="M1.589 83.851l208.773.044M1.905 158.573l208.354.163M1.84 230.559l208.839.163"/><path stroke-linejoin="round" d="M104.762 231.788V7.113"/></g><ellipse cx="103.226" cy="264.687" rx="11.282" ry="11.637" fill="#999" opacity=".5"/></svg>