<svg xmlns="http://www.w3.org/2000/svg" viewBox="0 0 204.782 276.076"><path d="M16.859 3h171.587c7.361 0 13.337 5.976 13.337 13.337v256.74H3V16.859C3 9.21 9.21 3 16.859 3z" fill="#1e1e1e" stroke="#1e1e1e" stroke-linejoin="round" stroke-width="6"/><path fill="#d3d3d3" d="M15.025 14.049h172.872v210.455H15.025z"/><path d="M17.247 236.952h169.064c7.002 0 12.687 5.685 12.687 12.687v25.993H4.56v-25.993c0-7.002 5.685-12.687 12.687-12.687z" fill="#8e8e8e"/><g opacity=".4" fill="none" stroke="#999" stroke-width="2"><path d="M15.025 73.092l172.476.036M15.285 133.03l172.131.131M15.232 189.254l172.531.132"/><path stroke-linejoin="round" d="M100.26 190.248V13.788"/></g><ellipse cx="34.902" cy="207.823" rx="9.244" ry="9.385" fill="#999" opacity=".5"/><rect x="160.149" y="197.576" width="16.775" height="20.135" rx="4.162" ry="4.162" fill="#999" opacity=".5"/></svg>