<?xml version="1.0" standalone="no"?>
<!DOCTYPE svg PUBLIC "-//W3C//DTD SVG 20010904//EN"
 "http://www.w3.org/TR/2001/REC-SVG-20010904/DTD/svg10.dtd">
<svg version="1.0" xmlns="http://www.w3.org/2000/svg"
 width="512.000000pt" height="512.000000pt" viewBox="0 0 512.000000 512.000000"
 preserveAspectRatio="xMidYMid meet">
<metadata>
Created by potrace 1.14, written by Peter Selinger 2001-2017
</metadata>
<g transform="translate(0.000000,512.000000) scale(0.100000,-0.100000)"
fill="#000000" stroke="none">
<path d="M2033 4949 c-74 -15 -118 -76 -107 -146 8 -48 9 -50 45 -68 34 -18
103 -21 139 -7 64 25 101 112 73 171 -8 16 -22 33 -31 37 -34 14 -88 20 -119
13z"/>
<path d="M3035 4950 c-68 -15 -105 -61 -105 -132 0 -67 45 -101 132 -100 95 2
164 103 122 183 -12 24 -54 59 -54 45 0 -2 -15 -1 -32 3 -18 4 -46 4 -63 1z"/>
<path d="M1004 4330 c-50 -11 -111 -50 -145 -93 -134 -166 -7 -414 207 -403
176 9 287 187 216 348 -46 105 -173 172 -278 148z"/>
<path d="M2006 4328 c-125 -27 -219 -164 -196 -287 10 -56 55 -127 100 -160
110 -80 257 -60 340 45 47 60 63 107 57 177 -13 150 -154 256 -301 225z"/>
<path d="M3005 4328 c-92 -20 -180 -119 -192 -217 -9 -81 12 -137 76 -202 77
-76 156 -97 252 -64 101 35 172 133 171 236 -1 161 -149 280 -307 247z"/>
<path d="M4017 4329 c-189 -43 -264 -263 -140 -408 98 -115 273 -118 371 -6
53 59 66 94 65 165 0 36 -7 81 -16 100 -46 106 -173 173 -280 149z"/>
<path d="M1944 3428 c-256 -86 -336 -397 -155 -600 63 -71 154 -112 253 -115
157 -4 284 73 349 212 136 289 -145 605 -447 503z"/>
<path d="M2968 3435 c-226 -63 -339 -312 -235 -520 43 -87 122 -155 216 -186
83 -28 185 -22 265 14 71 33 150 112 184 184 23 50 27 71 27 153 0 84 -3 102
-28 152 -44 89 -118 158 -206 192 -58 23 -164 28 -223 11z"/>
<path d="M983 3320 c-35 -8 -50 -17 -101 -64 -53 -49 -76 -101 -76 -176 0
-144 106 -250 249 -250 213 0 327 248 188 409 -64 76 -159 105 -260 81z"/>
<path d="M3959 3304 c-159 -81 -192 -277 -68 -402 61 -62 148 -87 236 -68 62
13 136 76 168 142 30 61 26 157 -9 219 -65 119 -212 168 -327 109z"/>
<path d="M275 3210 c-68 -15 -107 -64 -107 -135 0 -96 92 -155 189 -121 62 21
94 98 68 159 -32 70 -93 110 -150 97z"/>
<path d="M4765 3204 c-39 -13 -58 -33 -73 -74 -24 -65 25 -156 95 -178 81 -26
165 37 165 125 0 98 -91 160 -187 127z"/>
<path d="M2039 2446 c-2 -2 -23 -6 -47 -10 -66 -9 -127 -40 -186 -96 -199
-188 -130 -520 127 -610 237 -84 480 78 492 328 10 201 -129 357 -346 386 -20
3 -38 4 -40 2z"/>
<path d="M3010 2440 c-95 -13 -196 -77 -251 -156 -113 -165 -74 -390 89 -508
170 -124 414 -75 529 107 14 22 26 45 27 51 1 6 5 17 9 23 16 25 20 150 7 203
-44 183 -225 307 -410 280z"/>
<path d="M976 2314 c-65 -20 -137 -93 -159 -160 -55 -167 78 -341 252 -329 66
5 116 29 167 81 127 131 69 348 -109 408 -58 19 -87 19 -151 0z"/>
<path d="M3998 2317 c-62 -20 -121 -69 -152 -127 -113 -209 114 -444 327 -341
202 98 184 387 -29 462 -60 21 -93 23 -146 6z"/>
<path d="M233 2191 c-45 -28 -65 -63 -65 -114 0 -85 53 -137 139 -137 42 0 96
28 113 59 14 28 19 91 8 122 -26 75 -128 112 -195 70z"/>
<path d="M4775 2203 c-28 -7 -72 -51 -83 -82 -11 -31 -6 -94 8 -122 17 -31 71
-59 113 -59 88 0 140 52 139 138 -2 93 -80 148 -177 125z"/>
<path d="M1019 1319 c-125 -19 -213 -122 -213 -249 1 -231 282 -336 435 -162
90 103 83 253 -16 343 -46 42 -49 44 -110 61 -33 9 -66 12 -96 7z"/>
<path d="M2005 1316 c-187 -50 -260 -263 -139 -404 55 -65 104 -87 194 -87 84
0 118 14 173 69 117 116 92 309 -49 392 -53 31 -127 43 -179 30z"/>
<path d="M3007 1315 c-191 -48 -260 -279 -125 -415 56 -55 90 -72 165 -78 54
-4 70 -1 117 22 167 82 199 289 65 411 -65 59 -144 80 -222 60z"/>
<path d="M4025 1320 c-87 -18 -164 -84 -194 -164 -72 -190 113 -383 311 -324
50 15 123 79 150 132 30 59 32 142 3 203 -24 54 -72 106 -117 129 -39 20 -115
32 -153 24z"/>
<path d="M2000 422 c-128 -65 -83 -256 60 -254 53 1 90 20 113 59 35 61 18
150 -35 185 -38 25 -100 29 -138 10z"/>
<path d="M3010 425 c-102 -34 -107 -205 -8 -246 74 -30 166 4 186 68 37 122
-59 218 -178 178z"/>
</g>
</svg>
