<?xml version="1.0" encoding="UTF-8"?><svg id="logotype_brandmark" xmlns="http://www.w3.org/2000/svg" viewBox="0 0 500 500"><defs><style>.cls-1{fill:#fff;}.cls-2{fill:#14202a;}</style></defs><circle class="cls-1" cx="250" cy="250" r="250"/><path class="cls-2" d="M360.64351,258.97233h53.57649c2.66755,0,4.83-2.16247,4.83-4.83v-38.64c0-2.66753-2.16245-4.83-4.83-4.83h-75.0804l-59.15021-132.85173c-1.03453-2.32359-3.33975-3.82062-5.88325-3.82061h-48.21235c-2.54347,0-4.84867,1.49702-5.88319,3.82061l-59.14863,132.85173H85.78c-2.66754,0-4.83,2.16247-4.83,4.83v38.64c0,2.66753,2.16246,4.83,4.83,4.83h53.57651l-57.98299,130.2326c-1.08507,2.43711,.01097,5.29238,2.44807,6.37747,.6184,.27531,1.28778,.4176,1.9647,.4176h43.11938c2.54361,0,4.84892-1.49709,5.8835-3.8208L250,133.4112l115.21084,258.768c1.03458,2.32371,3.33989,3.8208,5.88348,3.8208h43.12024c2.66755,.00003,4.83003-2.16242,4.83003-4.82997,.00003-.67689-.14226-1.34622-.41757-1.96458l-57.98352-130.23312Z"/></svg>