<?xml version="1.0" standalone="no"?>
<!DOCTYPE svg PUBLIC "-//W3C//DTD SVG 20010904//EN"
 "http://www.w3.org/TR/2001/REC-SVG-20010904/DTD/svg10.dtd">
<svg version="1.0" xmlns="http://www.w3.org/2000/svg"
 width="1024.000000pt" height="1024.000000pt" viewBox="0 0 1024.000000 1024.000000"
 preserveAspectRatio="xMidYMid meet">
<metadata>
Created by potrace 1.14, written by Peter Selinger 2001-2017
</metadata>
<g transform="translate(0.000000,1024.000000) scale(0.100000,-0.100000)"
fill="#000000" stroke="none">
<path d="M4897 10004 c-2 -2 -30 -6 -63 -10 -132 -13 -184 -20 -249 -34 -22
-5 -55 -12 -74 -15 -66 -12 -224 -56 -319 -91 -666 -241 -979 -709 -768 -1148
213 -443 915 -751 1706 -749 689 2 1324 244 1602 610 106 140 151 267 150 423
-1 384 -386 740 -987 915 -48 14 -97 27 -109 29 -89 19 -243 46 -287 51 -30 4
-70 9 -89 12 -42 5 -508 12 -513 7z"/>
<path d="M2348 8665 c-2 -1 -44 -5 -94 -8 -50 -4 -103 -11 -117 -16 -15 -6
-27 -8 -27 -6 0 11 -183 -61 -270 -106 -402 -205 -773 -606 -1029 -1109 -133
-261 -240 -582 -266 -800 -18 -148 -21 -187 -19 -300 1 -180 25 -310 83 -454
135 -338 452 -492 826 -400 320 79 675 330 954 674 20 25 38 47 41 50 22 20
172 238 214 311 54 91 168 323 205 417 74 186 112 319 155 547 20 103 27 356
14 474 -10 90 -45 221 -79 303 -102 239 -269 373 -511 413 -43 7 -79 11 -80
10z"/>
<path d="M7756 8644 c-257 -56 -447 -277 -514 -600 -35 -163 -33 -420 4 -616
56 -302 153 -564 322 -873 51 -94 228 -355 262 -385 3 -3 23 -27 44 -55 70
-89 288 -298 387 -372 165 -124 321 -207 478 -257 112 -36 152 -41 291 -40
109 0 135 4 205 28 258 89 413 307 469 656 12 77 14 376 2 427 -2 11 -7 43
-11 70 -4 26 -8 57 -10 68 -1 11 -14 67 -28 125 -158 653 -608 1309 -1120
1633 -139 89 -337 172 -465 195 -81 15 -239 13 -316 -4z"/>
<path d="M1128 4794 c-3 -2 -20 -6 -39 -8 -69 -9 -156 -44 -226 -92 -288 -194
-395 -597 -307 -1149 18 -109 86 -339 144 -484 45 -114 165 -357 204 -414 14
-21 26 -40 26 -43 0 -3 37 -59 82 -125 286 -419 655 -728 1014 -849 46 -16 84
-27 84 -25 0 3 11 0 24 -5 55 -20 221 -29 305 -16 137 22 242 77 346 181 97
98 161 216 200 370 32 126 37 170 39 330 1 250 -33 450 -125 718 -52 155 -67
190 -162 379 -63 126 -248 427 -276 448 -3 3 -32 37 -64 77 -31 40 -69 85 -83
100 -156 170 -272 272 -419 371 -183 123 -337 190 -520 227 -35 8 -242 15
-247 9z"/>
<path d="M8825 4774 c-119 -27 -177 -49 -305 -115 -555 -283 -1062 -974 -1239
-1688 -16 -64 -32 -136 -36 -161 -4 -25 -9 -52 -10 -60 -26 -140 -24 -417 4
-541 5 -24 12 -55 15 -69 4 -26 12 -51 26 -85 4 -11 14 -36 21 -55 43 -115
144 -246 242 -312 219 -149 499 -149 815 -1 514 241 1010 848 1235 1513 45
131 103 373 105 430 0 8 3 26 7 40 10 41 13 333 4 401 -13 98 -16 111 -28 159
-79 299 -248 486 -496 550 -89 23 -247 20 -360 -6z"/>
<path d="M5119 2286 c-2 -2 -69 -7 -148 -10 -79 -3 -153 -8 -165 -11 -11 -2
-43 -7 -71 -10 -74 -8 -112 -14 -191 -31 -39 -8 -77 -17 -85 -18 -210 -42
-491 -160 -678 -285 -76 -50 -214 -175 -266 -241 -138 -173 -189 -396 -135
-585 17 -61 48 -135 69 -164 12 -16 21 -32 21 -36 0 -7 49 -68 110 -139 36
-42 154 -136 235 -188 193 -125 481 -236 733 -283 15 -3 38 -7 52 -10 173 -31
277 -39 520 -39 268 0 392 11 598 54 277 58 535 162 737 296 106 70 247 205
304 290 47 70 97 178 105 226 3 18 9 53 14 78 15 84 4 187 -31 283 -130 358
-566 645 -1157 762 -69 13 -145 27 -170 30 -25 3 -58 7 -75 9 -16 2 -93 7
-170 11 -77 4 -143 9 -146 11 -3 2 -8 2 -10 0z"/>
</g>
</svg>
