<svg xmlns="http://www.w3.org/2000/svg" width="48" height="48" fill="none">
    <g clip-path="url(#prefix__prefix__clip0_1300_1288)">
        <path
            d="M0 14C0 6.268 6.268 0 14 0h20c7.732 0 14 6.268 14 14v20c0 7.732-6.268 14-14 14H14C6.268 48 0 41.732 0 34V14z"
            fill="#F6297C" />
        <path
            d="M38.606 26.38l1.427-1.426a2.916 2.916 0 00.001-4.129l-1.21-1.208c-4.33 4.325-10.81 5.194-16.004 2.607 3.51.649 7.15.144 10.373-1.588 2.157-1.158 2.567-4.08.836-5.81l-7.14-7.13a4.088 4.088 0 00-5.777 0l-7.696 7.686c5.068-2.15 11.156-1.154 15.279 2.992-6.29-3.049-14.08-1.967-19.301 3.247l-1.429 1.427a2.917 2.917 0 000 4.128l1.21 1.207c4.33-4.325 10.81-5.194 16.004-2.607-3.51-.649-7.15-.144-10.374 1.588-2.157 1.158-2.566 4.08-.835 5.81l7.14 7.13a4.088 4.088 0 005.777 0l7.696-7.686c-5.068 2.15-11.156 1.154-15.28-2.992 6.29 3.049 14.08 1.967 19.301-3.247h.002z"
            fill="#F6F6EC" />
    </g>
    <defs>
        <clipPath id="prefix__prefix__clip0_1300_1288">
            <rect width="48" height="48" rx="24" fill="#fff" />
        </clipPath>
    </defs>
</svg>