<svg width="48" height="48" viewBox="0 0 1025 1025" fill="none" xmlns="http://www.w3.org/2000/svg">
    <circle cx="512.949" cy="512.019" r="512" fill="#B3CF92"/>
    <path d="M809.009 283.505H820.429V245.44H594.518V283.505H605.937C631.098 283.505 645.181 285.903 651.538 291.346C656.639 295.685 658.618 304.364 658.618 322.216L658.504 468.268H370.397V322.216C370.397 292.488 370.397 283.505 422.43 283.505H433.849V245.44H208.586V283.505H220.005C275.845 283.505 275.845 292.488 275.845 322.216V456.849C275.845 463.155 270.733 468.268 264.426 468.268H220.005V496.359H264.426C270.733 496.359 275.845 501.472 275.845 507.778V525.098H220.005V553.189H264.426C270.733 553.189 275.845 558.301 275.845 564.608V699.241C275.845 728.969 275.845 737.952 220.005 737.952H208.586V776.016H433.849V737.952H422.43C370.397 737.952 370.397 728.969 370.397 699.241V564.608C370.397 558.301 375.509 553.189 381.816 553.189H647.199C653.506 553.189 658.618 558.301 658.618 564.608V699.241C658.618 717.131 656.639 725.772 651.538 730.111C645.181 735.516 631.098 737.952 605.937 737.952H594.518V776.016H820.429V737.952H809.009C752.522 737.952 752.522 728.208 752.522 699.241V564.608C752.522 558.301 757.635 553.189 763.941 553.189H809.009V525.098H752.522V507.778C752.522 501.472 757.635 496.359 763.941 496.359H809.009V468.268H763.941C757.635 468.268 752.522 463.155 752.522 456.849V322.216C752.522 293.249 752.522 283.505 809.009 283.505ZM658.618 525.06H370.397V496.321H658.504V510.062L658.656 521.481V525.021C658.656 525.042 658.639 525.06 658.618 525.06V525.06Z" fill="#111A15"/>
</svg>
