<?xml version="1.0" standalone="no"?>
<!DOCTYPE svg PUBLIC "-//W3C//DTD SVG 20010904//EN"
 "http://www.w3.org/TR/2001/REC-SVG-20010904/DTD/svg10.dtd">
<svg version="1.0" xmlns="http://www.w3.org/2000/svg"
 width="766.000000pt" height="766.000000pt" viewBox="0 0 766.000000 766.000000"
 preserveAspectRatio="xMidYMid meet">
<metadata>
Created by potrace 1.14, written by Peter Selinger 2001-2017
</metadata>
<g transform="translate(0.000000,766.000000) scale(0.100000,-0.100000)"
fill="#000000" stroke="none">
<path d="M3 6344 c18 -62 87 -325 90 -345 2 -13 6 -31 10 -39 4 -13 62 -233
72 -280 2 -8 11 -40 19 -72 8 -31 18 -67 20 -80 3 -12 17 -66 31 -118 15 -52
28 -104 30 -115 2 -11 9 -38 15 -60 6 -22 13 -49 15 -60 2 -11 4 -20 5 -20 1
0 3 -7 5 -15 15 -59 90 -350 120 -465 38 -147 43 -165 51 -204 3 -14 7 -28 10
-33 3 -5 8 -21 10 -36 3 -15 14 -61 26 -102 11 -41 21 -82 23 -90 2 -8 11 -40
19 -72 8 -31 18 -67 20 -80 3 -12 10 -39 15 -58 23 -88 113 -437 116 -450 2
-8 29 -112 60 -230 30 -118 57 -224 60 -235 2 -11 4 -20 5 -20 1 0 61 -230 74
-285 2 -8 25 -94 50 -190 25 -96 57 -220 71 -275 14 -55 28 -108 30 -118 3 -9
7 -25 9 -35 2 -9 20 -80 41 -157 58 -224 87 -339 89 -350 1 -5 5 -16 9 -22 5
-7 6 -17 2 -22 -3 -5 -1 -12 5 -16 5 -3 10 -15 10 -26 0 -11 12 -61 26 -112
30 -104 32 -115 33 -140 1 -16 47 -17 863 -15 l861 3 4 24 c2 14 10 44 18 67
8 24 17 53 19 66 6 29 9 38 51 188 19 69 37 134 40 145 2 11 25 94 50 185 26
91 48 173 50 183 2 9 6 21 9 25 3 5 7 19 10 33 3 13 17 66 31 117 14 50 36
134 50 185 14 50 28 99 30 107 5 19 44 160 50 180 69 261 139 498 155 531 44
86 143 142 250 142 58 1 142 -36 185 -81 54 -55 60 -72 130 -332 14 -52 35
-128 46 -168 12 -40 22 -81 24 -90 2 -9 4 -17 5 -17 1 0 3 -7 5 -15 2 -8 18
-64 35 -125 35 -127 39 -139 44 -163 3 -14 16 -62 32 -117 2 -5 14 -50 28
-100 36 -132 51 -187 86 -310 17 -60 32 -120 35 -132 2 -13 6 -26 9 -31 3 -5
7 -19 10 -33 3 -13 13 -51 22 -84 9 -33 17 -64 18 -70 1 -5 10 -37 20 -70 10
-33 20 -67 22 -75 2 -8 8 -33 14 -55 7 -22 15 -56 18 -75 l7 -35 857 -3 c809
-2 857 -1 862 15 4 14 45 170 71 273 14 54 48 187 49 195 2 6 8 30 15 55 7 25
15 56 18 69 2 14 6 28 9 33 3 4 7 16 9 25 3 18 31 131 40 166 3 9 7 25 9 35 4
15 36 136 52 197 3 11 7 29 9 40 2 11 14 54 25 95 11 41 22 82 24 90 2 8 16
62 31 120 15 58 29 112 31 120 2 8 19 76 39 150 20 74 37 142 39 151 3 9 28
106 56 215 81 312 118 458 156 609 19 77 38 147 41 155 8 20 7 16 23 85 7 33
15 65 16 70 10 36 56 212 58 220 1 6 5 16 9 23 5 6 6 12 3 12 -3 0 -1 12 5 26
5 15 12 43 15 62 3 19 10 47 16 61 5 14 12 37 14 49 3 13 12 49 20 80 8 32 17
64 19 72 1 8 27 105 55 215 29 110 56 216 60 235 5 19 13 50 18 68 6 17 8 32
5 32 -3 0 0 7 7 15 7 8 10 15 6 15 -3 0 -1 11 4 25 5 14 12 36 14 48 3 12 12
46 20 75 8 28 12 52 9 52 -3 0 0 7 7 15 7 8 10 15 6 15 -3 0 -1 11 4 26 6 14
12 37 15 52 3 15 12 52 20 82 9 30 18 66 21 80 3 14 12 48 20 76 8 28 17 61
19 73 2 13 7 31 10 41 3 10 8 27 10 37 4 21 43 169 51 196 5 16 -36 17 -798
15 l-803 -3 -12 -60 c-17 -81 -33 -161 -57 -285 -3 -14 -10 -44 -16 -68 -5
-23 -13 -58 -16 -78 -7 -42 -9 -53 -23 -114 -11 -50 -18 -87 -27 -140 -3 -19
-7 -37 -9 -40 -2 -3 -6 -25 -10 -50 -4 -25 -8 -48 -11 -51 -2 -4 -6 -24 -10
-45 -3 -22 -9 -55 -14 -74 -5 -19 -11 -48 -14 -65 -3 -16 -10 -55 -16 -85 -6
-30 -14 -66 -16 -80 -3 -14 -10 -45 -16 -70 -5 -25 -12 -58 -15 -75 -3 -16
-16 -82 -29 -145 -14 -63 -27 -125 -29 -137 -3 -13 -8 -35 -11 -50 -3 -16 -7
-35 -8 -43 -1 -8 -6 -28 -9 -45 -4 -16 -9 -45 -12 -63 -15 -93 -48 -208 -67
-236 -73 -107 -207 -152 -330 -111 -46 16 -112 70 -141 117 -13 22 -77 251
-93 337 -3 14 -14 57 -25 97 -11 40 -22 84 -24 96 -3 13 -12 52 -21 88 -9 36
-18 75 -20 87 -2 12 -9 34 -14 48 -5 14 -9 29 -9 33 1 4 0 9 -1 12 -1 3 -3 12
-5 20 -1 8 -22 92 -45 185 -23 94 -43 177 -45 185 -2 8 -13 53 -25 100 -12 47
-23 92 -25 100 -2 8 -8 35 -15 60 -6 25 -12 54 -14 65 -2 11 -4 20 -5 20 -2 0
-5 11 -7 24 -2 14 -11 50 -19 80 -8 31 -16 67 -19 81 -3 14 -12 50 -20 82 -8
31 -17 67 -20 80 -11 49 -17 75 -34 143 l-18 70 -784 0 -784 0 -8 -35 c-4 -19
-10 -44 -13 -55 -2 -11 -12 -49 -20 -85 -8 -36 -17 -72 -19 -80 -3 -8 -14 -56
-25 -106 -11 -50 -23 -97 -25 -105 -3 -8 -7 -25 -10 -39 -2 -14 -9 -45 -16
-70 -7 -25 -14 -54 -16 -65 -9 -44 -13 -63 -28 -121 -8 -33 -17 -69 -19 -80
-2 -10 -8 -37 -14 -59 -6 -22 -21 -85 -33 -140 -12 -55 -26 -114 -31 -131 -5
-17 -11 -40 -13 -50 -5 -25 -11 -49 -42 -179 -23 -98 -32 -138 -38 -170 -1 -5
-5 -16 -9 -22 -5 -7 -6 -13 -4 -13 2 0 -2 -26 -10 -57 -8 -32 -21 -87 -29
-123 -63 -275 -74 -308 -106 -344 -10 -11 -18 -22 -18 -26 0 -10 -97 -69 -126
-76 -66 -15 -143 -7 -199 21 -83 40 -134 110 -152 208 -2 10 -12 59 -23 110
-11 51 -23 108 -26 127 -3 19 -8 38 -10 41 -2 4 -6 24 -10 45 -3 22 -10 57
-16 79 -5 22 -12 55 -14 74 -3 19 -7 37 -9 41 -3 4 -7 25 -11 46 -3 22 -9 55
-14 74 -5 19 -11 48 -14 63 -22 127 -151 447 -203 504 -6 7 -15 22 -18 33 -3
11 -11 20 -16 20 -5 0 -9 4 -9 10 0 5 -6 18 -14 27 -8 10 -35 45 -60 78 -95
128 -325 331 -458 404 -191 106 -411 187 -558 206 -19 3 -46 8 -60 11 -14 3
-128 8 -254 11 -219 5 -228 5 -223 -13z"/>
</g>
</svg>
