<svg viewBox="0 0 310 310" fill="none" xmlns="http://www.w3.org/2000/svg"><g filter="url(#filter0_d_1_19)"><circle cx="155" cy="151" r="146" class="light-fill" fill="#fff" stroke="#E6007A" stroke-width="10"/><path d="M154.962 89.56c21.165 0 38.322-9.975 38.322-22.28 0-12.305-17.157-22.28-38.322-22.28-21.165 0-38.322 9.975-38.322 22.28 0 12.305 17.157 22.28 38.322 22.28zm0 168.44c21.165 0 38.322-9.975 38.322-22.28 0-12.305-17.157-22.281-38.322-22.281-21.165 0-38.322 9.976-38.322 22.281 0 12.305 17.157 22.28 38.322 22.28zm-53.497-137.409c10.597-18.369 10.528-38.263-.154-44.435-10.683-6.172-27.934 3.715-38.53 22.084-10.598 18.369-10.53 38.263.153 44.435 10.683 6.172 27.934-3.715 38.531-22.084zm145.627 84.14c10.598-18.369 10.534-38.26-.141-44.428-10.675-6.168-27.92 3.723-38.517 22.091-10.598 18.369-10.535 38.26.141 44.428 10.675 6.168 27.92-3.723 38.517-22.091zm-145.776 22.086c10.683-6.172 10.752-26.067.154-44.435-10.597-18.369-27.848-28.257-38.53-22.084-10.683 6.172-10.752 26.066-.154 44.435 10.597 18.369 27.848 28.256 38.53 22.084zM246.96 142.68c10.676-6.168 10.739-26.059.141-44.428-10.597-18.369-27.842-28.26-38.517-22.091-10.675 6.168-10.739 26.059-.141 44.427 10.597 18.369 27.842 28.26 38.517 22.092z" fill="#E6007A"/></g><defs><filter id="filter0_d_1_19" x="0" y="0" width="100%" height="100%" filterUnits="userSpaceOnUse" color-interpolation-filters="sRGB"><feFlood flood-opacity="0" result="BackgroundImageFix"/><feColorMatrix in="SourceAlpha" values="0 0 0 0 0 0 0 0 0 0 0 0 0 0 0 0 0 0 127 0" result="hardAlpha"/><feOffset dy="4"/><feGaussianBlur stdDeviation="2"/><feComposite in2="hardAlpha" operator="out"/><feColorMatrix values="0 0 0 0 0 0 0 0 0 0 0 0 0 0 0 0 0 0 0.25 0"/><feBlend in2="BackgroundImageFix" result="effect1_dropShadow_1_19"/><feBlend in="SourceGraphic" in2="effect1_dropShadow_1_19" result="shape"/></filter></defs></svg>