<svg version="1.1" width="100%" height="100%" viewBox="0 0 302 302" fill="none" xmlns="http://www.w3.org/2000/svg">
<circle cx="151" cy="151" r="151" fill="black"/>
<path d="M227.655 94.7713C224.991 92.6735 221.816 89.8082 216.029 89.0919C210.6 88.3756 205.069 92.0083 201.33 94.4131C197.591 96.8179 190.523 103.879 187.604 106.028C184.685 108.177 177.207 110.172 165.172 117.386C153.136 124.601 105.916 154.891 105.916 154.891L118.207 155.044L63.4071 183.236H68.8872L61 189.223C61 189.223 67.9653 191.065 73.8038 187.381V189.069C73.8038 189.069 139.052 163.384 151.651 170.036L143.969 172.287C144.635 172.287 157.029 173.106 157.029 173.106C157.029 173.106 157.438 180.832 164.916 185.795C172.393 190.707 172.547 193.418 172.547 193.418C172.547 193.418 168.655 195.005 168.655 197C168.655 197 174.391 195.26 179.717 195.414C185.043 195.567 189.704 197 189.704 197C189.704 197 189.294 194.851 184.122 193.418C178.898 191.935 173.827 186.358 171.318 183.288C168.808 180.218 167.067 174.743 169.218 169.268C171.01 164.612 177.259 162.054 190.165 155.402C205.376 147.523 208.859 141.69 211.01 137.136C213.161 132.583 216.336 123.526 218.128 119.28C220.382 113.805 223.148 110.888 225.452 109.149C227.706 107.409 238 103.572 238 103.572C238 103.572 230.164 96.7667 227.655 94.7713Z" fill="#EEEEEE"/>
</svg>
