<svg viewBox="0 0 64 64" fill="none" xmlns="http://www.w3.org/2000/svg"><circle cx="32" cy="32" r="32" fill="#50AF95"/><path fill-rule="evenodd" clip-rule="evenodd" d="M36.063 33.181c-.219.017-1.348.084-3.866.084-2.004 0-3.426-.06-3.925-.084-7.741-.34-13.52-1.69-13.52-3.304 0-1.615 5.779-2.962 13.52-3.308v5.269a58.24 58.24 0 003.96.122c2.403 0 3.607-.1 3.824-.12v-5.268c7.725.345 13.49 1.694 13.49 3.305 0 1.611-5.763 2.96-13.49 3.302l.007.002zm0-7.154v-4.715h10.78v-7.19H17.492v7.19h10.78v4.714c-8.762.402-15.35 2.14-15.35 4.22 0 2.082 6.588 3.817 15.35 4.222v15.11h7.79V34.462c8.742-.402 15.32-2.137 15.32-4.217 0-2.08-6.573-3.815-15.32-4.22l.002.002z" fill="#fff"  /></svg>