<svg xmlns="http://www.w3.org/2000/svg" viewBox="0 0 24 24"><path class="primary" d="M12 17c-.41 0-.75-.34-.75-.75v-5c0-.41.34-.75.75-.75s.75.34.75.75v5c0 .41-.34.75-.75.75zM12 9c-.26 0-.52-.11-.71-.29-.09-.1-.16-.2-.21-.33A.995.995 0 0111 8c0-.26.11-.52.29-.71.38-.37 1.04-.37 1.41 0 .19.19.3.45.3.71 0 .13-.03.26-.08.38a.988.988 0 01-.54.54c-.12.05-.25.08-.38.08z"/><path class="primary" d="M11.99 22c-2.58 0-5.02-.97-6.89-2.76-1.93-1.84-3.03-4.33-3.1-7s.92-5.2 2.76-7.14a9.974 9.974 0 017-3.1c2.65-.06 5.21.91 7.14 2.76a9.974 9.974 0 013.1 7c.06 2.67-.91 5.21-2.76 7.14a9.974 9.974 0 01-7 3.1h-.25zm.02-18.5h-.21c-2.28.06-4.39.99-5.95 2.64a8.4 8.4 0 00-2.34 6.07c.05 2.27.99 4.38 2.63 5.95a8.416 8.416 0 006.07 2.34c2.27-.05 4.38-.99 5.95-2.63s2.4-3.8 2.34-6.07a8.446 8.446 0 00-2.63-5.95 8.455 8.455 0 00-5.86-2.35z"/></svg>