<svg xmlns="http://www.w3.org/2000/svg" viewBox="0 0 640 512"><path d="M112 32h288c8.8 0 16 7.2 16 16v16h32V48c0-26.5-21.5-48-48-48H112C85.5 0 64 21.5 64 48v144h32V48c0-8.8 7.2-16 16-16zm112 112c0-8.8 7.2-16 16-16h352c8.8 0 16 7.2 16 16v224c0 8.8-7.2 16-16 16H416v32h176c26.5 0 48-21.5 48-48V144c0-26.5-21.5-48-48-48H240c-26.5 0-48 21.5-48 48v48h32v-48zM48 256h288c8.8 0 16 7.2 16 16v5L196.9 391.9c-1.4 1-3.1 1.6-4.9 1.6s-3.5-.6-4.9-1.6L32 277v-5c0-8.8 7.2-16 16-16zM32 464V316.8l136 100.8c6.9 5.1 15.3 7.9 24 7.9s17-2.8 24-7.9l136-100.8V464c0 8.8-7.2 16-16 16H48c-8.8 0-16-7.2-16-16zm16-240c-26.5 0-48 21.5-48 48v192c0 26.5 21.5 48 48 48h288c26.5 0 48-21.5 48-48V272c0-26.5-21.5-48-48-48H48zm448-64c-8.8 0-16 7.2-16 16v64c0 8.8 7.2 16 16 16h64c8.8 0 16-7.2 16-16v-64c0-8.8-7.2-16-16-16h-64zm16 64v-32h32v32h-32z"/></svg>