<?xml version="1.0" standalone="no"?>
<!DOCTYPE svg PUBLIC "-//W3C//DTD SVG 20010904//EN"
 "http://www.w3.org/TR/2001/REC-SVG-20010904/DTD/svg10.dtd">
<svg version="1.0" xmlns="http://www.w3.org/2000/svg"
 width="700.000000pt" height="700.000000pt" viewBox="0 0 700.000000 700.000000"
 preserveAspectRatio="xMidYMid meet">
<metadata>
Created by potrace 1.14, written by Peter Selinger 2001-2017
</metadata>
<g transform="translate(0.000000,700.000000) scale(0.100000,-0.100000)"
fill="#000000" stroke="none">
<path d="M5570 5279 c-175 -35 -418 -202 -715 -492 -100 -97 -154 -128 -375
-215 -152 -60 -235 -101 -405 -200 -114 -67 -454 -274 -495 -302 -8 -5 -35
-23 -60 -38 -306 -193 -670 -425 -887 -567 -51 -33 -128 -82 -170 -110 -43
-27 -152 -98 -243 -157 l-164 -108 74 -1 c242 -3 288 -5 282 -10 -8 -8 -96
-55 -317 -169 -233 -121 -378 -196 -480 -250 -49 -26 -157 -82 -240 -125 -82
-43 -199 -104 -260 -136 -60 -32 -184 -96 -275 -143 -91 -47 -164 -88 -163
-92 1 -5 15 -9 30 -11 16 -2 43 -6 61 -9 l33 -5 -53 -42 c-29 -23 -69 -54 -88
-69 -19 -14 -50 -39 -69 -55 l-33 -29 93 3 c140 3 223 17 312 52 40 16 49 14
35 -9 -7 -10 -10 -21 -7 -24 5 -5 271 84 359 119 19 8 127 46 240 85 113 39
216 75 228 81 56 23 483 162 595 193 184 51 358 94 457 111 19 3 53 10 75 15
22 5 63 12 90 15 28 4 57 8 65 10 8 2 49 7 90 10 41 4 85 8 97 10 27 4 132 7
228 6 84 -1 77 -8 -53 -52 -51 -17 -92 -32 -90 -34 9 -8 161 -24 270 -29 97
-5 112 -16 134 -101 33 -126 84 -192 254 -327 139 -111 214 -179 230 -207 14
-27 5 -44 -60 -105 -28 -27 -49 -51 -46 -53 2 -2 21 0 42 6 124 32 424 35 609
5 19 -3 35 -3 35 -1 0 10 -97 71 -201 124 -142 74 -212 124 -305 218 -130 133
-188 261 -188 420 0 75 4 98 25 140 33 67 117 152 214 215 64 41 435 233 455
235 3 0 63 32 135 70 237 128 341 215 493 410 24 31 93 161 121 230 19 44 60
160 92 257 138 417 284 611 532 703 34 13 101 37 149 55 l87 32 -22 22 c-21
20 -166 146 -217 190 -154 128 -285 205 -388 229 -70 16 -188 19 -252 6z"/>
</g>
</svg>
