<?xml version="1.0" standalone="no"?>
<!DOCTYPE svg PUBLIC "-//W3C//DTD SVG 20010904//EN"
 "http://www.w3.org/TR/2001/REC-SVG-20010904/DTD/svg10.dtd">
<svg version="1.0" xmlns="http://www.w3.org/2000/svg"
 width="880.000000pt" height="880.000000pt" viewBox="0 0 880.000000 880.000000"
 preserveAspectRatio="xMidYMid meet">
<g transform="translate(0.000000,880.000000) scale(0.100000,-0.100000)"
fill="#000000" stroke="none">
<path d="M6852 6480 c-93 -20 -228 -82 -372 -172 -61 -38 -192 -137 -215 -162
-5 -6 -44 -40 -85 -76 -41 -35 -84 -74 -95 -85 -11 -11 -49 -45 -85 -75 -36
-30 -67 -57 -70 -60 -29 -33 -91 -65 -310 -162 -258 -114 -499 -242 -705 -373
-46 -30 -244 -153 -321 -200 -72 -44 -355 -223 -444 -280 -118 -76 -546 -349
-675 -430 -264 -166 -764 -489 -762 -491 1 -2 105 -4 229 -6 125 -2 224 -6
220 -10 -4 -4 -57 -32 -117 -64 -61 -31 -186 -96 -280 -144 -93 -48 -255 -131
-360 -185 -104 -54 -253 -130 -330 -170 -157 -81 -373 -193 -670 -345 -234
-121 -349 -181 -353 -185 -2 -1 40 -3 92 -2 53 0 98 -1 100 -4 2 -2 -61 -53
-141 -114 l-145 -110 28 -11 c30 -13 223 -12 277 0 52 12 122 38 155 57 l32
18 0 -36 c0 -26 3 -33 13 -26 6 5 30 15 52 22 22 7 49 16 60 21 27 13 329 125
435 162 244 85 332 115 510 174 368 122 861 265 1070 309 3 1 30 7 60 13 127
28 125 28 235 46 90 15 142 22 225 31 51 5 209 6 255 1 48 -6 116 -29 108 -37
-4 -4 -68 -24 -141 -45 -73 -20 -131 -39 -129 -40 2 -2 48 -6 103 -9 54 -3
119 -7 144 -10 25 -2 90 -7 145 -10 104 -7 108 -8 111 -28 20 -114 52 -195
114 -287 49 -71 122 -139 243 -224 110 -78 237 -206 237 -240 0 -15 -15 -30
-51 -51 -54 -32 -89 -68 -89 -92 0 -16 13 -15 120 11 126 30 302 39 440 23 71
-9 235 -43 250 -52 20 -12 9 15 -17 44 -32 34 -110 75 -186 97 -138 41 -297
160 -458 345 -78 89 -111 144 -138 229 -54 167 -23 355 74 467 74 85 180 150
535 331 471 240 651 355 821 523 129 127 198 251 324 574 194 502 222 563 295
660 109 146 184 197 443 301 62 25 121 49 132 54 11 5 30 12 43 15 12 4 22 10
22 14 0 5 -52 53 -116 107 -64 55 -126 107 -138 118 -144 127 -285 231 -366
272 -114 57 -287 85 -388 64z"/>
</g>
</svg>
