<svg id="logotype_brandmark" data-name="logotype+brandmark" xmlns="http://www.w3.org/2000/svg" viewBox="0 0 317 302"><path d="M261.584,173.33447H311.5a4.5,4.5,0,0,0,4.5-4.5v-36a4.5,4.5,0,0,0-4.5-4.5H241.54932L186.44043,4.55957A6,6,0,0,0,180.95914,1H136.0408a5.99993,5.99993,0,0,0-5.48123,3.55957L75.45215,128.33447H5.5a4.5,4.5,0,0,0-4.5,4.5v36a4.5,4.5,0,0,0,4.5,4.5H55.416L1.39458,294.6692A4.50035,4.50035,0,0,0,5.50586,301H45.6792a6.00027,6.00027,0,0,0,5.48152-3.55974L158.5,56.35205,265.83928,297.44026A6.00027,6.00027,0,0,0,271.3208,301h40.17413a4.5,4.5,0,0,0,4.111-6.33031Z"/></svg>