<svg id="logotype_brandmark" data-name="logotype+brandmark" xmlns="http://www.w3.org/2000/svg" viewBox="0 0 1082 105"><path d="M158.03787,87.62978v-83.5a1.5,1.5,0,0,0-1.5-1.5h-12a1.5,1.5,0,0,0-1.5,1.5v97a1.5,1.5,0,0,0,1.5,1.5h62a1.5,1.5,0,0,0,1.5-1.5v-12a1.5,1.5,0,0,0-1.5-1.5Z"/><rect x="239.50008" y="2.62978" width="75" height="15" rx="1.5"/><rect x="239.50008" y="87.62978" width="75" height="15" rx="1.5"/><rect x="239.50008" y="45.07436" width="75" height="15" rx="1.5"/><rect x="767.40959" y="2.62978" width="75" height="15" rx="1.5"/><rect x="767.40959" y="87.62978" width="75" height="15" rx="1.5"/><rect x="767.40959" y="45.0746" width="75" height="15" rx="1.5"/><rect x="538" y="2.62978" width="15" height="100" rx="1.5"/><path d="M521.5,45.14492H483V4.12978a1.49992,1.49992,0,0,0-1.5-1.5h-12a1.50023,1.50023,0,0,0-1.5,1.5V45.14492H454.5a1.50023,1.50023,0,0,0-1.5,1.5v12a1.50024,1.50024,0,0,0,1.5,1.5H468v40.98486a1.50023,1.50023,0,0,0,1.5,1.5h12a1.49992,1.49992,0,0,0,1.5-1.5V60.14492h38.5a1.49993,1.49993,0,0,0,1.5-1.5v-12A1.49992,1.49992,0,0,0,521.5,45.14492Z"/><path d="M87.86133,60.0746H104.5a1.5,1.5,0,0,0,1.5-1.5v-12a1.5,1.5,0,0,0-1.5-1.5H81.18311L62.81348,3.8163a2,2,0,0,0-1.8271-1.18652H46.0136A2,2,0,0,0,44.18652,3.8163L25.81738,45.0746H2.5a1.5,1.5,0,0,0-1.5,1.5v12a1.5,1.5,0,0,0,1.5,1.5H19.13867L1.13153,100.51951A1.50012,1.50012,0,0,0,2.502,102.62978H15.89307a2.00009,2.00009,0,0,0,1.82717-1.18658L53.5,21.08046,89.27976,101.4432a2.00009,2.00009,0,0,0,1.82717,1.18658h13.39138a1.5,1.5,0,0,0,1.37032-2.11011Z"/><path d="M428.27637,24.76723A36.25784,36.25784,0,0,0,394.87842,2.63l-42.25-.00024a1.50023,1.50023,0,0,0-1.5,1.5v12a1.50007,1.50007,0,0,0,1.5,1.5h42.25a21.24327,21.24327,0,0,1,21.25,21.25V38.88a21.24308,21.24308,0,0,1-21.25,21.25l-42.25-.00024a1.50023,1.50023,0,0,0-1.5,1.5v39.5a1.50007,1.50007,0,0,0,1.5,1.5h12a1.49977,1.49977,0,0,0,1.5-1.5V75.13l28.75-.00024A36.242,36.242,0,0,0,431.12793,38.88l.00049-.00024A36.16763,36.16763,0,0,0,428.27637,24.76723Z"/><path d="M952.88713,59.15322a36.12493,36.12493,0,0,0,6.19531-20.27295l.00049-.00049a36.242,36.242,0,0,0-36.25-36.24951l-42.25-.00049a1.50039,1.50039,0,0,0-1.5,1.5v12a1.50008,1.50008,0,0,0,1.5,1.5h42.25a21.24361,21.24361,0,0,1,21.25,21.25v.00049a21.24361,21.24361,0,0,1-21.25,21.25l-42.25-.00049a1.50039,1.50039,0,0,0-1.5,1.5v39.5a1.50008,1.50008,0,0,0,1.5,1.5h12a1.49976,1.49976,0,0,0,1.5-1.5V75.13027l28.75-.00049a36.306,36.306,0,0,0,7.46875-.77588L942.495,101.74013a1.49969,1.49969,0,0,0,1.37012.88965h13.71631a1.49964,1.49964,0,0,0,1.37011-2.10986L944.45305,67.95473A36.40189,36.40189,0,0,0,952.88713,59.15322Z"/><path d="M734.44739,2.62978h-72a1.5,1.5,0,0,0-1.5,1.5v12a1.5,1.5,0,0,0,1.5,1.5h51.20752l-19.91838,25.4169a1.30016,1.30016,0,0,0,1.02336,2.10214h15.13574a2.99985,2.99985,0,0,0,2.36118-1.14946L735.3086,14.584a3.00042,3.00042,0,0,0,.63879-1.85074V4.12978A1.5,1.5,0,0,0,734.44739,2.62978Z"/><path d="M734.44739,87.62978H678.06555l19.88853-25.379a1.30007,1.30007,0,0,0-1.02329-2.102H681.795a3.00024,3.00024,0,0,0-2.36152,1.14965L656.58606,90.45394a3,3,0,0,0-.63867,1.85044v8.8254a1.5,1.5,0,0,0,1.5,1.5h77a1.5,1.5,0,0,0,1.5-1.5v-12A1.5,1.5,0,0,0,734.44739,87.62978Z"/><path d="M1067.3274,60.03785a1.50736,1.50736,0,0,0-1.47591,1.24824,40.28373,40.28373,0,0,1-1.87927,6.87017A32.02665,32.02665,0,0,1,1052.24273,83.54a31.56837,31.56837,0,0,1-18.105,5.46,32.56255,32.56255,0,0,1-12.66455-2.48413,30.41463,30.41463,0,0,1-14.13379-12.16015,37.5019,37.5019,0,0,1-4.90241-13.07088,1.50513,1.50513,0,0,0-1.47271-1.247H988.79186a1.50008,1.50008,0,0,0-1.4911,1.7,55.99293,55.99293,0,0,0,2.95857,11.68871,46.02614,46.02614,0,0,0,43.87842,30.57324,47.57614,47.57614,0,0,0,18.4751-3.655,45.45882,45.45882,0,0,0,21.064-18.07275,53.128,53.128,0,0,0,7.30154-20.53264,1.501,1.501,0,0,0-1.49167-1.7015Z"/><path d="M1000.93423,45.03785a1.50719,1.50719,0,0,0,1.47618-1.25082,40.27929,40.27929,0,0,1,1.89238-6.94351,32.02551,32.02551,0,0,1,11.72949-15.38379,31.5688,31.5688,0,0,1,18.10547-5.46,32.56629,32.56629,0,0,1,12.66406,2.48388,30.41742,30.41742,0,0,1,14.13379,12.16016,37.538,37.538,0,0,1,4.91682,13.14464,1.505,1.505,0,0,0,1.473,1.2494h12.16809a1.50033,1.50033,0,0,0,1.49151-1.69826,56.01231,56.01231,0,0,0-2.96935-11.76658A46.02547,46.02547,0,0,0,1034.13775,1a47.57245,47.57245,0,0,0-18.47559,3.655,45.45688,45.45688,0,0,0-21.064,18.07251,53.15253,53.15253,0,0,0-7.31233,20.61058,1.50117,1.50117,0,0,0,1.492,1.69972Z"/></svg>