<?xml version="1.0" encoding="UTF-8"?>
<svg width="380px" height="150px" viewBox="0 0 380 150" version="1.1" xmlns="http://www.w3.org/2000/svg" xmlns:xlink="http://www.w3.org/1999/xlink" style="background: #FFFFFF;">
    <!-- Generator: Sketch 48.2 (47327) - http://www.bohemiancoding.com/sketch -->
    <title>Black logo</title>
    <desc>Created with Sketch.</desc>
    <defs></defs>
    <g id="Page-1" stroke="none" stroke-width="1" fill="none" fill-rule="evenodd">
        <g id="Black-logo" fill="#000000">
            <g id="BLACK-LOGO" transform="translate(62.000000, 51.000000)">
                <path d="M78.8307021,34.432 C77.1484043,34.432 75.5862713,34.1588999 74.1443021,33.6126993 C72.7023329,33.0664987 71.4515336,32.2963565 70.3919049,31.3022713 C69.3322762,30.3081861 68.5020516,29.1174693 67.9012308,27.7301203 C67.3004099,26.3427713 67,24.8079481 67,23.1256503 C67,21.4433526 67.3004104,19.9085289 67.9012308,18.5211804 C68.5020516,17.1338319 69.3322762,15.9431156 70.3919049,14.9490294 C71.4515336,13.9549452 72.7023329,13.1848025 74.1443021,12.6386014 C75.5862713,12.0924003 77.1484043,11.8193007 78.8307021,11.8193007 C80.1415832,11.8193007 81.3104519,11.9886235 82.3373091,12.3272671 C83.3641653,12.6659108 84.2653961,13.1137958 85.0410014,13.6709203 C85.8166067,14.2280448 86.47751,14.8507133 87.0237091,15.5389259 C87.5699102,16.2271385 88.0177953,16.9317371 88.3673622,17.6527217 L83.5171021,19.9795357 C83.3423186,19.542575 83.0965284,19.1329246 82.7797315,18.7505846 C82.4629355,18.3682446 82.0969816,18.0296 81.6818685,17.7346517 C81.2667565,17.4397035 80.8188725,17.2102993 80.3382154,17.0464392 C79.8575593,16.882579 79.3550545,16.800649 78.8307021,16.800649 C77.934933,16.800649 77.1156323,16.9590464 76.3728,17.2758434 C75.6299677,17.5926393 74.9854515,18.0350617 74.4392503,18.6031105 C73.8930497,19.1711593 73.4724755,19.8429859 73.1775273,20.6185902 C72.882579,21.3941945 72.7351049,22.2298813 72.7351049,23.1256503 C72.7351049,24.0214194 72.882579,24.8516445 73.1775273,25.6163245 C73.4724755,26.381005 73.8930497,27.0473694 74.4392503,27.6154182 C74.9854505,28.1834665 75.6299667,28.631351 76.3728,28.9590713 C77.1156323,29.2867916 77.934933,29.4506517 78.8307021,29.4506517 C79.3550545,29.4506517 79.8575593,29.3687217 80.3382154,29.2048615 C80.8188715,29.0410014 81.2667555,28.8115972 81.6818685,28.516649 C82.0969806,28.2217007 82.4629345,27.8830566 82.7797315,27.5007161 C83.0965284,27.1183756 83.3423186,26.7087252 83.5171021,26.271765 L88.3673622,28.565807 C88.0177933,29.2649434 87.5699082,29.9640799 87.0237091,30.6632168 C86.477508,31.3623537 85.8166047,31.9904839 85.0410014,32.5476084 C84.2653961,33.1047329 83.3641653,33.5580791 82.3373091,33.9076476 C81.3104519,34.257216 80.1415832,34.432 78.8307021,34.432 Z M90.6614042,34.0387357 L90.6614042,18.2098462 L95.7082965,18.2098462 L95.7082965,20.1433958 C95.9704727,19.8156755 96.2872692,19.5098029 96.6586853,19.225779 C97.0301015,18.9417551 97.4342896,18.6959649 97.8712503,18.4884084 C98.3082111,18.2808519 98.7670194,18.1115301 99.2476755,17.980442 C99.7283316,17.8493538 100.198064,17.7838098 100.656873,17.7838098 L100.656873,22.6340699 C100.394697,22.5466782 99.9795845,22.5029818 99.4115357,22.5029818 C99.0838154,22.5029818 98.7397091,22.5357538 98.3792168,22.6012979 C98.0187245,22.666842 97.6636938,22.765158 97.3141259,22.8962462 C96.9645574,23.0273343 96.647761,23.1802701 96.3637371,23.3550545 C96.0797127,23.529839 95.8612323,23.7264712 95.7082965,23.944951 L95.7082965,34.0387357 L90.6614042,34.0387357 Z M110.554025,34.432 C109.330536,34.432 108.194439,34.24083 107.145734,33.8584895 C106.097029,33.476149 105.184874,32.9244867 104.40927,32.2035021 C103.633666,31.4825175 103.027383,30.6085971 102.590422,29.5817399 C102.153462,28.5548832 101.934982,27.3969383 101.934982,26.1079049 C101.934982,24.9718083 102.142538,23.895793 102.55765,22.8798601 C102.972763,21.8639273 103.546273,20.9845442 104.278182,20.2417119 C105.010091,19.4988796 105.889473,18.9089831 106.91633,18.4720224 C107.943187,18.0350617 109.079284,17.8165818 110.324621,17.8165818 C111.504414,17.8165818 112.585891,18.0241383 113.569052,18.4392503 C114.552213,18.8543624 115.404285,19.4442589 116.12527,20.2089399 C116.846255,20.9736208 117.408841,21.902162 117.813029,22.9945622 C118.217217,24.0869635 118.419312,25.2995285 118.419312,26.6322573 L118.419312,27.7792783 L107.145734,27.7792783 C107.320518,28.4784148 107.735631,29.0846973 108.391071,29.5981259 C109.046512,30.111554 109.953204,30.3682685 111.11115,30.3682685 C111.395174,30.3682685 111.711969,30.3409582 112.061538,30.2863385 C112.411106,30.2317187 112.766137,30.1443265 113.126629,30.0241622 C113.487122,29.9039985 113.825766,29.761986 114.142562,29.5981259 C114.459358,29.4342657 114.73792,29.2430957 114.978249,29.0246154 L117.173975,32.3345902 C116.387446,33.0337266 115.393361,33.5580791 114.19172,33.9076476 C112.99008,34.257216 111.777515,34.432 110.554025,34.432 Z M113.601824,24.3382154 C113.558127,24.0541915 113.476197,23.7701676 113.356034,23.4861427 C113.23587,23.2021187 113.044699,22.9399425 112.782523,22.699614 C112.520347,22.4592854 112.192627,22.2626533 111.799362,22.1097175 C111.406098,21.9567817 110.914517,21.8803133 110.324621,21.8803133 C109.778421,21.8803133 109.308689,21.9567817 108.915424,22.1097175 C108.522159,22.2626533 108.199901,22.4538238 107.948649,22.683228 C107.697397,22.9126322 107.500764,23.1748084 107.358752,23.4697566 C107.21674,23.7647049 107.123887,24.0541915 107.08019,24.3382154 L113.601824,24.3382154 Z M131.560895,34.0387357 L131.560895,32.2035021 C130.905455,32.9681831 130.18447,33.5307692 129.397941,33.8912615 C128.611413,34.2517538 127.770264,34.432 126.874495,34.432 C125.891334,34.432 124.97918,34.2517538 124.138031,33.8912615 C123.296882,33.5307692 122.559511,32.9954929 121.925919,32.2854322 C121.292326,31.5753719 120.795284,30.7069132 120.434792,29.6800559 C120.074299,28.6531992 119.894053,27.4624824 119.894053,26.1079049 C119.894053,24.8188715 120.074299,23.6609261 120.434792,22.6340699 C120.795284,21.6072127 121.286864,20.738754 121.909533,20.0286937 C122.532201,19.3186334 123.269572,18.7724333 124.121645,18.3900923 C124.973717,18.0077523 125.891334,17.8165818 126.874495,17.8165818 C127.748416,17.8165818 128.589564,17.996828 129.397941,18.3573203 C130.206318,18.7178126 130.927302,19.2913231 131.560895,20.0778517 L131.560895,12.179793 L136.575015,12.179793 L136.575015,34.0387357 L131.560895,34.0387357 Z M128.513097,29.9750042 C129.059297,29.9750042 129.621883,29.8439161 130.200856,29.5817399 C130.779828,29.3195636 131.233175,28.9699952 131.560895,28.533035 L131.560895,23.6827748 C131.233175,23.2458141 130.779828,22.9017078 130.200856,22.6504559 C129.621884,22.3992041 129.059298,22.2735776 128.513097,22.2735776 C127.508088,22.2735776 126.677863,22.6176839 126.022422,23.3058965 C125.366982,23.9941091 125.039262,24.9281119 125.039262,26.1079049 C125.039262,27.2876979 125.366982,28.2271629 126.022422,28.9262993 C126.677863,29.6254357 127.508088,29.9750042 128.513097,29.9750042 Z M142.801701,16.800649 C141.993324,16.800649 141.310573,16.516624 140.753449,15.9485762 C140.196324,15.3805284 139.917762,14.6923158 139.917762,13.8839385 C139.917762,13.0755611 140.196324,12.3928112 140.753449,11.8356867 C141.310573,11.2785622 141.993324,11 142.801701,11 C143.610078,11 144.29829,11.2785622 144.866338,11.8356867 C145.434387,12.3928112 145.718411,13.0755611 145.718411,13.8839385 C145.718411,14.6923158 145.434387,15.3805284 144.866338,15.9485762 C144.29829,16.516624 143.610078,16.800649 142.801701,16.800649 Z M140.278255,34.0387357 L140.278255,18.2098462 L145.325147,18.2098462 L145.325147,34.0387357 L140.278255,34.0387357 Z M154.992895,34.432 C153.376142,34.432 152.147191,34.0387357 151.306042,33.252207 C150.464894,32.4656783 150.044319,31.3077335 150.044319,29.778372 L150.044319,22.5685259 L147.422557,22.5685259 L147.422557,18.2098462 L150.044319,18.2098462 L150.044319,13.8839385 L155.091211,13.8839385 L155.091211,18.2098462 L158.30287,18.2098462 L158.30287,22.5685259 L155.091211,22.5685259 L155.091211,28.3691748 C155.091211,28.8279832 155.211375,29.2103237 155.451703,29.5161958 C155.692032,29.8220679 156.030677,29.9750042 156.467636,29.9750042 C156.75166,29.9750042 157.013836,29.9367705 157.254165,29.8603021 C157.494494,29.7838342 157.658354,29.6909803 157.745745,29.5817399 L158.728906,33.3832951 C158.423034,33.6891672 157.958764,33.9404196 157.336095,34.1370517 C156.713427,34.3336839 155.93236,34.432 154.992895,34.432 Z M180.030724,34.432 C178.348427,34.432 176.786294,34.1588999 175.344324,33.6126993 C173.902355,33.0664987 172.651556,32.2963565 171.591927,31.3022713 C170.532299,30.3081861 169.702074,29.1174693 169.101253,27.7301203 C168.500432,26.3427713 168.200022,24.8079481 168.200022,23.1256503 C168.200022,21.4433526 168.500433,19.9085289 169.101253,18.5211804 C169.702074,17.1338319 170.532299,15.9431156 171.591927,14.9490294 C172.651556,13.9549452 173.902355,13.1848025 175.344324,12.6386014 C176.786294,12.0924003 178.348427,11.8193007 180.030724,11.8193007 C181.341606,11.8193007 182.510474,11.9886235 183.537331,12.3272671 C184.564188,12.6659108 185.465418,13.1137958 186.241024,13.6709203 C187.016629,14.2280448 187.677532,14.8507133 188.223731,15.5389259 C188.769933,16.2271385 189.217818,16.9317371 189.567385,17.6527217 L184.717124,19.9795357 C184.542341,19.542575 184.296551,19.1329246 183.979754,18.7505846 C183.662958,18.3682446 183.297004,18.0296 182.881891,17.7346517 C182.466779,17.4397035 182.018895,17.2102993 181.538238,17.0464392 C181.057582,16.882579 180.555077,16.800649 180.030724,16.800649 C179.134955,16.800649 178.315655,16.9590464 177.572822,17.2758434 C176.82999,17.5926393 176.185474,18.0350617 175.639273,18.6031105 C175.093072,19.1711593 174.672498,19.8429859 174.37755,20.6185902 C174.082601,21.3941945 173.935127,22.2298813 173.935127,23.1256503 C173.935127,24.0214194 174.082601,24.8516445 174.37755,25.6163245 C174.672498,26.381005 175.093072,27.0473694 175.639273,27.6154182 C176.185473,28.1834665 176.829989,28.631351 177.572822,28.9590713 C178.315655,29.2867916 179.134955,29.4506517 180.030724,29.4506517 C180.555077,29.4506517 181.057582,29.3687217 181.538238,29.2048615 C182.018894,29.0410014 182.466778,28.8115972 182.881891,28.516649 C183.297003,28.2217007 183.662957,27.8830566 183.979754,27.5007161 C184.296551,27.1183756 184.542341,26.7087252 184.717124,26.271765 L189.567385,28.565807 C189.217816,29.2649434 188.769931,29.9640799 188.223731,30.6632168 C187.67753,31.3623537 187.016627,31.9904839 186.241024,32.5476084 C185.465418,33.1047329 184.564188,33.5580791 183.537331,33.9076476 C182.510474,34.257216 181.341606,34.432 180.030724,34.432 Z M199.431765,34.432 C198.077188,34.432 196.870085,34.208058 195.810456,33.7601734 C194.750827,33.3122889 193.855059,32.7060064 193.12315,31.9413259 C192.391241,31.1766449 191.828655,30.2918001 191.43539,29.2867916 C191.042126,28.2817826 190.845494,27.2221538 190.845494,26.1079049 C190.845494,24.9936559 191.042126,23.9340267 191.43539,22.9290182 C191.828655,21.9240097 192.391241,21.0446266 193.12315,20.2908699 C193.855059,19.5371133 194.750827,18.9362924 195.810456,18.4884084 C196.870085,18.0405243 198.077188,17.8165818 199.431765,17.8165818 C200.786343,17.8165818 201.998908,18.0405243 203.06946,18.4884084 C204.140013,18.9362924 205.046705,19.5371133 205.789538,20.2908699 C206.532371,21.0446266 207.10042,21.9240097 207.493684,22.9290182 C207.886948,23.9340267 208.08358,24.9936559 208.08358,26.1079049 C208.08358,27.2221538 207.886948,28.2817826 207.493684,29.2867916 C207.10042,30.2918001 206.532371,31.1766449 205.789538,31.9413259 C205.046706,32.7060069 204.140014,33.3122894 203.06946,33.7601734 C201.998908,34.208058 200.786343,34.432 199.431765,34.432 Z M199.431765,29.9750042 C200.546014,29.9750042 201.403548,29.5981259 202.004369,28.8443692 C202.60519,28.0906126 202.9056,27.178458 202.9056,26.1079049 C202.9056,25.0592 202.60519,24.1579692 202.004369,23.4042126 C201.403548,22.6504559 200.546014,22.2735776 199.431765,22.2735776 C198.339364,22.2735776 197.498215,22.6504559 196.908319,23.4042126 C196.318422,24.1579692 196.023474,25.0592 196.023474,26.1079049 C196.023474,27.178458 196.318422,28.0906126 196.908319,28.8443692 C197.498215,29.5981259 198.339364,29.9750042 199.431765,29.9750042 Z M213.261561,16.800649 C212.453184,16.800649 211.770434,16.516624 211.213309,15.9485762 C210.656185,15.3805284 210.377622,14.6923158 210.377622,13.8839385 C210.377622,13.0755611 210.656185,12.3928112 211.213309,11.8356867 C211.770434,11.2785622 212.453184,11 213.261561,11 C214.069938,11 214.75815,11.2785622 215.326199,11.8356867 C215.894247,12.3928112 216.178271,13.0755611 216.178271,13.8839385 C216.178271,14.6923158 215.894247,15.3805284 215.326199,15.9485762 C214.75815,16.516624 214.069938,16.800649 213.261561,16.800649 Z M210.738115,34.0387357 L210.738115,18.2098462 L215.785007,18.2098462 L215.785007,34.0387357 L210.738115,34.0387357 Z M230.171927,34.0387357 L230.171927,24.8953399 C230.171927,23.912179 229.937061,23.2294281 229.467329,22.8470881 C228.997596,22.4647481 228.369466,22.2735776 227.582937,22.2735776 C226.818256,22.2735776 226.190126,22.4374378 225.698545,22.765158 C225.206965,23.0928783 224.808239,23.4424463 224.502366,23.8138629 L224.502366,34.0387357 L219.455474,34.0387357 L219.455474,18.2098462 L224.502366,18.2098462 L224.502366,20.1433958 C224.983023,19.575347 225.682159,19.0455329 226.599776,18.5539524 C227.517393,18.062372 228.65349,17.8165818 230.008067,17.8165818 C231.799604,17.8165818 233.115947,18.2863146 233.957097,19.225779 C234.798246,20.1652435 235.21882,21.3668842 235.21882,22.8307021 L235.21882,34.0387357 L230.171927,34.0387357 Z" id="Credit-Coin"></path>
                <path d="M40.193468,31.8635909 L46.093426,33.3766555 C42.4390881,41.9688996 33.917521,48 23.9984586,48 C10.7532997,48 0,37.2460096 0,24 C0,10.7539904 10.7532997,0 23.9984586,0 C33.8340627,0 42.2955893,5.93003671 46.0001522,14.4070066 L40.1909827,16.1313072 C37.2689404,10.135443 31.113606,6 24,6 C14.0655219,6 6,14.065523 6,24 C6,33.934477 14.0655219,42 24,42 C31.1156235,42 37.2724317,37.862211 40.193468,31.8635909 Z" id="Combined-Shape"></path>
                <path d="M28.2233698,21 L52,21 L52,27 L28.4390959,27 C27.5157518,28.3860207 25.9387159,29.3000002 24.1499374,29.3000002 C21.3075941,29.3000002 19,26.992316 19,24.1500001 C19,21.3076842 21.3075941,19 24.1499374,19 C25.8062386,19 27.2809991,19.7836136 28.2233698,21 Z" id="Combined-Shape"></path>
            </g>
        </g>
    </g>
</svg>