<svg xmlns="http://www.w3.org/2000/svg" viewBox="0 0 24 24"><path class="primary" d="M18.99 11.35c.01-.08.01-.16.01-.24V9.89C19 6.64 16.36 4 13.11 4H7.89C4.64 4 2 6.64 2 9.89V16c0 .55.45 1 1 1h5.07c.37 2.27 2.34 4 4.71 4H21c.55 0 1-.45 1-1v-4.22c0-2.01-1.25-3.74-3.01-4.43zm-11.26-.61c-.02.08-.04.16-.08.24-.03.07-.07.15-.11.21-.05.07-.1.14-.16.19-.05.06-.12.11-.19.16-.07.04-.14.08-.21.11-.08.04-.16.06-.24.08-.08.01-.16.02-.24.02s-.16-.01-.24-.02c-.08-.02-.16-.04-.24-.08a1.39 1.39 0 01-.21-.11c-.07-.05-.14-.1-.19-.16-.06-.05-.11-.12-.16-.19a1.39 1.39 0 01-.11-.21c-.04-.08-.06-.16-.08-.24-.01-.08-.02-.16-.02-.24 0-.33.13-.65.37-.88.45-.47 1.3-.47 1.76 0 .06.05.11.12.16.19.04.06.08.14.11.21.04.08.06.16.08.24.01.08.02.16.02.24 0 .08-.01.16-.02.24zm5.89-1.12c.46-.47 1.31-.47 1.76 0 .24.23.37.55.37.88 0 .08-.01.16-.02.24-.02.08-.04.16-.08.24 0 .01-.01.01-.01.02-.03.06-.06.14-.1.19-.05.07-.1.14-.16.19-.23.24-.55.37-.88.37s-.65-.13-.88-.37c-.06-.05-.11-.12-.16-.19-.04-.05-.07-.13-.1-.19 0-.01-.01-.01-.01-.02-.04-.08-.06-.16-.08-.24-.01-.08-.02-.16-.02-.24 0-.33.13-.65.37-.88zm-4 0c.46-.47 1.3-.47 1.76 0 .24.23.37.55.37.88 0 .08-.01.16-.02.24-.02.08-.04.16-.08.24-.03.06-.06.13-.1.19 0 .01-.01.01-.01.02-.05.07-.1.14-.16.19-.23.24-.55.37-.88.37-.08 0-.16-.01-.24-.02-.08-.02-.16-.04-.24-.08a1.39 1.39 0 01-.21-.11c-.07-.05-.14-.1-.19-.16-.06-.05-.11-.12-.16-.19a1.39 1.39 0 01-.11-.21c-.04-.08-.06-.16-.08-.24-.01-.08-.02-.16-.02-.24 0-.33.13-.65.37-.88zM20 19h-7.22c-1.26 0-2.33-.84-2.67-2h3c2.46 0 4.56-1.51 5.45-3.65.86.47 1.44 1.39 1.44 2.43V19z"/></svg>