<svg width="168" height="156" viewBox="0 0 168 156" fill="none" xmlns="http://www.w3.org/2000/svg">
<path d="M168 36L168 24L156 24L156 36L168 36Z" fill="white"/>
<path d="M156 24L156 12L144 12L144 24L156 24Z" fill="white"/>
<path d="M168 48L168 36L156 36L156 48L168 48Z" fill="white"/>
<path d="M144 72L144 60L132 60L132 72L144 72Z" fill="white"/>
<path d="M156 60L156 48L144 48L144 60L156 60Z" fill="white"/>
<path d="M108 48L108 60L120 60L120 48L108 48Z" fill="white"/>
<path d="M108 12L108 24L120 24L120 12L108 12Z" fill="white"/>
<path d="M96 36L96 48L108 48L108 36L96 36Z" fill="white"/>
<path d="M96 24L96 36L108 36L108 24L96 24Z" fill="white"/>
<path d="M132 5.24537e-07L120 0L120 12L132 12L132 5.24537e-07Z" fill="white"/>
<path d="M144 5.24537e-07L132 0L132 12L144 12L144 5.24537e-07Z" fill="white"/>
<path d="M168 36L168 24L156 24L156 36L168 36Z" fill="white"/>
<path d="M156 24L156 12L144 12L144 24L156 24Z" fill="white"/>
<path d="M168 48L168 36L156 36L156 48L168 48Z" fill="white"/>
<path d="M144 72L144 60L132 60L132 72L144 72Z" fill="white"/>
<path d="M132 72L132 60L120 60L120 72L132 72Z" fill="white"/>
<path d="M156 60L156 48L144 48L144 60L156 60Z" fill="white"/>
<path d="M108 48L108 60L120 60L120 48L108 48Z" fill="white"/>
<path d="M108 12L108 24L120 24L120 12L108 12Z" fill="white"/>
<path d="M96 36L96 48L108 48L108 36L96 36Z" fill="white"/>
<path d="M96 24L96 36L108 36L108 24L96 24Z" fill="white"/>
<path d="M132 5.24537e-07L120 0L120 12L132 12L132 5.24537e-07Z" fill="white"/>
<path d="M144 5.24537e-07L132 0L132 12L144 12L144 5.24537e-07Z" fill="white"/>
<path d="M72 36L72 24L60 24L60 36L72 36Z" fill="white"/>
<path d="M60 24L60 12L48 12L48 24L60 24Z" fill="white"/>
<path d="M72 48L72 36L60 36L60 48L72 48Z" fill="white"/>
<path d="M48 72L48 60L36 60L36 72L48 72Z" fill="white"/>
<path d="M60 60L60 48L48 48L48 60L60 60Z" fill="white"/>
<path d="M12 48L12 60L24 60L24 48L12 48Z" fill="white"/>
<path d="M12 12L12 24L24 24L24 12L12 12Z" fill="white"/>
<path d="M5.24537e-07 36L0 48L12 48L12 36L5.24537e-07 36Z" fill="white"/>
<path d="M5.24537e-07 24L0 36L12 36L12 24L5.24537e-07 24Z" fill="white"/>
<path d="M36 5.24537e-07L24 0L24 12L36 12L36 5.24537e-07Z" fill="white"/>
<path d="M48 5.24537e-07L36 0L36 12L48 12L48 5.24537e-07Z" fill="white"/>
<path d="M72 36L72 24L60 24L60 36L72 36Z" fill="white"/>
<path d="M60 24L60 12L48 12L48 24L60 24Z" fill="white"/>
<path d="M72 48L72 36L60 36L60 48L72 48Z" fill="white"/>
<path d="M48 72L48 60L36 60L36 72L48 72Z" fill="white"/>
<path d="M36 72L36 60L24 60L24 72L36 72Z" fill="white"/>
<path d="M60 60L60 48L48 48L48 60L60 60Z" fill="white"/>
<path d="M12 48L12 60L24 60L24 48L12 48Z" fill="white"/>
<path d="M12 12L12 24L24 24L24 12L12 12Z" fill="white"/>
<path d="M5.24537e-07 36L0 48L12 48L12 36L5.24537e-07 36Z" fill="white"/>
<path d="M5.24537e-07 24L0 36L12 36L12 24L5.24537e-07 24Z" fill="white"/>
<path d="M36 5.24537e-07L24 0L24 12L36 12L36 5.24537e-07Z" fill="white"/>
<path d="M48 5.24537e-07L36 0L36 12L48 12L48 5.24537e-07Z" fill="white"/>
<path d="M120 120L120 108L108 108L108 120L120 120Z" fill="white"/>
<path d="M108 108L108 96L96 96L96 108L108 108Z" fill="white"/>
<path d="M120 132L120 120L108 120L108 132L120 132Z" fill="white"/>
<path d="M96 156L96 144L84 144L84 156L96 156Z" fill="white"/>
<path d="M108 144L108 132L96 132L96 144L108 144Z" fill="white"/>
<path d="M60 132L60 144L72 144L72 132L60 132Z" fill="white"/>
<path d="M60 96L60 108L72 108L72 96L60 96Z" fill="white"/>
<path d="M48 120L48 132L60 132L60 120L48 120Z" fill="white"/>
<path d="M48 108L48 120L60 120L60 108L48 108Z" fill="white"/>
<path d="M84 84L72 84L72 96L84 96L84 84Z" fill="white"/>
<path d="M96 84L84 84L84 96L96 96L96 84Z" fill="white"/>
<path d="M120 120L120 108L108 108L108 120L120 120Z" fill="white"/>
<path d="M108 108L108 96L96 96L96 108L108 108Z" fill="white"/>
<path d="M120 132L120 120L108 120L108 132L120 132Z" fill="white"/>
<path d="M96 156L96 144L84 144L84 156L96 156Z" fill="white"/>
<path d="M84 156L84 144L72 144L72 156L84 156Z" fill="white"/>
<path d="M108 144L108 132L96 132L96 144L108 144Z" fill="white"/>
<path d="M60 132L60 144L72 144L72 132L60 132Z" fill="white"/>
<path d="M60 96L60 108L72 108L72 96L60 96Z" fill="white"/>
<path d="M48 120L48 132L60 132L60 120L48 120Z" fill="white"/>
<path d="M48 108L48 120L60 120L60 108L48 108Z" fill="white"/>
<path d="M84 84L72 84L72 96L84 96L84 84Z" fill="white"/>
<path d="M96 84L84 84L84 96L96 96L96 84Z" fill="white"/>
<path d="M144 84L144 72L132 72L132 84L144 84Z" fill="white"/>
<path d="M144 96L144 84L132 84L132 96L144 96Z" fill="white"/>
<path d="M84 12L72 12L72 24L84 24L84 12Z" fill="white"/>
<path d="M96 12L84 12L84 24L96 24L96 12Z" fill="white"/>
<path d="M132 108L132 96L120 96L120 108L132 108Z" fill="white"/>
<path d="M24 84L24 96L36 96L36 84L24 84Z" fill="white"/>
<path d="M24 72L24 84L36 84L36 72L24 72Z" fill="white"/>
<path d="M36 96L36 108L48 108L48 96L36 96Z" fill="white"/>
</svg>
