<svg width="156" height="144" viewBox="0 0 156 144" fill="none" xmlns="http://www.w3.org/2000/svg">
<rect x="72" y="24" width="12" height="12" fill="white"/>
<rect x="60" y="12" width="12" height="12" fill="white"/>
<rect width="12" height="12" transform="matrix(-1 0 0 1 96 12)" fill="white"/>
<rect x="48" width="12" height="12" fill="white"/>
<rect width="12" height="12" transform="matrix(-1 0 0 1 108 0)" fill="white"/>
<rect x="36" width="12" height="12" fill="white"/>
<rect width="12" height="12" transform="matrix(-1 0 0 1 120 0)" fill="white"/>
<rect x="24" width="12" height="12" fill="white"/>
<rect width="12" height="12" transform="matrix(-1 0 0 1 132 0)" fill="white"/>
<rect x="12" y="12" width="12" height="12" fill="white"/>
<rect width="12" height="12" transform="matrix(-1 0 0 1 144 12)" fill="white"/>
<rect y="24" width="12" height="12" fill="white"/>
<rect width="12" height="12" transform="matrix(-1 0 0 1 156 24)" fill="white"/>
<rect y="36" width="12" height="12" fill="white"/>
<rect width="12" height="12" transform="matrix(-1 0 0 1 156 36)" fill="white"/>
<rect y="48" width="12" height="12" fill="white"/>
<rect width="12" height="12" transform="matrix(-1 0 0 1 156 48)" fill="white"/>
<rect y="60" width="12" height="12" fill="white"/>
<rect width="12" height="12" transform="matrix(-1 0 0 1 156 60)" fill="white"/>
<rect x="12" y="72" width="12" height="12" fill="white"/>
<rect width="12" height="12" transform="matrix(-1 0 0 1 144 72)" fill="white"/>
<rect x="24" y="84" width="12" height="12" fill="white"/>
<rect width="12" height="12" transform="matrix(-1 0 0 1 132 84)" fill="white"/>
<rect x="36" y="96" width="12" height="12" fill="white"/>
<rect width="12" height="12" transform="matrix(-1 0 0 1 120 96)" fill="white"/>
<rect x="48" y="108" width="12" height="12" fill="white"/>
<rect width="12" height="12" transform="matrix(-1 0 0 1 108 108)" fill="white"/>
<rect x="60" y="120" width="12" height="12" fill="white"/>
<rect width="12" height="12" transform="matrix(-1 0 0 1 96 120)" fill="white"/>
<rect width="12" height="12" transform="matrix(-1 0 0 1 84 132)" fill="white"/>
</svg>
