<svg width="144" height="173" viewBox="0 0 144 173" fill="none" xmlns="http://www.w3.org/2000/svg">
<path d="M0 24L0 36L60 36V24L0 24Z" fill="white"/>
<path d="M144 96L144 84L84 84L84 96L144 96Z" fill="white"/>
<path d="M0 137L0 149H60V137H0Z" fill="white"/>
<path d="M120 24V36H144V24H120Z" fill="white"/>
<path d="M24 96L24 84L0 84L-1.04907e-06 96L24 96Z" fill="white"/>
<path d="M120 137V149H144V137H120Z" fill="white"/>
<path d="M120 36L120 24L108 24L108 36L120 36Z" fill="white"/>
<path d="M108 24L108 12L96 12L96 24L108 24Z" fill="white"/>
<path d="M72 12L72 24L84 24L84 12L72 12Z" fill="white"/>
<path d="M60 24L60 36L72 36L72 24L60 24Z" fill="white"/>
<path d="M96 5.24537e-07L84 0L84 12L96 12L96 5.24537e-07Z" fill="white"/>
<path d="M120 39L120 21L108 21L108 39L120 39Z" fill="white"/>
<path d="M108 24L108 12L96 12L96 24L108 24Z" fill="white"/>
<path d="M96 60L96 48L84 48L84 60L96 60Z" fill="white"/>
<path d="M108 48L108 36L96 36L96 48L108 48Z" fill="white"/>
<path d="M72 36L72 48L84 48L84 36L72 36Z" fill="white"/>
<path d="M72 12L72 24L84 24L84 12L72 12Z" fill="white"/>
<path d="M60 21L60 39L72 39L72 21L60 21Z" fill="white"/>
<path d="M96 5.24537e-07L84 0L84 12L96 12L96 5.24537e-07Z" fill="white"/>
<path d="M24 84L24 96L36 96L36 84L24 84Z" fill="white"/>
<path d="M36 96L36 108L48 108L48 96L36 96Z" fill="white"/>
<path d="M72 108L72 96L60 96L60 108L72 108Z" fill="white"/>
<path d="M84 96L84 84L72 84L72 96L84 96Z" fill="white"/>
<path d="M48 120L60 120L60 108L48 108L48 120Z" fill="white"/>
<path d="M24 81L24 99L36 99L36 81L24 81Z" fill="white"/>
<path d="M36 96L36 108L48 108L48 96L36 96Z" fill="white"/>
<path d="M48 60L48 72L60 72L60 60L48 60Z" fill="white"/>
<path d="M36 72L36 84L48 84L48 72L36 72Z" fill="white"/>
<path d="M72 84L72 72L60 72L60 84L72 84Z" fill="white"/>
<path d="M72 108L72 96L60 96L60 108L72 108Z" fill="white"/>
<path d="M84 99L84 81L72 81L72 99L84 99Z" fill="white"/>
<path d="M48 120L60 120L60 108L48 108L48 120Z" fill="white"/>
<path d="M120 149L120 137L108 137L108 149L120 149Z" fill="white"/>
<path d="M108 137L108 125L96 125L96 137L108 137Z" fill="white"/>
<path d="M72 125L72 137L84 137L84 125L72 125Z" fill="white"/>
<path d="M60 137L60 149L72 149L72 137L60 137Z" fill="white"/>
<path d="M96 113L84 113L84 125L96 125L96 113Z" fill="white"/>
<path d="M120 152L120 134L108 134L108 152L120 152Z" fill="white"/>
<path d="M108 137L108 125L96 125L96 137L108 137Z" fill="white"/>
<path d="M96 173L96 161L84 161L84 173L96 173Z" fill="white"/>
<path d="M108 161L108 149L96 149L96 161L108 161Z" fill="white"/>
<path d="M72 149L72 161L84 161L84 149L72 149Z" fill="white"/>
<path d="M72 125L72 137L84 137L84 125L72 125Z" fill="white"/>
<path d="M60 134L60 152L72 152L72 134L60 134Z" fill="white"/>
<path d="M96 113L84 113L84 125L96 125L96 113Z" fill="white"/>
</svg>
