<svg width="180" height="172" viewBox="0 0 180 172" fill="none" xmlns="http://www.w3.org/2000/svg">
<path d="M0 124L0 136H12V124H0Z" fill="white"/>
<path d="M12 160V172H24V160H12Z" fill="white"/>
<path d="M24 160V172H36V160H24Z" fill="white"/>
<path d="M36 160V172H48V160H36Z" fill="white"/>
<path d="M48 160V172H60V160H48Z" fill="white"/>
<path d="M60 160V172H72V160H60Z" fill="white"/>
<path d="M72 160V172H84V160H72Z" fill="white"/>
<path d="M84 160V172H96V160H84Z" fill="white"/>
<path d="M96 160V172H108V160H96Z" fill="white"/>
<path d="M108 160V172H120V160H108Z" fill="white"/>
<path d="M120 160V172H132V160H120Z" fill="white"/>
<path d="M132 160V172H144V160H132Z" fill="white"/>
<path d="M144 160V172H156V160H144Z" fill="white"/>
<path d="M156 160V172H168V160H156Z" fill="white"/>
<path d="M168 148V160H180V148H168Z" fill="white"/>
<path d="M168 136V148H180V136H168Z" fill="white"/>
<path d="M168 124V136H180V124H168Z" fill="white"/>
<path d="M168 112V124H180V112H168Z" fill="white"/>
<path d="M168 100V112H180V100H168Z" fill="white"/>
<path d="M0 112L0 124H12V112H0Z" fill="white"/>
<path d="M0 100L0 112H12V100H0Z" fill="white"/>
<path d="M0 148L0 160H12V148H0Z" fill="white"/>
<path d="M0 136L0 148H12V136H0Z" fill="white"/>
<path d="M0 124L0 136H12V124H0Z" fill="white"/>
<path d="M12 160V172H24V160H12Z" fill="white"/>
<path d="M24 160V172H36V160H24Z" fill="white"/>
<path d="M36 160V172H48V160H36Z" fill="white"/>
<path d="M48 160V172H60V160H48Z" fill="white"/>
<path d="M60 160V172H72V160H60Z" fill="white"/>
<path d="M72 160V172H84V160H72Z" fill="white"/>
<path d="M84 160V172H96V160H84Z" fill="white"/>
<path d="M96 160V172H108V160H96Z" fill="white"/>
<path d="M108 160V172H120V160H108Z" fill="white"/>
<path d="M120 160V172H132V160H120Z" fill="white"/>
<path d="M132 160V172H144V160H132Z" fill="white"/>
<path d="M144 160V172H156V160H144Z" fill="white"/>
<path d="M156 160V172H168V160H156Z" fill="white"/>
<path d="M168 148V160H180V148H168Z" fill="white"/>
<path d="M168 136V148H180V136H168Z" fill="white"/>
<path d="M168 124V136H180V124H168Z" fill="white"/>
<path d="M168 112V124H180V112H168Z" fill="white"/>
<path d="M168 100V112H180V100H168Z" fill="white"/>
<path d="M168 82V100H180V82H168Z" fill="white"/>
<path d="M24 70L12 70L12 82L24 82L24 70Z" fill="white"/>
<path d="M36 58L24 58L24 70L36 70L36 58Z" fill="white"/>
<path d="M78 12L66 12L66 24L78 24L78 12Z" fill="white"/>
<path d="M90 5.24537e-07L78 0L78 12L90 12L90 5.24537e-07Z" fill="white"/>
<path d="M102 5.24537e-07L90 0L90 12L102 12L102 5.24537e-07Z" fill="white"/>
<path d="M114 12L102 12L102 24L114 24L114 12Z" fill="white"/>
<path d="M156 70L168 70L168 82L156 82L156 70Z" fill="white"/>
<path d="M144 58L156 58L156 70L144 70L144 58Z" fill="white"/>
<path d="M36 82L24 82L24 94L36 94L36 82Z" fill="white"/>
<path d="M144 82L156 82L156 94L144 94L144 82Z" fill="white"/>
<path d="M48 36L36 36L36 100L48 100L48 36Z" fill="white"/>
<path d="M132 36L144 36L144 100L132 100L132 36Z" fill="white"/>
<path d="M60 64L60 54L120 54L120 64L60 64Z" fill="white"/>
<path d="M60 86L60 76L120 76L120 86L60 86Z" fill="white"/>
<path d="M84 124L72 124L72 136L84 136L84 124Z" fill="white"/>
<path d="M60 100L48 100L48 112L60 112L60 100Z" fill="white"/>
<path d="M72 112L60 112L60 124L72 124L72 112Z" fill="white"/>
<path d="M96 124L108 124L108 136L96 136L96 124Z" fill="white"/>
<path d="M108 112L120 112L120 124L108 124L108 112Z" fill="white"/>
<path d="M120 100L132 100L132 112L120 112L120 100Z" fill="white"/>
<path d="M96 124L84 124L84 136L96 136L96 124Z" fill="white"/>
<path d="M132 24L48 24L48 36L132 36L132 24Z" fill="white"/>
<path d="M0 112L0 124H12V112H0Z" fill="white"/>
<path d="M0 100L0 112H12V100H0Z" fill="white"/>
<path d="M0 82L0 100H12L12 82H0Z" fill="white"/>
<path d="M0 148L0 160H12V148H0Z" fill="white"/>
<path d="M0 136L0 148H12V136H0Z" fill="white"/>
</svg>
