<svg width="168" height="172" viewBox="0 0 168 172" fill="none" xmlns="http://www.w3.org/2000/svg">
<path d="M156 136H12V148H156V136Z" fill="white"/>
<path d="M120 160H48V172H120V160Z" fill="white"/>
<path d="M84 0H72V12H84V0Z" fill="white"/>
<path d="M96 0H84V12H96V0Z" fill="white"/>
<path d="M72 12H60V24H72V12Z" fill="white"/>
<path d="M60 24H48V36H60V24Z" fill="white"/>
<path d="M48 36H36V48H48V36Z" fill="white"/>
<path d="M36 48H24V60H36V48Z" fill="white"/>
<path d="M12 124H0V136H12V124Z" fill="white"/>
<path d="M168 124H156V136H168V124Z" fill="white"/>
<path d="M24 60H12V124H24V60Z" fill="white"/>
<path d="M108 12H96V24H108V12Z" fill="white"/>
<path d="M120 24H108V36H120V24Z" fill="white"/>
<path d="M132 36H120V48H132V36Z" fill="white"/>
<path d="M144 48H132V60H144V48Z" fill="white"/>
<path d="M156 60H144V124H156V60Z" fill="white"/>
</svg>
