<svg width="168" height="96" viewBox="0 0 168 96" fill="none" xmlns="http://www.w3.org/2000/svg">
<rect y="84" width="12" height="12" fill="white"/>
<rect x="12" y="72" width="12" height="12" fill="white"/>
<rect x="24" y="60" width="12" height="12" fill="white"/>
<rect x="36" y="48" width="12" height="12" fill="white"/>
<rect x="48" y="36" width="12" height="12" fill="white"/>
<rect x="60" y="48" width="12" height="12" fill="white"/>
<rect x="72" y="60" width="12" height="12" fill="white"/>
<rect x="84" y="72" width="12" height="12" fill="white"/>
<rect x="96" y="60" width="12" height="12" fill="white"/>
<rect x="108" y="48" width="12" height="12" fill="white"/>
<rect x="120" y="36" width="12" height="12" fill="white"/>
<rect x="132" y="24" width="12" height="12" fill="white"/>
<rect x="144" y="12" width="12" height="12" fill="white"/>
<rect x="156" width="12" height="12" fill="white"/>
<rect x="156" y="12" width="12" height="12" fill="white"/>
<rect x="156" y="24" width="12" height="12" fill="white"/>
<rect x="144" width="12" height="12" fill="white"/>
<rect x="132" width="12" height="12" fill="white"/>
</svg>
