<svg width="180" height="156" viewBox="0 0 180 156" fill="none" xmlns="http://www.w3.org/2000/svg">
<path d="M114 114H102V126H114V114Z" fill="white"/>
<path d="M135 114H123V126H135V114Z" fill="white"/>
<path d="M156 114H144V126H156V114Z" fill="white"/>
<path d="M114 102H102V114H114V102Z" fill="white"/>
<path d="M135 90H123V102H135V90Z" fill="white"/>
<path d="M156 78H144V90H156V78Z" fill="white"/>
<path d="M0 96L0 108H12V96H0Z" fill="white"/>
<path d="M12 144V156H24V144H12Z" fill="white"/>
<path d="M24 144V156H36V144H24Z" fill="white"/>
<path d="M36 144V156H48V144H36Z" fill="white"/>
<path d="M48 144V156H60V144H48Z" fill="white"/>
<path d="M60 144V156H72V144H60Z" fill="white"/>
<path d="M72 144V156H84V144H72Z" fill="white"/>
<path d="M84 144V156H96V144H84Z" fill="white"/>
<path d="M96 144V156H108V144H96Z" fill="white"/>
<path d="M108 144V156H120V144H108Z" fill="white"/>
<path d="M120 144V156H132V144H120Z" fill="white"/>
<path d="M132 144V156H144V144H132Z" fill="white"/>
<path d="M144 144V156H156V144H144Z" fill="white"/>
<path d="M156 144V156H168V144H156Z" fill="white"/>
<path d="M168 132V144H180V132H168Z" fill="white"/>
<path d="M168 120V132H180V120H168Z" fill="white"/>
<path d="M168 108V120H180V108H168Z" fill="white"/>
<path d="M168 96V108H180V96H168Z" fill="white"/>
<path d="M168 84V96H180V84H168Z" fill="white"/>
<path d="M168 72V84H180V72H168Z" fill="white"/>
<path d="M168 60V72H180V60H168Z" fill="white"/>
<path d="M168 48V60H180V48H168Z" fill="white"/>
<path d="M168 36V48H180V36H168Z" fill="white"/>
<path d="M0 36L0 48H12V36H0Z" fill="white"/>
<path d="M168 24V36H180V24H168Z" fill="white"/>
<path d="M0 24L0 36H12V24H0Z" fill="white"/>
<path d="M12 0V12H24V0H12Z" fill="white"/>
<path d="M24 0V12H36V0H24Z" fill="white"/>
<path d="M36 0V12H48V0H36Z" fill="white"/>
<path d="M48 0V12H60V0H48Z" fill="white"/>
<path d="M60 0V12H72V0H60Z" fill="white"/>
<path d="M72 0V12H84V0H72Z" fill="white"/>
<path d="M84 0V12H96V0H84Z" fill="white"/>
<path d="M96 0V12H108V0H96Z" fill="white"/>
<path d="M108 0V12H120V0H108Z" fill="white"/>
<path d="M120 0V12H132V0H120Z" fill="white"/>
<path d="M132 0V12H144V0H132Z" fill="white"/>
<path d="M144 0V12H156V0H144Z" fill="white"/>
<path d="M156 0V12H168V0H156Z" fill="white"/>
<path d="M0 84L0 96H12V84H0Z" fill="white"/>
<path d="M0 72L0 84H12V72H0Z" fill="white"/>
<path d="M0 132L0 144H12V132H0Z" fill="white"/>
<path d="M0 60L0 72H12V60H0Z" fill="white"/>
<path d="M0 120L0 132H12V120H0Z" fill="white"/>
<path d="M0 48L0 60H12V48H0Z" fill="white"/>
<path d="M0 108L0 120H12V108H0Z" fill="white"/>
<path d="M156 114H144V126H156V114Z" fill="white"/>
<path d="M135 102H123V114H135V102Z" fill="white"/>
<path d="M156 102H144V114H156V102Z" fill="white"/>
<path d="M135 90H123V102H135V90Z" fill="white"/>
<path d="M135 78H123V90H135V78Z" fill="white"/>
<path d="M156 90H144V102H156V90Z" fill="white"/>
<path d="M156 78H144V90H156V78Z" fill="white"/>
<path d="M156 66H144V78H156V66Z" fill="white"/>
<path d="M0 96L0 108H12V96H0Z" fill="white"/>
<path d="M12 144V156H24V144H12Z" fill="white"/>
<path d="M24 144V156H36V144H24Z" fill="white"/>
<path d="M36 144V156H48V144H36Z" fill="white"/>
<path d="M48 144V156H60V144H48Z" fill="white"/>
<path d="M60 144V156H72V144H60Z" fill="white"/>
<path d="M72 144V156H84V144H72Z" fill="white"/>
<path d="M84 144V156H96V144H84Z" fill="white"/>
<path d="M96 144V156H108V144H96Z" fill="white"/>
<path d="M108 144V156H120V144H108Z" fill="white"/>
<path d="M120 144V156H132V144H120Z" fill="white"/>
<path d="M132 144V156H144V144H132Z" fill="white"/>
<path d="M144 144V156H156V144H144Z" fill="white"/>
<path d="M156 144V156H168V144H156Z" fill="white"/>
<path d="M168 132V144H180V132H168Z" fill="white"/>
<path d="M168 120V132H180V120H168Z" fill="white"/>
<path d="M168 108V120H180V108H168Z" fill="white"/>
<path d="M168 96V108H180V96H168Z" fill="white"/>
<path d="M168 84V96H180V84H168Z" fill="white"/>
<path d="M168 72V84H180V72H168Z" fill="white"/>
<path d="M168 60V72H180V60H168Z" fill="white"/>
<path d="M168 48V60H180V48H168Z" fill="white"/>
<path d="M168 36V48H180V36H168Z" fill="white"/>
<path d="M0 24L0 36H12V24H0Z" fill="white"/>
<path d="M12 24V36H24V24H12Z" fill="white"/>
<path d="M24 24V36H36V24H24Z" fill="white"/>
<path d="M36 24V36H48V24H36Z" fill="white"/>
<path d="M48 24V36H60V24H48Z" fill="white"/>
<path d="M60 24V36H72V24H60Z" fill="white"/>
<path d="M72 24V36H84V24H72Z" fill="white"/>
<path d="M84 24V36H96V24H84Z" fill="white"/>
<path d="M96 24V36H108V24H96Z" fill="white"/>
<path d="M108 24V36H120V24H108Z" fill="white"/>
<path d="M120 24V36H132V24H120Z" fill="white"/>
<path d="M132 24V36H144V24H132Z" fill="white"/>
<path d="M144 24V36H156V24H144Z" fill="white"/>
<path d="M156 24V36H168V24H156Z" fill="white"/>
<path d="M168 12V24H180V12H168Z" fill="white"/>
<path d="M0 12L0 24H12V12H0Z" fill="white"/>
<path d="M0 84L0 96H12V84H0Z" fill="white"/>
<path d="M0 72L0 84H12V72H0Z" fill="white"/>
<path d="M0 132L0 144H12V132H0Z" fill="white"/>
<path d="M0 60L0 72H12V60H0Z" fill="white"/>
<path d="M0 120L0 132H12V120H0Z" fill="white"/>
<path d="M0 48L0 60H12V48H0Z" fill="white"/>
<path d="M0 108L0 120H12V108H0Z" fill="white"/>
<path d="M59 54H47V66H59V54Z" fill="white"/>
<path d="M47 66H35V78H47V66Z" fill="white"/>
<path d="M71 54H59V66H71V54Z" fill="white"/>
<path d="M71 66H59V78H71V66Z" fill="white"/>
<path d="M71 78H59V90H71V78Z" fill="white"/>
<path d="M95 78H83V90H95V78Z" fill="white"/>
<path d="M83 78H71V90H83V78Z" fill="white"/>
<path d="M83 66H71V78H83V66Z" fill="white"/>
<path d="M71 114H83V102H71V114Z" fill="white"/>
<path d="M35 114H47V102H35V114Z" fill="white"/>
<path d="M59 126H71V114H59V126Z" fill="white"/>
<path d="M47 126H59V114H47V126Z" fill="white"/>
<path d="M23 90V102H35V90H23Z" fill="white"/>
<path d="M23 78V90H35V78H23Z" fill="white"/>
<path d="M59 54H47V66H59V54Z" fill="white"/>
<path d="M47 66H35V78H47V66Z" fill="white"/>
<path d="M71 54H59V66H71V54Z" fill="white"/>
<path d="M71 66H59V78H71V66Z" fill="white"/>
<path d="M71 78H59V90H71V78Z" fill="white"/>
<path d="M95 78H83V90H95V78Z" fill="white"/>
<path d="M95 90H83V102H95V90Z" fill="white"/>
<path d="M83 78H71V90H83V78Z" fill="white"/>
<path d="M83 66H71V78H83V66Z" fill="white"/>
<path d="M71 114H83V102H71V114Z" fill="white"/>
<path d="M35 114H47V102H35V114Z" fill="white"/>
<path d="M59 126H71V114H59V126Z" fill="white"/>
<path d="M47 126H59V114H47V126Z" fill="white"/>
<path d="M23 90V102H35V90H23Z" fill="white"/>
<path d="M23 78V90H35V78H23Z" fill="white"/>
</svg>
