<svg width="168" height="144" viewBox="0 0 168 144" fill="none" xmlns="http://www.w3.org/2000/svg">
<rect x="12" width="12" height="12" fill="white"/>
<rect x="12" y="36" width="12" height="12" fill="white"/>
<rect y="12" width="12" height="12" fill="white"/>
<rect y="24" width="12" height="12" fill="white"/>
<rect x="156" y="12" width="12" height="12" fill="white"/>
<rect x="156" y="24" width="12" height="12" fill="white"/>
<rect x="24" width="12" height="12" fill="white"/>
<rect x="24" y="36" width="12" height="12" fill="white"/>
<rect x="36" width="12" height="12" fill="white"/>
<rect x="48" width="12" height="12" fill="white"/>
<rect x="36" y="96" width="12" height="12" fill="white"/>
<rect x="36" y="120" width="12" height="12" fill="white"/>
<rect x="36" y="84" width="12" height="12" fill="white"/>
<rect x="36" y="108" width="12" height="12" fill="white"/>
<rect x="36" y="72" width="12" height="12" fill="white"/>
<rect x="36" y="60" width="12" height="12" fill="white"/>
<rect x="36" y="48" width="12" height="12" fill="white"/>
<rect x="36" y="36" width="12" height="12" fill="white"/>
<rect x="36" y="24" width="12" height="12" fill="white"/>
<rect x="60" y="24" width="12" height="12" fill="white"/>
<rect x="48" y="24" width="12" height="12" fill="white"/>
<rect x="72" y="24" width="12" height="12" fill="white"/>
<rect x="84" y="24" width="12" height="12" fill="white"/>
<rect x="96" y="24" width="12" height="12" fill="white"/>
<rect x="96" y="54" width="12" height="12" fill="white"/>
<rect x="96" y="66" width="12" height="12" fill="white"/>
<rect x="96" y="78" width="12" height="12" fill="white"/>
<rect x="96" y="90" width="12" height="12" fill="white"/>
<rect x="96" y="102" width="12" height="12" fill="white"/>
<rect x="108" y="24" width="12" height="12" fill="white"/>
<rect x="60" y="132" width="12" height="12" fill="white"/>
<rect x="48" y="132" width="12" height="12" fill="white"/>
<rect x="72" y="132" width="12" height="12" fill="white"/>
<rect x="84" y="132" width="12" height="12" fill="white"/>
<rect x="96" y="132" width="12" height="12" fill="white"/>
<rect x="108" y="132" width="12" height="12" fill="white"/>
<rect x="60" width="12" height="12" fill="white"/>
<rect x="72" width="12" height="12" fill="white"/>
<rect x="84" width="12" height="12" fill="white"/>
<rect x="96" width="12" height="12" fill="white"/>
<rect x="108" width="12" height="12" fill="white"/>
<rect x="120" y="96" width="12" height="12" fill="white"/>
<rect x="120" y="120" width="12" height="12" fill="white"/>
<rect x="120" y="84" width="12" height="12" fill="white"/>
<rect x="120" y="108" width="12" height="12" fill="white"/>
<rect x="120" y="72" width="12" height="12" fill="white"/>
<rect x="120" y="60" width="12" height="12" fill="white"/>
<rect x="120" y="48" width="12" height="12" fill="white"/>
<rect x="120" y="36" width="12" height="12" fill="white"/>
<rect x="120" y="24" width="12" height="12" fill="white"/>
<rect x="120" width="12" height="12" fill="white"/>
<rect x="132" width="12" height="12" fill="white"/>
<rect x="132" y="36" width="12" height="12" fill="white"/>
<rect x="144" width="12" height="12" fill="white"/>
<rect x="144" y="36" width="12" height="12" fill="white"/>
</svg>
