<svg width="168" height="168" viewBox="0 0 168 168" fill="none" xmlns="http://www.w3.org/2000/svg">
<path d="M0 78L0 90H12V78H0Z" fill="white"/>
<path d="M168 90L168 78L156 78L156 90L168 90Z" fill="white"/>
<path d="M12 78V90H24V78H12Z" fill="white"/>
<path d="M156 90L156 78L144 78L144 90L156 90Z" fill="white"/>
<path d="M24 66V78H36V66H24Z" fill="white"/>
<path d="M144 102L144 90L132 90L132 102L144 102Z" fill="white"/>
<path d="M36 78V90H48V78H36Z" fill="white"/>
<path d="M132 90L132 78L120 78L120 90L132 90Z" fill="white"/>
<path d="M24 90V102H36V90H24Z" fill="white"/>
<path d="M144 78L144 66L132 66L132 78L144 78Z" fill="white"/>
<path d="M90 5.24537e-07L78 0L78 12L90 12L90 5.24537e-07Z" fill="white"/>
<path d="M78 168L90 168L90 156L78 156L78 168Z" fill="white"/>
<path d="M90 12L78 12L78 24L90 24L90 12Z" fill="white"/>
<path d="M78 156L90 156L90 144L78 144L78 156Z" fill="white"/>
<path d="M102 24L90 24L90 36L102 36L102 24Z" fill="white"/>
<path d="M66 144L78 144L78 132L66 132L66 144Z" fill="white"/>
<path d="M90 36L78 36L78 48L90 48L90 36Z" fill="white"/>
<path d="M78 132L90 132L90 120L78 120L78 132Z" fill="white"/>
<path d="M78 24L66 24L66 36L78 36L78 24Z" fill="white"/>
<path d="M90 144L102 144L102 132L90 132L90 144Z" fill="white"/>
<path d="M120 84L120 72L108 72L108 84L120 84Z" fill="white"/>
<path d="M108 72L108 60L96 60L96 72L108 72Z" fill="white"/>
<path d="M120 96L120 84L108 84L108 96L120 96Z" fill="white"/>
<path d="M96 120L96 108L84 108L84 120L96 120Z" fill="white"/>
<path d="M108 108L108 96L96 96L96 108L108 108Z" fill="white"/>
<path d="M60 96L60 108L72 108L72 96L60 96Z" fill="white"/>
<path d="M60 60L60 72L72 72L72 60L60 60Z" fill="white"/>
<path d="M48 84L48 96L60 96L60 84L48 84Z" fill="white"/>
<path d="M48 72L48 84L60 84L60 72L48 72Z" fill="white"/>
<path d="M84 48L72 48L72 60L84 60L84 48Z" fill="white"/>
<path d="M96 48L84 48L84 60L96 60L96 48Z" fill="white"/>
<path d="M120 84L120 72L108 72L108 84L120 84Z" fill="white"/>
<path d="M108 72L108 60L96 60L96 72L108 72Z" fill="white"/>
<path d="M120 96L120 84L108 84L108 96L120 96Z" fill="white"/>
<path d="M96 120L96 108L84 108L84 120L96 120Z" fill="white"/>
<path d="M84 120L84 108L72 108L72 120L84 120Z" fill="white"/>
<path d="M108 108L108 96L96 96L96 108L108 108Z" fill="white"/>
<path d="M60 96L60 108L72 108L72 96L60 96Z" fill="white"/>
<path d="M60 60L60 72L72 72L72 60L60 60Z" fill="white"/>
<path d="M48 84L48 96L60 96L60 84L48 84Z" fill="white"/>
<path d="M48 72L48 84L60 84L60 72L48 72Z" fill="white"/>
<path d="M84 48L72 48L72 60L84 60L84 48Z" fill="white"/>
<path d="M96 48L84 48L84 60L96 60L96 48Z" fill="white"/>
</svg>
