<svg width="154" height="154" viewBox="0 0 154 154" fill="none" xmlns="http://www.w3.org/2000/svg">
<rect y="12" width="12" height="12" fill="white"/>
<rect y="94" width="12" height="12" fill="white"/>
<rect x="82" y="12" width="12" height="12" fill="white"/>
<rect x="82" y="94" width="12" height="12" fill="white"/>
<rect y="24" width="12" height="12" fill="white"/>
<rect y="106" width="12" height="12" fill="white"/>
<rect x="82" y="24" width="12" height="12" fill="white"/>
<rect x="82" y="106" width="12" height="12" fill="white"/>
<rect y="36" width="12" height="12" fill="white"/>
<rect y="118" width="12" height="12" fill="white"/>
<rect x="82" y="36" width="12" height="12" fill="white"/>
<rect x="82" y="118" width="12" height="12" fill="white"/>
<rect y="48" width="12" height="12" fill="white"/>
<rect y="130" width="12" height="12" fill="white"/>
<rect x="82" y="48" width="12" height="12" fill="white"/>
<rect x="82" y="130" width="12" height="12" fill="white"/>
<rect x="12" width="12" height="12" fill="white"/>
<rect x="12" y="82" width="12" height="12" fill="white"/>
<rect x="94" width="12" height="12" fill="white"/>
<rect x="94" y="82" width="12" height="12" fill="white"/>
<rect x="12" y="60" width="12" height="12" fill="white"/>
<rect x="12" y="142" width="12" height="12" fill="white"/>
<rect x="94" y="60" width="12" height="12" fill="white"/>
<rect x="94" y="142" width="12" height="12" fill="white"/>
<rect x="24" width="12" height="12" fill="white"/>
<rect x="24" y="82" width="12" height="12" fill="white"/>
<rect x="106" width="12" height="12" fill="white"/>
<rect x="106" y="82" width="12" height="12" fill="white"/>
<rect x="24" y="60" width="12" height="12" fill="white"/>
<rect x="24" y="142" width="12" height="12" fill="white"/>
<rect x="106" y="60" width="12" height="12" fill="white"/>
<rect x="106" y="142" width="12" height="12" fill="white"/>
<rect x="36" width="12" height="12" fill="white"/>
<rect x="36" y="82" width="12" height="12" fill="white"/>
<rect x="118" width="12" height="12" fill="white"/>
<rect x="118" y="82" width="12" height="12" fill="white"/>
<rect x="36" y="60" width="12" height="12" fill="white"/>
<rect x="36" y="142" width="12" height="12" fill="white"/>
<rect x="118" y="60" width="12" height="12" fill="white"/>
<rect x="118" y="142" width="12" height="12" fill="white"/>
<rect x="60" y="12" width="12" height="12" fill="white"/>
<rect x="60" y="94" width="12" height="12" fill="white"/>
<rect x="142" y="12" width="12" height="12" fill="white"/>
<rect x="142" y="94" width="12" height="12" fill="white"/>
<rect x="48" width="12" height="12" fill="white"/>
<rect x="48" y="82" width="12" height="12" fill="white"/>
<rect x="130" width="12" height="12" fill="white"/>
<rect x="130" y="82" width="12" height="12" fill="white"/>
<rect x="48" y="60" width="12" height="12" fill="white"/>
<rect x="48" y="142" width="12" height="12" fill="white"/>
<rect x="130" y="60" width="12" height="12" fill="white"/>
<rect x="130" y="142" width="12" height="12" fill="white"/>
<rect x="60" y="24" width="12" height="12" fill="white"/>
<rect x="60" y="106" width="12" height="12" fill="white"/>
<rect x="142" y="24" width="12" height="12" fill="white"/>
<rect x="142" y="106" width="12" height="12" fill="white"/>
<rect x="60" y="36" width="12" height="12" fill="white"/>
<rect x="60" y="118" width="12" height="12" fill="white"/>
<rect x="142" y="36" width="12" height="12" fill="white"/>
<rect x="142" y="118" width="12" height="12" fill="white"/>
<rect x="60" y="48" width="12" height="12" fill="white"/>
<rect x="60" y="130" width="12" height="12" fill="white"/>
<rect x="142" y="48" width="12" height="12" fill="white"/>
<rect x="142" y="130" width="12" height="12" fill="white"/>
</svg>
