<svg width="180" height="156" viewBox="0 0 180 156" fill="none" xmlns="http://www.w3.org/2000/svg">
<path d="M12 36H0V48H12V36Z" fill="white"/>
<path d="M12 48H0V60H12V48Z" fill="white"/>
<path d="M12 60H0V72H12V60Z" fill="white"/>
<path d="M12 72H0V84H12V72Z" fill="white"/>
<path d="M12 84H0V96H12V84Z" fill="white"/>
<path d="M12 96H0V108H12V96Z" fill="white"/>
<path d="M12 108H0V120H12V108Z" fill="white"/>
<path d="M12 132H0V144H12V132Z" fill="white"/>
<path d="M180 36H168V48H180V36Z" fill="white"/>
<path d="M180 48H168V60H180V48Z" fill="white"/>
<path d="M180 60H168V72H180V60Z" fill="white"/>
<path d="M168 60H156V72H168V60Z" fill="white"/>
<path d="M156 60H144V72H156V60Z" fill="white"/>
<path d="M144 60H132V72H144V60Z" fill="white"/>
<path d="M132 60H120V72H132V60Z" fill="white"/>
<path d="M132 72H120V84H132V72Z" fill="white"/>
<path d="M132 84H120V96H132V84Z" fill="white"/>
<path d="M132 96H120V108H132V96Z" fill="white"/>
<path d="M144 96H132V108H144V96Z" fill="white"/>
<path d="M156 96H144V108H156V96Z" fill="white"/>
<path d="M168 96H156V108H168V96Z" fill="white"/>
<path d="M180 72H168V84H180V72Z" fill="white"/>
<path d="M180 84H168V96H180V84Z" fill="white"/>
<path d="M180 96H168V108H180V96Z" fill="white"/>
<path d="M180 108H168V120H180V108Z" fill="white"/>
<path d="M12 120H0V132H12V120Z" fill="white"/>
<path d="M180 120H168V132H180V120Z" fill="white"/>
<path d="M180 132H168V144H180V132Z" fill="white"/>
<path d="M12 24V36H24V24H12Z" fill="white"/>
<path d="M24 24V36H36V24H24Z" fill="white"/>
<path d="M36 24V36H48V24H36Z" fill="white"/>
<path d="M48 24V36H60V24H48Z" fill="white"/>
<path d="M60 24V36H72V24H60Z" fill="white"/>
<path d="M72 24V36H84V24H72Z" fill="white"/>
<path d="M84 24V36H96V24H84Z" fill="white"/>
<path d="M96 24V36H108V24H96Z" fill="white"/>
<path d="M108 24V36H120V24H108Z" fill="white"/>
<path d="M120 24V36H132V24H120Z" fill="white"/>
<path d="M132 24V36H144V24H132Z" fill="white"/>
<path d="M144 24V36H156V24H144Z" fill="white"/>
<path d="M156 24V36H168V24H156Z" fill="white"/>
<path d="M12 144V156H24V144H12Z" fill="white"/>
<path d="M24 144V156H36V144H24Z" fill="white"/>
<path d="M36 144V156H48V144H36Z" fill="white"/>
<path d="M48 144V156H60V144H48Z" fill="white"/>
<path d="M60 144V156H72V144H60Z" fill="white"/>
<path d="M72 144V156H84V144H72Z" fill="white"/>
<path d="M84 144V156H96V144H84Z" fill="white"/>
<path d="M96 144V156H108V144H96Z" fill="white"/>
<path d="M108 144V156H120V144H108Z" fill="white"/>
<path d="M120 144V156H132V144H120Z" fill="white"/>
<path d="M132 144V156H144V144H132Z" fill="white"/>
<path d="M144 144V156H156V144H144Z" fill="white"/>
<path d="M156 144V156H168V144H156Z" fill="white"/>
<path d="M24 12V24H36V12H24Z" fill="white"/>
<path d="M36 0V12H48V0H36Z" fill="white"/>
<path d="M48 0V12H60V0H48Z" fill="white"/>
<path d="M60 0V12H72V0H60Z" fill="white"/>
<path d="M72 0V12H84V0H72Z" fill="white"/>
<path d="M84 0V12H96V0H84Z" fill="white"/>
<path d="M96 0V12H108V0H96Z" fill="white"/>
<path d="M108 0V12H120V0H108Z" fill="white"/>
<path d="M120 0V12H132V0H120Z" fill="white"/>
<path d="M132 0V12H144V0H132Z" fill="white"/>
<path d="M144 12V24H156V12H144Z" fill="white"/>
</svg>
