<svg data-name="Layer 1" xmlns="http://www.w3.org/2000/svg" viewBox="0 0 990 260"><path d="M156.82 83.17a23.34 23.34 0 00-32.88 3l-47.09 56.48a23.34 23.34 0 000 29.9L123.94 229a23.34 23.34 0 1035.86-29.89l-34.63-41.51 34.63-41.55a23.34 23.34 0 00-2.98-32.88zM43 77.76a23.34 23.34 0 00-23.34 23.35v113a23.35 23.35 0 0046.69 0v-113A23.34 23.34 0 0043 77.76zm409.6 46.69a23.35 23.35 0 000-46.69h-98.87a23.35 23.35 0 00-23.35 23.35v42.37a23.36 23.36 0 0016.94 22.45l81.93 23.41v1.41h-75.52a23.35 23.35 0 100 46.69h98.87a23.34 23.34 0 0023.34-23.34v-42.37A23.34 23.34 0 00459 149.28l-81.93-23.41v-1.42zM297.23 77.76a23.34 23.34 0 00-23.34 23.35v89.64h-52.18v-89.64a23.35 23.35 0 10-46.69 0v113a23.34 23.34 0 0023.35 23.34h98.86a23.34 23.34 0 0023.35-23.34v-113a23.34 23.34 0 00-23.35-23.35zm272.17 8.4a23.33 23.33 0 00-17.93-8.4h-42.38a23.34 23.34 0 00-23.34 23.35v113a23.34 23.34 0 0023.34 23.34h58.45a23.35 23.35 0 000-46.69h-35.1v-66.3h8.09l58.21 69.85v19.8a23.35 23.35 0 0046.69 0v-28.26A23.35 23.35 0 00640 170.9zm395.53 84.74l-70.62-84.74a23.33 23.33 0 00-17.93-8.4H834a23.34 23.34 0 00-23.35 23.35v113A23.34 23.34 0 00834 237.44h58.44a23.35 23.35 0 000-46.69h-35.1v-66.3h8.09l58.21 69.85v19.8a23.35 23.35 0 0046.69 0v-28.25a23.35 23.35 0 00-5.4-14.95zm-177.67-91a23.34 23.34 0 00-24.94 3.48l-34.25 29.36-34.31-29.37a23.34 23.34 0 00-38.52 17.74v113a23.35 23.35 0 0046.69 0v-62.29l11 9.39a23.35 23.35 0 0030.38 0l10.89-9.34v62.23a23.35 23.35 0 0046.7 0v-113a23.34 23.34 0 00-13.64-21.2zM623.64 67.12V68s32.11-12.7 38.36-9.42l-3.77 1.11c.33 0 6.44.4 6.44.4a8.58 8.58 0 003.87 6.24c3.68 2.43 3.75 3.75 3.75 3.75s-1.91.78-1.91 1.77a20.48 20.48 0 015.46-.79 20.22 20.22 0 014.92.79s-.19-1-2.76-1.77-5.05-3.49-6.3-5a7.06 7.06 0 01-1-6.9c.89-2.28 4-3.55 10.31-6.83 7.49-3.87 9.2-6.77 10.25-9s2.63-6.7 3.5-8.8a11.51 11.51 0 013.6-5c1.11-.85 6.17-2.76 6.17-2.76s-3.86-3.29-5.12-4.28a10.68 10.68 0 00-5.71-2.8c-2.68-.35-5.4 1.43-7.24 2.62s-5.4 4.67-6.84 5.67-5.13 2-11 5.59-29.17 18.46-29.17 18.46l6 .06-26.93 13.97h2.69l-3.88 3a8.69 8.69 0 006.31-.96z"/></svg>