<?xml version="1.0" encoding="utf-8"?>
<!-- Generator: Adobe Illustrator 24.0.2, SVG Export Plug-In . SVG Version: 6.00 Build 0)  -->
<svg version="1.1" xmlns="http://www.w3.org/2000/svg" xmlns:xlink="http://www.w3.org/1999/xlink" x="0px" y="0px"
	 viewBox="0 0 24 24" style="enable-background:new 0 0 24 24;" xml:space="preserve">
<style type="text/css">
	.st0{fill:none;}
	.st1{fill:#121331;}
</style>
<g id="bounding_box">
	<rect class="st0" width="24" height="24"/>
</g>
<g id="design">
	<g>
		<g>
			<path class="st1" d="M22,19c0,0.55-0.45,1-1,1c-1.47,0-2.87-0.46-4.01-1.26c-1.06,0.79-2.39,1.25-3.86,1.25c-0.56,0-1-0.45-1-1
				c0-0.56,0.44-1,1-1c0.9,0,1.71-0.24,2.39-0.66c-0.34-0.43-0.62-0.9-0.84-1.41c-0.22-0.5,0.02-1.09,0.52-1.31
				c0.51-0.23,1.1,0.01,1.32,0.51c0.12,0.27,0.26,0.52,0.42,0.76c0.32-0.55,0.54-1.18,0.62-1.88H13c-0.55,0-1-0.45-1-1s0.45-1,1-1
				h2.87v-1c0-0.55,0.44-1,1-1c0.55,0,1,0.45,1,1v1h3.11c0.56,0,1,0.45,1,1s-0.44,1-1,1h-1.4c-0.11,1.24-0.53,2.36-1.18,3.28
				C19.16,17.74,20.06,18,21,18C21.55,18,22,18.45,22,19z"/>
		</g>
		<g>
			<path class="st1" d="M6.23,4H5.77C3.69,4,2,5.72,2,7.84V14c0,0.55,0.45,1,1,1s1-0.45,1-1v-3h4v3c0,0.55,0.45,1,1,1s1-0.45,1-1
				V7.84C10,5.72,8.31,4,6.23,4z M4,9V7.84C4,6.83,4.79,6,5.77,6h0.46C7.21,6,8,6.83,8,7.84V9H4z"/>
		</g>
	</g>
</g>
</svg>
