<svg width="106" height="24" viewBox="0 0 106 24" fill="none" xmlns="http://www.w3.org/2000/svg">
<g clip-path="url(#clip0_3_653)">
<path d="M43.1219 16.0478C42.6847 16.642 42.1168 17.1234 41.4183 17.4932C40.7198 17.863 39.8812 18.0485 38.9024 18.0485C38.0585 18.0485 37.2799 17.9052 36.5667 17.6186C35.8534 17.3321 35.2381 16.9306 34.723 16.4155C34.2078 15.9003 33.8032 15.285 33.5124 14.5717C33.2206 13.8585 33.0752 13.0746 33.0752 12.2202C33.0752 11.3552 33.2237 10.5661 33.5209 9.85286C33.818 9.1396 34.2288 8.52959 34.7556 8.02494C35.2813 7.52029 35.904 7.12626 36.6225 6.84496C37.341 6.56366 38.1228 6.42353 38.9667 6.42353C39.3417 6.42353 39.7221 6.46041 40.1077 6.5331C40.4933 6.6058 40.8631 6.71537 41.2171 6.86076C41.5711 7.0072 41.8945 7.18631 42.1863 7.40018C42.4782 7.61405 42.7279 7.86164 42.9365 8.14188L41.7175 9.07955C41.4467 8.70448 41.0633 8.39474 40.5691 8.15031C40.074 7.90589 39.5398 7.78262 38.9677 7.78262C38.3219 7.78262 37.7414 7.89957 37.2251 8.13451C36.71 8.3684 36.2696 8.68868 35.905 9.09535C35.5405 9.50202 35.2592 9.97296 35.0611 10.5092C34.8631 11.0455 34.764 11.6165 34.764 12.2202C34.764 12.845 34.8599 13.4286 35.0527 13.9702C35.2455 14.5117 35.5216 14.9837 35.8808 15.384C36.2401 15.7854 36.6773 16.1004 37.1935 16.3291C37.7087 16.5587 38.285 16.6725 38.9203 16.6725C39.5451 16.6725 40.1129 16.5472 40.6239 16.2975C41.1338 16.0478 41.5563 15.6832 41.8892 15.2039L43.1219 16.0478Z" fill="white"/>
<path d="M44.6064 11.1877C44.5959 10.8748 44.5801 10.5988 44.5601 10.3596H45.9508C45.9718 10.5472 45.9876 10.7631 45.9971 11.0086C46.0076 11.253 46.0129 11.4543 46.0129 11.6102H46.0603C46.2689 11.173 46.5734 10.8211 46.9748 10.5556C47.3762 10.2901 47.8261 10.1573 48.3265 10.1573C48.5551 10.1573 48.7479 10.1784 48.9049 10.2195L48.8428 11.5786C48.6342 11.527 48.4108 11.5006 48.1706 11.5006C47.8166 11.5006 47.509 11.5659 47.2487 11.6955C46.9885 11.8262 46.7725 12 46.6008 12.2191C46.4291 12.4383 46.3016 12.6911 46.2184 12.9767C46.1351 13.2632 46.093 13.5624 46.093 13.8753V17.7661H44.6243V11.9536C44.6222 11.7556 44.617 11.5006 44.6064 11.1877Z" fill="white"/>
<path d="M56.9202 14.0007C56.9202 14.0839 56.9202 14.1672 56.9202 14.2504C56.9202 14.3336 56.9149 14.4169 56.9044 14.5001H51.0129C51.0234 14.8109 51.093 15.1027 51.2236 15.3766C51.3542 15.6506 51.5281 15.8887 51.7472 16.091C51.9664 16.2922 52.2181 16.4502 52.5047 16.564C52.7913 16.6778 53.0958 16.7347 53.4192 16.7347C53.9196 16.7347 54.3516 16.6251 54.7161 16.407C55.0807 16.1879 55.3672 15.9224 55.5758 15.6105L56.6073 16.4386C56.2111 16.9633 55.7455 17.35 55.2092 17.5986C54.6729 17.8462 54.0766 17.9705 53.4203 17.9705C52.8577 17.9705 52.3372 17.8767 51.8578 17.6892C51.3785 17.5017 50.9676 17.2383 50.6231 16.9001C50.2796 16.5619 50.0078 16.1531 49.8108 15.6737C49.6127 15.1944 49.5137 14.6634 49.5137 14.0797C49.5137 13.5066 49.6106 12.9777 49.8034 12.4941C49.9962 12.0095 50.2649 11.5954 50.6094 11.252C50.9539 10.9085 51.3616 10.6399 51.8304 10.4471C52.3003 10.2543 52.806 10.1584 53.3497 10.1584C53.8922 10.1584 54.3853 10.2469 54.8299 10.4239C55.2735 10.6009 55.6496 10.8558 55.9572 11.1898C56.2649 11.5238 56.503 11.9273 56.6694 12.4003C56.8369 12.8723 56.9202 13.4065 56.9202 14.0007ZM55.4199 13.4065C55.4094 13.1147 55.3599 12.8418 55.2714 12.5858C55.1829 12.3308 55.0522 12.1096 54.8805 11.922C54.7088 11.7345 54.4949 11.586 54.2399 11.4764C53.985 11.3668 53.6847 11.312 53.3412 11.312C53.0283 11.312 52.7344 11.3668 52.4584 11.4764C52.1823 11.586 51.9432 11.7345 51.7398 11.922C51.5365 12.1096 51.37 12.3308 51.2394 12.5858C51.1088 12.8407 51.034 13.1147 51.0129 13.4065H55.4199Z" fill="white"/>
<path d="M64.8578 16.5946C64.5765 17.0423 64.194 17.3837 63.7094 17.6176C63.2248 17.8515 62.7169 17.9695 62.186 17.9695C61.6128 17.9695 61.0976 17.8683 60.6393 17.665C60.181 17.4616 59.7902 17.1835 59.4678 16.8295C59.1443 16.4755 58.8946 16.0583 58.7176 15.5789C58.5406 15.0996 58.4521 14.5896 58.4521 14.0481C58.4521 13.5066 58.5406 12.9988 58.7176 12.5247C58.8946 12.0506 59.1475 11.6365 59.4752 11.2825C59.8028 10.9285 60.1968 10.6525 60.6551 10.4544C61.1134 10.2564 61.6181 10.1573 62.1712 10.1573C62.7749 10.1573 63.3017 10.2848 63.7494 10.5398C64.1972 10.7947 64.5512 11.1045 64.8125 11.469H64.8441V5.9526H66.3127V17.7661H64.8904V16.5946H64.8578ZM59.983 14.0555C59.983 14.3979 60.0346 14.7308 60.1389 15.0522C60.2432 15.3745 60.3991 15.6601 60.6077 15.9087C60.8163 16.1584 61.0713 16.3575 61.3737 16.5082C61.676 16.6588 62.03 16.7336 62.4367 16.7336C62.8118 16.7336 63.1531 16.6609 63.4597 16.5155C63.7673 16.3702 64.0297 16.1753 64.2488 15.9308C64.468 15.6864 64.6365 15.404 64.7566 15.0817C64.8767 14.7603 64.9368 14.4221 64.9368 14.0692C64.9368 13.7162 64.8767 13.3781 64.7566 13.0567C64.6365 12.7354 64.468 12.4488 64.2488 12.2002C64.0297 11.9505 63.7673 11.7535 63.4597 11.6081C63.1521 11.4627 62.8118 11.39 62.4367 11.39C62.03 11.39 61.676 11.4627 61.3737 11.6081C61.0713 11.7535 60.8163 11.9505 60.6077 12.2002C60.3991 12.4499 60.2432 12.7354 60.1389 13.0567C60.0346 13.3802 59.983 13.712 59.983 14.0555Z" fill="white"/>
<path d="M70.5934 7.6878C70.5934 7.95856 70.4975 8.18297 70.3068 8.35996C70.1161 8.53696 69.8854 8.62546 69.6167 8.62546C69.3481 8.62546 69.1205 8.53485 68.9351 8.35153C68.7486 8.16927 68.6559 7.94802 68.6559 7.6878C68.6559 7.41703 68.7486 7.19052 68.9351 7.00825C69.1216 6.82599 69.3481 6.73433 69.6167 6.73433C69.8854 6.73433 70.1151 6.82599 70.3068 7.00825C70.4975 7.18946 70.5934 7.41703 70.5934 7.6878ZM70.3584 17.7661H68.8898V10.3596H70.3584V17.7661Z" fill="white"/>
<path d="M76.546 11.5628H74.5769V15.4104C74.5769 15.8571 74.6601 16.1763 74.8266 16.368C74.993 16.5598 75.2585 16.6557 75.6231 16.6557C75.7579 16.6557 75.9044 16.642 76.0603 16.6125C76.2162 16.584 76.3574 16.5408 76.4817 16.4839L76.5291 17.6871C76.3521 17.7493 76.1562 17.7988 75.9434 17.8356C75.7295 17.8725 75.5082 17.8904 75.2796 17.8904C74.5811 17.8904 74.048 17.6976 73.6782 17.312C73.3084 16.9264 73.123 16.348 73.123 15.5779V11.5617H71.7007V10.3596H73.123V8.23459H74.5758V10.3596H76.5449V11.5628H76.546Z" fill="white"/>
<path d="M83.2499 12.2349C83.094 11.9958 82.859 11.7946 82.5472 11.6334C82.2343 11.4722 81.9014 11.391 81.5474 11.391C81.1618 11.391 80.8204 11.4637 80.5244 11.6102C80.2273 11.7566 79.9744 11.9515 79.7669 12.196C79.5582 12.4404 79.3992 12.7248 79.2906 13.0472C79.1811 13.3707 79.1263 13.7089 79.1263 14.0629C79.1263 14.4169 79.1811 14.7561 79.2906 15.0785C79.4002 15.4019 79.5582 15.6853 79.7669 15.9298C79.9755 16.1742 80.2304 16.3701 80.5328 16.5155C80.8352 16.662 81.1786 16.7347 81.5642 16.7347C81.9393 16.7347 82.2806 16.662 82.5872 16.5155C82.8949 16.3701 83.1467 16.1721 83.3447 15.9213L84.3287 16.8116C84.0158 17.1761 83.626 17.4606 83.1572 17.6629C82.6884 17.8662 82.1574 17.9673 81.5632 17.9673C80.99 17.9673 80.4611 17.8736 79.9776 17.686C79.4929 17.4985 79.0736 17.2351 78.7196 16.8969C78.3656 16.5587 78.0864 16.15 77.8831 15.6706C77.6798 15.1912 77.5786 14.655 77.5786 14.0608C77.5786 13.4771 77.6776 12.9461 77.8757 12.4667C78.0738 11.9874 78.3498 11.5765 78.7038 11.232C79.0578 10.8885 79.4771 10.623 79.9618 10.4355C80.4464 10.2479 80.97 10.1542 81.5326 10.1542C82.0531 10.1542 82.5714 10.2585 83.0877 10.4671C83.6028 10.6757 84.0116 10.9781 84.314 11.3731L83.2499 12.2349Z" fill="white"/>
<path d="M93.2817 14.0471C93.2817 14.6202 93.1805 15.1459 92.9772 15.6253C92.7738 16.1047 92.4925 16.5187 92.1333 16.8674C91.774 17.2162 91.3494 17.4869 90.8595 17.6797C90.3696 17.8725 89.8439 17.9684 89.2813 17.9684C88.7187 17.9684 88.193 17.8725 87.7031 17.6797C87.2132 17.4869 86.7918 17.2162 86.4378 16.8674C86.0838 16.5187 85.8046 16.1047 85.6012 15.6253C85.3979 15.1459 85.2968 14.6202 85.2968 14.0471C85.2968 13.4739 85.3979 12.9503 85.6012 12.4762C85.8046 12.0021 86.0827 11.5933 86.4378 11.2499C86.7918 10.9064 87.2132 10.6378 87.7031 10.445C88.193 10.2522 88.7187 10.1563 89.2813 10.1563C89.8439 10.1563 90.3696 10.2532 90.8595 10.445C91.3494 10.6378 91.774 10.9064 92.1333 11.2499C92.4925 11.5933 92.7738 12.0021 92.9772 12.4762C93.1805 12.9514 93.2817 13.4739 93.2817 14.0471ZM91.7498 14.0555C91.7498 13.7025 91.695 13.3644 91.5854 13.043C91.4759 12.7217 91.3168 12.4383 91.1071 12.1939C90.8975 11.9494 90.6393 11.7556 90.3317 11.6091C90.023 11.4637 89.6701 11.391 89.2739 11.391C88.8767 11.391 88.5238 11.4637 88.2162 11.6091C87.9075 11.7545 87.6493 11.9494 87.4407 12.1939C87.2321 12.4383 87.072 12.7206 86.9624 13.043C86.8529 13.3654 86.7981 13.7025 86.7981 14.0555C86.7981 14.4084 86.8529 14.7466 86.9624 15.068C87.072 15.3903 87.2311 15.6759 87.4407 15.9245C87.6493 16.1742 87.9085 16.3712 88.2162 16.5166C88.5238 16.662 88.8767 16.7347 89.2739 16.7347C89.6711 16.7347 90.0241 16.662 90.3317 16.5166C90.6393 16.3712 90.8985 16.1742 91.1071 15.9245C91.3157 15.6748 91.4748 15.3893 91.5854 15.068C91.695 14.7456 91.7498 14.4084 91.7498 14.0555Z" fill="white"/>
<path d="M97.0312 7.6878C97.0312 7.95856 96.9354 8.18297 96.7447 8.35996C96.554 8.53696 96.3232 8.62546 96.0546 8.62546C95.7859 8.62546 95.5584 8.53485 95.3729 8.35153C95.1865 8.16927 95.0938 7.94802 95.0938 7.6878C95.0938 7.41703 95.1865 7.19052 95.3729 7.00825C95.5594 6.82599 95.7859 6.73433 96.0546 6.73433C96.3232 6.73433 96.5529 6.82599 96.7447 7.00825C96.9364 7.18946 97.0312 7.41703 97.0312 7.6878ZM96.7974 17.7661H95.3287V10.3596H96.7974V17.7661Z" fill="white"/>
<path d="M100.688 10.3596C100.709 10.5472 100.725 10.7579 100.735 10.9928C100.745 11.2267 100.75 11.4227 100.75 11.5786H100.797C100.89 11.3805 101.018 11.1961 101.179 11.0244C101.34 10.8527 101.526 10.702 101.734 10.5714C101.943 10.4407 102.172 10.3396 102.422 10.2669C102.672 10.1942 102.932 10.1573 103.204 10.1573C103.683 10.1573 104.094 10.2385 104.439 10.3997C104.782 10.5608 105.069 10.7768 105.299 11.0476C105.527 11.3184 105.697 11.6365 105.806 12.0011C105.916 12.3656 105.971 12.7565 105.971 13.1726V17.7672H104.502V13.6572C104.502 13.3549 104.479 13.0683 104.431 12.7975C104.384 12.5268 104.299 12.2876 104.173 12.079C104.048 11.8704 103.876 11.704 103.658 11.5786C103.439 11.4532 103.158 11.3911 102.814 11.3911C102.231 11.3911 101.754 11.6123 101.385 12.0548C101.015 12.4973 100.829 13.0883 100.829 13.8279V17.7661H99.3607V11.9536C99.3607 11.7556 99.3554 11.5006 99.3449 11.1877C99.3344 10.8748 99.3186 10.5988 99.2975 10.3596H100.688Z" fill="white"/>
<path d="M20.3094 16.8105C18.6479 19.6741 15.5494 21.6 12 21.6C6.69851 21.6 2.4 17.3015 2.4 12C2.4 6.69851 6.69851 2.4 12 2.4C15.5526 2.4 18.6543 4.33011 20.3147 7.19789L22.3923 5.99473C20.3157 2.41159 16.4397 0 12 0C5.37313 0 0 5.37313 0 12C0 18.6279 5.37313 24 12 24C16.4376 24 20.3115 21.5916 22.3881 18.0105L20.3094 16.8105Z" fill="white"/>
<path d="M23.9999 10.8H14.0764C13.6613 10.0836 12.888 9.59999 11.9999 9.59999C10.6745 9.59999 9.59985 10.6746 9.59985 12C9.59985 13.3254 10.6745 14.4 11.9999 14.4C12.888 14.4 13.6613 13.9164 14.0764 13.2H23.9999V10.8Z" fill="white"/>
</g>
<defs>
<clipPath id="clip0_3_653">
<rect width="106" height="24" fill="white"/>
</clipPath>
</defs>
</svg>
