<?xml version="1.0" encoding="utf-8"?>
<!-- Generator: Adobe Illustrator 27.8.1, SVG Export Plug-In . SVG Version: 6.00 Build 0)  -->
<svg version="1.1" id="Layer_1" xmlns="http://www.w3.org/2000/svg" xmlns:xlink="http://www.w3.org/1999/xlink" x="0px" y="0px"
	 viewBox="0 0 726 476.1" style="enable-background:new 0 0 726 476.1;" xml:space="preserve">
<g>
	<polygon points="142.3,175.6 95.8,0 63,0 142.3,299.7 142.3,414.1 32.8,0 0,0 125.9,476.1 142.3,476.1 158.7,476.1 175.1,476.1 
		175.1,0 142.3,0 	"/>
	<path d="M726,476.1L600.1,0h-16.4h-16.4h-16.4v476.1h32.8l86.6-86.6l22.9,86.6L726,476.1L726,476.1z M641.2,279.4l-57.5,57.5V62
		L641.2,279.4z M583.7,429.7v-46.5l67.2-67.2l9.7,36.7L583.7,429.7z"/>
	<path d="M244.2,0h-16.4h-16.4v476.1h32.8l86.6-86.6l22.9,86.6h32.8L260.6,0H244.2z M301.7,279.4l-57.5,57.5V62L301.7,279.4z
		 M244.2,429.7v-46.5l67.2-67.2l9.7,36.7L244.2,429.7z"/>
	<path d="M522.6,294.2L444.9,0h-16.4h-16.4h-16.4v476.1h32.8v-88.3l30.1-30.1l31.3,118.4l32.7-0.2l-38.1-144.1l12-12L522.6,294.2z
		 M428.5,341.4V62l58.4,221L428.5,341.4z"/>
</g>
</svg>
