<svg xmlns="http://www.w3.org/2000/svg" viewBox="0 0 6593.8 1410.3"><path className="primary" d="M2047.8 210.4c-77.2 0-151.6 9.7-181.9 17.9-44.1 12.4-55.1 31.7-63.4 71.7l-175 807.5c-2.8 16.5-5.5 30.3-5.5 44.1 0 40 26.2 66.1 68.9 66.1 46.9 0 66.2-30.3 75.8-77.2l49.6-230.1c34.4 4.1 79.9 8.3 144.7 8.3 285.3 0 463-154.3 463-387.2 0-204-142-321.1-376.2-321.1zm-93.7 576c-44.1 0-78.6-1.4-110.2-5.5l92.3-428.6c28.9-4.1 71.7-9.7 115.8-9.7 151.6 0 228.8 71.7 228.8 190.2-.1 151.6-110.4 253.6-326.7 253.6zM6537.3 951.7c-23.4 0-38.6 13.8-67.5 45.5-51 52.4-82.7 81.3-122.6 81.3-35.8 0-55.1-28.9-55.1-75.8 0-26.2 5.5-57.9 12.4-92.3l51-239.8h153c48.2 0 77.2-27.6 77.2-77.2 0-27.6-17.9-48.2-59.2-48.2H6383l24.8-111.6c2.8-16.5 5.5-31.7 5.5-45.5 0-38.6-26.2-66.2-68.9-66.2-45.5 0-66.1 30.3-75.8 77.2l-31.7 146.1h-64.8c-49.6 0-78.5 27.6-78.5 77.2 0 27.6 19.3 48.2 60.6 48.2h56.5l-51 237c-5.5 26.2-12.4 68.9-12.4 113 0 111.6 57.9 192.9 181.9 192.9 71.7 0 135-35.8 183.3-78.6 46.9-41.3 81.3-92.3 81.3-125.4 0-31.6-24.8-57.8-56.5-57.8zM3367.9 291.7c0-40-27.6-66.2-70.3-66.2-45.5 0-66.1 30.3-75.8 77.2l-172.2 800.6c-4.1 16.5-6.9 30.3-6.9 44.1 0 40 27.6 66.1 68.9 66.1 46.9 0 67.5-30.3 77.2-77.2L3361 335.8c2.8-16.6 6.9-30.3 6.9-44.1zM5827.6 531.4c-220.5 0-370.7 219.1-370.7 427.2 0 3.9.1 7.8.2 11.6-34.6 52.5-78.8 106.9-109.1 106.9-22 0-30.3-20.7-30.3-52.4 0-38.6 11-103.4 23.4-159.9l114.4-529.2c2.8-16.5 5.5-30.3 5.5-44.1 0-40-26.2-66.2-68.9-66.2-46.9 0-66.1 30.3-75.8 77.2l-62 286.6c-33.1-34.4-81.4-57.9-154.4-57.9-146.4 0-293.7 112.7-351.1 285.6-63.2 163.4-119.7 260.1-164.3 260.1-16.5 0-26.2-13.8-26.2-37.2 0-68.9 38.6-237 55.1-318.3 5.5-30.3 8.3-42.7 8.3-60.6 0-60.6-100.6-132.3-231.5-132.3-151.4 0-288.5 95.9-357.2 238.3-102.1 180.4-195.8 310.1-242.2 310.1-20.7 0-27.6-26.2-33.1-51L3723.4 836l210.8-172.2c19.3-16.5 44.1-40 44.1-70.3 0-37.2-24.8-62-62-62-27.6 0-51 16.5-74.4 35.8L3525 829.1l106.1-493.3c2.8-16.5 6.9-30.3 6.9-44.1 0-40-27.6-66.2-70.3-66.2-45.5 0-66.1 30.3-75.8 77.2l-172.2 800.6c-4.1 16.5-6.9 30.3-6.9 44.1 0 40 27.6 66.1 68.9 66.1 46.9 0 67.5-30.3 77.2-77.2L3481 1033l129.5-104.7 31.7 159.8c12.4 63.4 45.5 125.4 130.9 125.4 85 0 151.9-77.6 218.9-182.5 20.3 109.9 98.5 182.5 207 182.5 108.9 0 183.3-64.8 231.5-151.6v2.8c0 89.6 45.5 148.8 125.4 148.8 72.3 0 132.3-43.6 185.9-136.2 30.4 80.7 98.4 136.2 193 136.2 111.6 0 191.5-67.5 242.5-161.2v8.3c0 99.2 49.6 153 130.9 153 71.8 0 132.8-41.7 184.9-109.5 39.6 67.8 110.6 109.5 206.5 109.5 220.5 0 370.7-219.1 370.7-428.6-.1-147.5-89.7-253.6-242.7-253.6zM4453.8 811.2c-40 172.2-125.4 270.1-221.9 270.1-64.8 0-100.6-49.6-100.6-124 0-146.1 106.1-303.2 248-303.2 42.7 0 75.8 12.4 104.7 30.3l-30.2 126.8zm767.5-73c-44.1 202.6-144.7 343.1-254.9 343.1-60.6 0-96.5-46.9-96.5-124 0-147.4 102-300.4 238.4-300.4 52.4 0 92.3 17.9 121.3 41.3l-8.3 40zm494.7 343.1c-79.9 0-113-57.9-113-130.9 0-133.7 92.3-286.6 208.1-286.6 79.9 0 113 57.9 113 130.9 0 135-92.3 286.6-208.1 286.6zM2767.1 531.4c-220.5 0-370.7 219.1-370.7 427.2 0 148.8 89.6 254.9 242.5 254.9 220.5 0 370.7-219.1 370.7-428.6 0-147.4-89.6-253.5-242.5-253.5zm-111.6 549.9c-79.9 0-113-57.9-113-130.9 0-133.7 92.3-286.6 208.1-286.6 79.9 0 113 57.9 113 130.9-.1 135-92.4 286.6-208.1 286.6z"/><ellipse cx="663" cy="147.9" rx="254.3" ry="147.9"/><ellipse cx="663" cy="1262.3" rx="254.3" ry="147.9"/><ellipse transform="rotate(-60 180.499 426.56)" cx="180.5" cy="426.5" rx="254.3" ry="148"/><ellipse transform="rotate(-60 1145.575 983.768)" cx="1145.6" cy="983.7" rx="254.3" ry="147.9"/><ellipse transform="rotate(-30 180.45 983.72)" cx="180.5" cy="983.7" rx="148" ry="254.3"/><ellipse transform="rotate(-30 1145.522 426.601)" cx="1145.6" cy="426.6" rx="147.9" ry="254.3"/></svg>