<svg viewBox="0 0 32 32" fill="none" xmlns="http://www.w3.org/2000/svg" class="logo"><path fill-rule="evenodd" clip-rule="evenodd" d="M25.058 17.832c.304.662 1.2.896 1.714.38l.945-.944a2.5 2.5 0 0 1 3.536 3.535l-7.636 7.636A9.979 9.979 0 0 1 15.965 32a9.983 9.983 0 0 1-7.883-3.847l-7.35-7.35a2.5 2.5 0 1 1 3.536-3.535l.93.93c.504.504 1.379.277 1.677-.37a.97.97 0 0 0 .09-.406V6a2.5 2.5 0 0 1 5 0v5.778c0 .497.51.835.984.685a.727.727 0 0 0 .516-.682V2.5a2.5 2.5 0 0 1 5 0v9.28c0 .315.217.588.517.683.474.15.983-.188.983-.685V6a2.5 2.5 0 0 1 5 0v11.418a.99.99 0 0 0 .093.414Z" className='dark'></path><path className='light' d="M23.965 23s-3.581 5-8 5c-4.418 0-8-5-8-5s3.582-5 8-5c4.419 0 8 5 8 5Z"></path><path d="M18.731 23a2.766 2.766 0 1 1-5.531 0 2.766 2.766 0 0 1 5.531 0Z" className='dark' stroke="currentColor" stroke-width="0.469"></path></svg>