<svg width="20" height="20" viewBox="0 0 20 20" fill="none" xmlns="http://www.w3.org/2000/svg">
<g clip-path="url(#clip0_323_5542)">
<mask id="mask0_323_5542" style="mask-type:luminance" maskUnits="userSpaceOnUse" x="0" y="0" width="20" height="20">
<path d="M19.9999 9.99995C19.9999 4.64446 15.6584 0.302979 10.3029 0.302979C4.94744 0.302979 0.605957 4.64446 0.605957 9.99995C0.605957 15.3554 4.94744 19.6969 10.3029 19.6969C15.6584 19.6969 19.9999 15.3554 19.9999 9.99995Z" fill="white"/>
</mask>
<g mask="url(#mask0_323_5542)">
<path d="M19.9999 9.99995C19.9999 4.64446 15.6584 0.302979 10.3029 0.302979C4.94744 0.302979 0.605957 4.64446 0.605957 9.99995C0.605957 15.3554 4.94744 19.6969 10.3029 19.6969C15.6584 19.6969 19.9999 15.3554 19.9999 9.99995Z" fill="black"/>
<path d="M10.4888 17.0219C14.2702 17.0219 17.3356 13.9565 17.3356 10.1751C17.3356 6.39378 14.2702 3.32837 10.4888 3.32837C6.7075 3.32837 3.64209 6.39378 3.64209 10.1751C3.64209 13.9565 6.7075 17.0219 10.4888 17.0219Z" fill="white"/>
<path d="M15.7676 15.3569C18.7261 12.3984 18.7261 7.60173 15.7676 4.64321C12.809 1.68469 8.01237 1.68469 5.05385 4.64321C2.09533 7.60173 2.09533 12.3984 5.05385 15.3569C8.01237 18.3154 12.809 18.3154 15.7676 15.3569Z" fill="white"/>
<path d="M2.61607 10.372C2.61592 9.04024 3.00421 7.73739 3.73337 6.62303C4.46254 5.50862 5.50092 4.63111 6.72128 4.09799C7.94171 3.56488 9.29104 3.3993 10.6041 3.62154C11.9172 3.84379 13.1369 4.4442 14.1139 5.34924C13.4883 4.67277 12.7324 4.12959 11.8918 3.75224C11.0512 3.37488 10.143 3.17111 9.22177 3.15316C8.3005 3.13519 7.38504 3.30341 6.53036 3.64771C5.67567 3.99202 4.89928 4.50534 4.24772 5.1569C3.59616 5.80845 3.08285 6.58485 2.73854 7.43958C2.39423 8.29424 2.22602 9.20964 2.24398 10.1309C2.26194 11.0522 2.4657 11.9604 2.84306 12.801C3.22042 13.6416 3.7636 14.3974 4.44005 15.0231C3.26556 13.7593 2.61378 12.0973 2.61607 10.372Z" fill="black"/>
<path d="M12.4598 9.28208L10.4641 6.32153H9.05443L12.4598 11.373V13.3009L7.75528 6.32153H6.3457L11.755 14.3464H12.4598H13.1642H13.869V6.32153H12.4598V9.28208Z" fill="black"/>
</g>
</g>
<defs>
<clipPath id="clip0_323_5542">
<rect width="19.3939" height="20" fill="white" transform="translate(0.605957)"/>
</clipPath>
</defs>
</svg>
