<svg width="92" height="60" viewBox="0 0 92 60" fill="none" xmlns="http://www.w3.org/2000/svg">
<g clip-path="url(#clip0_1506_6550)">
<path d="M17.9287 22.1352L12.0764 0H7.94296L17.9287 37.7691V52.1831L4.13341 0H0L15.862 60H17.9287H19.9941H22.0608V0H17.9287V22.1352Z" fill="black"/>
<path d="M91.4937 60L75.6318 0H73.5651H71.4983H69.4316V59.9987H73.5651L84.4745 49.0843L87.3603 59.9987H91.4937V60ZM80.8073 35.2084L73.5663 42.4494V7.81694L80.8073 35.2084ZM73.5651 54.1502V48.2941L82.0285 39.8307L83.2534 44.4619L73.5651 54.1502Z" fill="black"/>
<path d="M30.7682 0H28.7015H26.6348V59.9987H30.7682L41.6776 49.0843L44.5634 59.9987H48.6968L32.8336 0H30.7682ZM38.0092 35.2083L30.7682 42.4494V7.81694L38.0092 35.2083ZM30.7682 54.1502V48.2941L39.2316 39.8307L40.4565 44.4619L30.7682 54.1502Z" fill="black"/>
<path d="M65.8561 37.0722L56.0556 0H53.9889H51.9222H49.8555V59.9987H53.9889V48.8725L57.7858 45.0756L61.7315 59.9987L65.8561 59.9685L61.0547 41.8067L62.5733 40.2882L65.8561 37.0722ZM53.9889 43.0278V7.81694L61.3509 35.6658L53.9889 43.0278Z" fill="black"/>
</g>
<defs>
<clipPath id="clip0_1506_6550">
<rect width="91.6667" height="60" fill="black"/>
</clipPath>
</defs>
</svg>
