<svg xmlns="http://www.w3.org/2000/svg" viewBox="0 0 3921 692"><defs><linearGradient id="b" x1="93.98" y1="344.13" x2="4159.18" y2="348.2" gradientTransform="matrix(1 0 0 -1 0 692)" gradientUnits="userSpaceOnUse"><stop offset="0" stop-color="#f79420" stop-opacity=".92"/><stop offset="1" stop-color="#c4c4c4" stop-opacity="0"/></linearGradient><mask id="a" x="0" y="0" width="3921" height="692" maskUnits="userSpaceOnUse"><path d="M131.84 681.77h172.68l54.59-200c7.45-27.29 46.14-27.37 53.7-.1l55.49 200.1h172.35L772.8 171H611l-43 203.35c-6.15 29.08-47.49 29.58-54.35.66L465.33 171H307.48l-47.92 205.38c-6.77 29-48.19 28.57-54.36-.56l-15.32-72.32A167.09 167.09 0 0026.42 171H0zM1063.21 691.42c132.8 0 220.13-64.84 238.59-165.26l-148-4.32c-12.52 33.91-45.48 52.2-87.66 52.2C1004.22 574 966 532.48 966 470v-4.32h337.45v-40.61c0-168.25-101.5-260.69-245.18-260.69-152.91 0-251.11 105.74-251.11 264C807.15 592 904 691.42 1063.21 691.42zM966 371.21c2.31-50.88 42.18-89.45 95.57-89.45 53 0 91.28 37.24 91.94 89.45zM1827.66 327C1819.09 225.9 1737 164.38 1600 164.38S1375.53 224.57 1376.19 327c-.66 78.48 49.1 129 150.27 148l88.32 17c41.85 8.31 61 21.61 61.62 44.22-.66 25.61-29 42.57-70.19 42.57-45.81 0-76.78-20-83.7-57.2l-159.17 4c11.53 101.09 97.54 165.93 242.21 165.93 135.44 0 234-68.17 234.64-173.24-.66-74.48-49.44-118.71-150.28-138.33l-97.54-18.62c-42.84-8.64-56.68-23.94-56.35-43.56-.33-25.93 29.66-41.89 66.89-41.89 42.52 0 72.17 22.94 76.79 55.19zM2205.24 171H2114V48.67h-161.19V171h-66.9v119.7h66.9v248.43c-1 103.41 65.58 155.28 179.27 150a335.44 335.44 0 0082.38-14.63l-24.38-117.38c-6.92 1.66-23.07 5-35.26 5-26 0-40.87-10.64-40.87-40.9V290.74h91.29zM2518.63 691.42c132.81 0 220.14-64.84 238.59-165.26l-148-4.32c-12.53 33.91-45.48 52.2-87.66 52.2-62 0-100.18-41.56-100.18-104.08v-4.32h337.45v-40.57c0-168.25-101.5-260.69-245.18-260.69-152.91 0-251.11 105.74-251.11 264 .04 163.62 96.92 263.04 256.09 263.04zm-97.21-320.21c2.3-50.88 42.18-89.45 95.56-89.45 53.06 0 91.29 37.24 91.95 89.45zM3002.32 390.49c.33-58.19 33.94-92.77 85-92.77s81.4 33.92 81.07 90.45v293.6h161.14V356.24c.33-115-69.2-191.86-175.64-191.86-74.81 0-131.49 38.24-153.9 100.42h-5.6V171h-153.22v510.77h161.15zM3614.2 689.09c76.45 0 121.93-42.89 142.36-90.11h4.94v82.79H3921V.79h-161.15v257.7h-3.29c-19.12-46.89-63.27-94.11-143-94.11-105.79 0-201.68 82.14-201.68 262.36-.02 173.9 90.6 262.35 202.32 262.35zm56-126.69c-59.65 0-92.93-53.53-92.93-136 0-82.13 32.95-135 92.93-135 59 0 93.26 51.54 93.26 135 .02 82.8-34.58 136-93.24 136z" fill="#fff"/></mask></defs><g mask="url(#a)"><path d="M0 0h3921v692H0z" fill="#e6007a"/><path d="M0 0h3921v692H0z" fill="url(#b)"/></g></svg>