<svg width="3921" height="692" viewBox="0 0 3921 692" fill="none" xmlns="http://www.w3.org/2000/svg">
<mask id="mask0" mask-type="alpha" maskUnits="userSpaceOnUse" x="0" y="0" width="3921" height="692">
<path d="M131.837 681.774H304.517L359.111 481.804C366.563 454.509 405.249 454.432 412.811 481.696L468.3 681.774H640.65L772.797 171.035H610.992L567.997 374.349C561.847 403.435 520.507 403.935 513.654 375.007L465.334 171.035H307.483L259.56 376.378C252.793 405.374 211.367 404.948 205.197 375.819L189.881 303.502C173.525 226.278 105.357 171.035 26.4198 171.035H0.0195312L131.837 681.774Z" fill="white"/>
<path d="M1063.21 691.417C1196.01 691.417 1283.34 626.577 1301.8 526.158L1153.83 521.835C1141.31 555.752 1108.35 574.04 1066.17 574.04C1004.22 574.04 965.991 532.476 965.991 469.964V465.641H1303.44V425.074C1303.44 256.823 1201.94 164.385 1058.26 164.385C905.355 164.385 807.152 270.124 807.152 428.4C807.152 591.995 904.037 691.417 1063.21 691.417ZM965.991 371.208C968.298 320.333 1008.17 281.762 1061.56 281.762C1114.61 281.762 1152.84 319.003 1153.5 371.208H965.991Z" fill="white"/>
<path d="M1827.66 326.983C1819.09 225.9 1737.04 164.385 1599.95 164.385C1462.86 164.385 1375.53 224.57 1376.19 326.983C1375.53 405.456 1425.29 455.998 1526.46 474.951L1614.78 491.909C1656.63 500.222 1675.74 513.523 1676.4 536.133C1675.74 561.737 1647.4 578.695 1606.21 578.695C1560.4 578.695 1529.43 558.744 1522.51 521.503L1363.34 525.493C1374.87 626.577 1460.88 691.417 1605.55 691.417C1740.99 691.417 1839.53 623.252 1840.19 518.178C1839.53 443.695 1790.75 399.471 1689.91 379.853L1592.37 361.232C1549.53 352.587 1535.69 337.291 1536.02 317.673C1535.69 291.737 1565.68 275.777 1602.91 275.777C1645.43 275.777 1675.08 298.72 1679.7 330.974L1827.66 326.983Z" fill="white"/>
<path d="M2205.24 171.035H2113.95V48.671H1952.81V171.035H1885.91V290.74H1952.81V539.126C1951.82 642.537 2018.39 694.409 2132.08 689.089C2170.96 687.094 2198.97 679.114 2214.46 674.458L2190.08 557.082C2183.16 558.744 2167.01 562.069 2154.82 562.069C2128.78 562.069 2113.95 551.429 2113.95 521.17V290.74H2205.24V171.035Z" fill="white"/>
<path d="M2518.63 691.417C2651.44 691.417 2738.77 626.577 2757.22 526.158L2609.26 521.835C2596.73 555.752 2563.78 574.04 2521.6 574.04C2459.64 574.04 2421.42 532.476 2421.42 469.964V465.641H2758.87V425.074C2758.87 256.823 2657.37 164.385 2513.69 164.385C2360.78 164.385 2262.58 270.124 2262.58 428.4C2262.58 591.995 2359.46 691.417 2518.63 691.417ZM2421.42 371.208C2423.72 320.333 2463.6 281.762 2516.98 281.762C2570.04 281.762 2608.27 319.003 2608.93 371.208H2421.42Z" fill="white"/>
<path d="M3002.32 390.493C3002.65 332.304 3036.26 297.722 3087.34 297.722C3138.42 297.722 3168.74 331.639 3168.41 388.166V681.774H3329.55V356.245C3329.88 241.195 3260.35 164.385 3153.91 164.385C3079.1 164.385 3022.42 202.624 3000.01 264.804H2994.41V171.035H2841.17V681.774H3002.32V390.493Z" fill="white"/>
<path d="M3614.2 689.089C3690.65 689.089 3736.13 646.195 3756.56 598.978H3761.5V681.774H3921V0.789307H3759.85V258.486H3756.56C3737.44 211.602 3693.29 164.385 3613.54 164.385C3507.75 164.385 3411.86 246.516 3411.86 426.737C3411.86 600.641 3502.48 689.089 3614.2 689.089ZM3670.22 562.402C3610.57 562.402 3577.29 508.867 3577.29 426.405C3577.29 344.274 3610.24 291.405 3670.22 291.405C3729.21 291.405 3763.48 342.944 3763.48 426.405C3763.48 509.2 3728.88 562.402 3670.22 562.402Z" fill="white"/>
</mask>
<g mask="url(#mask0)">
<path d="M-177.066 -1302.21H4586.49V1460.3H-177.066V-1302.21Z" fill="#E6007A"/>
<path d="M-354.148 -1160.54H4568.78V1672.8H-354.148V-1160.54Z" fill="url(#paint0_linear)"/>
<path d="M675.149 -3567.77C714.632 -3095.85 908.045 -2642.48 1220.41 -2287.41C1540.76 -1923.31 1984.56 -1678.07 2460.35 -1590.81C2694.75 -1547.68 2939.64 -1539.66 3175.03 -1580.28C3398.93 -1618.9 3624.83 -1716.69 3751.27 -1915.79C3807.75 -2004.06 3842.23 -2108.87 3840.73 -2214.19C3839.23 -2326.53 3791.75 -2427.83 3722.29 -2514.09C3645.32 -2609.88 3546.86 -2691.13 3449.41 -2765.85C3352.95 -2839.58 3249 -2904.77 3135.55 -2949.41C2883.66 -3047.7 2633.27 -2993.04 2391.88 -2891.23C2136 -2783.41 1888.61 -2656.02 1640.72 -2532.15C1133.44 -2278.89 615.176 -2028.63 51.9282 -1931.34C-89.5085 -1906.76 -233.444 -1892.72 -376.88 -1891.22C-505.322 -1889.71 -644.76 -1890.71 -769.204 -1925.82C-824.18 -1941.37 -880.655 -1967.45 -912.64 -2017.1C-954.122 -2081.29 -939.628 -2161.53 -921.636 -2230.74C-891.15 -2346.09 -833.676 -2453.41 -759.209 -2546.19C-605.278 -2738.27 -386.875 -2865.66 -152.48 -2932.36C-18.5403 -2970.47 120.398 -2990.03 259.335 -2997.55C393.275 -3004.57 535.712 -3009.59 668.652 -2987.52C798.594 -2966.46 888.554 -2885.21 933.034 -2761.84C978.014 -2637.97 970.018 -2506.57 965.52 -2377.18C959.022 -2183.1 975.015 -1905.76 1192.92 -1826.52C1305.87 -1785.4 1440.81 -1828.53 1551.26 -1860.62C1666.21 -1894.23 1778.16 -1938.36 1885.11 -1992.02C1995.56 -2047.69 2100.51 -2113.39 2198.47 -2189.11C2282.43 -2253.31 2379.89 -2325.53 2436.36 -2416.8C2476.34 -2481.5 2499.33 -2570.26 2428.37 -2621.42C2424.37 -2624.43 2417.37 -2623.93 2413.37 -2621.42C2207.96 -2495.54 2094.01 -2269.36 2051.03 -2037.66C2011.05 -1821.51 2012.05 -1555.2 2156.49 -1375.16C2272.43 -1230.72 2499.83 -1192.11 2643.27 -1322.5C2711.74 -1384.69 2733.23 -1480.48 2701.74 -1567.24C2664.26 -1670.05 2568.3 -1742.77 2463.85 -1767.84C2326.41 -1800.94 2181.48 -1763.83 2051.53 -1718.7C1931.09 -1676.57 1815.64 -1621.4 1705.19 -1557.71C1474.79 -1424.81 1265.89 -1258.81 1052.98 -1099.83C835.578 -937.842 612.177 -780.868 361.29 -675.049C79.9158 -555.688 -226.447 -495.507 -532.31 -499.52C-670.249 -501.526 -827.678 -504.033 -954.122 -565.719C-1090.06 -632.42 -1132.04 -773.847 -1097.56 -914.27C-1064.57 -1048.68 -982.609 -1162.52 -890.65 -1262.32C-799.191 -1361.62 -694.738 -1448.88 -582.788 -1524.11C-359.388 -1673.56 -108.5 -1776.37 148.385 -1852.1C212.856 -1871.16 277.827 -1888.21 342.798 -1903.75C412.767 -1920.81 490.232 -1945.88 562.7 -1941.37C726.126 -1930.84 751.115 -1734.24 779.103 -1607.36C904.047 -1047.17 952.525 -461.405 1189.92 67.1897C1219.41 133.389 1251.89 198.084 1287.88 260.773C1312.36 303.903 1342.35 350.544 1395.33 359.07C1511.28 376.623 1581.74 229.178 1616.23 142.918C1661.71 28.5732 1700.19 -123.886 1666.21 -246.256C1636.22 -353.078 1536.26 -392.698 1433.81 -383.169C1305.87 -371.132 1184.92 -307.942 1068.97 -257.289C924.038 -194.098 780.602 -126.394 638.666 -56.6841C356.792 81.7334 78.9163 228.175 -203.458 366.593C-766.706 644.932 -1360.44 894.184 -1991.16 960.885C-2142.59 976.934 -2294.52 981.949 -2446.45 974.426C-2441.46 979.441 -2436.46 984.457 -2431.46 989.472C-2427.46 793.882 -2278.53 634.4 -2101.61 569.705C-1905.2 497.989 -1689.29 552.152 -1513.87 653.959C-1324.46 764.292 -1178.52 930.292 -1043.58 1100.81C-912.14 1267.31 -784.698 1436.32 -638.263 1590.79C-98.0049 2159 610.678 2564.72 1374.34 2738.24C1550.26 2778.37 1750.17 2815.98 1904.1 2695.62C2016.05 2607.85 2066.53 2465.92 2085.02 2329.01C2106.51 2165.02 2088.52 1990.99 2038.04 1833.52C1982.06 1658.99 1861.62 1536.12 1673.7 1522.08C1470.79 1507.03 1261.89 1587.27 1068.97 1638.43C828.581 1702.12 588.688 1765.81 348.296 1829.5C110.902 1892.19 -125.992 1955.38 -363.386 2018.07C-480.334 2049.17 -597.781 2080.26 -714.729 2111.35C-831.177 2142.45 -948.124 2181.06 -1066.57 2202.63C-1180.52 2223.19 -1272.48 2170.03 -1276.98 2049.67C-1280.48 1962.91 -1249.49 1877.15 -1212.01 1800.42C-1121.55 1615.36 -1019.59 1436.32 -907.143 1263.8C-676.246 908.728 -401.369 582.243 -90.5083 294.876C-15.042 225.166 62.4233 157.462 141.888 92.2654C134.891 92.2654 127.894 92.2654 120.897 92.2654C363.289 280.834 387.778 617.851 436.756 898.196C468.242 1078.74 507.724 1258.28 553.704 1435.82C577.193 1526.09 602.681 1615.86 630.169 1705.13C652.659 1778.85 672.151 1857.59 707.135 1926.3C730.625 1971.93 766.609 2018.07 820.584 2025.6C873.061 2033.12 916.541 2001.02 947.527 1961.4C993.007 1902.22 1021.49 1828.5 1052.98 1761.3C1090.46 1681.56 1126.45 1600.81 1160.43 1519.57C1293.87 1201.11 1400.82 871.114 1479.79 535.101C1568.75 154.453 1621.73 -234.721 1638.22 -625.901C1638.72 -640.946 1617.73 -645.961 1610.23 -633.423C1433.81 -330.008 1351.85 25.0627 1381.33 375.118C1405.82 668.503 1522.27 980.444 1824.63 1079.74C1975.57 1129.39 2140.49 1122.87 2295.42 1096.79C2456.85 1069.71 2615.28 1022.07 2764.21 954.365C3058.58 820.461 3312.97 597.79 3447.41 298.888C3510.88 157.963 3547.36 3.99902 3545.37 -150.968C3543.87 -284.872 3519.88 -446.359 3413.92 -540.142C3292.48 -647.967 3131.55 -584.275 3018.1 -498.015C2898.15 -406.74 2797.7 -290.389 2719.23 -162.001C2343.9 450.847 2482.34 1240.73 2687.25 1888.18C2891.66 2533.13 3229.01 3135.44 3673.31 3644.98C3727.78 3707.67 3784.26 3768.85 3842.23 3828.53C3856.23 3842.58 3875.22 3822.01 3863.22 3807.47C3264.49 3045.67 2626.28 2314.97 1950.58 1620.37C1279.38 930.794 571.696 275.317 -167.974 -340.54C-523.315 -636.432 -894.648 -913.267 -1244.99 -1214.68C-1410.92 -1357.61 -1570.85 -1508.06 -1715.78 -1672.56C-1790.75 -1757.81 -1861.72 -1847.08 -1926.69 -1940.36C-1955.67 -1982.49 -1984.16 -2025.12 -2010.65 -2068.75C-2024.14 -2090.82 -2037.14 -2112.88 -2049.63 -2134.95C-2068.62 -2168.05 -2068.12 -2183.1 -2051.63 -2216.7C-1960.67 -2399.25 -1707.28 -2433.35 -1527.86 -2451.41C-1289.97 -2474.98 -1050.08 -2462.44 -814.684 -2420.81C-339.896 -2337.06 109.402 -2144.48 532.713 -1918.3C1358.34 -1477.97 2107.01 -885.183 2999.11 -577.254C3211.01 -504.033 3428.92 -448.365 3651.32 -418.776C3762.27 -403.731 3873.72 -395.205 3985.67 -393.7C4032.15 -393.199 4055.14 -383.169 4078.13 -425.296C4100.62 -466.42 4113.11 -512.559 4116.61 -559.701C4131.6 -746.263 4019.15 -923.298 3880.71 -1038.65C3743.78 -1152.49 3572.35 -1217.18 3397.93 -1243.26C2972.12 -1306.45 2573.8 -1133.43 2204.96 -937.841C2102.01 -883.177 2000.06 -827.007 1897.1 -772.844C1800.15 -721.689 1649.21 -611.357 1539.26 -680.064C1457.3 -731.218 1438.31 -847.569 1427.31 -935.835C1411.32 -1065.73 1401.32 -1196.62 1392.83 -1327.01C1359.34 -1846.58 1374.84 -2369.16 1439.31 -2885.72C1455.8 -3020.12 1476.29 -3154.53 1499.78 -3287.93C1518.77 -3395.75 1531.77 -3512.1 1576.75 -3613.41C1622.23 -3714.72 1712.69 -3780.41 1826.13 -3739.79C1935.09 -3700.67 2017.05 -3600.87 2093.52 -3518.12C2639.27 -2925.84 3008.61 -2166.05 3662.81 -1677.57C3834.24 -1549.69 4032.15 -1422.8 4247.55 -1394.22C4423.47 -1370.65 4626.38 -1430.83 4720.34 -1592.82C4774.31 -1686.1 4776.31 -1795.93 4764.82 -1900.24C4752.33 -2014.59 4729.34 -2128.43 4703.85 -2240.77C4652.37 -2466.45 4580.9 -2687.12 4490.94 -2899.76C4399.98 -3113.9 4290.03 -3319.52 4162.59 -3514.11C4159.09 -3519.63 4152.09 -3523.14 4145.6 -3521.13C3724.79 -3372.18 3575.85 -2911.79 3364.95 -2562.24C3246.5 -2365.65 3087.57 -2167.05 2872.67 -2072.76C2646.27 -1972.96 2403.38 -2042.67 2235.95 -2218.2C2021.05 -2443.88 1973.57 -2764.35 1931.59 -3059.74C1924.09 -3054.22 1917.09 -3048.21 1909.6 -3042.69C2287.93 -2876.69 2445.36 -2460.43 2600.79 -2107.37C2641.77 -2014.09 2683.75 -1921.31 2730.73 -1831.04C2789.7 -1717.69 2857.17 -1609.37 2917.15 -1496.02C3028.1 -1285.89 3115.06 -1041.15 3043.09 -802.935C2974.62 -576.752 2768.21 -488.486 2572.8 -394.703C2484.34 -352.075 2395.88 -305.434 2323.91 -237.73C2244.95 -163.506 2191.97 -67.2158 2148.99 31.0806C2060.53 234.193 2000.56 473.916 1801.65 599.796C1689.2 671.011 1570.75 661.984 1452.8 608.322C1352.85 563.186 1260.39 511.028 1152.44 485.953C757.613 395.179 289.822 581.24 121.397 965.399C23.9407 1188.07 78.4163 1434.81 181.37 1645.45C275.328 1837.53 412.767 2007.04 574.694 2145.96C934.034 2453.89 1398.33 2598.32 1866.12 2614.37C2115.5 2622.9 2370.39 2599.33 2613.78 2544.16C2807.7 2500.03 3002.11 2428.81 3160.54 2304.94C3317.47 2182.57 3420.42 2008.04 3432.42 1806.94C3447.41 1562.2 3342.96 1325.48 3230.01 1114.85C3110.56 892.178 2970.12 668.503 2934.14 413.734C2901.15 182.036 2975.12 -40.1338 3084.57 -241.742C3191.02 -438.335 3325.46 -617.375 3438.41 -809.956C3562.86 -1022.1 3638.32 -1249.78 3701.3 -1487C3813.75 -1912.78 3944.19 -2454.92 4398.98 -2639.47C4655.37 -2743.79 4936.74 -2674.08 5187.63 -2588.82C5409.03 -2513.59 5631.93 -2432.35 5841.34 -2327.03C6039.25 -2227.73 6227.17 -2100.85 6366.6 -1926.32C6385.09 -1903.25 6413.58 -1880.18 6401.59 -1851.6C6393.09 -1831.54 6377.1 -1812.48 6364.6 -1794.93C6331.62 -1748.79 6294.13 -1706.16 6252.65 -1667.04C6175.19 -1593.32 6085.73 -1533.64 5991.27 -1485.49C5795.36 -1385.19 5576.96 -1332.03 5359.55 -1306.95C5109.67 -1277.87 4856.78 -1279.37 4606.39 -1306.45C4093.62 -1362.12 3595.84 -1526.12 3131.55 -1747.78C2901.15 -1857.61 2678.25 -1982.99 2462.35 -2118.9C2253.44 -2250.8 2050.53 -2391.73 1837.63 -2517.1C1631.22 -2638.47 1413.82 -2745.79 1181.42 -2808.48C987.01 -2861.14 708.634 -2899.26 600.183 -2679.59C564.699 -2607.88 567.698 -2522.62 614.677 -2456.92C653.659 -2402.26 715.631 -2371.67 777.604 -2349.6C929.536 -2295.44 1136.94 -2285.41 1221.91 -2125.42C1314.36 -1951.4 1236.9 -1736.25 1320.36 -1558.71C1336.35 -1524.61 1351.85 -1491.51 1390.33 -1484.49C1431.31 -1476.97 1473.79 -1481.48 1514.27 -1490.01C1602.23 -1508.06 1698.69 -1560.72 1790.15 -1544.67C1913.6 -1523.11 1904.1 -1381.18 1935.59 -1289.4C1960.57 -1217.18 2031.54 -1138.45 2114.01 -1170.54C2126.5 -1175.56 2129.5 -1196.12 2114.01 -1199.63C1738.17 -1284.89 1346.35 -1264.33 963.52 -1261.82C559.201 -1258.81 155.382 -1254.8 -248.937 -1249.28C-653.256 -1243.76 -1057.08 -1237.24 -1461.39 -1229.72C-1607.33 -1226.71 -1760.76 -1235.24 -1901.2 -1187.59C-1954.17 -1170.04 -2006.15 -1143.96 -2045.13 -1102.84C-2069.12 -1077.76 -2115.1 -1015.58 -2102.61 -978.464C-2094.11 -953.388 -2051.13 -923.297 -2032.14 -904.741C-2002.15 -875.654 -1971.17 -848.07 -1939.18 -820.989C-1882.21 -773.345 -1821.73 -728.711 -1759.26 -688.088C-1628.32 -602.33 -1487.88 -532.619 -1342.95 -474.444C-1034.59 -350.57 -707.732 -280.86 -380.878 -229.706C393.275 -108.34 1180.42 -96.8047 1961.57 -138.932C2357.4 -160.497 2752.72 -195.603 3147.04 -237.229C3299.97 -253.277 3452.91 -275.343 3606.84 -269.325C3737.28 -264.31 3877.22 -242.243 3985.67 -165.01C4039.14 -126.896 4079.13 -76.2429 4106.11 -17.0645C4107.11 -23.0825 4107.61 -29.1011 4108.61 -35.1194C3950.68 91.7634 3761.27 165.486 3566.86 215.136C3360.95 267.795 3149.04 300.894 2938.14 327.976C2498.83 384.146 2054.03 397.686 1612.23 369.602C1391.83 355.559 1174.43 325.469 955.524 296.381C882.057 286.852 801.093 287.354 746.618 346.03C706.136 389.161 699.139 449.843 704.136 506.514C711.133 583.246 735.123 656.969 753.115 731.192C775.604 825.477 794.096 939.821 678.148 974.426C590.687 1001.01 487.733 984.456 398.273 981.447C283.324 977.937 168.876 974.426 53.9272 970.915C-457.844 954.867 -970.115 939.32 -1481.89 923.271C-1496.38 922.77 -1502.88 944.334 -1489.38 951.356C-997.103 1210.14 -504.823 1468.42 -12.543 1727.2C213.356 1846.05 437.256 1975.95 676.149 2067.22C893.552 2149.97 1134.44 2194.1 1360.34 2118.38C1567.25 2049.17 1734.68 1898.21 1882.11 1741.74C2036.54 1578.25 2175.48 1399.71 2297.42 1210.14C2542.81 827.984 2718.24 399.191 2807.7 -46.6538C2910.65 -558.197 2903.65 -1082.28 2914.65 -1601.84C2920.14 -1863.63 2930.64 -2126.43 2962.63 -2386.71C2979.12 -2522.62 3001.61 -2658.03 3032.59 -2791.43C3058.08 -2901.26 3091.57 -3012.1 3152.54 -3107.89C3214.01 -3203.67 3303.97 -3276.9 3416.92 -3299.46C3521.88 -3320.53 3628.33 -3290.94 3694.3 -3203.67C3788.26 -3078.8 3792.25 -2890.73 3918.7 -2789.43C4073.63 -2665.05 4290.53 -2788.42 4421.97 -2888.72C4574.4 -3005.08 4722.84 -3181.11 4919.25 -3219.22C4966.73 -3228.25 5018.71 -3228.75 5063.69 -3210.19C5129.16 -3183.11 5150.65 -3122.93 5151.65 -3056.23C5153.15 -2924.33 5136.65 -2789.93 5124.16 -2658.53C5112.16 -2535.66 5110.66 -2394.73 5047.19 -2285.41C4983.72 -2175.57 4858.78 -2132.95 4747.33 -2089.31C4622.38 -2040.17 4496.94 -1991.02 4372 -1941.87C4255.55 -1896.23 4137.1 -1840.56 4012.16 -1822.01C3875.72 -1801.45 3746.28 -1845.08 3624.83 -1904.26C3517.38 -1956.91 3413.92 -2018.1 3313.97 -2083.3C2909.65 -2347.59 2563.3 -2689.12 2171.48 -2970.47C1795.15 -3240.28 1352.35 -3468.47 879.558 -3472.49C681.146 -3473.99 450.25 -3449.42 328.804 -3271.88C225.85 -3121.43 219.853 -2923.33 205.359 -2747.8C184.869 -2502.56 113.401 -2271.36 67.4211 -2030.64C28.4387 -1824.01 25.4402 -1617.89 96.4084 -1417.79C220.353 -1067.73 522.218 -781.37 880.557 -684.578C1078.47 -630.916 1276.88 -654.487 1476.79 -683.073C1689.7 -713.665 1933.59 -756.795 2132 -646.463C2337.9 -531.616 2415.37 -286.377 2401.38 -62.2007C2392.88 71.2017 2356.4 201.094 2312.42 326.472C2278.93 422.762 2201.97 545.131 2259.44 645.935C2281.43 684.05 2314.92 715.144 2344.9 746.237C2386.88 789.869 2428.86 832.999 2472.84 874.625C2549.81 946.842 2632.27 1014.55 2724.73 1066.2C2925.64 1178.04 3139.05 1174.03 3351.45 1097.8C3463.4 1057.68 3570.35 1005.52 3679.31 958.377C3795.25 908.227 3912.7 862.588 4032.15 821.464C4262.54 741.724 4498.94 679.035 4737.83 632.896C5220.62 540.116 5716.89 515.542 6206.17 561.681C6447.57 584.249 6686.96 624.37 6922.85 681.041C6941.85 685.555 6949.84 656.467 6930.85 651.953C5984.77 424.267 4977.72 469.904 4055.64 781.343C3940.19 820.461 3826.24 863.591 3713.79 910.734C3600.34 958.377 3489.89 1013.04 3375.44 1056.67C3258.99 1100.81 3135.05 1133.91 3009.6 1124.88C2894.66 1116.35 2786.21 1071.72 2690.25 1009.53C2594.29 947.846 2509.83 870.111 2429.36 789.869C2394.38 754.763 2359.4 719.156 2325.91 682.546C2305.42 659.978 2284.93 636.908 2274.93 607.319C2259.44 562.183 2273.93 517.046 2289.43 474.418C2370.89 250.743 2458.35 19.5459 2425.87 -223.186C2399.38 -420.281 2294.92 -606.342 2109.51 -690.596C1923.09 -775.351 1709.69 -745.762 1514.27 -718.179C1299.87 -688.088 1088.46 -656.493 876.059 -716.674C685.645 -770.837 512.222 -880.167 375.283 -1023.1C238.344 -1166.03 136.89 -1344.07 92.4099 -1537.65C37.9343 -1773.36 89.4114 -2009.07 145.386 -2239.27C174.374 -2357.62 203.86 -2475.48 219.853 -2596.34C233.347 -2694.64 237.845 -2793.94 247.841 -2892.24C269.331 -3094.34 322.807 -3315.01 533.713 -3394.25C646.662 -3436.38 775.104 -3443.4 895.051 -3441.39C1015.5 -3438.88 1135.44 -3421.33 1252.39 -3392.24C1487.79 -3333.06 1709.69 -3228.25 1916.59 -3102.37C2327.91 -2852.62 2675.25 -2514.1 3058.58 -2225.73C3248.5 -2082.79 3450.41 -1944.38 3669.31 -1849.59C3773.76 -1804.45 3884.21 -1775.87 3998.66 -1789.41C4119.11 -1803.95 4232.56 -1854.61 4344.51 -1898.74C4469.45 -1947.89 4594.9 -1997.04 4719.84 -2046.18C4816.8 -2084.3 4922.75 -2117.9 5002.71 -2187.11C5086.68 -2259.33 5116.66 -2365.15 5131.66 -2470.96C5149.65 -2597.35 5159.64 -2725.23 5168.64 -2852.11C5173.14 -2914.8 5178.63 -2977.49 5179.63 -3040.18C5180.63 -3089.33 5175.64 -3139.48 5146.65 -3180.6C5101.67 -3244.8 5017.21 -3260.85 4943.74 -3253.32C4755.32 -3234.27 4604.39 -3078.3 4465.45 -2963.45C4326.52 -2848.6 4057.64 -2656.52 3901.21 -2846.1C3797.75 -2971.47 3798.75 -3159.54 3671.31 -3269.87C3536.37 -3386.23 3325.46 -3338.08 3205.52 -3223.23C3045.59 -3070.27 3001.61 -2828.54 2964.62 -2619.91C2873.67 -2106.37 2885.66 -1583.29 2871.67 -1063.72C2858.17 -557.193 2812.19 -53.1736 2643.27 427.275C2488.84 867.604 2249.44 1277.84 1942.08 1627.9C1792.65 1797.41 1625.72 1970.43 1416.32 2063.21C1177.42 2168.53 917.541 2127.91 681.146 2037.63C433.258 1943.35 200.862 1806.43 -33.5337 1683.06C-276.925 1555.18 -520.316 1427.29 -763.707 1299.41C-1001.6 1174.53 -1239.49 1049.65 -1477.39 924.776C-1479.89 934.305 -1482.39 943.332 -1484.88 952.86C-1019.59 967.404 -553.801 981.447 -88.5088 995.991C133.892 1003.01 358.791 1020.06 581.191 1016.05C644.663 1015.05 718.13 1006.02 763.11 955.87C813.087 900.704 800.593 820.963 786.1 754.262C758.612 623.869 641.165 339.009 866.564 321.457C915.042 317.444 964.52 327.977 1012 335.499C1066.97 344.025 1121.95 351.547 1176.92 358.568C1290.37 373.112 1404.32 384.647 1518.77 393.173C1963.57 427.276 2411.37 418.75 2854.17 367.596C3089.57 340.514 3325.96 305.408 3556.36 247.734C3761.27 196.58 3960.68 119.347 4126.6 -14.0552C4132.1 -18.5688 4131.6 -26.5933 4129.1 -32.1099C4022.65 -264.31 3743.28 -304.431 3515.88 -299.917C3354.95 -296.407 3194.52 -272.334 3035.09 -255.784C2840.68 -235.724 2646.27 -217.669 2451.85 -202.123C1681.7 -140.437 905.546 -119.875 135.891 -194.098C-217.951 -228.201 -573.292 -278.353 -917.638 -367.12C-1225 -446.359 -1527.37 -560.704 -1789.75 -742.251C-1857.22 -788.892 -1921.19 -839.545 -1981.66 -895.213C-2008.65 -920.289 -2036.14 -945.364 -2060.63 -972.948C-2075.12 -988.996 -2076.12 -992.005 -2069.12 -1012.57C-2062.63 -1030.62 -2053.63 -1047.67 -2042.13 -1063.22C-1964.17 -1167.53 -1806.24 -1188.6 -1685.79 -1194.62C-1494.38 -1204.14 -1301.47 -1202.64 -1110.05 -1206.15C-914.14 -1209.66 -718.227 -1212.67 -522.315 -1215.68C-127.491 -1221.2 267.332 -1226.21 662.155 -1229.22C858.067 -1230.72 1053.48 -1232.23 1249.39 -1233.23C1436.31 -1234.24 1623.23 -1234.74 1809.64 -1217.18C1908.6 -1207.66 2006.55 -1192.61 2103.51 -1170.54C2103.51 -1180.07 2103.51 -1190.1 2103.51 -1199.63C2012.05 -1164.52 1963.07 -1281.38 1948.58 -1351.09C1935.59 -1412.77 1926.59 -1480.98 1880.61 -1528.12C1800.65 -1610.87 1681.2 -1569.25 1586.74 -1541.66C1529.27 -1524.61 1455.8 -1498.03 1395.33 -1514.08C1337.85 -1529.63 1318.86 -1638.45 1310.86 -1689.11C1290.87 -1817.49 1308.87 -1951.4 1270.88 -2076.78C1200.41 -2308.47 953.025 -2311.99 763.61 -2386.71C645.662 -2433.35 559.201 -2541.68 626.171 -2671.07C715.631 -2843.59 930.535 -2835.56 1092.96 -2799.46C1412.32 -2728.74 1702.69 -2568.76 1977.07 -2395.74C2255.94 -2220.21 2526.82 -2033.14 2816.19 -1874.67C3395.43 -1558.21 4031.65 -1324.01 4692.35 -1268.34C5000.71 -1242.26 5319.57 -1251.79 5621.44 -1323C5882.32 -1384.69 6144.7 -1499.54 6325.62 -1703.65C6368.1 -1751.8 6405.58 -1804.45 6437.07 -1860.12C6439.57 -1864.64 6440.07 -1871.16 6437.07 -1875.17C6274.14 -2112.89 6031.25 -2271.86 5773.87 -2390.72C5642.43 -2451.91 5506.99 -2503.56 5371.05 -2553.21C5207.12 -2613.39 5041.7 -2674.58 4869.27 -2704.17C4707.85 -2731.75 4540.42 -2729.75 4386.49 -2668.06C4266.04 -2619.41 4161.09 -2539.17 4075.13 -2442.38C3873.22 -2215.19 3780.26 -1922.81 3704.29 -1633.94C3660.31 -1467.94 3619.83 -1300.43 3559.36 -1138.95C3503.88 -989.999 3427.42 -852.584 3342.96 -718.68C3190.52 -477.453 3009.6 -242.243 2929.14 36.0962C2889.66 172.508 2880.16 314.435 2905.15 454.357C2933.64 613.838 3002.61 763.289 3077.07 905.719C3232 1202.11 3447.41 1523.08 3389.94 1875.14C3341.46 2169.53 3088.57 2352.58 2826.19 2449.37C2525.32 2560.71 2187.97 2595.31 1869.61 2585.28C1238.4 2565.73 589.188 2293.91 255.837 1730.71C171.375 1587.78 104.405 1426.29 94.9089 1258.28C84.4136 1077.74 154.383 912.238 274.329 779.839C467.742 567.699 767.108 465.892 1049.48 499.995C1119.45 508.521 1188.92 525.572 1254.89 551.65C1328.86 580.738 1397.33 622.364 1471.29 651.953C1600.74 703.609 1732.18 688.062 1843.63 603.307C2083.52 420.756 2100.01 100.289 2266.44 -132.412C2434.36 -367.12 2751.22 -386.679 2946.13 -587.284C3147.04 -794.409 3113.56 -1115.88 3009.6 -1361.12C2943.13 -1517.09 2851.68 -1660.02 2771.21 -1808.47C2705.74 -1929.83 2650.27 -2056.21 2594.79 -2182.6C2491.34 -2418.31 2387.38 -2665.55 2210.96 -2857.13C2128.5 -2946.4 2031.04 -3019.12 1919.59 -3067.76C1907.1 -3073.28 1895.6 -3064.25 1897.6 -3050.71C1936.08 -2782.91 1977.57 -2498.05 2142.99 -2275.38C2276.43 -2095.33 2483.84 -1968.95 2713.24 -1998.04C2933.64 -2025.62 3114.06 -2181.09 3248 -2348.6C3394.93 -2532.15 3488.89 -2746.8 3604.34 -2950.41C3732.28 -3176.09 3894.21 -3401.77 4148.1 -3491.54C4142.6 -3494.05 4136.6 -3496.06 4131.1 -3498.56C4394.49 -3096.35 4582.4 -2646.49 4682.36 -2175.57C4729.34 -1953.4 4808.3 -1653 4587.4 -1498.53C4383.49 -1356.1 4127.6 -1428.32 3927.69 -1538.15C3198.52 -1937.86 2795.7 -2717.71 2282.93 -3339.58C2217.96 -3418.82 2150.49 -3496.06 2080.52 -3570.28C2011.55 -3643.5 1939.08 -3722.74 1844.63 -3762.36C1767.16 -3794.46 1680.2 -3787.44 1616.23 -3729.76C1556.26 -3675.1 1527.27 -3592.35 1508.28 -3515.11C1449.3 -3274.39 1418.82 -3022.63 1391.83 -2776.39C1362.84 -2516.1 1346.35 -2254.81 1342.35 -1993.02C1338.35 -1731.23 1346.35 -1469.44 1366.84 -1208.16C1375.84 -1093.81 1381.83 -976.458 1403.82 -863.617C1418.32 -789.394 1445.8 -706.143 1510.28 -660.003C1588.24 -604.335 1681.2 -633.925 1760.16 -671.037C1870.11 -723.194 1976.57 -782.874 2083.52 -840.548C2295.42 -954.893 2509.33 -1070.24 2739.23 -1145.97C3101.56 -1265.33 3552.86 -1272.85 3860.22 -1012.57C4012.16 -883.678 4153.59 -645.961 4051.14 -446.359C4035.65 -415.767 4012.66 -422.788 3981.17 -423.289C3954.18 -423.791 3927.69 -424.293 3900.71 -425.296C3842.23 -427.803 3783.76 -432.317 3725.78 -438.335C3611.34 -450.371 3497.39 -469.93 3385.44 -495.508C2459.85 -704.638 1683.2 -1285.39 877.559 -1756.31C464.244 -1998.04 32.9368 -2219.21 -426.858 -2357.12C-648.258 -2423.32 -875.657 -2469.46 -1106.55 -2486.01C-1321.46 -2501.06 -1550.35 -2498.05 -1760.26 -2444.38C-1841.22 -2423.82 -1922.19 -2392.23 -1988.66 -2340.57C-2017.65 -2318 -2043.63 -2291.93 -2064.13 -2261.33C-2079.12 -2238.76 -2108.61 -2191.62 -2104.11 -2163.04C-2100.11 -2140.47 -2076.12 -2111.88 -2064.62 -2092.32C-2051.63 -2070.26 -2038.14 -2048.19 -2024.64 -2026.62C-1994.66 -1978.98 -1963.17 -1932.34 -1930.18 -1886.7C-1869.71 -1802.95 -1804.74 -1722.21 -1736.27 -1644.47C-1440.9 -1310.47 -1087.06 -1036.14 -739.218 -760.807C22.4414 -162.001 749.116 475.922 1440.31 1151.96C2128.5 1825.49 2782.21 2534.63 3396.43 3276.87C3547.36 3458.92 3695.8 3643.48 3842.23 3829.54C3849.23 3822.52 3856.23 3815.49 3863.22 3808.47C3424.42 3353.6 3075.58 2813.97 2840.18 2226.7C2723.23 1934.82 2633.77 1631.41 2575.3 1321.97C2508.83 969.411 2483.84 598.793 2577.8 249.239C2654.76 -37.125 2815.69 -323.99 3065.58 -493.501C3138.05 -542.649 3227.51 -582.771 3315.97 -559.199C3390.43 -539.139 3440.41 -473.441 3469.4 -405.737C3528.87 -267.319 3525.87 -98.8108 3497.39 46.6277C3436.91 357.565 3240 624.37 2980.62 800.401C2727.73 971.918 2407.87 1080.24 2102.01 1087.27C1946.08 1090.78 1782.65 1060.18 1659.71 957.875C1544.26 862.086 1478.29 720.66 1442.81 576.726C1365.34 261.275 1405.32 -86.7749 1523.27 -386.679C1554.76 -466.42 1592.74 -543.151 1635.72 -617.375C1626.22 -619.882 1617.23 -622.39 1607.73 -624.897C1579.74 39.105 1444.81 697.591 1208.91 1318.96C1147.94 1479.95 1079.47 1638.43 1005 1793.4C975.515 1855.08 945.528 1943.85 884.555 1982.47C805.591 2032.62 747.617 1950.37 720.629 1885.17C656.158 1728.7 615.176 1557.18 573.195 1393.69C529.714 1224.68 493.231 1053.66 463.744 882.147C414.766 599.294 386.279 261.777 141.888 71.7034C134.891 66.1868 127.394 66.1868 120.897 71.7034C-202.458 337.003 -492.328 640.92 -742.716 976.432C-869.16 1145.44 -984.608 1322.48 -1089.56 1506.03C-1142.04 1597.81 -1191.52 1691.09 -1237.49 1785.87C-1270.98 1854.58 -1297.47 1927.3 -1304.96 2004.03C-1310.96 2067.72 -1301.97 2138.44 -1256.49 2186.58C-1196.01 2250.77 -1104.55 2244.26 -1026.09 2225.7C-786.197 2169.03 -548.303 2099.32 -309.91 2036.13C167.377 1909.25 644.663 1782.86 1121.95 1655.98C1319.36 1603.82 1553.76 1509.04 1759.16 1567.21C1967.07 1626.39 2029.04 1856.59 2053.53 2047.16C2074.02 2207.65 2068.53 2386.18 1995.06 2533.63C1960.07 2603.84 1908.6 2664.52 1839.63 2702.64C1737.17 2759.31 1617.73 2754.29 1505.78 2735.24C1107.96 2666.53 717.631 2516.58 364.289 2323.5C9.44727 2129.91 -315.907 1882.67 -596.781 1591.79C-743.716 1439.33 -872.158 1273.33 -1002.1 1106.83C-1131.54 941.326 -1269.48 778.334 -1446.4 661.482C-1605.83 556.165 -1799.74 486.454 -1992.66 512.533C-2152.59 534.098 -2306.02 627.379 -2392.98 764.292C-2436.46 831.996 -2459.95 909.229 -2461.45 989.972C-2461.45 998.498 -2454.45 1004.52 -2446.45 1005.02C-1285.47 1059.18 -264.93 413.735 741.62 -71.7295C868.563 -132.914 996.006 -192.092 1125.45 -247.76C1237.9 -295.905 1364.84 -363.108 1491.28 -353.078C1664.21 -339.035 1658.71 -150.968 1633.72 -20.575C1621.73 42.114 1602.73 103.8 1576.75 161.975C1548.76 225.166 1507.28 308.417 1434.31 327.976C1355.34 349.04 1316.86 252.248 1287.38 197.082C1254.89 135.897 1224.9 72.7065 1197.42 9.0144C1145.44 -112.853 1103.46 -238.231 1067.47 -365.615C995.506 -620.885 949.027 -882.173 901.548 -1142.96C877.059 -1276.36 852.57 -1410.27 824.583 -1543.17C802.093 -1650.49 787.099 -1774.36 728.625 -1869.65C666.153 -1972.46 561.7 -1980.49 452.749 -1958.42C335.801 -1934.85 219.353 -1903.75 105.404 -1869.15C-126.992 -1798.44 -354.89 -1704.15 -560.298 -1572.76C-749.713 -1451.89 -939.128 -1292.91 -1053.08 -1095.82C-1154.03 -921.793 -1194.01 -671.538 -993.104 -551.677C-897.647 -494.504 -781.199 -482.969 -672.748 -474.444C-534.809 -463.912 -395.372 -466.42 -257.933 -481.465C3.94971 -510.553 259.835 -584.777 496.229 -702.632C713.632 -810.959 910.544 -953.89 1104.46 -1099.33C1297.37 -1244.27 1487.79 -1393.21 1695.69 -1516.09C1803.14 -1579.78 1915.09 -1635.95 2032.54 -1679.08C2160.48 -1726.22 2303.42 -1768.35 2440.36 -1741.77C2563.8 -1717.69 2691.25 -1616.89 2687.25 -1479.47C2684.25 -1381.68 2607.28 -1312.97 2518.82 -1286.89C2424.37 -1258.81 2316.42 -1272.35 2238.95 -1335.04C2149.49 -1406.76 2101.01 -1515.58 2078.52 -1625.41C2031.04 -1855.11 2071.52 -2119.91 2181.98 -2326.03C2206.96 -2372.67 2235.95 -2417.3 2269.94 -2457.42C2303.92 -2498.05 2355.9 -2560.74 2406.37 -2580.29C2424.87 -2587.32 2425.87 -2589.32 2438.36 -2569.26C2445.86 -2557.22 2446.86 -2540.17 2446.36 -2526.13C2444.86 -2496.54 2432.36 -2467.45 2418.37 -2442.38C2386.88 -2386.21 2336.41 -2343.08 2288.93 -2300.95C2094.51 -2127.93 1864.62 -1995.03 1618.73 -1912.28C1562.75 -1893.72 1505.78 -1877.17 1447.8 -1863.63C1372.34 -1846.08 1290.37 -1827.02 1214.41 -1851.1C1096.96 -1888.21 1032.49 -2011.58 1008.5 -2124.92C957.523 -2370.16 1063.48 -2643.49 915.042 -2867.66C856.068 -2957.43 767.108 -3004.07 662.155 -3019.12C530.714 -3037.67 392.775 -3035.17 260.335 -3027.64C-206.956 -3002.57 -717.727 -2809.99 -912.64 -2346.59C-952.622 -2251.8 -996.103 -2123.42 -949.624 -2023.11C-909.642 -1936.85 -813.185 -1900.75 -725.724 -1884.7C-463.841 -1835.55 -182.467 -1858.12 78.4165 -1904.76C649.161 -2007.07 1173.93 -2264.34 1688.2 -2521.62C1948.58 -2651.51 2208.46 -2790.43 2480.84 -2894.24C2612.28 -2944.39 2750.72 -2981.5 2892.66 -2973.48C3030.1 -2965.96 3161.04 -2915.3 3278.98 -2846.1C3390.93 -2780.4 3493.39 -2698.15 3589.35 -2610.39C3687.8 -2520.61 3781.76 -2414.29 3806.25 -2278.38C3852.73 -2016.59 3654.82 -1785.4 3430.92 -1685.6C3196.02 -1580.28 2917.15 -1569.75 2664.26 -1592.82C2405.88 -1615.89 2150.99 -1686.6 1917.09 -1798.94C1461.8 -2017.6 1099.46 -2394.73 891.553 -2855.62C790.098 -3080.3 727.626 -3321.53 707.135 -3567.27C703.636 -3586.83 673.65 -3586.83 675.149 -3567.77Z" fill="#E6007A"/>
</g>
<defs>
<linearGradient id="paint0_linear" x1="-237.178" y1="175.18" x2="4868.84" y2="170.068" gradientUnits="userSpaceOnUse">
<stop stop-color="#F79420" stop-opacity="0.92"/>
<stop offset="1" stop-color="#C4C4C4" stop-opacity="0"/>
</linearGradient>
</defs>
</svg>
