<svg xmlns="http://www.w3.org/2000/svg" viewBox="0 0 1671.16 1671.66"><defs><linearGradient id="b" x1="40.98" y1="835.47" x2="1774.13" y2="836.99" gradientTransform="matrix(1 0 0 -1 -.84 1672)" gradientUnits="userSpaceOnUse"><stop offset="0" stop-color="#f79420" stop-opacity=".92"/><stop offset="1" stop-color="#c4c4c4" stop-opacity="0"/></linearGradient><mask id="a" x="0" y="0" width="1671.16" height="1671.66" maskUnits="userSpaceOnUse"><circle cx="836.27" cy="836.22" r="835.44" fill="#c4c4c4" transform="translate(-.84)"/></mask></defs><circle cx="835.44" cy="836.22" r="835.44" fill="#e6007a"/><g mask="url(#a)"><path fill="url(#b)" d="M.66 0h1670.5v1671.65H.66z"/></g><path d="M533.46 1196.48H735.4L799.78 963c8.87-32.19 54.14-32.17 63 0l64.15 233.43h201.55l154.53-597h-189.23l-48.32 237c-7 34.4-55.41 35.35-63.75 1.25l-58.25-238.16h-184.6l-56.7 239.64c-8.11 34.22-56.6 33.55-63.78-.87l-17-81.7c-19.22-91.53-99.22-157.07-192-157.07h-30.06z" fill="#fff"/></svg>