<svg xmlns="http://www.w3.org/2000/svg" viewBox="0 0 448 512"><g><path class="primary" d="M294.4 7.7c9-9.7 24.2-10.3 33.9-1.3l112 104c4.9 4.5 7.7 10.9 7.7 17.6s-2.8 13-7.7 17.6l-112 104c-9.7 9-24.9 8.5-33.9-1.3s-8.5-24.9 1.3-33.9l67.2-62.4H120c-39.8 0-72 32.2-72 72v40c0 13.3-10.7 24-24 24S0 277.3 0 264v-40c0-66.3 53.7-120 120-120h242.9l-67.2-62.4c-9.7-9-10.3-24.2-1.3-33.9zm-96 256c9-9.7 24.2-10.3 33.9-1.3l112 104c4.9 4.5 7.7 10.9 7.7 17.6s-2.8 13-7.7 17.6l-112 104c-9.7 9-24.9 8.5-33.9-1.3s-8.5-24.9 1.3-33.9l67.2-62.4H88c-22.1 0-40 17.9-40 40v40c0 13.3-10.7 24-24 24S0 501.3 0 488v-40c0-48.6 39.4-88 88-88h178.9l-67.2-62.4c-9.7-9-10.3-24.2-1.3-33.9z"/></g></svg>