<?xml version="1.0" standalone="no"?>
<!DOCTYPE svg PUBLIC "-//W3C//DTD SVG 20010904//EN"
 "http://www.w3.org/TR/2001/REC-SVG-20010904/DTD/svg10.dtd">
<svg version="1.0" xmlns="http://www.w3.org/2000/svg"
 width="1410.000000pt" height="1410.000000pt" viewBox="0 0 1410.000000 1410.000000"
 preserveAspectRatio="xMidYMid meet">
<metadata>
Created by potrace 1.14, written by Peter Selinger 2001-2017
</metadata>
<g transform="translate(0.000000,1410.000000) scale(0.100000,-0.100000)"
fill="#000000" stroke="none">
<path d="M6808 14095 c-1 -1 -43 -6 -93 -9 -49 -3 -103 -8 -120 -10 -16 -3
-61 -7 -100 -11 -38 -4 -72 -9 -75 -10 -3 -2 -26 -6 -50 -10 -66 -9 -193 -34
-285 -56 -44 -11 -88 -22 -98 -24 -111 -25 -365 -116 -512 -183 -166 -76 -393
-214 -490 -297 -268 -230 -410 -445 -464 -703 -12 -55 -16 -238 -6 -282 2 -14
10 -49 16 -79 37 -180 157 -381 330 -552 207 -206 573 -415 924 -530 180 -59
443 -123 600 -145 28 -3 59 -8 70 -10 11 -2 47 -7 80 -10 33 -3 71 -7 85 -10
145 -23 734 -23 882 1 13 2 46 6 73 9 28 4 61 9 75 11 14 3 41 7 60 9 32 4
128 20 175 30 182 39 276 64 434 116 182 60 462 187 553 251 14 11 29 19 32
19 3 0 36 21 73 47 286 198 480 429 565 672 37 109 47 181 44 316 -4 142 -19
212 -71 336 -57 136 -184 311 -302 416 -32 28 -74 66 -93 83 -52 46 -243 172
-345 227 -236 128 -558 242 -854 304 -25 5 -55 11 -66 13 -57 13 -280 46 -345
52 -41 4 -88 9 -105 11 -38 4 -592 12 -597 8z"/>
<path d="M2890 12153 c-275 -39 -559 -154 -829 -335 -579 -390 -1094 -1060
-1394 -1813 -94 -237 -186 -567 -212 -760 -1 -11 -6 -40 -9 -65 -4 -25 -9 -58
-12 -75 -13 -85 -12 -466 2 -565 19 -137 66 -333 93 -388 74 -152 113 -223
153 -276 233 -311 615 -429 1048 -324 376 91 767 332 1125 693 169 170 242
253 351 400 32 44 62 82 65 85 8 7 146 218 196 300 228 373 415 841 497 1240
26 129 32 162 42 252 3 29 9 77 13 106 9 61 7 411 -3 487 -8 57 -11 79 -26
155 -13 60 -12 56 -29 120 -65 242 -216 474 -386 595 -160 114 -323 166 -530
169 -71 1 -141 1 -155 -1z"/>
<path d="M10945 12149 c-104 -16 -127 -21 -188 -43 -374 -134 -600 -466 -673
-986 -11 -73 -11 -427 -1 -515 31 -267 78 -479 162 -731 46 -137 134 -364 165
-422 4 -9 35 -71 68 -137 33 -66 77 -149 97 -185 21 -36 43 -74 49 -85 71
-123 281 -426 341 -491 5 -7 39 -47 75 -90 87 -105 304 -321 415 -415 359
-300 738 -488 1062 -526 75 -9 255 -9 313 1 264 43 471 178 621 404 101 153
181 374 205 562 3 30 10 82 14 115 8 61 5 432 -4 471 -2 11 -7 45 -10 75 -20
184 -84 457 -161 679 -83 240 -240 582 -354 769 -28 46 -51 86 -51 87 0 4
-160 244 -177 264 -6 8 -46 60 -89 115 -213 277 -472 530 -714 701 -170 120
-289 189 -425 248 -138 59 -156 65 -260 95 -62 17 -92 23 -185 38 -53 8 -247
10 -295 2z"/>
<path d="M1275 6578 c-85 -14 -137 -29 -225 -66 -271 -112 -477 -370 -565
-706 -47 -177 -58 -269 -59 -491 -1 -228 8 -349 35 -491 5 -28 12 -64 15 -80
90 -502 363 -1115 708 -1589 266 -366 584 -679 903 -888 182 -120 428 -237
573 -273 224 -55 449 -64 603 -24 223 59 406 189 534 380 116 174 196 413 220
655 15 146 8 492 -11 592 -3 12 -8 43 -12 70 -95 660 -468 1435 -963 2008 -19
22 -105 110 -191 195 -155 154 -248 233 -403 342 -45 32 -87 61 -93 65 -5 5
-21 14 -35 22 -255 149 -420 218 -630 262 -113 23 -316 32 -404 17z"/>
<path d="M12568 6585 c-2 -2 -28 -5 -58 -9 -179 -20 -448 -118 -645 -233 -95
-56 -299 -194 -315 -213 -3 -3 -39 -33 -80 -65 -71 -57 -332 -310 -395 -385
-76 -89 -125 -151 -180 -225 -33 -44 -63 -81 -67 -83 -5 -2 -8 -10 -8 -17 0
-7 -4 -15 -8 -17 -27 -11 -234 -353 -335 -553 -132 -264 -197 -430 -292 -745
-14 -47 -65 -271 -69 -305 -2 -11 -6 -40 -10 -65 -25 -154 -31 -230 -31 -420
0 -204 6 -280 35 -418 68 -333 221 -586 445 -738 86 -58 209 -110 310 -130 11
-2 34 -7 50 -10 60 -12 252 -10 340 3 267 39 526 152 845 370 29 20 150 113
166 128 6 5 31 26 55 45 49 39 293 281 353 350 232 269 430 565 597 895 181
358 294 688 364 1065 47 255 54 606 16 830 -89 517 -373 850 -793 931 -53 10
-282 21 -290 14z"/>
<path d="M6848 2955 c-2 -1 -53 -5 -114 -9 -60 -4 -119 -8 -130 -10 -10 -2
-50 -7 -89 -12 -38 -4 -72 -8 -75 -9 -3 0 -27 -4 -55 -9 -279 -42 -589 -128
-832 -232 -856 -365 -1233 -990 -955 -1584 203 -435 753 -800 1467 -973 55
-13 116 -27 135 -31 19 -3 46 -8 60 -11 58 -12 270 -44 325 -49 279 -27 761
-27 915 -2 14 3 52 7 85 11 61 6 173 23 255 40 14 2 39 7 55 10 17 4 68 15
115 27 47 11 92 21 101 23 39 8 230 70 299 97 41 16 80 31 85 32 27 8 242 106
275 126 8 5 52 30 96 55 208 119 436 324 551 495 58 86 122 222 140 294 47
195 43 366 -14 536 -66 200 -238 423 -458 595 -143 112 -395 254 -580 327
-127 51 -299 109 -362 123 -10 2 -34 9 -53 15 -63 19 -349 75 -431 85 -24 3
-55 7 -69 10 -23 4 -81 10 -199 21 -53 5 -538 13 -543 9z"/>
</g>
</svg>
