<svg width="256" height="256" viewBox="0 0 256 256" fill="none" xmlns="http://www.w3.org/2000/svg">
<g clip-path="url(#clip0_101_12060)">
<rect width="256" height="256" rx="128" fill="#F40169"/>
<g filter="url(#filter0_f_101_12060)">
<path d="M228.409 140.629L185.923 159.242C184.49 159.87 183.773 160.184 183.194 160.691C182.614 161.197 182.207 161.866 181.394 163.202L164.987 190.156C164.735 190.57 164.609 190.777 164.464 190.97C164.319 191.163 164.156 191.342 163.83 191.7L118.76 241.062C118.433 241.42 118.27 241.598 118.125 241.792C117.98 241.985 117.854 242.192 117.602 242.605L104.07 264.838C101.918 268.373 100.841 270.141 101.154 271.983C101.467 273.824 103.066 275.137 106.264 277.765L134.655 301.085C135.65 301.903 136.148 302.312 136.726 302.58C137.305 302.848 137.938 302.964 139.206 303.195L188.821 312.252C190.548 312.567 191.411 312.725 192.26 312.588C193.11 312.45 193.88 312.029 195.419 311.186L229.411 292.571L282.365 253.906C283.702 252.93 284.371 252.442 284.841 251.779C285.312 251.117 285.553 250.325 286.035 248.741L303.613 190.984L312.52 142.21C312.704 141.204 312.796 140.701 312.785 140.193C312.773 139.685 312.66 139.186 312.432 138.189L306.558 112.458C305.208 106.539 304.532 103.58 302.262 102.559C299.993 101.538 297.33 102.996 292.006 105.912L285.726 109.351C285.395 109.533 285.229 109.623 285.057 109.701C284.885 109.779 284.707 109.844 284.352 109.974L258.563 119.389C257.901 119.63 257.57 119.751 257.26 119.917C256.95 120.082 256.665 120.29 256.096 120.706L230.293 139.546C229.852 139.868 229.632 140.029 229.396 140.165C229.16 140.3 228.909 140.41 228.409 140.629Z" fill="#16002C" fill-opacity="0.59"/>
</g>
<path d="M246.104 101.795L152.628 114.766C152.094 114.84 151.598 115.097 151.218 115.498L143.523 123.575C142.566 124.582 141.019 124.582 140.059 123.575L138.712 122.16C137.745 121.146 137.745 119.494 138.712 118.48L147.897 108.84C148.864 107.826 148.864 106.175 147.897 105.161L129.73 86.0887C128.773 85.0818 127.226 85.0818 126.266 86.0887L108.099 105.161C107.132 106.175 107.132 107.826 108.099 108.84L117.284 118.48C118.251 119.494 118.251 121.146 117.284 122.16L115.937 123.575C114.98 124.582 113.433 124.582 112.473 123.575L104.778 115.498C104.394 115.097 103.901 114.84 103.368 114.766L9.89443 101.795C7.56394 101.471 6.17698 104.457 7.844 106.207L28.2283 127.606C29.782 129.236 28.6884 132.039 26.4979 132.039C24.3075 132.039 23.2139 134.842 24.7676 136.472L43.8749 156.53C44.1883 156.857 44.5818 157.093 45.0085 157.206L110.049 174.423C110.576 174.563 111.046 174.884 111.383 175.335L121.445 188.833C123.238 191.449 126.269 194.477 126.269 194.477C127.226 195.484 128.773 195.484 129.733 194.477C129.733 194.477 132.24 191.801 134.557 188.833L144.62 175.335C144.956 174.884 145.423 174.563 145.953 174.423L210.994 157.206C211.424 157.093 211.814 156.857 212.127 156.53L231.235 136.472C232.788 134.842 231.695 132.039 229.504 132.039C227.314 132.039 226.22 129.236 227.774 127.606L248.158 106.207C249.822 104.457 248.435 101.475 246.104 101.795Z" fill="white"/>
</g>
<defs>
<filter id="filter0_f_101_12060" x="18.6008" y="19.7344" width="376.685" height="375.403" filterUnits="userSpaceOnUse" color-interpolation-filters="sRGB">
<feFlood flood-opacity="0" result="BackgroundImageFix"/>
<feBlend mode="normal" in="SourceGraphic" in2="BackgroundImageFix" result="shape"/>
<feGaussianBlur stdDeviation="41.25" result="effect1_foregroundBlur_101_12060"/>
</filter>
<clipPath id="clip0_101_12060">
<rect width="256" height="256" rx="128" fill="white"/>
</clipPath>
</defs>
</svg>
