<svg width="388" height="238" viewBox="0 0 388 238" fill="none" xmlns="http://www.w3.org/2000/svg"><path d="M79.5 46.539c63.216-61.894 165.709-61.894 228.926 0l7.608 7.449a7.807 7.807 0 010 11.207l-26.026 25.482a4.108 4.108 0 01-5.723 0l-10.47-10.251c-44.101-43.179-115.604-43.179-159.705 0l-11.212 10.977a4.108 4.108 0 01-5.723 0L71.149 65.922a7.808 7.808 0 010-11.207l8.35-8.176zm282.75 52.699l23.163 22.679a7.806 7.806 0 010 11.206L280.969 235.385c-3.161 3.095-8.286 3.095-11.447 0l-74.128-72.578a2.054 2.054 0 00-2.862 0l-74.127 72.578c-3.161 3.095-8.285 3.095-11.446 0L2.511 133.122a7.808 7.808 0 010-11.207l23.164-22.678c3.16-3.095 8.285-3.095 11.446 0l74.129 72.579a2.056 2.056 0 002.862 0v-.001l74.126-72.578c3.161-3.095 8.285-3.095 11.446 0l74.13 72.578c.79.774 2.071.774 2.861 0l74.129-72.577c3.16-3.095 8.285-3.095 11.446 0z" class="dark" /></svg>