<svg version="1.1" id="Layer_1" xmlns="http://www.w3.org/2000/svg" x="0" y="0" viewBox="0 0 640 640" xml:space="preserve"><path d="M637.3 319.3c0 175.2-142 317.3-317.3 317.3S2.7 494.6 2.7 319.3 144.8 2.1 320 2.1s317.3 142 317.3 317.2z" fill="#321d47"/><path d="M444.2 392.4h-67.6l-12.7-31h-85.8l-12.7 31h-67.6l80.9-184.3h84.5l81 184.3zM321.1 256l-22.4 55h44.7l-22.3-55z" fill="#fff"/><circle fill="#e6007a" cx="321" cy="122.1" r="46.9"/><circle fill="#e6007a" cx="321" cy="517.1" r="46.9"/><circle fill="#e6007a" cx="147.8" cy="216" r="46.9"/><circle fill="#e6007a" cx="494.3" cy="216" r="46.9"/><circle fill="#e6007a" cx="147.8" cy="424.8" r="46.9"/><circle fill="#e6007a" cx="494.3" cy="424.8" r="46.9"/></svg>