<svg viewBox="0 0 24 24" fill="none" xmlns="http://www.w3.org/2000/svg"><g clip-path="url(#clip0_35_8)"><rect rx="3" ry="3" width="24" height="24" fill="#fff" class="light-fill"/><g clip-path="url(#clip1_35_8)"><path d="M18.754 18h-9.49a.247.247 0 01-.127-.036l-3.43-2.098a.242.242 0 01-.107-.271.242.242 0 01.234-.176h9.49c.046 0 .09.013.129.036l3.429 2.097a.242.242 0 01.108.272.242.242 0 01-.236.176zm-9.422-.484h8.563l-2.64-1.613H6.694l2.64 1.613zm8.831-7.936h-9.49a.246.246 0 01-.128-.036l-3.43-2.097a.242.242 0 01-.106-.272A.242.242 0 015.244 7h9.49c.046 0 .09.012.129.036l3.428 2.097a.242.242 0 01.107.271.242.242 0 01-.235.176zm-9.421-.484h8.564l-2.641-1.612H6.103l2.639 1.612zm4.566 2.355a1.491 1.491 0 00-1.046-.423h-.015c-.397.002-.776.16-1.055.438a1.473 1.473 0 00.01 2.094c.282.276.663.43 1.06.428h.014c.296-.003.584-.093.828-.258s.433-.398.544-.67a1.466 1.466 0 00-.34-1.609z" class="dark-fill" fill="#000"/></g></g><defs><clipPath id="clip0_35_8"><path  class="dark-fill" fill="#000" d="M0 0h24v24H0z"/></clipPath><clipPath id="clip1_35_8"><path class="dark-fill" fill="#000" transform="translate(5 7)" d="M0 0h14v11H0z"/></clipPath></defs></svg>