<?xml version="1.0" encoding="UTF-8"?><svg id="Layer_2" xmlns="http://www.w3.org/2000/svg" viewBox="0 0 194.761 194.761"><g id="Layer_1-2"><path d="M186.761,97.381c0,49.363-40.017,89.381-89.381,89.381S8,146.744,8,97.381,48.017,8,97.381,8s89.381,40.017,89.381,89.381Z" style="fill:none; stroke:#080808; stroke-miterlimit:10; stroke-width:16px;"/><path d="M180.069,121.899c-5.785,21.325-47.678,28.52-93.569,16.07C40.608,125.519,8.096,98.138,13.881,76.813c5.785-21.325,47.678-28.52,93.569-16.07,45.891,12.45,78.404,39.831,72.618,61.156Z" style="fill:none; stroke:#080808; stroke-linecap:round; stroke-miterlimit:10; stroke-width:16px;"/><path d="M142.967,67.099c0,10.122-8.205,18.327-18.327,18.327s-18.327-8.205-18.327-18.327,8.205-18.327,18.327-18.327,18.327,8.205,18.327,18.327ZM78.321,126.174c0,10.122-8.205,18.327-18.327,18.327s-18.327-8.205-18.327-18.327,8.205-18.327,18.327-18.327,18.327,8.205,18.327,18.327Z" style="fill:#080808;"/></g></svg>