<svg xmlns="http://www.w3.org/2000/svg" viewBox="0 0 239.32 239.32"><path d="M239.32 119.66c0 66.086-53.574 119.66-119.66 119.66S0 185.746 0 119.66 53.574 0 119.66 0s119.66 53.574 119.66 119.66z" fill="#3d383a"/><path d="M226.659 119.762c0 59.203-47.993 107.196-107.196 107.196S12.267 178.965 12.267 119.762 60.261 12.566 119.463 12.566s107.196 47.993 107.196 107.196z" fill="none" stroke="#55f39a" stroke-miterlimit="10" stroke-width="12"/><path d="M218.634 149.167c-6.939 25.576-57.181 34.205-112.22 19.273-55.039-14.932-94.031-47.77-87.093-73.346 6.939-25.576 57.181-34.205 112.22-19.273 55.039 14.932 94.031 47.77 87.093 73.346z" fill="none" stroke="#55f39a" stroke-linecap="round" stroke-miterlimit="10" stroke-width="12"/><path d="M169.864 83.445c0 9.78-7.928 17.708-17.708 17.708s-17.708-7.928-17.708-17.708 7.928-17.708 17.708-17.708 17.708 7.928 17.708 17.708zM68.282 134.684c-9.78 0-17.708 7.928-17.708 17.708S58.502 170.1 68.282 170.1s17.708-7.928 17.708-17.708-7.928-17.708-17.708-17.708z" fill="#55f39a"/></svg>