<svg xmlns="http://www.w3.org/2000/svg" viewBox="0 0 1326.1 1410.3"><path fill="#e6007a" d="M121 309.3c-89.8 104.6-92.2 250.2-5.1 324.9 87.1 74.9 230.4 50.7 320.3-54.1 89.8-104.6 92.2-250.2 5.1-324.9-34.1-29.3-77-43.4-121.8-43.4-69.6 0-143.9 33.9-198.5 97.5zM95 850.5c-67.6 80.2-38.2 216.3 65.6 303.9 103.8 87.6 242.9 93.8 310.5 13.7 67.6-80.2 38.2-216.3-65.6-303.9-55-46.5-119.8-70-178.7-70s-100 18.6-131.7 56.3M704.5 1143.9c-121.8 38.4-205.8 116.8-187.6 174.9 18.4 58.1 132 74.2 253.9 35.5 121.8-38.4 205.8-116.8 187.6-174.9-11.7-36.6-61.2-56.7-126.8-56.7s-82.1 6.7-127.1 21M513.8 94.3c-25.1 72.5 54.6 166.2 178.5 209.4C816.1 346.9 936.9 323 962 250.5 987.1 178 907.4 84.3 783.5 41.1c-41.7-14.6-83.2-21.5-120.7-21.5-73.8 0-132.4 26.6-149 74.7zM1070.6 240.5c-35.9 14.4-27.3 119.2 18.9 233.6 46.3 114.6 112.7 195.7 148.6 181.3 35.7-14.4 27.3-119-18.9-233.6-42.6-105.7-102.5-182.9-139.7-182.9s-6 .5-8.9 1.6zM1098.1 936.7c-51 110.6-68.7 211.4-39.3 224.8 29.3 13.5 94.5-65.2 145.5-175.8 51.2-110.6 68.7-211.4 39.5-224.9-2.2-1.1-4.5-1.5-7.3-1.5-31.9 0-91.2 75.1-138.4 177.3z"/></svg>