<svg xmlns="http://www.w3.org/2000/svg" viewBox="0 0 1326.1 1410.3"><path className="primary" d="M107.1 300.1c-92.9 108.2-95.3 258.7-5.3 336 90 77.4 238.3 52.4 331.3-56 92.9-108.2 95.3-258.7 5.3-336-35.2-30.3-79.7-44.8-126-44.8-71.9 0-148.8 35.1-205.3 100.8zM80.1 859.7c-69.9 82.9-39.6 223.7 67.8 314.3 107.4 90.6 251.3 97.1 321.1 14.1 69.9-82.9 39.6-223.7-67.8-314.3-56.9-48.1-123.9-72.4-184.8-72.4S113 820.6 80.2 859.6M710.5 1163.1c-126 39.8-212.8 120.8-194 180.9 19 60.1 136.6 76.7 262.6 36.7 126-39.8 212.8-120.8 194-180.9-12.1-37.9-63.3-58.6-131.1-58.6s-84.9 7-131.5 21.7M513.3 77.7c-26 75 56.5 171.9 184.6 216.5 128.1 44.7 253 20 278.9-55 26-75-56.5-171.9-184.6-216.5C749.1 7.6 706.2.4 667.4.4c-76.3 0-136.9 27.5-154.1 77.3zM1089.1 228.8c-37.1 14.9-28.3 123.2 19.6 241.6 47.8 118.5 116.6 202.4 153.7 187.5 36.9-14.9 28.3-123.1-19.6-241.6-44.1-109.3-106-189.2-144.5-189.2s-6.2.6-9.2 1.7zM1117.5 948.9c-52.7 114.4-71 218.6-40.7 232.5 30.3 14 97.8-67.5 150.5-181.8 52.9-114.4 71-218.6 40.9-232.5-2.3-1.1-4.7-1.5-7.5-1.5-33 0-94.4 77.6-143.1 183.4z"/></svg>