<svg xmlns="http://www.w3.org/2000/svg" viewBox="0 0 1024.831 1024.831"><circle cx="509" cy="509" r="509" class="accent"/><path d="M506.478 313.015c67.576 0 122.281-31.801 122.281-71.078s-54.705-71.078-122.281-71.078-122.281 31.801-122.281 71.078 54.705 71.078 122.281 71.078zm0 537.489c67.576 0 122.281-31.801 122.281-71.078s-54.705-71.078-122.281-71.078-122.281 31.801-122.281 71.078 54.705 71.078 122.281 71.078zm-170.645-438.49c33.788-58.585 33.599-122.092-.473-141.778-34.072-19.686-89.156 11.831-122.944 70.51-33.788 58.585-33.599 122.092.473 141.778 34.072 19.686 89.156-11.831 122.944-70.51zm464.612 268.507c33.788-58.585 33.599-122.092-.473-141.778-34.072-19.686-89.061 11.925-122.944 70.51-33.788 58.585-33.599 122.092.473 141.778 34.072 19.686 89.061-11.925 122.944-70.51zm-465.18 70.511c34.072-19.686 34.356-83.193.473-141.778-33.788-58.585-88.872-90.197-122.944-70.51s-34.356 83.193-.473 141.778c33.788 58.585 88.872 90.197 122.944 70.51zm464.802-268.508c34.072-19.686 34.261-83.193.473-141.778s-88.872-90.197-122.944-70.51c-34.072 19.686-34.261 83.193-.473 141.778 33.788 58.585 88.872 90.197 122.944 70.51z" fill="#fff"/></svg>