<svg version="1.1" width="100%" height="100%" viewBox="0 0 310 310" fill="none" xmlns="http://www.w3.org/2000/svg"><g><circle cx="155" cy="151" r="146" fill="#eee" stroke="#ccc" stroke-width="10"/><path d="M154.962 89.56c21.165 0 38.322-9.975 38.322-22.28 0-12.305-17.157-22.28-38.322-22.28-21.165 0-38.322 9.975-38.322 22.28 0 12.305 17.157 22.28 38.322 22.28zm0 168.44c21.165 0 38.322-9.975 38.322-22.28 0-12.305-17.157-22.281-38.322-22.281-21.165 0-38.322 9.976-38.322 22.281 0 12.305 17.157 22.28 38.322 22.28zm-53.497-137.409c10.597-18.369 10.528-38.263-.154-44.435-10.683-6.172-27.934 3.715-38.53 22.084-10.598 18.369-10.53 38.263.153 44.435 10.683 6.172 27.934-3.715 38.531-22.084zm145.627 84.14c10.598-18.369 10.534-38.26-.141-44.428-10.675-6.168-27.92 3.723-38.517 22.091-10.598 18.369-10.535 38.26.141 44.428 10.675 6.168 27.92-3.723 38.517-22.091zm-145.776 22.086c10.683-6.172 10.752-26.067.154-44.435-10.597-18.369-27.848-28.257-38.53-22.084-10.683 6.172-10.752 26.066-.154 44.435 10.597 18.369 27.848 28.256 38.53 22.084zM246.96 142.68c10.676-6.168 10.739-26.059.141-44.428-10.597-18.369-27.842-28.26-38.517-22.091-10.675 6.168-10.739 26.059-.141 44.427 10.597 18.369 27.842 28.26 38.517 22.092z" fill="#E6007A"/></g></svg>