<svg xmlns="http://www.w3.org/2000/svg" viewBox="0 0 1024.8 1024.8"><circle cx="509" cy="509" r="509" class="accent"/><path fill="#fff" d="M255.1 322.7c-45 52.4-46.2 125.4-2.6 162.9S368 511 413.1 458.5c45-52.4 46.2-125.4 2.6-162.9-17.1-14.7-38.6-21.7-61.1-21.7-34.9 0-72.1 17-99.5 48.9zM242 593.9c-33.9 40.2-19.2 108.4 32.9 152.4 52 43.9 121.8 47 155.7 6.9 33.9-40.2 19.2-108.4-32.9-152.4-27.6-23.3-60.1-35.1-89.6-35.1s-50.1 9.3-66 28.2M547.6 741c-61.1 19.3-103.2 58.6-94 87.7 9.2 29.1 66.2 37.2 127.3 17.8 61.1-19.3 103.2-58.6 94-87.7-5.8-18.4-30.7-28.4-63.5-28.4s-41.2 3.4-63.7 10.5M452 214.9c-12.6 36.4 27.4 83.3 89.5 105 62.1 21.6 122.6 9.7 135.2-26.7 12.6-36.4-27.4-83.3-89.5-105-20.9-7.3-41.7-10.8-60.5-10.8-37 0-66.4 13.3-74.7 37.5zM731.1 288.1c-18 7.2-13.7 59.7 9.5 117.1 23.2 57.5 56.5 98.1 74.5 90.9 17.9-7.2 13.7-59.6-9.5-117.1-21.4-53-51.4-91.7-70-91.7s-3 .3-4.5.8zM744.9 637.2c-25.6 55.4-34.4 106-19.7 112.7 14.7 6.8 47.4-32.7 72.9-88.1 25.7-55.4 34.4-106 19.8-112.7-1.1-.5-2.3-.7-3.7-.7-16 0-45.7 37.6-69.4 88.9z"/></svg>