<svg xmlns="http://www.w3.org/2000/svg" viewBox="0 0 1024.8 1024.8"><circle cx="509" cy="509" r="509"/><path d="M260.6 328c-43.8 51-44.9 121.9-2.5 158.4 42.5 36.5 112.3 24.7 156.1-26.3s44.9-121.9 2.5-158.4c-16.6-14.3-37.5-21.1-59.4-21.1-33.9 0-70.1 16.5-96.7 47.5zm-12.7 263.8c-33 39.1-18.6 105.4 32 148.1 50.6 42.7 118.4 45.8 151.4 6.6 33-39.1 18.6-105.4-32-148.1-26.8-22.7-58.4-34.1-87.1-34.1s-48.7 9-64.1 27.4M545 734.8c-59.4 18.7-100.3 57-91.4 85.3 9 28.3 64.3 36.2 123.7 17.3 59.4-18.7 100.3-57 91.4-85.3-5.6-17.8-29.8-27.6-61.8-27.6s-40 3.3-62 10.2M452 223.2c-12.3 35.4 26.6 81 87 102s119.2 9.4 131.5-26-26.6-81-87-102c-20.3-7.1-40.6-10.5-58.8-10.5-35.9 0-64.5 13-72.6 36.4zm271.3 71.3c-17.5 7-13.3 58 9.2 113.8 22.6 55.9 54.9 95.4 72.5 88.3 17.4-7 13.3-57.9-9.2-113.8-20.8-51.5-50-89.1-68.1-89.1s-3 .3-4.4.8zm13.4 339.3c-24.8 53.9-33.5 103-19.2 109.5s46-31.8 70.9-85.7c24.9-53.9 33.5-103 19.3-109.5-1.1-.5-2.2-.7-3.6-.7-15.5 0-44.4 36.5-67.4 86.4z" fill="#fff"/></svg>