<svg xmlns="http://www.w3.org/2000/svg" viewBox="0 0 1024.8 1024.8"><circle cx="509" cy="509" r="509" class="accent"/><path fill="#fff" d="M230.2 306c-48.9 56.9-50.1 136.1-2.8 176.8 47.4 40.7 125.4 27.6 174.3-29.4 48.9-56.9 50.1-136.1 2.8-176.8-18.5-16-41.9-23.6-66.3-23.6-37.9 0-78.3 18.4-108 53zM216 600.5c-36.8 43.6-20.8 117.7 35.7 165.4s132.2 51.1 169 7.4c36.8-43.6 20.8-117.7-35.7-165.4-29.9-25.3-65.2-38.1-97.2-38.1s-54.4 10.1-71.6 30.6M547.7 760.1c-66.3 20.9-112 63.6-102.1 95.2 10 31.6 71.8 40.4 138.1 19.3 66.3-20.9 112-63.6 102.1-95.2-6.3-19.9-33.3-30.8-69-30.8s-44.7 3.7-69.2 11.4M443.9 189c-13.7 39.5 29.7 90.4 97.1 113.9 67.4 23.5 133.1 10.5 146.8-29 13.7-39.5-29.7-90.4-97.1-113.9-22.7-7.9-45.3-11.7-65.7-11.7-40.1 0-72 14.5-81.1 40.6zM746.8 268.6c-19.5 7.8-14.9 64.8 10.3 127.1 25.2 62.4 61.3 106.5 80.9 98.6 19.4-7.8 14.9-64.7-10.3-127.1-23.2-57.5-55.8-99.5-76-99.5s-3.3.3-4.9.9zM761.8 647.4c-27.7 60.2-37.4 115-21.4 122.3 16 7.3 51.4-35.5 79.2-95.7 27.8-60.2 37.4-115 21.5-122.3-1.2-.6-2.5-.8-4-.8-17.3 0-49.6 40.8-75.3 96.5z"/></svg>