<svg xmlns="http://www.w3.org/2000/svg" viewBox="0 0 508.043 508.043" width="100%" height="100%"><path d="M465.771 110.943h-18.5v-96.8c0-4.4-2.1-8.6-5.6-11.3s-8.1-3.5-12.4-2.3l-391.2 110.6c-21.3 2.2-38 20.2-38 42.1v312.4c0 23.4 19 42.4 42.3 42.4h423.3c23.3 0 42.3-19 42.3-42.3v-312.5c.1-23.3-18.9-42.3-42.2-42.3zm-46.7-78.1v78.1h-276.4l276.4-78.1zm60.7 432.8c.1 7.8-6.3 14.2-14 14.2h-423.4c-7.8 0-14.1-6.3-14.1-14.1v-115.5h25.2c7.8 0 14.1-6.3 14.1-14.1s-6.3-14.1-14.1-14.1h-25.2v-25.1h58.5c7.8 0 14.1-6.3 14.1-14.1s-6.3-14.1-14.1-14.1h-58.5v-115.5c0-7.8 6.3-14.1 14.1-14.1h423.3c7.8 0 14.1 6.3 14.1 14.1v88.8h-66.6c-37.2 0-67.4 30.2-67.4 67.4s30.2 67.4 67.4 67.4h66.6v88.8zm.1-116.9h-66.6c-21.6 0-39.2-17.6-39.2-39.2s17.6-39.2 39.2-39.2h66.6v78.4z"/><path d="M409.071 295.343h-1.4c-7.8 0-14.1 6.3-14.1 14.1s6.3 14.1 14.1 14.1h1.4c7.8 0 14.1-6.3 14.1-14.1s-6.3-14.1-14.1-14.1z"/></svg>