<?xml version="1.0" encoding="utf-8"?>
<!-- Generator: Adobe Illustrator 24.3.0, SVG Export Plug-In . SVG Version: 6.00 Build 0)  -->
<svg version="1.1" xmlns="http://www.w3.org/2000/svg" xmlns:xlink="http://www.w3.org/1999/xlink" x="0px" y="0px"
	 viewBox="0 0 566.93 283.46" style="enable-background:new 0 0 566.93 283.46;" xml:space="preserve">
<style type="text/css">
	.st0{fill:#3C3C3B;stroke:#3C3C3B;stroke-width:0.5;stroke-miterlimit:10;}
	.st1{fill:#8FD698;}
	.st2{fill:#3A8286;}
	.st3{fill:#3A8286;stroke:#3A8286;stroke-width:0.5;stroke-miterlimit:10;}
	.st4{fill:#1D5C81;stroke:#1D5C81;stroke-width:0.5;stroke-miterlimit:10;}
	.st5{fill:#1D5C81;}
</style>
<g id="Ebene_1">
	<g>
		<g>
			<path class="st0" d="M105.81,166.4l30.18-74.55h0.4l30.18,74.55h-5.53l-26.26-66.71l3.42-1.91l-27.47,68.62H105.81z
				 M120.4,138.12h31.69l1.41,4.63h-34.31L120.4,138.12z"/>
			<path class="st0" d="M183.58,166.4V93.35h0.1l35.21,50.01l-2.11-0.3l35.11-49.7h0.1v73.05h-4.83v-61.68l0.4,2.42l-29.78,41.95
				h-0.2l-29.98-41.95l0.81-2.21v61.48H183.58z"/>
			<path class="st0" d="M275.24,94.96h40.04v4.73h-35.11v29.48h31.09v4.63h-31.09v32.6h-4.93V94.96z"/>
			<path class="st0" d="M326.45,130.78c0-5.03,0.94-9.74,2.82-14.14c1.88-4.39,4.49-8.28,7.85-11.67c3.35-3.39,7.23-6.04,11.62-7.95
				c4.39-1.91,9.11-2.87,14.14-2.87s9.76,0.96,14.19,2.87c4.43,1.91,8.32,4.56,11.67,7.95c3.35,3.39,5.99,7.28,7.9,11.67
				c1.91,4.39,2.87,9.11,2.87,14.14c0,5.03-0.96,9.74-2.87,14.13c-1.91,4.39-4.54,8.27-7.9,11.62c-3.36,3.35-7.24,5.97-11.67,7.85
				c-4.43,1.88-9.16,2.82-14.19,2.82s-9.74-0.91-14.14-2.72c-4.39-1.81-8.27-4.36-11.62-7.65c-3.36-3.29-5.97-7.14-7.85-11.57
				C327.39,140.84,326.45,136.01,326.45,130.78z M331.48,130.88c0,4.36,0.8,8.45,2.42,12.27c1.61,3.82,3.86,7.18,6.74,10.06
				c2.88,2.88,6.22,5.15,10.01,6.79c3.79,1.64,7.83,2.47,12.12,2.47c4.43,0,8.55-0.82,12.38-2.47c3.82-1.64,7.18-3.91,10.06-6.79
				c2.88-2.88,5.15-6.24,6.79-10.06c1.64-3.82,2.47-7.95,2.47-12.37c0-4.36-0.82-8.47-2.47-12.33c-1.64-3.86-3.91-7.25-6.79-10.16
				c-2.88-2.92-6.24-5.21-10.06-6.89c-3.82-1.68-7.92-2.52-12.27-2.52c-4.43,0-8.55,0.86-12.38,2.57
				c-3.82,1.71-7.16,4.04-10.01,6.99c-2.85,2.95-5.07,6.36-6.64,10.21C332.27,122.51,331.48,126.59,331.48,130.88z"/>
			<path class="st0" d="M434.51,94.96c2.68,0,5.35,0.39,8,1.16c2.65,0.77,5.06,1.98,7.24,3.62c2.18,1.64,3.94,3.74,5.28,6.29
				c1.34,2.55,2.01,5.6,2.01,9.16c0,2.68-0.4,5.28-1.21,7.8c-0.8,2.52-2.11,4.78-3.92,6.79c-1.81,2.01-4.16,3.62-7.04,4.83
				c-2.88,1.21-6.44,1.81-10.66,1.81h-11.07v29.98h-4.93V94.96H434.51z M433.9,131.69c3.55,0,6.5-0.5,8.85-1.51
				c2.35-1.01,4.19-2.31,5.53-3.92c1.34-1.61,2.3-3.37,2.87-5.28c0.57-1.91,0.86-3.77,0.86-5.58c0-2.15-0.39-4.16-1.16-6.04
				c-0.77-1.88-1.9-3.54-3.37-4.98c-1.48-1.44-3.25-2.58-5.33-3.42c-2.08-0.84-4.39-1.26-6.94-1.26h-12.07v31.99H433.9z
				 M444.16,133.9l19.82,32.5h-5.74L438.33,134L444.16,133.9z"/>
			<path class="st0" d="M533.01,161.67c-1.54,0.94-3.32,1.85-5.33,2.72c-2.01,0.87-4.23,1.56-6.64,2.06
				c-2.41,0.5-5.03,0.75-7.85,0.75c-5.43,0-10.36-0.96-14.79-2.87c-4.43-1.91-8.22-4.53-11.37-7.85c-3.15-3.32-5.58-7.14-7.29-11.47
				c-1.71-4.33-2.57-8.94-2.57-13.83c0-5.23,0.91-10.09,2.72-14.59c1.81-4.49,4.36-8.42,7.65-11.77c3.29-3.35,7.11-5.97,11.47-7.85
				c4.36-1.88,9.09-2.82,14.19-2.82c3.76,0,7.28,0.5,10.56,1.51c3.29,1.01,6.27,2.31,8.95,3.92l-2.11,4.53
				c-2.35-1.48-5-2.72-7.95-3.72c-2.95-1.01-6.07-1.51-9.36-1.51c-4.22,0-8.22,0.82-11.97,2.47c-3.76,1.64-7.06,3.92-9.91,6.84
				c-2.85,2.92-5.08,6.32-6.69,10.21c-1.61,3.89-2.41,8.08-2.41,12.58c0,4.29,0.72,8.35,2.16,12.17c1.44,3.82,3.52,7.18,6.24,10.06
				c2.72,2.88,5.99,5.15,9.81,6.79c3.82,1.64,8.08,2.47,12.78,2.47c3.49,0,6.69-0.49,9.61-1.46c2.92-0.97,5.52-2.2,7.8-3.67
				L533.01,161.67z"/>
		</g>
		<g>
			<path class="st1" d="M40.58,125.15c-2.52,0-4.54,0-7.01,0c0,24.71,0,49.24,0,74.26c2.25,0,4.4,0,7.01,0
				C40.58,174.93,40.58,150.39,40.58,125.15z"/>
			<path class="st2" d="M75.67,166.51c2.48,0,4.63,0,7.13,0c0-24.89,0-49.39,0-74.31c-2.4,0-4.53,0-7.13,0
				C75.67,116.75,75.67,141.24,75.67,166.51z"/>
			<path class="st1" d="M62.06,105.37c-2.56,0-4.71,0-7.19,0c0,24.86,0,49.36,0,74.25c2.48,0,4.62,0,7.19,0
				C62.06,155,62.06,130.5,62.06,105.37z"/>
			<path class="st1" d="M72.35,60.38c-2.74,0-4.88,0-7.34,0c0,21.09,0,41.74,0,62.92c2.46,0,4.74,0,7.34,0
				C72.35,102.3,72.35,81.64,72.35,60.38z"/>
			<path class="st2" d="M51.41,162.86c-2.55,0-4.69,0-7.18,0c0,21.17,0,41.97,0,63.01c2.53,0,4.68,0,7.18,0
				C51.41,204.7,51.41,183.9,51.41,162.86z"/>
		</g>
	</g>
</g>
<g id="Ebene_2">
</g>
</svg>
