<svg id="Layer_1" data-name="Layer 1" xmlns="http://www.w3.org/2000/svg" viewBox="0 0 512 511.67"><defs><style>.cls-2{fill:#3d3d3c;stroke:#3d3d3c;stroke-miterlimit:10;stroke-width:.5px}.cls-3{fill:#93ce97}.cls-4{fill:#3b8387}</style></defs><rect width="512" height="511.67" rx="26" fill="#fff"/><g id="Ebene_1" data-name="Ebene 1"><path class="cls-2" d="M96.53 289.69l27.21-67.23h.36l27.22 67.23h-5l-23.68-60.16 3.09-1.72L101 289.69zm13.16-25.5h28.57l1.27 4.17h-30.94zM166.66 289.69v-65.87h.09l31.74 45.09-1.9-.27 31.66-44.81h.09v65.87H224v-55.62l.36 2.18-26.86 37.83h-.18l-27-37.83.73-2v55.44h-4.35zM249.31 225.27h36.1v4.26h-31.66v26.59h28v4.17h-28v29.4h-4.44zM295.48 257.57a32 32 0 012.52-12.75 33.58 33.58 0 0117.55-17.69 31.53 31.53 0 0112.75-2.59 31.87 31.87 0 0112.8 2.59 33.12 33.12 0 0110.52 7.16 34.36 34.36 0 017.12 10.53 32.65 32.65 0 010 25.49 33.41 33.41 0 01-17.64 17.56 32.53 32.53 0 01-12.8 2.54 33.24 33.24 0 01-12.72-2.41 32.82 32.82 0 01-10.48-6.9 31.73 31.73 0 01-7.1-10.48 32.91 32.91 0 01-2.52-13.05zm4.54.09a28.21 28.21 0 008.26 20.13 29 29 0 009 6.13 27.38 27.38 0 0010.93 2.22 28.05 28.05 0 0011.17-2.22 28.76 28.76 0 0015.19-15.2 28.92 28.92 0 000-22.27 29 29 0 00-15.19-15.37 28 28 0 00-22.23 0A28.95 28.95 0 00300 257.66zM392.92 225.27a25.94 25.94 0 017.22 1 20.09 20.09 0 016.52 3.27 16.7 16.7 0 014.77 5.67 17.64 17.64 0 011.81 8.26 22.8 22.8 0 01-1.09 7 16.6 16.6 0 01-3.54 6.13 17.48 17.48 0 01-6.35 4.35 24.86 24.86 0 01-9.61 1.63h-10v27h-4.45v-64.31zm-.55 33.12a20.31 20.31 0 008-1.36 13.05 13.05 0 005-3.54 13.45 13.45 0 002.59-4.76 17.68 17.68 0 00.77-5 14.33 14.33 0 00-1-5.45 13.53 13.53 0 00-3-4.49 14.71 14.71 0 00-4.81-3.08 16.5 16.5 0 00-6.26-1.14h-10.99v28.85zm9.25 2l17.88 29.31h-5.18l-17.95-29.22zM481.74 285.42a37.67 37.67 0 01-4.81 2.45 30.35 30.35 0 01-6 1.86 35 35 0 01-7.08.68 33.41 33.41 0 01-13.34-2.59 30.62 30.62 0 01-10.25-7.08 31.85 31.85 0 01-6.57-10.34 33.5 33.5 0 01-2.32-12.47 35 35 0 012.45-13.16 32 32 0 016.9-10.61 33 33 0 0132.66-8.26 36.28 36.28 0 018.07 3.53l-1.9 4.09a33.88 33.88 0 00-7.17-3.36 25.88 25.88 0 00-8.38-1.36 26.46 26.46 0 00-10.83 2.2 28.11 28.11 0 00-8.94 6.17 28.8 28.8 0 00-6 9.2 29.42 29.42 0 00-2.23 11.38 30.78 30.78 0 002 11 26.82 26.82 0 005.63 9.07 26.26 26.26 0 008.84 6.13 29.12 29.12 0 0011.53 2.19 27.41 27.41 0 008.66-1.31 31.36 31.36 0 007-3.31z"/><path class="cls-3" d="M37.71 252.49h-6.32v67h6.32z"/><path class="cls-4" d="M69.35 289.79h6.43v-67h-6.43z"/><path class="cls-3" d="M57.08 234.66H50.6v67h6.48zM66.36 194.09h-6.62v56.73h6.62z"/><path class="cls-4" d="M47.48 286.49H41v56.82h6.48z"/></g></svg>
