<?xml version="1.0" encoding="utf-8"?>
<!-- Generator: Adobe Illustrator 27.2.0, SVG Export Plug-In . SVG Version: 6.00 Build 0)  -->
<svg version="1.1" xmlns="http://www.w3.org/2000/svg" xmlns:xlink="http://www.w3.org/1999/xlink" x="0px" y="0px"
	 viewBox="0 0 141.73 141.73" style="enable-background:new 0 0 141.73 141.73;" xml:space="preserve">
<style type="text/css">
	.st0{fill:#8FD698;}
	.st1{fill:#1D5C81;stroke:#1D5C81;stroke-width:0.5;stroke-miterlimit:10;}
	.st2{fill:#3A8286;}
	.st3{fill:#3A8286;stroke:#3A8286;stroke-width:0.08;stroke-miterlimit:10;}
	.st4{fill:#1D5C81;}
	.st5{fill:url(#SVGID_1_);}
	.st6{fill:#114A62;}
	.st7{fill:#54A088;}
	.st8{fill:url(#SVGID_00000149350919719148318920000016312906736186193796_);}
	.st9{fill:#FFFFFF;}
	.st10{fill:url(#SVGID_00000170958920606841873100000008423083802954464145_);}
</style>
<g id="Ebene_1">
</g>
<g id="Ebene_1_Kopie">
	<g>
		<g>
			<path class="st4" d="M101.03,117.92H40.7c-9.33,0-16.89-7.56-16.89-16.89V40.7c0-9.33,7.56-16.89,16.89-16.89h60.33
				c9.33,0,16.89,7.56,16.89,16.89v60.33C117.92,110.36,110.36,117.92,101.03,117.92z"/>
			<path class="st0" d="M114.9,110.66L83.85,33.97h-0.02l-33.99,83.95h4.91l28.99-72.41l27.23,69.16
				C112.49,113.56,113.82,112.21,114.9,110.66z"/>
			<rect x="44.34" y="63.3" class="st2" width="41.9" height="4.27"/>
			<rect x="62.75" y="86.87" class="st0" width="41.93" height="4.33"/>
			<rect x="55.41" y="75.22" class="st2" width="41.89" height="4.36"/>
			<rect x="86.93" y="80.9" class="st2" width="30.99" height="4.45"/>
			<rect x="29.53" y="69.27" class="st0" width="35.6" height="4.36"/>
		</g>
		<linearGradient id="SVGID_1_" gradientUnits="userSpaceOnUse" x1="70.3832" y1="23.1536" x2="71.3418" y2="117.8693">
			<stop  offset="0" style="stop-color:#507E99"/>
			<stop  offset="0.7781" style="stop-color:#8FD698"/>
			<stop  offset="1" style="stop-color:#AAD4A0"/>
		</linearGradient>
		<path class="st5" d="M101.03,117.92H40.7c-9.33,0-16.89-7.56-16.89-16.89V40.7c0-9.33,7.56-16.89,16.89-16.89h60.33
			c9.33,0,16.89,7.56,16.89,16.89v60.33C117.92,110.36,110.36,117.92,101.03,117.92z"/>
		<path class="st9" d="M84.05,34.55h-0.39l-33.8,83.5h4.91l28.99-72.41l27.23,69.16c1.52-1.11,2.86-2.46,3.93-4.01L84.05,34.55z"/>
		<rect x="36.66" y="63.3" class="st2" width="41.9" height="4.27"/>
		<rect x="47.74" y="75.22" class="st2" width="41.89" height="4.36"/>
		<rect x="79.26" y="80.9" class="st2" width="38.67" height="4.45"/>
		<rect x="23.81" y="69.27" class="st6" width="33.64" height="4.36"/>
		<rect x="55.07" y="86.87" class="st6" width="41.93" height="4.33"/>
	</g>
</g>
<g id="Ebene_2">
</g>
</svg>
