<?xml version="1.0" encoding="utf-8"?>
<!-- Generator: Adobe Illustrator 26.5.0, SVG Export Plug-In . SVG Version: 6.00 Build 0)  -->
<svg version="1.1" id="Layer_1" xmlns="http://www.w3.org/2000/svg" xmlns:xlink="http://www.w3.org/1999/xlink" x="0px" y="0px"
	 viewBox="0 0 800 800" style="enable-background:new 0 0 800 800;" xml:space="preserve">
<style type="text/css">
	.st0{fill:#151C2C;}
	.st1{fill:#12E1FF;}
	.st2{fill:#E7168B;}
	.st3{fill:#6300F2;}
	.st4{fill:#FFFFFF;}
</style>
<rect x="-6.87" y="-11.4" class="st0" width="813.73" height="822.81"/>
<g>
	<g>
		<polygon class="st1" points="325.29,401.94 400.15,445.16 475.01,401.94 400.15,358.72 		"/>
		<polygon class="st2" points="409.88,465.93 409.88,552.38 484.74,509.15 484.74,422.71 		"/>
		<polygon class="st3" points="390.32,465.93 390.32,552.38 315.46,509.15 315.46,422.71 		"/>
	</g>
	<polygon class="st4" points="586.77,350.12 586.64,350.14 586.66,350.13 493.39,296.27 400,242.36 360.16,267.06 315.41,294.53 
		315.41,367.81 400.56,316.78 461.3,351.85 522.49,387.17 522.7,387.06 522.6,387.17 522.6,458.03 522.6,528.81 461.3,564.21 
		399.94,599.63 399.88,599.77 399.88,599.54 399.89,599.54 338.7,564.21 277.4,528.81 277.4,500.24 277.4,380.21 277.4,380.21 
		277.4,377.82 277.4,303.41 277.4,303.41 277.4,301.18 277.4,283.45 277.4,283.44 277.4,245.37 277.4,245.37 277.4,224.38 
		277.4,205.31 277.4,205.3 277.4,204.41 277.4,166.33 277.4,126.27 213.22,163.32 213.22,203.38 213.22,203.38 213.22,241.46 
		213.22,241.46 213.22,261.42 213.22,261.42 213.23,338.22 213.22,338.22 213.23,416.44 213.22,565.86 306.61,619.78 399.89,673.63 
		399.89,673.52 399.94,673.73 493.39,619.78 586.78,565.86 586.78,458.03 	"/>
</g>
</svg>
