<svg version="1.1" id="Layer_1" xmlns="http://www.w3.org/2000/svg" x="0" y="0" viewBox="0 0 646.47 652.6" xml:space="preserve"><style>.dion0,.dion1{fill:#e3187d}.dion1{stroke:#e3187d;stroke-miterlimit:10}</style><circle class="dion0" cx="158.39" cy="300.66" r="27.75"/><circle class="dion0" cx="159.01" cy="232.74" r="23.93"/><circle class="dion0" cx="169.83" cy="124.95" r="14.77"/><circle class="dion0" cx="100.74" cy="206.94" r="14.77"/><circle class="dion0" cx="112.82" cy="134.87" r="9.92"/><circle class="dion0" cx="137.68" cy="74.69" r="9.92"/><path class="dion0" d="M505.72 243.01l-29.35 40.11-48.3 63.09-83.47 109.18-101.84-109.18-1.16-1.24 18.13-16.93 16.97 18.17 65.96 70.82 54.24-70.82 96.21-128.78c-28.03-46.51-77.19-78.78-134.22-83.47-4.74-.43-9.59-.62-14.44-.62-11.53 0-22.79 1.13-33.62 3.26.27.39.43.85.66 1.24 0 .04 0 .08.04.08 0 .04.04.08.04.08 2.29 4.39 3.57 9.28 3.57 14.6 0 17.55-14.25 31.8-31.84 31.8-11.14 0-20.85-5.71-26.52-14.33-.04 0-.04 0-.04-.04l-.04-.04a31.448 31.448 0 01-4.39-10.17c-23.3 14.6-42.86 34.63-56.92 58.24 2.21.97 4.27 2.14 6.21 3.49 0 0 0 .04.04.04 8.04 5.78 13.24 15.18 13.24 25.82 0 17.63-14.25 31.88-31.8 31.88-2.29 0-4.5-.23-6.64-.74-.66-.12-1.28-.27-1.94-.47h-.04c-.35-.12-.7-.19-1.05-.31-1.59 9.43-2.41 19.1-2.41 28.96 0 6.1.35 12.07.93 17.98v.16c9.05 87.28 82.81 155.3 172.5 155.3 95.78 0 173.39-77.65 173.39-173.43.01-22.49-4.26-44-12.1-63.73zM307.91 343.42c-9.47-5.09-13.01-16.89-7.92-26.36 5.09-9.47 16.89-13.01 26.36-7.92 9.47 5.09 13.01 16.89 7.92 26.36-5.09 9.47-16.89 13-26.36 7.92zm14.48-67.79c5.09-9.47 16.89-13.01 26.36-7.92 9.47 5.09 13.01 16.89 7.92 26.36-5.09 9.47-16.89 13.01-26.36 7.92s-13.01-16.89-7.92-26.36zm34.28 102.54c-5.09 9.47-16.89 13.01-26.36 7.92s-13.01-16.89-7.92-26.36 16.89-13.01 26.36-7.92 13.01 16.88 7.92 26.36zm25.2-42.67c-5.12 9.47-16.93 13.01-26.36 7.92-9.47-5.09-13.05-16.89-7.92-26.36 5.09-9.47 16.89-13.01 26.32-7.92 9.47 5.08 13.04 16.88 7.96 26.36zm-12.54-59.87c5.09-9.47 16.89-13.01 26.36-7.92 9.47 5.09 13.01 16.89 7.92 26.36-5.09 9.47-16.89 13.01-26.36 7.92-9.48-5.09-13.01-16.89-7.92-26.36zm-53.89-60.76c9.09.16 17.28 5.44 21.24 13.63l3.3 6.99.5-.7c3.22-4.74 8.39-7.77 14.09-8.35l12.19-1.13-2.6 11.69c-1.48 6.79-6.52 12.23-13.12 14.29l-13.55 4.19-.08.04v-.04l-19.61-6.06a24.05 24.05 0 01-16.35-17.74l-3.8-17.16 17.79.35zm-41.55 60.76c5.09-9.47 16.89-13.01 26.36-7.92 9.47 5.09 13.01 16.89 7.92 26.36-5.09 9.47-16.89 13.01-26.36 7.92s-13-16.89-7.92-26.36z"/><circle class="dion0" cx="215.27" cy="180.92" r="42.87"/><circle class="dion0" cx="334.02" cy="121.69" r="27.75"/><circle class="dion0" cx="273.46" cy="134.1" r="23.93"/><circle class="dion0" cx="323.82" cy="61.69" r="14.77"/><circle class="dion0" cx="251.82" cy="64.77" r="9.92"/><circle class="dion0" cx="200.42" cy="74.69" r="9.92"/><circle class="dion0" cx="275.13" cy="22.15" r="9.92"/><circle class="dion0" cx="210.34" cy="24.23" r="9.92"/><path class="dion0" d="M534.45 203.8l-14.44 19.76c11.84 24.93 18.44 52.76 18.44 82.15 0 106.23-86.43 192.65-192.65 192.65-98.73 0-180.27-74.54-191.37-170.29v-.04c-.04-.19-.04-.35-.08-.54-.78-6.87-1.2-13.86-1.24-20.93h-21.82c.43 117.91 96.44 213.66 214.51 213.66 118.26 0 214.51-96.25 214.51-214.51 0-36.84-9.36-71.59-25.86-101.91z"/><g><path class="dion1" d="M70.17 601.31v27.17c0 10-8.11 18.11-18.11 18.11H6.77v-63.4h45.29c10 .01 18.11 8.12 18.11 18.12zm-9.06 0c0-5-4.06-9.06-9.06-9.06H15.83v45.29h36.23c5 0 9.06-4.05 9.06-9.06v-27.17zM124.33 592.25v45.29h27.17v9.06H88.1v-9.06h27.17v-45.29H88.1v-9.06h63.4v9.06h-27.17zM214.71 646.6h-27.17c-10 0-18.11-8.11-18.11-18.11V583.2h45.29c10 0 18.11 8.11 18.11 18.12v27.17c0 10-8.11 18.11-18.12 18.11zm0-54.35h-36.23v36.23c0 5 4.05 9.06 9.06 9.06h27.17c5 0 9.06-4.05 9.06-9.06v-27.17c0-5-4.05-9.06-9.06-9.06zM314.16 601.31v45.29h-9.06v-45.29c0-5-4.05-9.06-9.06-9.06h-36.23v54.34h-9.06v-63.4h45.29c10.01.01 18.12 8.12 18.12 18.12zM395.49 583.2v45.29c0 10-8.11 18.11-18.11 18.11H350.2c-10 0-18.11-8.11-18.11-18.11h9.06c0 5 4.05 9.06 9.06 9.06h27.17c5 0 9.06-4.05 9.06-9.06v-9.06H350.2c-10 0-18.11-8.11-18.11-18.11V583.2h9.06v18.12c0 5 4.05 9.06 9.06 9.06h36.23V583.2h9.05zM422.47 601.31c0 5 4.05 9.06 9.06 9.06h27.17c10 0 18.11 8.11 18.11 18.11s-8.11 18.12-18.11 18.12h-45.29v-9.06h45.29c5 0 9.06-4.05 9.06-9.06 0-5-4.05-9.06-9.06-9.06h-27.17c-10 0-18.11-8.11-18.11-18.11V583.2h63.4v9.06h-54.34v9.05zM558.14 628.48c0 10-8.11 18.11-18.11 18.11h-45.29v-63.4h9.06v54.34h36.23c5 0 9.06-4.05 9.06-9.06V583.2h9.06v45.28zM585.13 601.31c0 5 4.05 9.06 9.06 9.06h27.17c10 0 18.11 8.11 18.11 18.11s-8.11 18.12-18.11 18.12h-45.29v-9.06h45.29c5 0 9.06-4.05 9.06-9.06 0-5-4.05-9.06-9.06-9.06h-27.17c-10 0-18.11-8.11-18.11-18.11V583.2h63.4v9.06h-54.34v9.05z"/></g></svg>