<?xml version="1.0" encoding="utf-8"?>
<!-- Generator: Adobe Illustrator 26.1.0, SVG Export Plug-In . SVG Version: 6.00 Build 0)  -->
<svg version="1.1" id="Layer_1" xmlns="http://www.w3.org/2000/svg" xmlns:xlink="http://www.w3.org/1999/xlink" x="0px" y="0px"
	 viewBox="0 0 646.47 652.6" style="enable-background:new 0 0 646.47 652.6;" xml:space="preserve">
<style type="text/css">
	.st0{fill:#E3187D;}
	.st1{fill:#E3187D;stroke:#E3187D;stroke-miterlimit:10;}
</style>
<g>
	<g>
		<g>
			<circle class="st0" cx="158.39" cy="300.66" r="27.75"/>
		</g>
	</g>
	<g>
		<circle class="st0" cx="159.01" cy="232.74" r="23.93"/>
	</g>
	<g>
		<circle class="st0" cx="169.83" cy="124.95" r="14.77"/>
	</g>
	<g>
		<circle class="st0" cx="100.74" cy="206.94" r="14.77"/>
	</g>
	<g>
		<circle class="st0" cx="112.82" cy="134.87" r="9.92"/>
	</g>
	<g>
		<circle class="st0" cx="137.68" cy="74.69" r="9.92"/>
	</g>
	<g>
		<g>
			<g>
				<path class="st0" d="M505.72,243.01l-29.35,40.11l-48.3,63.09L344.6,455.39L242.76,346.21l-1.16-1.24l18.13-16.93l16.97,18.17
					l65.96,70.82l54.24-70.82l96.21-128.78c-28.03-46.51-77.19-78.78-134.22-83.47c-4.74-0.43-9.59-0.62-14.44-0.62
					c-11.53,0-22.79,1.13-33.62,3.26c0.27,0.39,0.43,0.85,0.66,1.24c0,0.04,0,0.08,0.04,0.08c0,0.04,0.04,0.08,0.04,0.08
					c2.29,4.39,3.57,9.28,3.57,14.6c0,17.55-14.25,31.8-31.84,31.8c-11.14,0-20.85-5.71-26.52-14.33c-0.04,0-0.04,0-0.04-0.04
					l-0.04-0.04c-2.02-3.07-3.53-6.48-4.39-10.17c-23.3,14.6-42.86,34.63-56.92,58.24c2.21,0.97,4.27,2.14,6.21,3.49
					c0,0,0,0.04,0.04,0.04c8.04,5.78,13.24,15.18,13.24,25.82c0,17.63-14.25,31.88-31.8,31.88c-2.29,0-4.5-0.23-6.64-0.74
					c-0.66-0.12-1.28-0.27-1.94-0.47h-0.04c-0.35-0.12-0.7-0.19-1.05-0.31c-1.59,9.43-2.41,19.1-2.41,28.96
					c0,6.1,0.35,12.07,0.93,17.98v0.16c9.05,87.28,82.81,155.3,172.5,155.3c95.78,0,173.39-77.65,173.39-173.43
					C517.83,284.25,513.56,262.74,505.72,243.01z M307.91,343.42c-9.47-5.09-13.01-16.89-7.92-26.36
					c5.09-9.47,16.89-13.01,26.36-7.92c9.47,5.09,13.01,16.89,7.92,26.36C329.18,344.97,317.38,348.5,307.91,343.42z M322.39,275.63
					c5.09-9.47,16.89-13.01,26.36-7.92c9.47,5.09,13.01,16.89,7.92,26.36c-5.09,9.47-16.89,13.01-26.36,7.92
					S317.3,285.1,322.39,275.63z M356.67,378.17c-5.09,9.47-16.89,13.01-26.36,7.92s-13.01-16.89-7.92-26.36s16.89-13.01,26.36-7.92
					S361.76,368.69,356.67,378.17z M381.87,335.5c-5.12,9.47-16.93,13.01-26.36,7.92c-9.47-5.09-13.05-16.89-7.92-26.36
					c5.09-9.47,16.89-13.01,26.32-7.92C383.38,314.22,386.95,326.02,381.87,335.5z M369.33,275.63c5.09-9.47,16.89-13.01,26.36-7.92
					c9.47,5.09,13.01,16.89,7.92,26.36c-5.09,9.47-16.89,13.01-26.36,7.92C367.77,296.9,364.24,285.1,369.33,275.63z M315.44,214.87
					c9.09,0.16,17.28,5.44,21.24,13.63l3.3,6.99l0.5-0.7c3.22-4.74,8.39-7.77,14.09-8.35l12.19-1.13l-2.6,11.69
					c-1.48,6.79-6.52,12.23-13.12,14.29l-13.55,4.19l-0.08,0.04v-0.04l-19.61-6.06c-8.27-2.56-14.48-9.36-16.35-17.74l-3.8-17.16
					L315.44,214.87z M273.89,275.63c5.09-9.47,16.89-13.01,26.36-7.92c9.47,5.09,13.01,16.89,7.92,26.36
					c-5.09,9.47-16.89,13.01-26.36,7.92S268.81,285.1,273.89,275.63z"/>
			</g>
		</g>
	</g>
	<g>
		<circle class="st0" cx="215.27" cy="180.92" r="42.87"/>
	</g>
	<g>
		<g>
			<circle class="st0" cx="334.02" cy="121.69" r="27.75"/>
		</g>
	</g>
	<g>
		<circle class="st0" cx="273.46" cy="134.1" r="23.93"/>
	</g>
	<g>
		<circle class="st0" cx="323.82" cy="61.69" r="14.77"/>
	</g>
	<g>
		<circle class="st0" cx="251.82" cy="64.77" r="9.92"/>
	</g>
	<g>
		<circle class="st0" cx="200.42" cy="74.69" r="9.92"/>
	</g>
	<g>
		<circle class="st0" cx="275.13" cy="22.15" r="9.92"/>
	</g>
	<g>
		<circle class="st0" cx="210.34" cy="24.23" r="9.92"/>
	</g>
	<g>
		<g>
			<g>
				<g>
					<path class="st0" d="M534.45,203.8l-14.44,19.76c11.84,24.93,18.44,52.76,18.44,82.15c0,106.23-86.43,192.65-192.65,192.65
						c-98.73,0-180.27-74.54-191.37-170.29v-0.04c-0.04-0.19-0.04-0.35-0.08-0.54c-0.78-6.87-1.2-13.86-1.24-20.93h-21.82
						c0.43,117.91,96.44,213.66,214.51,213.66c118.26,0,214.51-96.25,214.51-214.51C560.31,268.87,550.95,234.12,534.45,203.8z"/>
				</g>
			</g>
		</g>
	</g>
</g>
<g>
	<path class="st1" d="M70.17,601.31v27.17c0,10-8.11,18.11-18.11,18.11H6.77v-63.4h45.29C62.06,583.2,70.17,591.31,70.17,601.31z
		 M61.11,601.31c0-5-4.06-9.06-9.06-9.06H15.83v45.29h36.23c5,0,9.06-4.05,9.06-9.06V601.31z"/>
	<path class="st1" d="M124.33,592.25v45.29h27.17v9.06H88.1v-9.06h27.17v-45.29H88.1v-9.06h63.4v9.06H124.33z"/>
	<path class="st1" d="M214.71,646.6h-27.17c-10,0-18.11-8.11-18.11-18.11V583.2h45.29c10,0,18.11,8.11,18.11,18.12v27.17
		C232.83,638.49,224.72,646.6,214.71,646.6z M214.71,592.25h-36.23v36.23c0,5,4.05,9.06,9.06,9.06h27.17c5,0,9.06-4.05,9.06-9.06
		v-27.17C223.77,596.31,219.72,592.25,214.71,592.25z"/>
	<path class="st1" d="M314.16,601.31v45.29h-9.06v-45.29c0-5-4.05-9.06-9.06-9.06h-36.23v54.34h-9.06v-63.4h45.29
		C306.05,583.2,314.16,591.31,314.16,601.31z"/>
	<path class="st1" d="M395.49,583.2v45.29c0,10-8.11,18.11-18.11,18.11H350.2c-10,0-18.11-8.11-18.11-18.11h9.06
		c0,5,4.05,9.06,9.06,9.06h27.17c5,0,9.06-4.05,9.06-9.06v-9.06H350.2c-10,0-18.11-8.11-18.11-18.11V583.2h9.06v18.12
		c0,5,4.05,9.06,9.06,9.06h36.23V583.2H395.49z"/>
	<path class="st1" d="M422.47,601.31c0,5,4.05,9.06,9.06,9.06h27.17c10,0,18.11,8.11,18.11,18.11c0,10-8.11,18.12-18.11,18.12
		h-45.29v-9.06h45.29c5,0,9.06-4.05,9.06-9.06c0-5-4.05-9.06-9.06-9.06h-27.17c-10,0-18.11-8.11-18.11-18.11V583.2h63.4v9.06h-54.34
		V601.31z"/>
	<path class="st1" d="M558.14,628.48c0,10-8.11,18.11-18.11,18.11h-45.29v-63.4h9.06v54.34h36.23c5,0,9.06-4.05,9.06-9.06V583.2
		h9.06V628.48z"/>
	<path class="st1" d="M585.13,601.31c0,5,4.05,9.06,9.06,9.06h27.17c10,0,18.11,8.11,18.11,18.11c0,10-8.11,18.12-18.11,18.12
		h-45.29v-9.06h45.29c5,0,9.06-4.05,9.06-9.06c0-5-4.05-9.06-9.06-9.06h-27.17c-10,0-18.11-8.11-18.11-18.11V583.2h63.4v9.06h-54.34
		V601.31z"/>
</g>
</svg>
