<svg id="Layer_1" data-name="Layer 1" xmlns="http://www.w3.org/2000/svg" viewBox="0 0 521.94 521.94"><defs><style>.cls-3{fill:none}.cls-2,.cls-3{stroke:#010101}.cls-2{fill:#010101;stroke-width:10px}.cls-3{stroke-width:15px}</style></defs><g id="layer2"><path id="path1850" d="M170.29 270.91l-15.09-31.62-12.23-76.18 31.63-58.22 14.91 50.81 41.34 2.64 26.4-50.57 25.87 59.65 18.37 82.55-8.31 29.2 59.93 158.8 44.3-108.88 53.9 55.34-43.89-7.95-9.21 98.1-87.77-8.22-120.74 9z" stroke-width="35" stroke="#010101" fill="none"/><rect id="rect2102" class="cls-2" x="201.02" y="201.79" width="12.88" height="9.04" rx="3.46"/><rect id="rect2280" class="cls-2" x="237.97" y="202.75" width="12.88" height="9.04" rx="3.46"/><path id="path2419" class="cls-3" d="M191.69 231.52l61.38 9.82" transform="translate(4.97 4.97)"/><rect id="rect1913" x="4.97" y="4.97" width="512" height="512" rx="3.44" fill="#c9d8ef" stroke-opacity="0" stroke-width="9.94" stroke="#010101"/></g><g id="g843"><path id="path835" d="M170.29 270.91l-15.09-31.62-12.23-76.18 31.63-58.22 14.91 50.81 41.34 2.64 26.4-50.57 25.87 59.65 18.37 82.55-8.31 29.2 59.93 158.8 44.3-108.88 53.9 55.34-43.89-7.95-9.21 98.1-87.77-8.22-120.74 9z" fill="#fff" stroke-width="35" stroke="#010101"/><rect id="rect837" class="cls-2" x="201.02" y="201.79" width="12.88" height="9.04" rx="3.46"/><rect id="rect839" class="cls-2" x="237.97" y="202.75" width="12.88" height="9.04" rx="3.46"/><path id="path841" class="cls-3" d="M191.69 231.52l61.38 9.82" transform="translate(4.97 4.97)"/></g></svg>