<svg xmlns="http://www.w3.org/2000/svg" viewBox="0 0 512 512"><defs><style>.gdot-1{fill:#161719;}.gdot-2{fill:#eee;}</style></defs><g id="Layer_2" data-name="Layer 2"><g id="Layer_1-2" data-name="Layer 1"><rect class="gdot-1" width="512" height="512"/><path class="gdot-2" d="M90.39,308.09c-18.78.59-35.46-12.1-34.94-31.5,1.23-12.16-3.46-51,4.37-61,16-25.71,67.2-17.15,65.51,16.61H103.85c1.24-12.75-15.59-16.41-23.41-9.6q-3.51,3.3-3.51,9.6c1.33,7.27-3.39,49.14,3.51,53.91,4.21,4.49,15.69,4.49,19.9,0,4.57-3.56,3.39-13.12,3.51-18.54H88.39V249.38h36.94C126.43,277.63,127.82,307.84,90.39,308.09Z"/><path class="gdot-2" d="M149.38,269.43V249.38H195.2v20.05Z"/><path class="gdot-2" d="M245.89,308.09c-16.65,0-25.73-14.19-25.49-30.79.2-12.5-2-33.52,7.09-42.45,10.52-13.34,34.6-10.44,39.59,6.65h.43c-.6-9.66-.86-29.62-.72-39.37h21.48V306.66H267.51V293.05h-.43C263.67,302.58,256.11,308.15,245.89,308.09Zm8.31-18.62c8.5,0,12.62-5.17,12.59-13.6-.57-10.41,3.93-31.77-12.6-30.79-8,0-12.36,4.78-12.31,12.89C242.62,268.17,237.56,290.48,254.2,289.47Z"/><path class="gdot-2" d="M337.24,308.09c-18.82.63-34.92-12.21-34.36-31.5-2.06-26.38,2.5-50,34.36-50.12,18.93-.66,34.87,12.2,34.37,31.5C373.81,284,368.81,308.27,337.24,308.09Zm0-18.62c17.18,1.26,12.23-21,12.89-31.5,0-8.38-4.51-12.91-12.89-12.89s-12.93,4.58-12.88,12.89C325,268.49,320.14,290.67,337.24,289.47Z"/><path class="gdot-2" d="M428.31,306.66c-32.95,1.47-25-38.3-25.77-59.43H381.77V227.9h20.77V205.71H424V227.9h29.36v19.33H424c2.5,38.71-11.45,41.64,27.93,40.1v19.33Z"/></g></g></svg>