<svg xmlns="http://www.w3.org/2000/svg" xmlns:xlink="http://www.w3.org/1999/xlink" viewBox="0 0 512 512"><defs><style>.gnrcc-1{fill:#fff;}.gnrcc-2{fill:#010101;}.gnrcc-3{fill:url(#gnrcc-linear-gradient);}</style><linearGradient id="gnrcc-linear-gradient" x1="259.06" y1="-669.92" x2="256.91" y2="-434.66" gradientTransform="matrix(1, 0, 0, -1, 1.99, -210.71)" gradientUnits="userSpaceOnUse"><stop offset="0" stop-color="#fff"/><stop offset="0.08" stop-color="#e0e1e0"/><stop offset="0.28" stop-color="#9c9c9d"/><stop offset="0.46" stop-color="#666"/><stop offset="0.63" stop-color="#3a3a39"/><stop offset="0.78" stop-color="#1a1a1a"/><stop offset="0.91" stop-color="#090909"/><stop offset="1" stop-color="#010101"/></linearGradient></defs><g id="Layer_2" data-name="Layer 2"><rect class="gnrcc-1" width="512" height="512"/></g><g id="Layer_1" data-name="Layer 1"><path class="gnrcc-2" d="M274.69,189.05c-.86,39.64-32.74,71.52-72.38,70.66S130.78,227,131.64,187.33s32.75-70.67,71.53-70.67c39.64,0,71.52,31.89,71.52,72.39Zm72.39,0c0-76.7-64.63-138.74-143.91-138.74s-144.78,62-144.78,138.74S123,327.79,203.17,327.79,347.08,265.75,347.08,189.05Z"/><path class="gnrcc-2" d="M164.39,422.58H459.11c1.72-11.2,3.45-23.26,3.45-35.33,0-106.85-90.49-193-202.51-193S57.53,280.4,57.53,387.25A187.84,187.84,0,0,0,61,425.17Z"/><path class="gnrcc-1" d="M164.39,351.92c19.82-52.57,77.56-79.28,130.13-59.46,27.57,10.34,50,31.88,59.46,59.46Z"/><rect class="gnrcc-1" x="47.19" y="351.92" width="415.37" height="104.27"/><path class="gnrcc-3" d="M166.11,345.89,61,347.61c18.1,62.05,102.55,109.44,202.51,109.44,91.35,0,173.21-34.47,195.62-106H354.84c-19,31-58.6,42.22-91.35,42.22-44.81-.86-81.86-19.82-97.38-47.39"/></g></svg>