<?xml version="1.0" encoding="utf-8"?>
<!-- Generator: Adobe Illustrator 25.4.1, SVG Export Plug-In . SVG Version: 6.00 Build 0)  -->
<svg version="1.1" id="Layer_1" xmlns="http://www.w3.org/2000/svg" xmlns:xlink="http://www.w3.org/1999/xlink" x="0px" y="0px"
	 viewBox="0 0 48.2 48.2" style="enable-background:new 0 0 48.2 48.2;" xml:space="preserve">
<style type="text/css">
	.st0{fill:#FFFFFF;}
	.st1{fill:url(#SVGID_1_);}
</style>
<path d="M26.4,17.1c-0.1,4.6-3.8,8.3-8.4,8.2s-8.3-3.8-8.2-8.4s3.8-8.2,8.3-8.2C22.7,8.7,26.4,12.4,26.4,17.1L26.4,17.1z M34.8,17.1
	C34.8,8.2,27.3,1,18.1,1S1.3,8.2,1.3,17.1s7.5,16.1,16.8,16.1S34.8,26,34.8,17.1z"/>
<path d="M13.6,44.2h34.2c0.2-1.3,0.4-2.7,0.4-4.1c0-12.4-10.5-22.4-23.5-22.4S1.2,27.7,1.2,40.1c0,1.5,0.1,2.9,0.4,4.4L13.6,44.2z"
	/>
<path class="st0" d="M13.6,36c2.3-6.1,9-9.2,15.1-6.9c3.2,1.2,5.8,3.7,6.9,6.9H13.6z"/>
<rect x="0" y="36" class="st0" width="48.2" height="12.1"/>
<linearGradient id="SVGID_1_" gradientUnits="userSpaceOnUse" x1="22.8383" y1="773.1599" x2="22.5883" y2="745.8599" gradientTransform="matrix(1 0 0 1 1.99 -724.71)">
	<stop  offset="0" style="stop-color:#FFFFFF"/>
	<stop  offset="8.000000e-02" style="stop-color:#E0E0E0"/>
	<stop  offset="0.28" style="stop-color:#9D9D9D"/>
	<stop  offset="0.46" style="stop-color:#656565"/>
	<stop  offset="0.63" style="stop-color:#393939"/>
	<stop  offset="0.78" style="stop-color:#1A1A1A"/>
	<stop  offset="0.91" style="stop-color:#070707"/>
	<stop  offset="1" style="stop-color:#000000"/>
</linearGradient>
<path class="st1" d="M13.8,35.3L1.6,35.5c2.1,7.2,11.9,12.7,23.5,12.7c10.6,0,20.1-4,22.7-12.3H35.7c-2.2,3.6-6.8,4.9-10.6,4.9
	C19.9,40.7,15.6,38.5,13.8,35.3"/>
</svg>
