<svg id="Layer_1" data-name="Layer 1" xmlns="http://www.w3.org/2000/svg" viewBox="0 0 266.33 196.67"><title>GoOpen-Izrez-Go-AI</title><polygon points="224.78 60.19 266.33 115.42 253.07 165.1 215.58 189.13 170.01 181.4 150.27 150.79 153.49 141.87 174.54 174.5 213.96 181.2 246.88 160.12 257.7 116.99 221.74 68.19 161.75 75.74 151.39 75.86 153.29 69.22 224.78 60.19"/><path d="M238.58,85.61l36,48.8-10.82,43.13L230.8,198.62l-39.42-6.7-21.05-32.64L194.24,93l-15.65.16Zm-5,68.55,4.88-20-21.16-12.89-21.58,8-2.8,20,14.65,9.38,13.62,5.12Z" transform="translate(-16.83 -17.42)" style="fill:#FFC300"/><path d="M238.42,134.2l-4.88,20-12.4,9.61-13.62-5.12-14.65-9.38,2.8-20,21.58-8Zm-11.58,15.6,2.92-12-13.31-8.13-13.94,5.14L201,145.52l10.22,6.57,8.58,3.14Z" transform="translate(-16.83 -17.42)"/><polygon points="157.32 82.61 149.37 82.88 103.1 84.5 89.64 120.68 122.17 117.44 112.08 147.68 69.1 142.09 47.92 106.97 57.55 67.36 94.97 44.73 116.46 62.66 162.39 50.12 135.94 9.79 66.75 8.81 11.78 47.05 8.26 135.8 39.11 187.82 129.72 177.85 143.93 140.96 147.29 132.26 166.55 82.28 157.32 82.61" style="fill:#fd6412"/><path d="M178.59,93.16l-10.37.11L114,93.84,93.93,147.76l33-3.35-3.81,11.51L91,151.76,73.68,123l8-32.91L111,72.39,131.3,89.25l61.22-16.7L157.77,19.63,81.7,17.42,20,60.2l-3.2,95.09,34,58.8L154.56,203,167.1,168.2l3.22-8.92L194.24,93Zm-14.47,56.51-3.35,8.71-14.22,36.88-90.61,10-30.85-52,3.52-88.75,55-38.24,69.18,1,26.45,40.33L133.29,80.07,111.8,62.15,74.38,84.78l-9.63,39.61,21.19,35.12,43,5.59L139,134.86l-32.54,3.24,13.46-36.18,46.27-1.61,8-.27,9.24-.33Z" transform="translate(-16.83 -17.42)"/></svg>
