<?xml version="1.0" encoding="utf-8"?>
<!-- Generator: Adobe Illustrator 22.1.0, SVG Export Plug-In . SVG Version: 6.00 Build 0)  -->
<svg version="1.1" id="Layer_1" xmlns="http://www.w3.org/2000/svg" xmlns:xlink="http://www.w3.org/1999/xlink" x="0px" y="0px" viewBox="0 0 300 300" style="enable-background:new 0 0 300 300; background-color: #000;" xml:space="preserve" fill="#fff">
<path d="M260.4,110.4C260.4,49.5,210.9,0,150,0S39.6,49.6,39.6,110.5c0,60.9,49.5,110.4,110.4,110.4S260.4,171.3,260.4,110.4z
	 M150,5c58.1,0,105.4,47.3,105.4,105.4c0,14.2-2.8,27.7-7.9,40l-83.8-83.8C160,63,155.2,61,150,61s-10,2-13.7,5.6l-83.8,83.8
	c-5.1-12.3-7.9-25.9-7.9-40C44.6,52.3,91.9,5,150,5z M102.6,107.5l8.3,8.4c2.1,2.1,4.9,3.2,7.7,3.2c2.8,0,5.6-1,7.9-3.1l8.4-8.4
	c1.1-1.1,2.6-1.8,4.1-1.8c1.5-0.1,2.9,0.5,3.9,1.5c4.1,4.1,10.9,3.9,15.1-0.3c1.3-1.3,2.8-2.2,4.1-2.6c0.9-0.2,1.5-0.1,1.6,0
	c2.9,2.9,8.4,1.8,12.8-2.6l7.6-7.6l51.7,51.7l-11.7,11.7c-2.2,2.2-6.1,2.2-8.3,0l-14.2-14.1c-4.2-4.3-11.1-4.3-15.4,0l-16.9,16.9
	c-2.3,2.3-6,2.3-8.3,0l-22.3-22.3c-2-2.1-4.8-3.2-7.7-3.2s-5.6,1.1-7.7,3.2l-3.4,3.4c-2.3,2.3-6,2.3-8.3,0L90.1,120L102.6,107.5z
	 M106.2,104l33.8-33.8c2.7-2.7,6.3-4.2,10.1-4.2s7.4,1.5,10.1,4.2l20.4,20.4l-7.6,7.6c-2.7,2.7-5.3,3-5.7,2.6c-1.6-1.6-4-2-6.6-1.3
	c-2.2,0.6-4.4,1.9-6.3,3.8c-2.3,2.3-5.9,2.4-8,0.3c-4.1-4.1-10.8-4-15.1,0.3l-8.4,8.4c-2.3,2.3-6,2.3-8.3,0L106.2,104z M150,215.8
	c-42,0-78.4-24.7-95.3-60.4l31.8-31.8l21.5,21.5c4.2,4.3,11.1,4.3,15.4,0l3.4-3.4c2.2-2.2,6.1-2.2,8.3,0l22.3,22.3
	c2.1,2.1,4.9,3.2,7.7,3.2c2.8,0,5.6-1.1,7.7-3.2l17-16.9c2.3-2.3,6-2.3,8.3,0l14.2,14.1c2,2.1,4.8,3.2,7.7,3.2
	c2.9,0,5.6-1.1,7.7-3.2l11.7-11.7l5.9,5.9C228.4,191.1,192,215.8,150,215.8z"/>
<path d="M41.5,259.5c0-1.2,0-1.6-0.4-2.2c-0.4-0.6-1.1-1-1.9-1s-1.5,0.4-1.9,1c-0.3,0.6-0.4,1-0.4,2.2v16.4H16.6v-16.4
	c0-1.2,0-1.6-0.4-2.2c-0.4-0.6-1.1-1-1.9-1s-1.5,0.4-1.9,1c-0.3,0.6-0.4,1-0.4,2.2v37.2c0,1.2,0,1.6,0.4,2.2c0.4,0.6,1.1,1,1.9,1
	s1.5-0.4,1.9-1c0.3-0.6,0.4-1,0.4-2.2V280H37v16.7c0,1.2,0,1.6,0.4,2.2c0.4,0.6,1.1,1,1.9,1s1.5-0.4,1.9-1c0.3-0.6,0.4-1,0.3-2.2
	V259.5z"/>
<path d="M128.3,295.9c-0.5-0.3-0.9-0.4-2-0.4H107v-36c0-1.2,0-1.6-0.4-2.2c-0.4-0.6-1.1-1-1.9-1s-1.5,0.4-1.9,1
	c-0.3,0.6-0.4,1-0.4,2.2v37.3c0,0.7,0,1.6,0.6,2.2c0.7,0.6,1.5,0.6,2.2,0.7h21.1c1.2,0,1.5-0.1,2-0.4c0.6-0.4,0.9-1,0.9-1.7
	S128.8,296.3,128.3,295.9z"/>
<path d="M145.4,256.3c-0.8,0-1.5,0.4-1.9,1c-0.3,0.6-0.4,1-0.4,2.2v37.2c0,1.2,0,1.6,0.4,2.2c0.4,0.6,1.1,1,1.9,1s1.5-0.4,1.9-1
	c0.3-0.6,0.4-1,0.4-2.2v-37.2c0-1.2,0-1.6-0.4-2.2C146.9,256.7,146.2,256.3,145.4,256.3z"/>
<path d="M183,273l10.3-12.5c0.7-0.9,1-1.4,1-2c0-0.7-0.3-1.2-0.8-1.7c-0.5-0.3-1-0.5-1.5-0.5c-0.8,0-1.5,0.6-2.1,1.4l-19.1,23.2
	h-0.1v-21.4c0-1.2,0-1.6-0.4-2.2c-0.4-0.6-1.1-1-1.9-1s-1.5,0.4-1.9,1c-0.3,0.6-0.4,1-0.4,2.2v37.2c0,1.2,0,1.6,0.4,2.2
	c0.4,0.6,1.1,1,1.9,1s1.5-0.4,1.9-1c0.3-0.6,0.4-1,0.4-2.2v-9.4l9-10.8l12.1,21.5c0.6,1,1.2,1.9,2.4,1.9c0.4,0,0.8-0.1,1.2-0.3
	c0.8-0.4,1.2-1.1,1.2-1.8c0-0.6-0.2-1.1-0.7-2.1L183,273z"/>
<path d="M224.2,256.3c-4.5,0-8.1,1.6-10.8,4.2c-4.1,4.1-4.4,7.8-4.4,17.7s0.3,13.6,4.4,17.7c2.7,2.6,6.3,4.2,10.8,4.2
	s8.1-1.6,10.8-4.2c4.1-4.1,4.4-7.8,4.4-17.7c0-9.9-0.3-13.6-4.4-17.7C232.3,257.8,228.7,256.3,224.2,256.3z M231.6,292.8
	c-1.9,2-4.5,3.1-7.4,3.1c-2.9,0-5.4-1.1-7.4-3.1c-2.7-2.8-3-5.8-3-14.7c0-8.9,0.3-11.9,3-14.7c1.9-2,4.5-3.1,7.4-3.1
	c2.9,0,5.4,1.1,7.4,3.1c2.7,2.8,3,5.8,3,14.7S234.3,290,231.6,292.8z"/>
<path d="M287.6,257.3c-0.4-0.6-1.1-1-1.9-1s-1.5,0.4-1.9,1c-0.3,0.6-0.4,1-0.4,2.2v31.3l-22.1-32.6c-0.8-1.1-1.5-1.8-2.6-1.8
	c-0.7,0-1.4,0.2-1.8,0.7c-0.5,0.5-0.7,1.2-0.7,2.3v37.3c0,1.2,0,1.6,0.4,2.2c0.4,0.6,1.1,1,1.9,1s1.5-0.4,1.9-1
	c0.3-0.6,0.4-1,0.4-2.2v-31.3l22.1,32.6c0.8,1.1,1.5,1.8,2.6,1.8c0.7,0,1.3-0.2,1.8-0.7s0.7-1.2,0.7-2.3v-37.3
	C288,258.3,288,257.9,287.6,257.3z"/>
<path d="M86.9,258.6c0-1.2-0.9-2.1-2.1-2.1H62.3c-0.8,0-1.5,0.4-1.9,1.1c-0.3,0.7-0.3,1.6,0.2,2.2L74,278l-13.4,18.6
	c-0.5,0.7-0.6,1.5-0.2,2.2c0.4,0.7,1.1,1.1,1.9,1.1h22.4c1.2,0,2-0.9,2-2.1s-0.9-2.1-2.1-2.1H66.3l11.9-16.4c0.5-0.8,0.5-1.8,0-2.5
	l-11.8-16.1h18.4C86,260.7,86.9,259.8,86.9,258.6z"/>
</svg>