<svg xmlns="http://www.w3.org/2000/svg" viewBox="0 0 300 300" style="background-color:#000" fill="#fff"><path d="M260.4 110.4C260.4 49.5 210.9 0 150 0S39.6 49.6 39.6 110.5 89.1 220.9 150 220.9s110.4-49.6 110.4-110.5zM150 5c58.1 0 105.4 47.3 105.4 105.4 0 14.2-2.8 27.7-7.9 40l-83.8-83.8C160 63 155.2 61 150 61s-10 2-13.7 5.6l-83.8 83.8c-5.1-12.3-7.9-25.9-7.9-40C44.6 52.3 91.9 5 150 5zm-47.4 102.5l8.3 8.4c2.1 2.1 4.9 3.2 7.7 3.2s5.6-1 7.9-3.1l8.4-8.4c1.1-1.1 2.6-1.8 4.1-1.8 1.5-.1 2.9.5 3.9 1.5 4.1 4.1 10.9 3.9 15.1-.3 1.3-1.3 2.8-2.2 4.1-2.6.9-.2 1.5-.1 1.6 0 2.9 2.9 8.4 1.8 12.8-2.6l7.6-7.6 51.7 51.7-11.7 11.7c-2.2 2.2-6.1 2.2-8.3 0l-14.2-14.1c-4.2-4.3-11.1-4.3-15.4 0l-16.9 16.9c-2.3 2.3-6 2.3-8.3 0l-22.3-22.3c-2-2.1-4.8-3.2-7.7-3.2s-5.6 1.1-7.7 3.2l-3.4 3.4c-2.3 2.3-6 2.3-8.3 0L90.1 120l12.5-12.5zm3.6-3.5L140 70.2c2.7-2.7 6.3-4.2 10.1-4.2s7.4 1.5 10.1 4.2l20.4 20.4-7.6 7.6c-2.7 2.7-5.3 3-5.7 2.6-1.6-1.6-4-2-6.6-1.3-2.2.6-4.4 1.9-6.3 3.8-2.3 2.3-5.9 2.4-8 .3-4.1-4.1-10.8-4-15.1.3l-8.4 8.4c-2.3 2.3-6 2.3-8.3 0l-8.4-8.3zM150 215.8c-42 0-78.4-24.7-95.3-60.4l31.8-31.8 21.5 21.5c4.2 4.3 11.1 4.3 15.4 0l3.4-3.4c2.2-2.2 6.1-2.2 8.3 0l22.3 22.3c2.1 2.1 4.9 3.2 7.7 3.2s5.6-1.1 7.7-3.2l17-16.9c2.3-2.3 6-2.3 8.3 0l14.2 14.1c2 2.1 4.8 3.2 7.7 3.2 2.9 0 5.6-1.1 7.7-3.2l11.7-11.7 5.9 5.9c-16.9 35.7-53.3 60.4-95.3 60.4zM41.5 259.5c0-1.2 0-1.6-.4-2.2-.4-.6-1.1-1-1.9-1s-1.5.4-1.9 1c-.3.6-.4 1-.4 2.2v16.4H16.6v-16.4c0-1.2 0-1.6-.4-2.2-.4-.6-1.1-1-1.9-1s-1.5.4-1.9 1c-.3.6-.4 1-.4 2.2v37.2c0 1.2 0 1.6.4 2.2.4.6 1.1 1 1.9 1s1.5-.4 1.9-1c.3-.6.4-1 .4-2.2V280H37v16.7c0 1.2 0 1.6.4 2.2.4.6 1.1 1 1.9 1s1.5-.4 1.9-1c.3-.6.4-1 .3-2.2v-37.2zM128.3 295.9c-.5-.3-.9-.4-2-.4H107v-36c0-1.2 0-1.6-.4-2.2-.4-.6-1.1-1-1.9-1s-1.5.4-1.9 1c-.3.6-.4 1-.4 2.2v37.3c0 .7 0 1.6.6 2.2.7.6 1.5.6 2.2.7h21.1c1.2 0 1.5-.1 2-.4.6-.4.9-1 .9-1.7s-.4-1.3-.9-1.7zM145.4 256.3c-.8 0-1.5.4-1.9 1-.3.6-.4 1-.4 2.2v37.2c0 1.2 0 1.6.4 2.2.4.6 1.1 1 1.9 1s1.5-.4 1.9-1c.3-.6.4-1 .4-2.2v-37.2c0-1.2 0-1.6-.4-2.2-.4-.6-1.1-1-1.9-1zM183 273l10.3-12.5c.7-.9 1-1.4 1-2 0-.7-.3-1.2-.8-1.7-.5-.3-1-.5-1.5-.5-.8 0-1.5.6-2.1 1.4l-19.1 23.2h-.1v-21.4c0-1.2 0-1.6-.4-2.2-.4-.6-1.1-1-1.9-1s-1.5.4-1.9 1c-.3.6-.4 1-.4 2.2v37.2c0 1.2 0 1.6.4 2.2.4.6 1.1 1 1.9 1s1.5-.4 1.9-1c.3-.6.4-1 .4-2.2v-9.4l9-10.8 12.1 21.5c.6 1 1.2 1.9 2.4 1.9.4 0 .8-.1 1.2-.3.8-.4 1.2-1.1 1.2-1.8 0-.6-.2-1.1-.7-2.1L183 273zM224.2 256.3c-4.5 0-8.1 1.6-10.8 4.2-4.1 4.1-4.4 7.8-4.4 17.7s.3 13.6 4.4 17.7c2.7 2.6 6.3 4.2 10.8 4.2s8.1-1.6 10.8-4.2c4.1-4.1 4.4-7.8 4.4-17.7 0-9.9-.3-13.6-4.4-17.7-2.7-2.7-6.3-4.2-10.8-4.2zm7.4 36.5c-1.9 2-4.5 3.1-7.4 3.1-2.9 0-5.4-1.1-7.4-3.1-2.7-2.8-3-5.8-3-14.7 0-8.9.3-11.9 3-14.7 1.9-2 4.5-3.1 7.4-3.1 2.9 0 5.4 1.1 7.4 3.1 2.7 2.8 3 5.8 3 14.7s-.3 11.9-3 14.7zM287.6 257.3c-.4-.6-1.1-1-1.9-1s-1.5.4-1.9 1c-.3.6-.4 1-.4 2.2v31.3l-22.1-32.6c-.8-1.1-1.5-1.8-2.6-1.8-.7 0-1.4.2-1.8.7-.5.5-.7 1.2-.7 2.3v37.3c0 1.2 0 1.6.4 2.2.4.6 1.1 1 1.9 1s1.5-.4 1.9-1c.3-.6.4-1 .4-2.2v-31.3l22.1 32.6c.8 1.1 1.5 1.8 2.6 1.8.7 0 1.3-.2 1.8-.7s.7-1.2.7-2.3v-37.3c0-1.2 0-1.6-.4-2.2zM86.9 258.6c0-1.2-.9-2.1-2.1-2.1H62.3c-.8 0-1.5.4-1.9 1.1-.3.7-.3 1.6.2 2.2L74 278l-13.4 18.6c-.5.7-.6 1.5-.2 2.2.4.7 1.1 1.1 1.9 1.1h22.4c1.2 0 2-.9 2-2.1s-.9-2.1-2.1-2.1H66.3l11.9-16.4c.5-.8.5-1.8 0-2.5l-11.8-16.1h18.4c1.2 0 2.1-.9 2.1-2.1z"/></svg>