<svg version="1.1" id="Layer_1" xmlns="http://www.w3.org/2000/svg" xmlns:xlink="http://www.w3.org/1999/xlink" x="0px" y="0px"
	 width="100%" viewBox="0 0 400 400" enable-background="new 0 0 400 400" xml:space="preserve">
<path fill="#6599FF" opacity="1.000000" stroke="none" 
	d="
M256.000000,401.000000 
	C170.666672,401.000000 85.833336,401.000000 1.000000,401.000000 
	C1.000000,267.666656 1.000000,134.333328 1.000000,1.000000 
	C134.333328,1.000000 267.666656,1.000000 401.000000,1.000000 
	C401.000000,134.333328 401.000000,267.666656 401.000000,401.000000 
	C352.833344,401.000000 304.666656,401.000000 256.000000,401.000000 
M255.647171,286.155090 
	C268.272888,274.337830 280.898621,262.520538 293.680786,250.556839 
	C271.961334,218.255341 271.088440,186.096497 293.412018,153.940735 
	C292.973969,153.301361 292.682037,152.694824 292.232727,152.245773 
	C278.805328,138.825531 265.337189,125.445908 251.947510,111.988220 
	C249.809341,109.839195 248.169998,109.882675 245.481934,111.399612 
	C238.838104,115.148849 232.160172,119.169304 224.993790,121.600639 
	C200.412796,129.940186 177.334625,125.465958 155.847916,111.657829 
	C152.624252,109.586182 150.908859,109.844460 148.384811,112.587906 
	C136.432129,125.579544 124.299927,138.407043 112.137825,151.203812 
	C110.349098,153.085876 110.031792,154.369034 111.587166,156.704224 
	C131.600021,186.750885 130.944031,216.951935 111.789886,247.084427 
	C110.094383,249.751694 110.316193,251.167831 112.559265,253.346283 
	C124.502693,264.945709 136.405319,276.596558 147.975037,288.565094 
	C151.096832,291.794464 153.049103,291.734589 156.677490,289.479095 
	C184.785934,272.006012 213.340683,270.993195 242.144104,287.893005 
	C249.115524,291.983368 249.088272,292.029816 255.647171,286.155090 
M211.364136,296.093018 
	C210.281464,295.326874 209.263000,294.442261 208.105255,293.814636 
	C202.453110,290.750641 195.415817,291.746613 190.536972,296.226471 
	C185.423920,300.921356 183.865021,307.354828 186.363220,313.451172 
	C188.763916,319.309570 195.848969,324.620911 201.462250,323.896973 
	C207.880920,323.069183 213.047348,319.741455 215.577744,313.485657 
	C218.148712,307.129578 216.744812,301.432922 211.364136,296.093018 
M196.381378,108.256508 
	C203.662033,111.564171 210.270004,110.670052 215.229919,105.706139 
	C220.008591,100.923622 221.220840,94.286362 218.414627,88.269356 
	C215.507629,82.036293 209.444473,78.300117 202.738174,79.051910 
	C195.997177,79.807579 191.487000,83.695549 189.222565,90.038277 
	C186.928360,96.464401 189.100464,102.177734 196.381378,108.256508 
M104.088158,192.482224 
	C99.259026,186.819229 93.200401,184.876740 86.209770,187.373795 
	C80.255356,189.500687 76.801132,194.128189 76.063324,200.415894 
	C75.271278,207.165787 79.358879,213.766418 85.590385,216.423859 
	C91.612358,218.991974 98.921532,217.334244 103.367035,212.392105 
	C108.241272,206.973343 108.635040,200.358932 104.088158,192.482224 
M324.096344,209.369553 
	C328.018402,200.550018 325.126984,191.716156 317.054413,187.855118 
	C309.255493,184.124954 299.783264,187.603394 296.032318,195.574951 
	C292.643616,202.776688 295.366821,211.176208 302.459778,215.399796 
	C309.838562,219.793579 317.781647,217.792145 324.096344,209.369553 
z"/>
<path fill="#FCFDFF" opacity="1.000000" stroke="none" 
	d="
M255.381744,286.389954 
	C249.088272,292.029816 249.115524,291.983368 242.144104,287.893005 
	C213.340683,270.993195 184.785934,272.006012 156.677490,289.479095 
	C153.049103,291.734589 151.096832,291.794464 147.975037,288.565094 
	C136.405319,276.596558 124.502693,264.945709 112.559265,253.346283 
	C110.316193,251.167831 110.094383,249.751694 111.789886,247.084427 
	C130.944031,216.951935 131.600021,186.750885 111.587166,156.704224 
	C110.031792,154.369034 110.349098,153.085876 112.137825,151.203812 
	C124.299927,138.407043 136.432129,125.579544 148.384811,112.587906 
	C150.908859,109.844460 152.624252,109.586182 155.847916,111.657829 
	C177.334625,125.465958 200.412796,129.940186 224.993790,121.600639 
	C232.160172,119.169304 238.838104,115.148849 245.481934,111.399612 
	C248.169998,109.882675 249.809341,109.839195 251.947510,111.988220 
	C265.337189,125.445908 278.805328,138.825531 292.232727,152.245773 
	C292.682037,152.694824 292.973969,153.301361 293.412018,153.940735 
	C271.088440,186.096497 271.961334,218.255341 293.680786,250.556839 
	C280.898621,262.520538 268.272888,274.337830 255.381744,286.389954 
M245.979965,219.420700 
	C241.156540,190.388565 248.366837,163.952057 263.872284,138.913773 
	C222.841431,164.443817 181.864426,164.438202 140.340256,141.175415 
	C164.467636,179.682755 164.671158,218.469330 144.085403,258.229523 
	C184.187744,237.493210 223.190964,238.131973 261.668091,261.681122 
	C254.237671,248.355606 248.728683,234.864700 245.979965,219.420700 
z"/>
<path fill="#FAFCFF" opacity="1.000000" stroke="none" 
	d="
M211.625885,296.343658 
	C216.744812,301.432922 218.148712,307.129578 215.577744,313.485657 
	C213.047348,319.741455 207.880920,323.069183 201.462250,323.896973 
	C195.848969,324.620911 188.763916,319.309570 186.363220,313.451172 
	C183.865021,307.354828 185.423920,300.921356 190.536972,296.226471 
	C195.415817,291.746613 202.453110,290.750641 208.105255,293.814636 
	C209.263000,294.442261 210.281464,295.326874 211.625885,296.343658 
z"/>
<path fill="#FAFCFF" opacity="1.000000" stroke="none" 
	d="
M196.071899,108.057762 
	C189.100464,102.177734 186.928360,96.464401 189.222565,90.038277 
	C191.487000,83.695549 195.997177,79.807579 202.738174,79.051910 
	C209.444473,78.300117 215.507629,82.036293 218.414627,88.269356 
	C221.220840,94.286362 220.008591,100.923622 215.229919,105.706139 
	C210.270004,110.670052 203.662033,111.564171 196.071899,108.057762 
z"/>
<path fill="#FAFCFF" opacity="1.000000" stroke="none" 
	d="
M104.302597,192.778488 
	C108.635040,200.358932 108.241272,206.973343 103.367035,212.392105 
	C98.921532,217.334244 91.612358,218.991974 85.590385,216.423859 
	C79.358879,213.766418 75.271278,207.165787 76.063324,200.415894 
	C76.801132,194.128189 80.255356,189.500687 86.209770,187.373795 
	C93.200401,184.876740 99.259026,186.819229 104.302597,192.778488 
z"/>
<path fill="#FAFCFF" opacity="1.000000" stroke="none" 
	d="
M323.918274,209.703659 
	C317.781647,217.792145 309.838562,219.793579 302.459778,215.399796 
	C295.366821,211.176208 292.643616,202.776688 296.032318,195.574951 
	C299.783264,187.603394 309.255493,184.124954 317.054413,187.855118 
	C325.126984,191.716156 328.018402,200.550018 323.918274,209.703659 
z"/>
<path fill="#689BFF" opacity="1.000000" stroke="none" 
	d="
M246.053253,219.847427 
	C248.728683,234.864700 254.237671,248.355606 261.668091,261.681122 
	C223.190964,238.131973 184.187744,237.493210 144.085403,258.229523 
	C164.671158,218.469330 164.467636,179.682755 140.340256,141.175415 
	C181.864426,164.438202 222.841431,164.443817 263.872284,138.913773 
	C248.366837,163.952057 241.156540,190.388565 246.053253,219.847427 
z"/>
</svg>