<?xml version="1.0" standalone="no"?>
<!DOCTYPE svg PUBLIC "-//W3C//DTD SVG 20010904//EN"
 "http://www.w3.org/TR/2001/REC-SVG-20010904/DTD/svg10.dtd">
<svg version="1.0" xmlns="http://www.w3.org/2000/svg"
 width="404.000000pt" height="348.000000pt" viewBox="0 0 404.000000 348.000000"
 preserveAspectRatio="xMidYMid meet">

<g transform="translate(0.000000,348.000000) scale(0.100000,-0.100000)"
fill="#000000" stroke="none">
<path d="M900 2235 l0 -1145 1150 0 1150 0 0 1145 0 1145 -1150 0 -1150 0 0
-1145z m1318 600 c40 -34 54 -71 50 -141 l-3 -59 -282 -5 c-277 -5 -283 -5
-305 -28 -23 -22 -23 -28 -28 -305 l-5 -282 -71 1 c-51 0 -80 5 -99 18 -53 35
-56 56 -53 421 l3 333 25 27 c14 15 34 31 45 35 11 5 172 9 357 9 l336 1 30
-25z m406 -400 c53 -35 56 -55 56 -405 0 -353 -2 -369 -59 -403 -26 -15 -66
-17 -366 -17 -370 0 -380 1 -410 61 -11 20 -15 51 -13 97 l3 67 285 5 c157 3
286 7 288 8 1 1 11 17 22 35 19 30 20 50 20 298 0 146 3 269 8 273 12 13 139
-2 166 -19z m-354 -159 c0 -164 -1 -175 -23 -207 -34 -51 -74 -60 -256 -57
l-156 3 -3 170 c-3 182 3 211 46 245 22 18 41 20 208 20 l184 0 0 -174z"/>
<path d="M140 650 l0 -170 30 0 30 0 0 60 0 60 55 0 c101 0 155 42 155 123 0
66 -61 97 -192 97 l-78 0 0 -170z m185 100 c19 -16 20 -64 0 -80 -8 -7 -38
-13 -67 -14 l-53 -1 -3 44 c-5 68 1 74 58 69 27 -3 56 -11 65 -18z"/>
<path d="M590 650 l0 -172 93 4 c113 5 151 23 185 88 29 55 26 136 -5 178 -37
50 -79 66 -180 70 l-93 4 0 -172z m199 85 c18 -18 25 -38 29 -79 4 -51 2 -57
-26 -86 -26 -25 -38 -30 -81 -30 l-51 0 0 116 0 117 53 -7 c35 -5 60 -15 76
-31z"/>
<path d="M1082 654 l3 -169 33 -3 32 -3 0 60 0 61 56 0 c72 0 118 22 139 67
23 49 13 96 -27 124 -26 19 -48 23 -135 27 l-103 5 2 -169z m195 90 c17 -23
17 -59 -1 -73 -8 -7 -40 -15 -70 -18 l-56 -6 0 55 c0 30 3 58 8 62 14 15 105
0 119 -20z"/>
<path d="M1682 653 l3 -168 33 -3 32 -3 0 60 0 61 55 0 c31 0 71 6 90 14 61
26 84 109 45 159 -27 34 -76 47 -178 47 l-82 0 2 -167z m195 91 c17 -23 17
-59 -1 -73 -8 -7 -40 -15 -70 -18 l-56 -6 0 55 c0 30 3 58 8 62 14 15 105 0
119 -20z"/>
<path d="M2010 650 l0 -170 35 0 35 0 0 65 0 65 43 0 c41 0 44 -2 74 -53 41
-68 54 -79 92 -75 l30 3 -45 70 c-41 64 -43 70 -25 76 29 11 51 50 51 91 0 71
-55 98 -202 98 l-88 0 0 -170z m209 106 c6 -4 11 -22 11 -41 0 -28 -5 -35 -31
-44 -18 -6 -52 -11 -75 -11 l-44 0 0 56 0 57 64 -5 c35 -3 69 -9 75 -12z"/>
<path d="M2430 797 c-51 -33 -73 -79 -73 -147 0 -71 24 -116 79 -147 84 -48
195 -19 234 62 25 51 26 128 2 175 -37 75 -170 107 -242 57z m134 -37 c51 -19
75 -131 40 -185 -31 -47 -113 -55 -149 -15 -25 28 -37 95 -25 139 15 56 75 84
134 61z"/>
<path d="M2820 796 c0 -21 6 -25 33 -28 l32 -3 3 -90 c2 -99 -10 -138 -45
-143 -14 -2 -27 5 -39 22 -27 42 -89 32 -73 -11 12 -33 67 -63 116 -63 33 0
48 6 72 31 l31 31 0 139 0 139 -65 0 c-62 0 -65 -1 -65 -24z"/>
<path d="M3020 650 l0 -171 138 3 137 3 0 25 c0 25 -1 25 -103 28 l-103 3 3
42 3 42 88 3 c85 3 87 3 87 27 0 25 -1 25 -91 25 l-90 0 3 43 3 42 98 3 c96 3
97 3 97 27 l0 25 -135 0 -135 0 0 -170z"/>
<path d="M3409 797 c-46 -30 -69 -80 -69 -147 0 -74 24 -119 80 -147 77 -40
162 -26 209 33 27 35 26 40 -6 49 -19 4 -29 2 -35 -9 -16 -28 -68 -48 -105
-41 -46 8 -73 53 -73 122 0 67 27 102 86 110 33 4 45 1 72 -22 24 -20 39 -25
57 -21 22 6 23 9 14 30 -29 63 -163 88 -230 43z"/>
<path d="M3680 796 c0 -23 4 -25 53 -28 l52 -3 3 -142 3 -143 29 0 29 0 3 143
3 142 53 3 c48 3 52 5 52 28 l0 24 -140 0 -140 0 0 -24z"/>
<path d="M1375 430 c4 -6 62 -10 141 -10 83 0 134 4 134 10 0 6 -54 10 -141
10 -91 0 -138 -4 -134 -10z"/>
</g>
</svg>
