<svg version="1.1" id="Layer_1" xmlns="http://www.w3.org/2000/svg" x="0" y="0" viewBox="0 0 512 512" xml:space="preserve"><style>.dtrs0{fill:#fdebf3;fill-opacity:.33}.dtrs1{fill:#f390bc;fill-opacity:.66}.dtrs3{fill:#ee4699}.dtrs4{fill:#bbb}</style><g transform="translate(-1200)"><circle class="dtrs0" cx="1286.7" cy="105.8" r="20"/><circle class="dtrs0" cx="1261.7" cy="155.8" r="20"/><circle class="dtrs0" cx="1248.7" cy="205.8" r="20"/><circle class="dtrs0" cx="1261.7" cy="255.8" r="20"/><circle class="dtrs0" cx="1274.7" cy="305.8" r="20"/><circle class="dtrs0" cx="1261.7" cy="355.8" r="20"/><circle class="dtrs0" cx="1236.7" cy="405.8" r="20"/></g><g transform="translate(-1200)"><circle class="dtrs1" cx="1336.7" cy="105.8" r="20"/><circle class="dtrs1" cx="1311.7" cy="155.8" r="20"/><circle class="dtrs1" cx="1298.7" cy="205.8" r="20"/><circle class="dtrs1" cx="1311.7" cy="255.8" r="20"/><circle class="dtrs1" cx="1324.7" cy="305.8" r="20"/><circle class="dtrs1" cx="1311.7" cy="355.8" r="20"/><circle class="dtrs1" cx="1286.7" cy="405.8" r="20"/></g><g transform="translate(-1200)"><circle class="dtrs3" cx="1386.7" cy="105.8" r="20"/><circle class="dtrs3" cx="1361.7" cy="155.8" r="20"/><circle class="dtrs3" cx="1348.7" cy="205.8" r="20"/><circle class="dtrs3" cx="1361.7" cy="255.8" r="20"/><circle class="dtrs3" cx="1374.7" cy="305.8" r="20"/><circle class="dtrs3" cx="1361.7" cy="355.8" r="20"/><circle class="dtrs3" cx="1336.7" cy="405.8" r="20"/></g><g transform="translate(-1200)"><circle class="dtrs4" cx="1491.7" cy="120.8" r="20"/><circle class="dtrs4" cx="1536.7" cy="105.8" r="20"/><circle class="dtrs4" cx="1586.7" cy="105.8" r="20"/><circle class="dtrs4" cx="1631.7" cy="121.8" r="20"/><circle class="dtrs4" cx="1461.7" cy="155.8" r="20"/><circle class="dtrs4" cx="1661.7" cy="155.8" r="20"/><circle class="dtrs4" cx="1446.7" cy="205.8" r="20"/><circle class="dtrs4" cx="1536.7" cy="205.8" r="20"/><circle class="dtrs4" cx="1675.7" cy="205.8" r="20"/><circle class="dtrs4" cx="1511.7" cy="255.8" r="20"/><circle class="dtrs4" cx="1661.7" cy="255.8" r="20"/><circle class="dtrs4" cx="1486.7" cy="305.8" r="20"/><circle class="dtrs4" cx="1536.7" cy="305.8" r="20"/><circle class="dtrs4" cx="1586.7" cy="305.8" r="20"/><circle class="dtrs4" cx="1631.7" cy="290.8" r="20"/><circle class="dtrs4" cx="1461.7" cy="355.8" r="20"/><circle class="dtrs4" cx="1436.7" cy="405.8" r="20"/></g><circle cx="336.7" cy="405.8" r="20" fill="#ed1e7f"/></svg>