<?xml version="1.0" encoding="utf-8"?>
<svg viewBox="0 0 600 600" xmlns="http://www.w3.org/2000/svg">
  <g transform="matrix(1, 0, 0, 1, -1200, 0)">
    <title>3</title>
    <circle style="fill: rgb(255, 235, 245); fill-opacity: 0.33;" transform="matrix(1, 0, 0, 0.999994, 815.368408, -189.000641)" cx="515.559" cy="339.003" r="20"/>
    <circle style="fill: rgb(255, 235, 245); fill-opacity: 0.33;" transform="matrix(1, 0, 0, 0.999994, 790.368408, -139.000641)" cx="515.559" cy="339.003" r="20"/>
    <circle style="fill: rgb(255, 235, 245); fill-opacity: 0.33;" transform="matrix(1, 0, 0, 0.999994, 777.368408, -89.000641)" cx="515.559" cy="339.003" r="20"/>
    <circle style="fill: rgb(255, 235, 245); fill-opacity: 0.33;" transform="matrix(1, 0, 0, 0.999994, 790.368408, -39.000641)" cx="515.559" cy="339.003" r="20"/>
    <circle style="fill: rgb(255, 235, 245); fill-opacity: 0.33;" transform="matrix(1, 0, 0, 0.999994, 803.368408, 10.999359)" cx="515.559" cy="339.003" r="20"/>
    <circle style="fill: rgb(255, 235, 245); fill-opacity: 0.33;" transform="matrix(1, 0, 0, 0.999994, 790.368408, 60.999359)" cx="515.559" cy="339.003" r="20"/>
    <circle style="fill: rgb(255, 235, 245); fill-opacity: 0.33;" transform="matrix(1, 0, 0, 0.999994, 765.368408, 110.999359)" cx="515.559" cy="339.003" r="20"/>
  </g>
  <g transform="matrix(1, 0, 0, 1, -1200, 0)">
    <title>2</title>
    <circle style="fill: rgb(255, 143, 199); fill-opacity: 0.66;" transform="matrix(1, 0, 0, 0.999994, 865.368408, -189.000641)" cx="515.559" cy="339.003" r="20"/>
    <circle style="fill: rgb(255, 143, 199); fill-opacity: 0.66;" transform="matrix(1, 0, 0, 0.999994, 840.368408, -139.000641)" cx="515.559" cy="339.003" r="20"/>
    <circle style="fill: rgb(255, 143, 199); fill-opacity: 0.66;" transform="matrix(1, 0, 0, 0.999994, 827.368408, -89.000641)" cx="515.559" cy="339.003" r="20"/>
    <circle style="fill: rgb(255, 143, 199); fill-opacity: 0.66;" transform="matrix(1, 0, 0, 0.999994, 840.368408, -39.000641)" cx="515.559" cy="339.003" r="20"/>
    <circle style="fill: rgb(255, 143, 199); fill-opacity: 0.66;" transform="matrix(1, 0, 0, 0.999994, 853.368408, 10.999359)" cx="515.559" cy="339.003" r="20"/>
    <circle style="fill: rgb(255, 143, 199); fill-opacity: 0.66;" transform="matrix(1, 0, 0, 0.999994, 840.368408, 60.999359)" cx="515.559" cy="339.003" r="20"/>
    <circle style="fill: rgb(255, 143, 199); fill-opacity: 0.66;" transform="matrix(1, 0, 0, 0.999994, 815.368408, 110.999359)" cx="515.559" cy="339.003" r="20"/>
  </g>
  <g transform="matrix(1, 0, 0, 1, -1200, 0)">
    <title>1</title>
    <circle style="fill: rgb(255, 64, 159);" transform="matrix(1, 0, 0, 0.999994, 915.368408, -189.000641)" cx="515.559" cy="339.003" r="20"/>
    <circle style="fill: rgb(255, 64, 159);" transform="matrix(1, 0, 0, 0.999994, 890.368408, -139.000641)" cx="515.559" cy="339.003" r="20"/>
    <circle style="fill: rgb(255, 64, 159);" transform="matrix(1, 0, 0, 0.999994, 877.368408, -89.000641)" cx="515.559" cy="339.003" r="20"/>
    <circle style="fill: rgb(255, 64, 159);" transform="matrix(1, 0, 0, 0.999994, 890.368408, -39.000641)" cx="515.559" cy="339.003" r="20"/>
    <circle style="fill: rgb(255, 64, 159);" transform="matrix(1, 0, 0, 0.999994, 903.368408, 10.999359)" cx="515.559" cy="339.003" r="20"/>
    <circle style="fill: rgb(255, 64, 159);" transform="matrix(1, 0, 0, 0.999994, 890.368408, 60.999359)" cx="515.559" cy="339.003" r="20"/>
    <circle style="fill: rgb(255, 64, 159);" transform="matrix(1, 0, 0, 0.999994, 865.368408, 110.999359)" cx="515.559" cy="339.003" r="20"/>
  </g>
  <g transform="matrix(1, 0, 0, 1, -1200, 0)">
    <title>P</title>
    <circle style="fill: rgb(187, 187, 187);" transform="matrix(1, 0, 0, 0.999994, 1020.36853, -174.000641)" cx="515.559" cy="339.003" r="20"/>
    <circle style="fill: rgb(187, 187, 187);" transform="matrix(1, 0, 0, 0.999994, 1065.368408, -189.000641)" cx="515.559" cy="339.003" r="20"/>
    <circle style="fill: rgb(187, 187, 187);" transform="matrix(1, 0, 0, 0.999994, 1115.368408, -189.000641)" cx="515.559" cy="339.003" r="20"/>
    <circle style="fill: rgb(187, 187, 187);" transform="matrix(1, 0, 0, 0.999994, 1160.368408, -173.000641)" cx="515.559" cy="339.003" r="20"/>
    <circle style="fill: rgb(187, 187, 187);" transform="matrix(1, 0, 0, 0.999994, 990.368469, -139.000641)" cx="515.559" cy="339.003" r="20"/>
    <circle style="fill: rgb(187, 187, 187);" transform="matrix(1, 0, 0, 0.999994, 1190.368408, -139.000641)" cx="515.559" cy="339.003" r="20"/>
    <circle style="fill: rgb(187, 187, 187);" transform="matrix(1, 0, 0, 0.999994, 975.368469, -89.000641)" cx="515.559" cy="339.003" r="20"/>
    <circle style="fill: rgb(187, 187, 187);" transform="matrix(1, 0, 0, 0.999994, 1065.368408, -89.000641)" cx="515.559" cy="339.003" r="20"/>
    <circle style="fill: rgb(187, 187, 187);" transform="matrix(1, 0, 0, 0.999994, 1204.368408, -89.000641)" cx="515.559" cy="339.003" r="20"/>
    <circle style="fill: rgb(187, 187, 187);" transform="matrix(1, 0, 0, 0.999994, 1040.36853, -39.000641)" cx="515.559" cy="339.003" r="20"/>
    <circle style="fill: rgb(187, 187, 187);" transform="matrix(1, 0, 0, 0.999994, 1190.368408, -39.000641)" cx="515.559" cy="339.003" r="20"/>
    <circle style="fill: rgb(187, 187, 187);" transform="matrix(1, 0, 0, 0.999994, 1015.36853, 10.999359)" cx="515.559" cy="339.003" r="20"/>
    <circle style="fill: rgb(187, 187, 187);" transform="matrix(1, 0, 0, 0.999994, 1065.368408, 10.999359)" cx="515.559" cy="339.003" r="20"/>
    <circle style="fill: rgb(187, 187, 187);" transform="matrix(1, 0, 0, 0.999994, 1115.368408, 10.999359)" cx="515.559" cy="339.003" r="20"/>
    <circle style="fill: rgb(187, 187, 187);" transform="matrix(1, 0, 0, 0.999994, 1160.368408, -4.000641)" cx="515.559" cy="339.003" r="20"/>
    <circle style="fill: rgb(187, 187, 187);" transform="matrix(1, 0, 0, 0.999994, 990.368469, 60.999359)" cx="515.559" cy="339.003" r="20"/>
    <circle style="fill: rgb(187, 187, 187);" transform="matrix(1, 0, 0, 0.999994, 965.368469, 110.999359)" cx="515.559" cy="339.003" r="20"/>
  </g>
  <circle style="fill: rgb(255, 0, 128);" transform="matrix(1, 0, 0, 0.999994, -134.631592, 110.99939)" cx="515.559" cy="339.003" r="20">
    <title>Dot</title>
  </circle>
</svg>
