<svg id="Layer_1" data-name="Layer 1" xmlns="http://www.w3.org/2000/svg" viewBox="0 0 481 481"><defs><style>.pyci-1{fill:#e5d3b0;stroke:#000;}.pyci-2{fill:none;stroke:#ff7f00;stroke-width:12px;}.pyci-3{isolation:isolate;}.pyci-4{fill:#ff7f00;}.pyci-5{fill-opacity:0;stroke:#e87f6a;stroke-width:10px;}</style></defs><rect id="svg_1" data-name="svg 1" class="pyci-1" x="0.5" y="0.5" width="480" height="480"/><line id="svg_3" data-name="svg 3" class="pyci-2" x1="50.5" y1="240.5" x2="170.5" y2="240.5"/><line id="svg_4" data-name="svg 4" class="pyci-2" x1="310.5" y1="240.5" x2="430.5" y2="240.5"/><g class="pyci-3"><path class="pyci-4" d="M119.2,299.41a3.56,3.56,0,0,0,2.28-.73,4.4,4.4,0,0,0,.46-2.52V282.3a3.35,3.35,0,0,0-.51-2.21,3.73,3.73,0,0,0-2.23-.67v-.59h8.44a10.37,10.37,0,0,1,6.22,1.58,4.9,4.9,0,0,1,2.16,4.15,5.14,5.14,0,0,1-2.4,4.74,11.21,11.21,0,0,1-6,1.47l-1.32,0-1.2,0v5.81c0,1.2.19,2,.56,2.27a4.94,4.94,0,0,0,2.48.61V300h-9Zm10.8-18.8a8.57,8.57,0,0,0-3.44-.59,2.27,2.27,0,0,0-1.21.19,1.18,1.18,0,0,0-.23.87v8.34l1.13.1h.52a8,8,0,0,0,3.46-.62c1.54-.76,2.3-2.19,2.3-4.27A4,4,0,0,0,130,280.61Z" transform="translate(0.5 0.5)"/><path class="pyci-4" d="M136.92,285.64h6.6v.44a4.3,4.3,0,0,0-1.16.14c-.48.14-.72.41-.72.82a1.42,1.42,0,0,0,.08.45,6.61,6.61,0,0,0,.28.7l3.62,7.82,3-7.89q0-.12.15-.57a3.14,3.14,0,0,0,.1-.61.68.68,0,0,0-.28-.61,1.46,1.46,0,0,0-.72-.22l-.48,0v-.44h4.3v.44a1.41,1.41,0,0,0-1,.45,3.2,3.2,0,0,0-.56,1l-4.92,13a20.19,20.19,0,0,1-2.45,4.89,3.63,3.63,0,0,1-3,1.52,3.25,3.25,0,0,1-1.64-.44,1.48,1.48,0,0,1-.77-1.39,1.26,1.26,0,0,1,.46-1,1.65,1.65,0,0,1,1.15-.4,3.81,3.81,0,0,1,1.19.3,4,4,0,0,0,1.14.29c.57,0,1.18-.7,1.82-2.12a9.07,9.07,0,0,0,.95-2.8,1.55,1.55,0,0,0,0-.34c0-.13-.07-.25-.1-.35L139,288.08a5.12,5.12,0,0,0-.93-1.53,2.14,2.14,0,0,0-1.18-.47Z" transform="translate(0.5 0.5)"/><path class="pyci-4" d="M160.62,285.59v1.13h-3.18l0,9a5.94,5.94,0,0,0,.2,1.8,1.45,1.45,0,0,0,1.47,1.07,1.72,1.72,0,0,0,1-.26,4.89,4.89,0,0,0,.95-.85l.41.35-.35.47a4.88,4.88,0,0,1-1.72,1.54,3.78,3.78,0,0,1-1.75.46,2.47,2.47,0,0,1-2.5-1.64,6.82,6.82,0,0,1-.36-2.47v-9.47H153a.4.4,0,0,1-.12-.1.21.21,0,0,1,0-.12.36.36,0,0,1,.07-.24,3.49,3.49,0,0,1,.44-.4,13.29,13.29,0,0,0,1.56-1.45c.31-.37,1.06-1.34,2.24-2.93a.51.51,0,0,1,.24,0s0,.1,0,.23v3.84Z" transform="translate(0.5 0.5)"/><path class="pyci-4" d="M161.66,299.56a2.72,2.72,0,0,0,1.68-.63,3.85,3.85,0,0,0,.39-2.18v-15a2.85,2.85,0,0,0-.22-1.29c-.15-.27-.52-.41-1.1-.41a1.88,1.88,0,0,0-.34,0l-.37.05v-.56l1.7-.49,1.4-.41,1.5-.47,0,.11v9.59a10.29,10.29,0,0,1,1.75-1.66,5.17,5.17,0,0,1,3-.93,3.43,3.43,0,0,1,3.45,2.12,7.44,7.44,0,0,1,.5,3v6.37a4.08,4.08,0,0,0,.38,2.16,2.33,2.33,0,0,0,1.57.65V300h-6.76v-.44a2.92,2.92,0,0,0,1.75-.64,3.79,3.79,0,0,0,.39-2.17v-6.33a5.1,5.1,0,0,0-.51-2.45,2,2,0,0,0-1.91-.94,3.79,3.79,0,0,0-2.36.88q-1.14.87-1.14,1.14v7.7a3.7,3.7,0,0,0,.4,2.19,3,3,0,0,0,1.74.62V300h-6.89Z" transform="translate(0.5 0.5)"/><path class="pyci-4" d="M180.81,293.11a34.27,34.27,0,0,1,5.74-2.55v-1.33a5.35,5.35,0,0,0-.32-2.21,2.21,2.21,0,0,0-2.2-1,2.91,2.91,0,0,0-1.51.41,1.28,1.28,0,0,0-.72,1.15,3.29,3.29,0,0,0,.08.63,4.41,4.41,0,0,1,.07.57,1.3,1.3,0,0,1-.57,1.22,1.43,1.43,0,0,1-.79.21,1.31,1.31,0,0,1-1.07-.46,1.6,1.6,0,0,1-.38-1,3.26,3.26,0,0,1,1.35-2.29,5.84,5.84,0,0,1,4-1.19c2,0,3.39.65,4.11,2a6.72,6.72,0,0,1,.58,3.14v6.26a3.92,3.92,0,0,0,.13,1.25.8.8,0,0,0,.84.61,1.27,1.27,0,0,0,.59-.11,5.84,5.84,0,0,0,.82-.53v.81a5.28,5.28,0,0,1-1.08,1,3.14,3.14,0,0,1-1.78.6,1.73,1.73,0,0,1-1.54-.69,3,3,0,0,1-.53-1.64,14.28,14.28,0,0,1-2,1.53,5.35,5.35,0,0,1-2.7.84,3.25,3.25,0,0,1-2.33-.94,3.2,3.2,0,0,1-1-2.4A4.44,4.44,0,0,1,180.81,293.11Zm5.74-1.77a14.4,14.4,0,0,0-3,1.32c-1.5.92-2.25,2-2.25,3.15a2.4,2.4,0,0,0,.94,2.1,2.24,2.24,0,0,0,1.35.43,3.78,3.78,0,0,0,2-.57,1.71,1.71,0,0,0,1-1.47Z" transform="translate(0.5 0.5)"/><path class="pyci-4" d="M194.54,293.08a4.78,4.78,0,0,1-.79-2.7,5.29,5.29,0,0,1,5.56-5.11,7.17,7.17,0,0,1,2.52.53,7.16,7.16,0,0,0,2.64.54c.22,0,.55,0,1,0s.76,0,1,0h.19v1.26h-2.7c.18.44.33.82.43,1.14a6.07,6.07,0,0,1,.27,1.72,4.58,4.58,0,0,1-1.48,3.28,5.35,5.35,0,0,1-4,1.49,13.22,13.22,0,0,1-1.41-.14c-.3,0-.7.25-1.2.76a2.11,2.11,0,0,0-.75,1.25c0,.34.36.58,1.09.74a7.84,7.84,0,0,0,1.6.15,21,21,0,0,1,5.46.46,3,3,0,0,1,2.36,3.15q0,2.47-2.76,3.94A11.69,11.69,0,0,1,198,307a7.06,7.06,0,0,1-4.06-1,2.82,2.82,0,0,1-1.5-2.18,1.82,1.82,0,0,1,.4-1.1,11.85,11.85,0,0,1,1.56-1.6l1-.93.19-.18a4.51,4.51,0,0,1-1.07-.55,1.37,1.37,0,0,1-.62-1.11,2.15,2.15,0,0,1,.54-1.27,18.77,18.77,0,0,1,2.3-2.26A4.06,4.06,0,0,1,194.54,293.08Zm1.66,11.62a10.32,10.32,0,0,0,3.38.5,8.69,8.69,0,0,0,4.22-.9,2.57,2.57,0,0,0,1.62-2.21c0-.69-.44-1.16-1.31-1.39a16.7,16.7,0,0,0-3.09-.23l-1.22,0-1.17-.05c-.23,0-.6-.06-1.11-.13s-.9-.14-1.15-.19-.43.33-.91,1a3.19,3.19,0,0,0-.74,1.84A1.84,1.84,0,0,0,196.2,304.7Zm5-10.73a3.18,3.18,0,0,0,.93-2.61,9,9,0,0,0-.75-3.34,2.61,2.61,0,0,0-2.53-1.86,2.11,2.11,0,0,0-2.11,1.45,5.22,5.22,0,0,0-.29,1.89,6.4,6.4,0,0,0,.92,3.42,2.73,2.73,0,0,0,2.39,1.52A2.24,2.24,0,0,0,201.16,294Z" transform="translate(0.5 0.5)"/><path class="pyci-4" d="M210.37,287.49a6.59,6.59,0,0,1,5.08-2.15,6.94,6.94,0,0,1,5.13,2,7.3,7.3,0,0,1,2,5.4,8.07,8.07,0,0,1-2,5.41,6.39,6.39,0,0,1-5.09,2.29,6.7,6.7,0,0,1-5.08-2.2,7.72,7.72,0,0,1-2.08-5.53A7.48,7.48,0,0,1,210.37,287.49Zm2.49-.4q-1.56,1.43-1.56,4.91a11.06,11.06,0,0,0,1.26,5.19,3.85,3.85,0,0,0,3.5,2.4,3,3,0,0,0,2.7-1.61,8.23,8.23,0,0,0,.94-4.21,11.22,11.22,0,0,0-1.2-5.1,3.79,3.79,0,0,0-3.49-2.39A3.13,3.13,0,0,0,212.86,287.09Z" transform="translate(0.5 0.5)"/><path class="pyci-4" d="M223.72,299.48a3.77,3.77,0,0,0,1.9-.5,2.08,2.08,0,0,0,.47-1.64v-7a5.86,5.86,0,0,0-.29-2.21,1,1,0,0,0-1.05-.67l-.41,0-.54.1v-.51l1.82-.64,1.29-.47c.52-.2,1.06-.42,1.61-.67.07,0,.11,0,.13.07a2.16,2.16,0,0,1,0,.33v2.56a12.27,12.27,0,0,1,1.94-2.17,3,3,0,0,1,1.93-.78,1.8,1.8,0,0,1,1.3.48A1.69,1.69,0,0,1,234,288a1.21,1.21,0,0,1-1,.44,1.8,1.8,0,0,1-1.2-.55,1.68,1.68,0,0,0-.94-.54c-.37,0-.81.29-1.34.88a2.67,2.67,0,0,0-.8,1.82v7a2.36,2.36,0,0,0,.62,1.87,3.09,3.09,0,0,0,2.08.49V300h-7.7Z" transform="translate(0.5 0.5)"/><path class="pyci-4" d="M237.67,293.11a34.27,34.27,0,0,1,5.74-2.55v-1.33a5.35,5.35,0,0,0-.32-2.21,2.22,2.22,0,0,0-2.2-1,2.91,2.91,0,0,0-1.51.41,1.28,1.28,0,0,0-.72,1.15,4,4,0,0,0,.07.63,3.5,3.5,0,0,1,.08.57,1.29,1.29,0,0,1-.58,1.22,1.4,1.4,0,0,1-.78.21,1.3,1.3,0,0,1-1.07-.46,1.55,1.55,0,0,1-.38-1,3.26,3.26,0,0,1,1.35-2.29,5.84,5.84,0,0,1,4-1.19c2,0,3.39.65,4.11,2a6.72,6.72,0,0,1,.58,3.14v6.26a4.34,4.34,0,0,0,.12,1.25.82.82,0,0,0,.85.61,1.27,1.27,0,0,0,.59-.11,5.84,5.84,0,0,0,.82-.53v.81a5.28,5.28,0,0,1-1.08,1,3.14,3.14,0,0,1-1.78.6,1.73,1.73,0,0,1-1.54-.69,3,3,0,0,1-.53-1.64,14.28,14.28,0,0,1-2,1.53,5.35,5.35,0,0,1-2.7.84,3.25,3.25,0,0,1-2.33-.94,3.17,3.17,0,0,1-1-2.4A4.44,4.44,0,0,1,237.67,293.11Zm5.74-1.77a14.4,14.4,0,0,0-3,1.32c-1.5.92-2.25,2-2.25,3.15a2.42,2.42,0,0,0,.93,2.1,2.29,2.29,0,0,0,1.36.43,3.78,3.78,0,0,0,2-.57,1.71,1.71,0,0,0,.95-1.47Z" transform="translate(0.5 0.5)"/><path class="pyci-4" d="M250.11,295.08h.51a8.21,8.21,0,0,0,1,2.73,3.53,3.53,0,0,0,3.2,1.75,2.51,2.51,0,0,0,1.84-.65,2.19,2.19,0,0,0,.68-1.68,2.33,2.33,0,0,0-.39-1.26,4.05,4.05,0,0,0-1.37-1.19l-1.75-1A10,10,0,0,1,251,291.7a3.66,3.66,0,0,1-.91-2.47,3.71,3.71,0,0,1,1.25-2.87,4.53,4.53,0,0,1,3.14-1.13,6.08,6.08,0,0,1,1.82.32,8,8,0,0,0,1.12.31.84.84,0,0,0,.41-.08.69.69,0,0,0,.22-.25h.37l.11,4.36H258a7.11,7.11,0,0,0-.85-2.36,3.09,3.09,0,0,0-2.79-1.56,2.22,2.22,0,0,0-1.72.67,2.25,2.25,0,0,0-.63,1.58c0,1,.72,1.81,2.16,2.56l2.06,1.11q3.33,1.82,3.33,4.22a3.76,3.76,0,0,1-1.38,3,5.36,5.36,0,0,1-3.61,1.18,8.47,8.47,0,0,1-2.13-.32,10.59,10.59,0,0,0-1.4-.31.53.53,0,0,0-.33.13,1,1,0,0,0-.21.32h-.41Z" transform="translate(0.5 0.5)"/><path class="pyci-4" d="M284.3,279a18.19,18.19,0,0,0,2,.51,1.57,1.57,0,0,0,.86-.25,1.3,1.3,0,0,0,.57-.78h.67l.29,7.19H288a10.28,10.28,0,0,0-1.67-3.45,6.41,6.41,0,0,0-5.3-2.47,6.7,6.7,0,0,0-5.49,2.66,11.36,11.36,0,0,0-2.13,7.31,10,10,0,0,0,2.24,6.83,7.21,7.21,0,0,0,5.68,2.56,9.18,9.18,0,0,0,4.58-1.19,13.77,13.77,0,0,0,2.64-2l.59.59a11.28,11.28,0,0,1-16.66.78,10.83,10.83,0,0,1-2.79-7.61,11.07,11.07,0,0,1,2.95-7.84,10.56,10.56,0,0,1,8.09-3.33A12.9,12.9,0,0,1,284.3,279Z" transform="translate(0.5 0.5)"/><path class="pyci-4" d="M293.67,293.11a34.27,34.27,0,0,1,5.74-2.55v-1.33a5.35,5.35,0,0,0-.32-2.21,2.22,2.22,0,0,0-2.2-1,2.91,2.91,0,0,0-1.51.41,1.28,1.28,0,0,0-.72,1.15,4,4,0,0,0,.07.63,3.5,3.5,0,0,1,.08.57,1.29,1.29,0,0,1-.58,1.22,1.4,1.4,0,0,1-.78.21,1.3,1.3,0,0,1-1.07-.46,1.55,1.55,0,0,1-.38-1,3.26,3.26,0,0,1,1.35-2.29,5.84,5.84,0,0,1,4-1.19c2,0,3.39.65,4.11,2a6.72,6.72,0,0,1,.58,3.14v6.26a4.34,4.34,0,0,0,.12,1.25.82.82,0,0,0,.85.61,1.27,1.27,0,0,0,.59-.11,5.84,5.84,0,0,0,.82-.53v.81a5.28,5.28,0,0,1-1.08,1,3.14,3.14,0,0,1-1.78.6,1.73,1.73,0,0,1-1.54-.69,3,3,0,0,1-.53-1.64,14.28,14.28,0,0,1-2,1.53,5.35,5.35,0,0,1-2.7.84,3.25,3.25,0,0,1-2.33-.94,3.17,3.17,0,0,1-1-2.4A4.44,4.44,0,0,1,293.67,293.11Zm5.74-1.77a14.4,14.4,0,0,0-3,1.32c-1.5.92-2.25,2-2.25,3.15a2.42,2.42,0,0,0,.93,2.1,2.29,2.29,0,0,0,1.36.43,3.78,3.78,0,0,0,2-.57,1.71,1.71,0,0,0,1-1.47Z" transform="translate(0.5 0.5)"/><path class="pyci-4" d="M304.59,306.45a2.54,2.54,0,0,0,1.86-.62,2.86,2.86,0,0,0,.39-1.67v-15a2.59,2.59,0,0,0-.29-1.53,1.39,1.39,0,0,0-1.08-.33h-.32l-.43.07v-.52l1.48-.48,3.14-1.08a.12.12,0,0,1,.12.07.27.27,0,0,1,0,.16v2.11a11.22,11.22,0,0,1,1.81-1.53,5.44,5.44,0,0,1,2.89-.88,4.72,4.72,0,0,1,3.71,1.84,7.49,7.49,0,0,1,1.56,5,9.29,9.29,0,0,1-1.87,5.66,5.61,5.61,0,0,1-4.69,2.55,4.88,4.88,0,0,1-1.52-.22,4.51,4.51,0,0,1-1.84-1.2V304c0,1.05.17,1.7.51,1.94a5.2,5.2,0,0,0,2.25.48V307h-7.72Zm6.17-7.75a3.44,3.44,0,0,0,4.78-1.16,7.91,7.91,0,0,0,1.19-4.67,6.33,6.33,0,0,0-1.24-4.29,3.73,3.73,0,0,0-2.88-1.42,3.4,3.4,0,0,0-2.11.71,1.86,1.86,0,0,0-.95,1.39v7.85A3.15,3.15,0,0,0,310.76,298.7Z" transform="translate(0.5 0.5)"/><path class="pyci-4" d="M321.06,299.56a3.89,3.89,0,0,0,2.11-.57c.29-.27.44-1,.44-2.24V289.3a4.89,4.89,0,0,0-.14-1.41,1,1,0,0,0-1-.64l-.33,0-.95.25v-.48l.68-.22c1.82-.6,3.09-1,3.81-1.35a2.11,2.11,0,0,1,.56-.18.85.85,0,0,1,0,.23v11.22a3.61,3.61,0,0,0,.43,2.23,3.16,3.16,0,0,0,2,.58V300h-7.6Zm2.49-20.89a1.53,1.53,0,0,1,1.15-.48,1.59,1.59,0,0,1,1.15.47,1.57,1.57,0,0,1,.48,1.16,1.53,1.53,0,0,1-.48,1.14,1.56,1.56,0,0,1-1.15.48,1.53,1.53,0,0,1-1.15-.48,1.52,1.52,0,0,1-.47-1.14A1.57,1.57,0,0,1,323.55,278.67Z" transform="translate(0.5 0.5)"/><path class="pyci-4" d="M337.47,285.59v1.13h-3.19l0,9a6.28,6.28,0,0,0,.2,1.8,1.45,1.45,0,0,0,1.47,1.07,1.75,1.75,0,0,0,1-.26,5.19,5.19,0,0,0,.94-.85l.41.35-.34.47a5.06,5.06,0,0,1-1.72,1.54,3.84,3.84,0,0,1-1.75.46,2.47,2.47,0,0,1-2.5-1.64,6.82,6.82,0,0,1-.36-2.47v-9.47h-1.7a.25.25,0,0,1-.12-.1.16.16,0,0,1,0-.12.36.36,0,0,1,.07-.24,4.52,4.52,0,0,1,.44-.4,13.29,13.29,0,0,0,1.56-1.45c.32-.37,1.06-1.34,2.24-2.93a.45.45,0,0,1,.24,0s0,.1,0,.23v3.84Z" transform="translate(0.5 0.5)"/><path class="pyci-4" d="M341.66,293.11a34,34,0,0,1,5.73-2.55v-1.33a5.39,5.39,0,0,0-.31-2.21,2.23,2.23,0,0,0-2.2-1,2.94,2.94,0,0,0-1.52.41,1.28,1.28,0,0,0-.72,1.15,4.4,4.4,0,0,0,.08.63,5.34,5.34,0,0,1,.08.57,1.31,1.31,0,0,1-.58,1.22,1.42,1.42,0,0,1-.78.21,1.33,1.33,0,0,1-1.08-.46,1.6,1.6,0,0,1-.38-1,3.24,3.24,0,0,1,1.36-2.29,5.84,5.84,0,0,1,4-1.19c2,0,3.39.65,4.11,2a6.87,6.87,0,0,1,.57,3.14v6.26a4.24,4.24,0,0,0,.13,1.25.81.81,0,0,0,.84.61,1.34,1.34,0,0,0,.6-.11,6.63,6.63,0,0,0,.81-.53v.81a4.81,4.81,0,0,1-1.08,1,3.12,3.12,0,0,1-1.78.6,1.74,1.74,0,0,1-1.54-.69,3,3,0,0,1-.52-1.64,14.28,14.28,0,0,1-2,1.53,5.35,5.35,0,0,1-2.71.84,3.23,3.23,0,0,1-2.32-.94,3.17,3.17,0,0,1-1-2.4A4.45,4.45,0,0,1,341.66,293.11Zm5.73-1.77a14.4,14.4,0,0,0-3,1.32c-1.5.92-2.25,2-2.25,3.15a2.4,2.4,0,0,0,.94,2.1,2.29,2.29,0,0,0,1.36.43,3.8,3.8,0,0,0,2-.57,1.7,1.7,0,0,0,.94-1.47Z" transform="translate(0.5 0.5)"/><path class="pyci-4" d="M353.08,299.56a3.76,3.76,0,0,0,2-.58,2.3,2.3,0,0,0,.51-1.75V282a4.08,4.08,0,0,0-.17-1.42,1.26,1.26,0,0,0-1.27-.66,2.79,2.79,0,0,0-.47.05l-.65.14v-.52q2.12-.56,5.08-1.5a.11.11,0,0,1,.13.1,1.8,1.8,0,0,1,0,.4V297.3a2.33,2.33,0,0,0,.47,1.75,3.61,3.61,0,0,0,1.94.51V300h-7.56Z" transform="translate(0.5 0.5)"/></g><polygon id="svg_2" data-name="svg 2" class="pyci-5" points="239.67 170.92 260.25 206.57 280.82 242.21 239.67 242.21 198.51 242.21 219.09 206.57 239.67 170.92 260.25 206.57 239.67 170.92"/></svg>