<svg id="Layer_1" data-name="Layer 1" xmlns="http://www.w3.org/2000/svg" viewBox="0 0 512 512"><defs><style>.stkrspc-2{fill:#010101}</style></defs><rect width="512" height="512" rx="26" fill="#fff"/><path class="stkrspc-2" d="M226.59 61a134.31 134.31 0 00-99.4 75.13c-8.43 17.63-11.62 30.91-12.39 51-.77 18.78.64 31.43 5 45.49 1.92 6.38 2.94 7.92 4.6 7.41 1.15-.39 3.84-1 5.75-1.54 2.69-.64 3.32-1.4 2.81-3.06-1-3.2 3.33-4.6 5.37-1.92 1.41 2 3.83 1.4 27.47-5.75 29.13-8.94 69-22.61 112.81-38.71 35.14-12.91 89.31-33.73 94.16-36.16l3.45-1.79L372 141c-23.78-56.33-85.23-90.06-145.41-80zm14.31 13.57c0 1.92-.89 2.43-4.47 2.43s-4.43-.51-4.43-2.43 1-2.68 3.58-2.93c4.42-.64 5.32-.13 5.32 2.93zm15.33-.76c0 2.68-.63 3.19-3.7 3.19-2.17 0-4.22-.64-4.6-1.28-1.66-2.68.51-5.11 4.47-5.11 3.2 0 3.83.51 3.83 3.2zm13.29-1.15a3.62 3.62 0 012.05 3.34c0 3.83-6.9 2.68-7.41-1.28-.39-2.96 1.4-3.6 5.36-2.06zm-44.72 2.68c1 2.56-.25 3.83-4.34 4.47-2.43.26-3.32-.25-3.58-2.43s.39-2.93 2.56-3.32a34.2 34.2 0 003.7-.76c.51 0 1.28.89 1.66 2.04zm61.84 4.09c.38 2.68.13 2.94-2.55 2.3a19 19 0 00-3.84-.9c-.64 0-1-1.15-1-2.68-.02-4.09 6.88-2.94 7.39 1.28zm-76.4 2.17c0 2.3-6.52 3.58-7.79 1.53-1.79-2.68-1.41-3.32 2.42-4.6 3.45-1.15 5.37-.12 5.37 3.07zm89.56.51c2.68 1.53 2.94 2.3 1.28 4.86-.77 1.27-1.66 1.4-4.35.12-3.32-1.53-4.34-3.7-2.55-5.36 1.15-1.28 2.68-1.15 5.62.38zm-106.17 7.67c-4 3.06-4.6 3.06-5.62.38-.64-1.4.13-2.94 2-4.47 2.56-1.92 3.2-1.92 4.86-.26s1.57 2.18-1.24 4.35zm120.1 0c2.81 2.17 2.94 2.68 1.27 4.34s-2.3 1.66-4.85-.25c-1.92-1.54-2.68-3.07-2-4.48.98-2.68 1.62-2.68 5.58.39zM182 94.12c1.28 1.53.9 2.3-1.66 4.09-2.81 1.79-3.7 1.79-5.36.38-1.92-1.53-1.79-1.91.76-4 3.45-2.77 4.35-2.77 6.26-.47zm81 8l4.08.89-4.08 1c-3.2.89-4.48 2-5.24 5.24-1.28 4.08-1.41 4-3.45-2.3-.26-1-2.43-2.3-4.73-2.94l-4.22-1 4.22-.89c2.3-.51 4.47-1.66 4.73-2.81 2-6.26 2.17-6.39 3.45-2.17.9 3.37 1.92 4.39 5.24 5.03zm66.05-.77c0 .51-.9 1.54-2.05 2.43-1.66 1.41-2.42 1.28-4.6-1s-2.42-3.07-1.15-4.6c1.54-1.79 2.05-1.79 4.73.26 1.67 1.18 3.08 2.56 3.08 2.96zm-160.6 6.52c-2.43 2.3-3.06 2.43-4.85 1s-1.66-1.91.89-4.73 2.94-2.81 4.73-1 1.67 2.22-.76 4.78zm170.18 6c-1.66 1.79-2.17 1.67-4.73-.76-2.3-2.43-2.42-3.07-1-4.86s1.92-1.66 4.73.9 2.8 2.99 1.01 4.77zM158 119c-1.54 2.82-4.6 3.58-5.88 1.41-.51-.77.13-2.81 1.28-4.73 1.91-2.81 2.42-3.06 4.08-1.27 1.52 1.43 1.65 2.45.52 4.59zm190.23 3.45c1.54 2.82 1.54 3.45 0 4.35-1.28.77-2.68.38-4.09-.9-2.68-2.42-2.93-5-.63-5.87 2.67-1.12 2.92-1.03 4.71 2.45zm-199.43 4.86c1.91 2.3-.26 7.15-3.07 7.15s-3.32-2-1.79-5.62c1.78-3.84 2.8-4.06 4.85-1.5zm207.74 8.43c1.79 3.58 1.79 4-.13 4.73-1.41.51-3.07-.26-4.6-2.17-2.43-2.94-2.43-3.2-.26-4.73 2.93-2.14 2.68-2.27 4.98 2.2zm-215.41 5c1.53 1 1.66 1.79.38 4.48-1.53 3.57-2.42 4-5.11 2.17-1.27-.77-1.4-1.66-.12-4.35 1.65-3.69 2.16-3.95 4.84-2.29zm221.41 13.93c-2.43 1.79-3.58.89-4.73-3.83s3.2-5.75 5.37-1.15c1.27 2.82 1.14 3.59-.65 4.99zm-226 1c.38.39.13 2.3-.51 4.35-1 2.68-1.92 3.45-3.83 2.94-2.69-.77-2.69-1-1.66-5.24.74-2.53 4.19-3.81 5.98-2.02zm-4 17.76c-.64 4.6-1.4 5.75-3.45 5-1.15-.51-1.92-2.3-1.92-4.6 0-3.19.52-3.7 2.94-3.32 2.07.27 2.71 1.16 2.45 2.95zm52.13 1.15a5.72 5.72 0 004.09 3.58c2.93.51 2.93.51-.39 1.92a8.67 8.67 0 00-4.34 4.47l-1 2.94-.51-2.94a7 7 0 00-4-4.35l-3.41-1.2 2.93-1.15a6.59 6.59 0 003.71-3.71c.89-3.36 1.53-3.23 2.94.47zM131 190.07c0 3.58-.51 4.47-2.56 4.47s-2.55-.89-2.55-4.47.51-4.47 2.55-4.47 2.56.89 2.56 4.47zm.51 13.67c1.28 5 .89 6.13-2.43 6.13-2.68 0-3.19-.64-3.19-3.57.03-5.88 4.24-7.8 5.65-2.56zm2.55 15.33c1.28 5.11.9 6.39-2 5.88-4.86-.64-4.34-8.56.38-8.69.5 0 1.14 1.28 1.65 2.81z"/><path class="stkrspc-2" d="M450.82 110.35c-5.12.64-12 1.53-15.34 2.17l-6.13 1 10.22.9c11.37 1.15 18.53 2.93 18.53 5 0 5.62-35.65 24.91-77.3 41.78C249.46 214.73 106.75 261 62.16 264.43c-10.09.76-10.22.76-11.75-2.56-1.28-2.81-.89-4.47 2.43-11.62 3.7-7.8 3.7-8.31 1.27-7C45.17 248 22.43 275.16 22.43 281c-.13 11.88 47 4.47 128.4-19.93C285.75 220.61 454.52 150.72 484 123.25c7-6.64 7.92-11.63 2.18-13.16-4.32-1.15-24.12-1.02-35.36.26zM376.71 191c-5 2.18-5.49 2.82-5.49 6.9s-.38 4.48-2.81 4.09-2.81-1-2.56-3.45c.39-2.17 0-2.81-1.27-2.3-70 28.49-135.81 52-216.69 77.43l-6.64 2 7.66 8.56c10.61 11.76 26.32 23.25 41.53 30.54 65.92 31.43 145 4.72 177.59-60.18 9.58-19.16 15.45-43.18 14.43-59.54l-.38-6.38zm-7.41 19c1.66 2.43-.51 7.54-3.19 7.54s-3.07-1.28-1.79-6.13c.89-2.94 3.58-3.84 4.98-1.41zm-4.09 14.69c2.82 1 .77 7.54-2.42 7.54-1.28 0-2.43-.76-2.3-1.66s.25-2.68.38-4.09c.13-2.68 1.13-3.06 4.34-1.79zM327.52 244a10.63 10.63 0 005.24 1.78c2.69 0 2.3.39-1.79 1.67-4.34 1.27-5.23 2.17-6.51 6.51s-1.66 4.6-1.66 1.53a9.34 9.34 0 00-8.69-8.68c-3.32-.13-3.19-.26.89-1.15 5-1.15 7.67-4.22 7.8-8.82.13-2.81.25-2.68 1.4 1.15.64 2.42 2.18 5.23 3.32 6.01zm33.86-4c.39.51-.13 2.55-1.15 4.47-1.53 3.19-2.3 3.57-4.34 2.42s-2.3-1.78-1-4.47c1.25-2.91 4.7-4.18 6.49-2.42zm-6.77 15.33a16.47 16.47 0 01-2 3.7c-1.66 2.56-2.43 2.81-4.35 1.66-2.3-1.4-2.3-1.79-.38-5 1.66-2.81 2.55-3.32 4.47-2.3 1.24.69 2.26 1.61 2.26 1.97zM345 267.49c1 1.54-2.94 6.26-5.24 6.26-2.81 0-3.45-2.68-1-5.23s4.99-3.2 6.24-1.03zm-181.39 11.25c-1.66 1.79-2.18 1.66-4.73-.77-2.3-2.43-2.43-3.07-1-4.85s1.91-1.67 4.72.89 2.8 2.99 1.01 4.73zm170.43.51c1.79 2.3-2.68 6.64-5.62 5.62-2.56-1-2.43-4.34.38-5.88 2.94-1.79 3.58-1.66 5.2.26zM175 285.13c1.79 2 1.91 2.55.25 3.83-3.19 2.68-9.2-2.56-6.26-5.37 1.39-1.53 3.69-1.02 6.01 1.54zm145.26 7.92c-2.81 2.3-3.32 2.3-5 .64s-1.66-2.18 1.15-4.48 3.32-2.3 5-.64 1.52 2.18-1.17 4.48zm-106.57 2.55c1.79 0 1.66.26-.51 1.15a4.8 4.8 0 00-3.07 3.45c0 1.79-.25 1.66-1.15-.64a4.88 4.88 0 00-3.45-2.94c-1.79 0-1.66-.25.64-1.15a4.86 4.86 0 002.94-3.45c0-1.78.26-1.66 1.15.52a4.78 4.78 0 003.45 3.06zm-26.83-2c2.81 2 2.68 5.75-.13 5.75-3.06 0-6-3.2-5.11-5.5 1.02-2.72 1.79-2.72 5.24-.29zM308 301.22c-3.07 2.3-6.26 1.92-6.77-.76-.52-2.94 5-5.24 7.41-2.94 1.51 1.53 1.51 2.04-.64 3.7zm-107.58-.51c2.17 1 2.94 2.17 2.56 3.84-.77 2.81-2.81 3.06-6.14.63-1.4-1-2-2.42-1.53-3.83 1-2.43 1.13-2.43 5.09-.64zM295 307.1a12.73 12.73 0 01-4.48 1.79c-2.93.77-3.57.51-3.57-1.53 0-3.58 5.23-5.88 7.41-3.2.71 1.15 1.1 2.43.64 2.94zm-78.45-.26a2.7 2.7 0 01.89 3.33c-.63 1.66-1.66 1.91-4.34 1.27-4.34-1-4.34-1.15-3.32-3.7.84-2.17 3.91-2.68 6.72-.9zm63.11 2.82c.64 2.55-.12 3.19-4.85 4-4 .64-4.34-5-.38-5.75a33.39 33.39 0 003.7-.77c.46-.04 1.1.98 1.48 2.52zM233 312.59c-.25 2.18-1.15 2.56-4.21 2.3-4.73-.63-4.86-.76-4-3.7 1.21-3.71 8.7-2.43 8.21 1.4zm31.3-.63c.77 3.19 0 4-4.47 4s-5.24-4.6-.64-5.5c1.54-.25 3.2-.64 3.58-.76s1.13.98 1.51 2.3zm-15.71 1.27c0 3.32-1.66 4.22-5.5 3.32-4.6-1.15-3.19-5.74 1.79-5.74 2.79 0 3.69.63 3.69 2.42zM152.11 348.5c-5.24 1.91-9.46 6.26-9.58 9.83 0 3.32 3.19 5.75 10.22 7.41 7.41 1.79 9.07 4 5.75 7.67-2.81 3.06-12.91 3.45-16.74.77-2.17-1.67-2.68-1.54-4.6.12-3.07 2.69-2.94 3.58.89 5.24 4.86 2.17 16.74 1.92 22-.64s9.33-9.58 7.28-12.9c-.76-1.15-4.47-3.2-8.3-4.47-9.46-3.2-10.73-4.47-7.92-7.67 1.91-2 3.45-2.43 10.22-1.79 5.62.39 8.43.13 9.32-1S171 349 168 348c-5.42-1.8-9.63-1.68-15.89.5zM175.23 349.77c-.51 1.54.51 1.92 5 1.92 6.89 0 6.77-.64 2.68 16.48l-3.07 12.9h3.58c4 0 4-.12 7.79-20.82l1.54-8.56H199c4.6 0 6.13-.51 6.13-1.92s-2.43-1.91-14.57-1.91c-11.75 0-14.69.38-15.33 1.91zM209.35 364.47l-10.48 16.6h3.58c2.93 0 4.34-1 6.38-4.47l2.56-4.47h19.42l1.92 4.47c1.53 3.71 2.55 4.47 5.49 4.47h3.7l-7.41-16.35c-6.77-14.82-7.79-16.22-11.11-16.61s-4.34.89-14.05 16.36zm16.22-5.63c3.71 8.44 3.45 8.82-4.09 8.69-3.7-.13-6.64-.76-6.39-1.28.64-1.66 7.29-13.28 7.54-13.28s1.37 2.68 2.94 5.87zM247.29 364.47v16.6h3.83c3.58 0 3.84-.25 3.84-4.85 0-3.45.89-5.75 2.93-7.67l2.94-2.81 7.54 7.67c5.88 6 8.43 7.66 11.37 7.66 3.83 0 3.71-.12-5.62-9.58l-9.45-9.58 6.9-7 6.89-7h-3.83c-2.94 0-5.49 1.66-11.37 7.66-4.22 4.22-8 7.67-8.56 7.67s-1-3.45-1-7.67c0-7.28-.13-7.66-3.2-7.66h-3.19zM287 363.44c1.28 8.69 2.43 16.1 2.43 16.61s6.65 1 14.82 1c13.42 0 14.69-.25 14.31-2.3-.38-1.78-2.17-2.17-11.24-2.55-11.5-.38-12.78-1-12.78-7 0-3.45 0-3.45 9.07-3.45 7.8 0 8.95-.25 8.31-2a18.88 18.88 0 01-.77-2.56c0-.25-4-.51-8.81-.51-9.2 0-10.35-.76-10.35-6.51 0-2.18 1-2.43 9.58-2.43 7.66 0 9.58-.38 9.58-1.92s-2.3-1.91-13.16-1.91h-13.27zM320.75 353.86c.9 3.45 2.94 10.86 4.48 16.61 2.68 10.09 2.93 10.6 6.51 10.6h3.58l-1.79-5.07c-1.92-5.49-1.79-5.75 4.09-6.26 3.32-.25 5.24.77 10.35 5.5 4.47 4.21 7.28 5.87 10 5.87 3.71-.12 3.71-.12-2.68-5.74-6.13-5.37-6.26-5.63-4.09-8.05 2.94-3.2 2.81-8.18-.51-12.27-4.34-5.62-8.94-7.15-20.83-7.15H319zm20.19-.77a11.3 11.3 0 014.73 4.73c1.27 2.94 1.15 3.71-1.28 5.62-1.79 1.41-5 2.3-8.43 2.3-5.37 0-5.62-.12-6.9-5.24-.77-2.81-1.79-6-2.17-7-.51-1.41.63-1.79 5.11-1.79a26.85 26.85 0 018.94 1.38zM136.78 403.18c-9.71 5.49-13.93 17-8.31 22.61 1.28 1.28 5.75 3.45 9.84 4.6 10.35 3.07 12 4.22 11.63 8.69C149 447.51 135 450.83 125 445l-4.72-2.82-3.07 3.45c-3.58 4.22-3.2 5.63 2.43 9 3.32 1.91 6.64 2.55 13.92 2.55 8.18 0 10.48-.51 15.72-3.57 6.77-4 11.11-11 11.11-17.76s-2.94-9.59-12.9-12.65c-8.31-2.56-12.65-5.11-12.65-7.41 0-.64 1.15-2.56 2.56-4.35 3.44-4.34 10.6-5.49 18-2.93 5.37 1.91 5.75 1.91 7.92-.64 3.07-3.71 2.81-4.48-1.79-6.14-6.99-2.51-19-1.73-24.75 1.45zM177.79 402.41c-1 3.58-9.71 50.34-9.71 52.38 0 1.28 1.28 1.66 4.85 1.41l4.73-.38 1.28-8.31 1.28-8.3 10.86-.64c18-1.28 25.68-7.67 25.8-21.59 0-12.4-6.77-16.74-26.44-16.74-10.35 0-12.01.25-12.65 2.17zm28.11 8.69c3.06 4.21 2.17 10.6-1.92 14.82-3.45 3.45-4.47 3.7-12.78 3.7-5 0-9.07-.38-9.07-.89 0-1.53 2.68-17.63 3.32-19.42.9-2.81 18.15-1.41 20.45 1.79zM235.92 410.72c-2.68 5.87-8.43 18.14-12.78 27.46s-7.79 17.12-7.79 17.51 2.17.76 4.86.76c4.72 0 5-.25 7.79-7l2.94-7.16 14.05.39 14.18.38 2.56 6.64c2.43 6.65 2.55 6.77 7.92 6.77h5.49l-12.9-28.1-12.91-28.11h-4.21c-4.22-.02-4.47.36-9.2 10.46zm12 5.11c1.15 3.06 3.32 8.17 4.6 11.49l2.43 6.14h-20.18l4.6-11.5c2.55-6.26 5.11-11.5 5.49-11.5s1.92 2.43 3.07 5.37zM289.45 401.64c-8.56 3.45-13.29 11.5-13.29 22.87 0 17 12 30.92 28.37 32.84 8.05.89 15.58-1.28 20.06-6l3.7-3.83-3.19-3.32-3.32-3.2-4.86 3.2c-13.67 9.33-31.3-2.17-31.3-20.19 0-6.77.38-7.79 4.34-11.75 3.71-3.71 5.24-4.35 10.61-4.35a26.71 26.71 0 0110.86 2.43c4.6 2.56 4.6 2.56 6.9 0s2.3-2.68-.13-4.6c-6.9-5.25-20.83-7.16-28.75-4.1zM329.06 401.9c0 2 11.5 53.66 12 54.17.25.26 9.58.26 20.82.13l20.32-.38-1-4.22-1.2-4.09h-31.52l-1.92-7.92c-1.15-4.34-1.79-8.43-1.4-8.94s6-1 12.64-1h12l-1.27-3.83-1.4-3.82h-24.91l-.77-3.71c-.38-2-1.15-5.11-1.66-7l-.79-3.39h13.55c7.41 0 13.54-.25 13.54-.51a17.59 17.59 0 00-1.28-3.83l-1.28-3.32h-17.22c-13.42 0-17.25.38-17.25 1.66z"/></svg>