<svg id="svg" version="1.1" xmlns="http://www.w3.org/2000/svg" xmlns:xlink="http://www.w3.org/1999/xlink" width="400" height="400" viewBox="0, 0, 400,400"><g id="svgg"><path id="path0" d="M6.405 224.100 C 6.419 228.097,8.410 245.426,9.196 248.400 C 9.400 249.170,9.783 250.790,10.048 252.000 C 19.893 296.994,53.771 337.787,101.000 361.517 C 104.923 363.488,111.113 366.400,111.380 366.400 C 111.488 366.400,112.527 366.834,113.688 367.365 C 119.694 370.108,137.894 376.164,143.600 377.318 C 144.150 377.429,145.651 377.810,146.935 378.164 C 148.220 378.518,150.740 379.078,152.535 379.408 C 154.331 379.739,156.610 380.192,157.600 380.416 C 158.590 380.640,160.570 380.982,162.000 381.177 C 163.430 381.371,166.580 381.801,169.000 382.131 C 185.394 384.366,202.579 384.725,219.000 383.175 C 226.069 382.507,236.572 381.101,239.600 380.416 C 240.590 380.192,242.858 379.740,244.641 379.413 C 254.700 377.562,274.879 371.308,283.512 367.365 C 284.673 366.834,285.704 366.400,285.802 366.400 C 286.408 366.400,296.882 361.285,302.600 358.196 C 308.689 354.907,317.807 349.224,321.820 346.215 C 322.712 345.547,323.954 344.640,324.580 344.200 C 363.060 317.190,389.309 270.515,390.491 227.000 L 390.600 223.000 378.700 222.894 L 366.800 222.788 366.800 223.671 C 366.800 255.463,350.239 291.323,324.156 316.008 C 304.831 334.298,279.417 348.698,253.600 355.985 C 252.610 356.264,251.350 356.646,250.800 356.833 C 250.250 357.020,248.180 357.545,246.200 357.999 C 244.220 358.454,241.970 359.000,241.200 359.213 C 223.876 364.012,190.528 365.106,168.800 361.590 C 162.399 360.554,158.167 359.764,156.000 359.201 C 155.230 359.002,152.980 358.452,151.000 357.979 C 147.159 357.064,147.111 357.050,141.000 355.159 C 135.059 353.321,130.095 351.595,127.400 350.432 C 126.960 350.242,124.980 349.403,123.000 348.567 C 75.906 328.695,40.609 287.914,32.841 244.400 C 31.421 236.446,31.245 235.150,30.743 228.900 L 30.254 222.800 18.327 222.800 L 6.400 222.800 6.405 224.100 " stroke="none" fill="#060606" fill-rule="evenodd"></path><path id="path1" d="M189.167 11.366 C 189.075 11.457,185.974 11.730,182.275 11.972 C 176.322 12.362,168.743 13.228,161.400 14.356 C 153.861 15.514,134.665 20.145,131.400 21.592 C 130.960 21.788,129.970 22.138,129.200 22.370 C 125.676 23.436,124.004 23.998,121.400 24.991 C 119.860 25.579,118.287 26.226,117.905 26.430 C 117.523 26.633,117.031 26.800,116.812 26.800 C 116.592 26.800,115.298 27.340,113.935 28.000 C 112.573 28.660,111.308 29.200,111.125 29.200 C 110.673 29.200,96.835 35.989,93.600 37.798 C 85.352 42.411,78.701 46.793,69.430 53.725 C 67.947 54.834,63.865 58.096,63.600 58.383 C 63.490 58.502,62.050 59.765,60.400 61.189 C 42.071 77.006,26.278 98.754,17.434 120.359 C 14.629 127.211,11.008 138.441,10.264 142.600 C 10.146 143.260,9.847 144.610,9.599 145.600 C 8.811 148.753,7.775 156.042,7.212 162.400 C 7.007 164.710,6.720 167.905,6.573 169.500 L 6.306 172.400 18.353 172.400 L 30.400 172.400 30.396 170.300 C 30.347 143.470,44.316 110.306,65.391 87.220 C 73.641 78.182,88.998 65.013,94.800 62.000 C 95.350 61.714,95.890 61.364,96.000 61.222 C 96.110 61.080,96.830 60.592,97.600 60.136 C 98.370 59.681,100.247 58.543,101.772 57.606 C 107.140 54.310,113.247 51.124,119.800 48.203 C 126.153 45.372,126.925 45.043,129.200 44.196 C 130.190 43.827,131.360 43.371,131.800 43.182 C 132.240 42.993,134.760 42.134,137.400 41.273 C 151.952 36.528,161.075 34.597,179.400 32.384 C 204.023 29.411,243.833 34.162,263.500 42.422 C 265.127 43.105,266.180 43.512,267.600 44.007 C 268.370 44.275,269.540 44.726,270.200 45.009 C 270.860 45.292,272.120 45.819,273.000 46.180 C 297.101 56.068,320.773 73.282,336.009 92.000 C 336.994 93.210,337.901 94.290,338.025 94.400 C 338.149 94.510,339.332 96.048,340.654 97.817 C 353.079 114.448,361.665 133.981,365.001 153.204 C 365.830 157.985,366.798 167.079,366.799 170.100 L 366.800 172.400 378.600 172.400 L 390.400 172.400 390.399 168.500 C 390.397 155.199,385.857 134.047,380.356 121.704 C 379.940 120.772,379.600 119.880,379.600 119.723 C 379.600 117.526,367.655 96.022,363.322 90.418 C 363.060 90.078,361.980 88.630,360.922 87.200 C 358.512 83.940,358.702 84.179,354.756 79.400 C 350.633 74.405,339.442 63.215,334.400 59.046 C 332.310 57.317,330.150 55.518,329.600 55.048 C 326.848 52.695,313.905 43.716,310.110 41.527 C 301.731 36.694,290.929 31.075,287.200 29.609 C 286.430 29.307,284.670 28.551,283.290 27.930 C 281.909 27.308,280.602 26.800,280.385 26.800 C 280.167 26.800,279.677 26.641,279.295 26.447 C 272.246 22.861,248.401 16.234,235.800 14.359 C 228.639 13.293,224.891 12.827,220.200 12.420 C 217.340 12.172,213.009 11.796,210.577 11.585 C 206.254 11.209,189.497 11.037,189.167 11.366 M185.800 108.464 C 149.535 112.437,128.400 131.727,128.400 160.854 C 128.400 186.425,140.853 202.968,165.400 210.011 C 170.392 211.443,172.352 211.931,175.000 212.401 C 176.100 212.597,177.990 212.937,179.200 213.157 C 184.071 214.044,190.779 215.125,199.400 216.412 C 216.865 219.019,222.938 222.685,222.880 230.585 C 222.813 239.648,214.597 244.003,197.567 244.001 C 184.119 243.999,175.807 240.114,170.300 231.254 C 166.437 225.039,164.237 224.025,158.200 225.677 C 155.111 226.523,151.514 227.749,149.000 228.813 C 148.277 229.119,144.884 230.322,137.053 233.049 C 125.669 237.014,124.394 240.580,130.179 252.285 C 134.977 261.995,142.852 269.611,153.879 275.204 C 156.036 276.298,158.027 277.195,158.305 277.197 C 158.583 277.198,159.123 277.359,159.505 277.553 C 161.241 278.436,165.962 279.942,169.000 280.581 C 169.660 280.720,171.010 281.014,172.000 281.234 C 183.212 283.722,204.842 284.291,215.200 282.371 C 227.203 280.146,232.964 278.416,240.800 274.687 C 248.470 271.038,256.040 265.209,260.397 259.599 C 261.165 258.610,261.930 257.740,262.097 257.667 C 262.264 257.593,262.400 257.356,262.400 257.139 C 262.400 256.922,262.923 255.983,263.563 255.054 C 273.184 241.070,272.679 214.829,262.489 199.297 C 253.800 186.051,239.000 179.091,210.400 174.800 C 208.750 174.552,206.410 174.188,205.200 173.991 C 203.990 173.793,201.470 173.433,199.600 173.190 C 182.161 170.929,175.361 166.541,176.144 158.053 C 176.623 152.857,180.208 149.369,186.400 148.075 C 191.803 146.946,193.144 146.800,198.120 146.800 C 207.470 146.801,213.467 148.641,218.310 152.995 C 220.264 154.752,220.668 155.290,224.235 160.881 C 227.844 166.540,229.941 166.782,239.400 162.627 C 242.521 161.256,243.373 160.889,247.700 159.047 C 248.415 158.742,249.831 158.123,250.846 157.670 C 251.861 157.217,254.471 156.109,256.646 155.206 C 266.856 150.969,268.441 148.077,264.741 140.429 C 256.549 123.497,241.401 112.814,221.000 109.582 C 211.417 108.064,194.386 107.523,185.800 108.464 " stroke="none" fill="#fc443c" fill-rule="evenodd"></path><path id="path2" d="M0.000 200.000 L 0.000 400.000 200.000 400.000 L 400.000 400.000 400.000 200.000 L 400.000 0.000 200.000 0.000 L 0.000 0.000 0.000 200.000 M218.000 11.540 C 224.110 12.087,229.701 12.728,232.400 13.191 C 233.610 13.398,235.680 13.745,237.000 13.960 C 248.042 15.764,266.155 20.509,273.800 23.601 C 274.240 23.779,276.580 24.692,279.000 25.630 C 281.420 26.568,284.480 27.817,285.800 28.406 C 287.120 28.995,289.004 29.819,289.987 30.238 C 313.181 40.128,340.308 60.712,356.886 81.000 C 369.847 96.863,381.031 117.827,385.690 134.994 C 386.108 136.537,386.621 138.430,386.829 139.200 C 389.133 147.746,391.163 162.121,391.191 170.100 L 391.200 172.800 378.869 172.800 L 366.538 172.800 366.049 167.100 C 365.141 156.495,363.939 149.477,361.614 141.200 C 360.054 135.649,359.857 135.001,359.600 134.600 C 359.459 134.380,359.098 133.390,358.797 132.400 C 358.496 131.410,357.855 129.700,357.372 128.600 C 356.889 127.500,355.829 125.070,355.018 123.200 C 353.381 119.430,349.647 112.275,348.024 109.800 C 347.448 108.920,346.750 107.750,346.473 107.200 C 342.284 98.856,324.666 79.354,313.600 70.810 C 312.610 70.046,311.710 69.323,311.600 69.203 C 310.996 68.545,300.344 61.141,298.600 60.167 C 298.160 59.921,296.302 58.793,294.471 57.660 C 292.639 56.527,291.089 55.600,291.026 55.600 C 290.963 55.600,289.581 54.868,287.955 53.974 C 286.330 53.080,282.480 51.175,279.400 49.740 C 272.117 46.346,272.142 46.357,267.000 44.414 C 262.834 42.839,260.823 42.145,257.600 41.170 C 256.830 40.938,255.840 40.598,255.400 40.416 C 252.944 39.401,239.654 36.228,233.600 35.211 C 230.850 34.750,227.610 34.198,226.400 33.986 C 213.201 31.669,183.985 31.669,170.800 33.986 C 169.590 34.199,166.890 34.662,164.800 35.014 C 159.544 35.901,155.188 36.769,154.000 37.167 C 153.450 37.350,152.010 37.720,150.800 37.988 C 148.318 38.537,148.217 38.565,140.800 40.820 C 128.897 44.439,109.562 52.955,103.585 57.210 C 102.975 57.645,102.377 58.000,102.255 58.000 C 101.792 58.000,92.529 64.188,88.260 67.350 C 79.812 73.607,72.759 79.964,66.322 87.124 C 64.055 89.646,62.007 91.910,61.772 92.155 C 56.274 97.872,45.786 114.795,41.418 125.000 C 41.041 125.880,40.568 126.913,40.366 127.295 C 40.165 127.677,40.000 128.174,40.000 128.399 C 40.000 128.624,39.650 129.572,39.222 130.504 C 38.447 132.196,36.770 137.298,35.248 142.600 C 33.392 149.065,31.664 159.876,31.265 167.525 L 31.000 172.600 18.690 172.706 C 7.666 172.801,6.353 172.744,6.132 172.166 C 5.825 171.367,6.692 159.488,7.413 154.600 C 7.705 152.620,8.062 150.190,8.205 149.200 C 8.348 148.210,8.611 146.950,8.790 146.400 C 8.968 145.850,9.340 144.320,9.617 143.000 C 9.893 141.680,10.354 139.700,10.641 138.600 C 10.928 137.500,11.277 136.150,11.415 135.600 C 11.554 135.050,11.811 134.240,11.988 133.800 C 12.165 133.360,12.762 131.560,13.315 129.800 C 20.918 105.598,39.247 78.493,60.000 60.764 C 61.650 59.354,63.090 58.111,63.200 58.000 C 70.730 50.454,95.038 35.527,111.600 28.278 C 119.531 24.807,133.073 20.214,142.000 17.968 C 145.410 17.109,148.830 16.235,149.600 16.025 C 151.617 15.474,160.857 13.799,167.200 12.835 C 171.219 12.224,177.565 11.595,180.000 11.566 C 181.210 11.552,183.010 11.390,184.000 11.207 C 186.386 10.764,212.151 11.017,218.000 11.540 M214.200 108.030 C 218.747 108.579,222.772 109.199,224.400 109.603 C 225.170 109.793,226.700 110.162,227.800 110.421 C 232.787 111.596,236.369 112.956,242.200 115.889 C 254.980 122.318,268.571 139.967,267.037 148.143 C 266.595 150.497,258.295 156.400,255.425 156.400 C 255.296 156.400,254.338 156.781,253.296 157.247 C 251.381 158.101,249.598 158.874,247.400 159.801 C 246.740 160.079,245.303 160.709,244.206 161.200 C 241.159 162.564,233.986 165.444,232.274 165.992 C 228.738 167.121,226.710 165.742,222.589 159.401 C 216.187 149.552,208.601 146.449,193.800 147.629 C 181.729 148.591,176.800 151.910,176.800 159.077 C 176.800 166.758,182.351 170.009,199.972 172.649 C 208.584 173.940,210.774 174.260,214.400 174.758 C 217.157 175.137,218.496 175.394,223.000 176.406 C 223.880 176.603,225.500 176.948,226.600 177.172 C 227.700 177.396,229.230 177.754,230.000 177.967 C 230.770 178.180,232.030 178.524,232.800 178.731 C 234.282 179.130,235.292 179.466,236.600 179.997 C 237.040 180.176,238.480 180.730,239.800 181.229 C 256.857 187.679,267.325 200.409,270.249 218.258 C 276.379 255.675,251.344 280.738,204.566 284.016 C 165.765 286.735,136.084 272.466,127.184 246.814 C 124.340 238.618,126.914 235.707,141.200 230.958 C 142.190 230.629,143.360 230.198,143.800 230.000 C 144.240 229.802,145.410 229.373,146.400 229.047 C 147.390 228.720,149.730 227.883,151.600 227.186 C 163.007 222.937,166.259 223.506,170.433 230.483 C 176.273 240.246,186.952 244.502,202.352 243.203 C 216.676 241.995,222.384 238.374,222.396 230.487 C 222.408 222.810,217.038 219.825,197.800 216.816 C 178.652 213.821,170.414 212.268,166.000 210.821 C 165.450 210.640,164.190 210.261,163.200 209.977 C 162.210 209.693,161.229 209.312,161.020 209.130 C 160.811 208.949,160.361 208.797,160.020 208.794 C 157.680 208.773,146.403 202.089,142.025 198.129 C 128.748 186.119,123.937 161.824,131.006 142.483 C 135.204 130.997,145.448 120.689,158.312 115.007 C 160.671 113.965,162.913 112.952,163.295 112.756 C 163.677 112.560,164.316 112.400,164.715 112.400 C 165.114 112.400,165.611 112.251,165.820 112.070 C 166.395 111.569,170.645 110.468,178.200 108.861 C 185.247 107.362,204.908 106.908,214.200 108.030 M31.459 229.000 C 35.089 279.625,68.953 324.066,121.600 347.296 C 122.370 347.636,124.040 348.383,125.312 348.957 C 126.583 349.531,127.744 350.000,127.892 350.000 C 128.040 350.000,129.789 350.618,131.780 351.374 C 139.195 354.189,152.102 357.923,158.800 359.191 C 174.469 362.157,182.999 362.966,198.600 362.966 C 212.782 362.966,223.594 362.062,234.200 359.989 C 235.520 359.731,237.410 359.369,238.400 359.185 C 239.390 359.001,240.965 358.659,241.900 358.425 C 242.835 358.191,244.275 357.834,245.100 357.632 C 246.473 357.294,251.274 356.019,254.200 355.215 C 255.486 354.861,264.243 351.853,268.200 350.405 C 269.520 349.922,271.550 349.094,272.712 348.564 C 273.873 348.034,274.930 347.600,275.061 347.600 C 275.296 347.600,283.075 343.930,284.600 343.099 C 285.040 342.859,286.570 342.045,288.000 341.290 C 293.077 338.607,305.846 330.547,308.695 328.226 C 309.083 327.911,310.300 326.984,311.400 326.168 C 329.222 312.940,346.794 291.040,355.184 271.600 C 356.086 269.510,356.980 267.440,357.172 267.000 C 357.363 266.560,357.736 265.570,358.000 264.800 C 358.264 264.030,358.667 262.950,358.894 262.400 C 359.700 260.449,359.928 259.766,360.768 256.800 C 361.235 255.150,361.772 253.260,361.962 252.600 C 362.153 251.940,362.496 250.590,362.726 249.600 C 362.956 248.610,363.332 246.990,363.562 246.000 C 364.216 243.181,365.526 233.752,365.785 230.000 C 365.914 228.130,366.126 225.655,366.256 224.500 L 366.492 222.400 378.822 222.400 C 385.604 222.400,391.242 222.544,391.351 222.721 C 391.592 223.111,390.524 237.320,390.022 240.400 C 389.825 241.610,389.475 243.770,389.244 245.200 C 388.778 248.093,387.462 254.243,386.849 256.400 C 386.630 257.170,386.108 259.063,385.690 260.606 C 383.392 269.071,378.768 280.031,372.866 291.000 C 370.125 296.092,363.635 305.957,360.101 310.400 C 359.139 311.610,357.777 313.319,357.076 314.199 C 350.847 322.005,339.797 333.010,331.960 339.211 C 330.552 340.326,329.049 341.528,328.620 341.883 C 328.191 342.238,326.571 343.444,325.020 344.562 C 323.469 345.680,322.110 346.706,322.000 346.842 C 321.702 347.211,311.228 354.000,310.956 354.000 C 310.828 354.000,310.246 354.339,309.662 354.753 C 305.858 357.451,291.050 364.980,283.600 368.003 C 282.390 368.494,280.855 369.134,280.189 369.424 C 279.523 369.715,277.633 370.420,275.989 370.991 C 274.345 371.563,272.687 372.203,272.305 372.415 C 271.923 372.627,271.336 372.800,271.000 372.800 C 270.664 372.800,270.077 372.972,269.695 373.182 C 269.313 373.392,267.650 373.950,266.000 374.422 C 264.350 374.895,262.640 375.428,262.200 375.607 C 261.760 375.787,260.950 376.049,260.400 376.190 C 259.850 376.332,258.050 376.811,256.400 377.255 C 253.406 378.062,251.910 378.440,248.700 379.205 C 223.424 385.224,189.722 386.328,163.400 381.999 C 155.098 380.633,148.949 379.404,145.400 378.401 C 144.520 378.152,143.080 377.783,142.200 377.580 C 141.320 377.377,139.970 377.041,139.200 376.833 C 138.430 376.624,137.350 376.337,136.800 376.194 C 136.250 376.050,135.440 375.790,135.000 375.614 C 134.560 375.439,132.850 374.895,131.200 374.407 C 129.550 373.918,127.887 373.356,127.505 373.159 C 127.123 372.962,126.536 372.800,126.200 372.800 C 125.864 372.800,125.277 372.634,124.895 372.432 C 124.513 372.230,123.120 371.672,121.800 371.193 C 120.480 370.714,118.950 370.135,118.400 369.907 C 117.850 369.679,117.040 369.354,116.600 369.185 C 110.989 367.026,99.159 361.421,93.800 358.384 C 92.260 357.511,90.730 356.676,90.400 356.528 C 90.070 356.380,89.710 356.155,89.600 356.029 C 89.490 355.903,88.970 355.558,88.445 355.262 C 87.920 354.967,86.930 354.409,86.245 354.024 C 82.332 351.820,70.257 343.364,66.792 340.400 C 66.406 340.070,65.400 339.260,64.557 338.600 C 51.867 328.667,34.491 308.780,27.275 295.934 C 26.835 295.151,26.233 294.080,25.938 293.555 C 25.642 293.030,25.306 292.510,25.190 292.400 C 24.703 291.934,20.486 283.644,18.477 279.200 C 16.901 275.716,14.264 268.849,13.178 265.400 C 12.692 263.860,12.154 262.240,11.981 261.800 C 11.808 261.360,11.550 260.550,11.406 260.000 C 11.263 259.450,10.976 258.370,10.767 257.600 C 8.183 248.047,6.768 239.023,6.146 228.130 C 5.781 221.724,4.341 222.371,18.689 222.494 L 31.000 222.600 31.459 229.000 " stroke="none" fill="#fbfbfb" fill-rule="evenodd"></path><path id="path3" d="M6.272 222.661 C 5.353 223.581,7.172 242.508,8.833 249.300 C 9.719 252.922,9.955 253.927,10.404 256.000 C 10.864 258.120,11.272 259.499,13.364 266.004 C 15.631 273.055,20.289 283.660,23.948 290.100 C 24.417 290.925,25.181 292.275,25.647 293.100 C 26.113 293.925,26.833 295.078,27.247 295.662 C 27.661 296.246,28.000 296.837,28.000 296.975 C 28.000 297.946,38.497 312.312,42.910 317.379 C 52.298 328.160,64.246 339.023,74.829 346.400 C 89.255 356.456,102.839 363.781,117.800 369.572 C 120.220 370.509,122.560 371.429,123.000 371.616 C 124.104 372.087,130.374 374.138,134.000 375.215 C 135.650 375.705,137.810 376.366,138.800 376.683 C 139.790 377.000,141.410 377.435,142.400 377.650 C 143.390 377.864,144.830 378.197,145.600 378.389 C 146.370 378.582,148.080 379.007,149.400 379.333 C 159.565 381.848,176.561 383.978,188.200 384.195 L 196.200 384.344 189.800 384.006 C 182.184 383.604,175.025 382.959,169.000 382.134 C 166.580 381.802,163.430 381.371,162.000 381.177 C 160.570 380.982,158.590 380.640,157.600 380.416 C 156.610 380.192,154.331 379.739,152.535 379.408 C 150.740 379.078,148.220 378.518,146.935 378.164 C 145.651 377.810,144.150 377.429,143.600 377.318 C 137.894 376.164,119.694 370.108,113.688 367.365 C 112.527 366.834,111.488 366.400,111.380 366.400 C 111.113 366.400,104.923 363.488,101.000 361.517 C 53.771 337.787,19.893 296.994,10.048 252.000 C 9.783 250.790,9.400 249.170,9.196 248.400 C 8.410 245.426,6.419 228.097,6.405 224.100 L 6.400 222.800 18.327 222.800 L 30.254 222.800 30.743 228.900 C 31.245 235.150,31.421 236.446,32.841 244.400 C 40.609 287.914,75.906 328.695,123.000 348.567 C 124.980 349.403,126.960 350.242,127.400 350.432 C 130.095 351.595,135.059 353.321,141.000 355.159 C 147.111 357.050,147.159 357.064,151.000 357.979 C 152.980 358.452,155.230 359.002,156.000 359.201 C 158.167 359.764,162.399 360.554,168.800 361.590 C 184.082 364.063,203.994 364.446,220.600 362.585 C 227.891 361.768,237.876 360.134,241.200 359.213 C 241.970 359.000,244.220 358.454,246.200 357.999 C 248.180 357.545,250.250 357.020,250.800 356.833 C 251.350 356.646,252.610 356.264,253.600 355.985 C 312.167 339.453,356.376 293.727,365.157 240.600 C 365.834 236.506,366.800 226.549,366.800 223.671 L 366.800 222.788 378.700 222.894 L 390.600 223.000 390.491 227.000 C 389.309 270.515,363.060 317.190,324.580 344.200 C 323.954 344.640,322.712 345.547,321.820 346.215 C 317.807 349.224,308.689 354.907,302.600 358.196 C 296.882 361.285,286.408 366.400,285.802 366.400 C 285.704 366.400,284.673 366.834,283.512 367.365 C 274.879 371.308,254.700 377.562,244.641 379.413 C 242.858 379.740,240.590 380.192,239.600 380.416 C 233.925 381.699,218.487 383.420,207.400 384.006 L 201.000 384.344 209.000 384.195 C 222.080 383.951,240.301 381.503,251.200 378.525 C 252.410 378.195,254.120 377.769,255.000 377.578 C 255.880 377.388,257.860 376.850,259.400 376.383 C 260.940 375.916,262.740 375.391,263.400 375.216 C 264.948 374.805,273.155 372.075,274.200 371.624 C 274.640 371.434,276.080 370.883,277.400 370.400 C 278.720 369.917,280.160 369.369,280.600 369.181 C 281.040 368.993,283.149 368.109,285.288 367.217 C 291.748 364.519,302.691 358.990,308.141 355.670 C 309.648 354.751,310.949 354.000,311.032 354.000 C 311.404 354.000,323.036 346.127,324.800 344.680 C 325.130 344.410,326.030 343.747,326.800 343.207 C 327.570 342.668,328.441 341.993,328.735 341.707 C 329.029 341.422,329.926 340.696,330.729 340.094 C 336.462 335.798,346.708 326.091,352.610 319.365 C 355.913 315.602,356.087 315.392,358.406 312.400 C 359.172 311.410,359.896 310.510,360.012 310.400 C 361.552 308.950,369.646 296.754,372.623 291.400 C 374.388 288.226,378.170 280.734,378.783 279.200 C 379.090 278.430,379.740 276.900,380.226 275.800 C 383.864 267.572,387.579 254.829,389.265 244.800 C 390.493 237.496,391.318 228.712,391.125 225.000 L 391.000 222.600 378.700 222.494 C 367.176 222.395,366.400 222.433,366.395 223.094 C 366.364 227.473,364.367 242.993,363.203 247.900 C 362.540 250.695,362.078 252.514,361.627 254.100 C 361.392 254.925,361.041 256.185,360.846 256.900 C 360.443 258.380,360.080 259.446,359.584 260.600 C 359.395 261.040,358.948 262.300,358.591 263.400 C 358.234 264.500,357.702 265.940,357.409 266.600 C 357.116 267.260,356.544 268.609,356.138 269.598 C 347.834 289.828,332.093 309.793,311.588 326.104 C 302.739 333.142,288.299 341.809,277.600 346.501 C 276.830 346.839,275.311 347.515,274.224 348.003 C 267.997 350.797,256.720 354.667,248.400 356.864 C 240.865 358.854,240.372 358.960,233.000 360.174 C 230.800 360.536,228.100 360.994,227.000 361.191 C 211.610 363.951,186.525 363.794,167.800 360.820 C 152.660 358.416,135.304 353.505,124.488 348.565 C 123.327 348.034,122.270 347.600,122.139 347.600 C 121.673 347.600,111.780 342.781,108.600 341.005 C 99.792 336.084,91.943 330.952,85.042 325.600 C 76.378 318.880,64.887 307.395,58.801 299.372 C 57.812 298.067,56.896 296.910,56.765 296.800 C 54.563 294.938,43.926 276.464,41.104 269.600 C 40.552 268.257,39.967 266.792,39.546 265.700 C 39.356 265.205,39.027 264.395,38.815 263.900 C 35.129 255.283,31.622 237.530,31.092 224.800 L 31.000 222.600 18.772 222.494 C 12.047 222.436,6.422 222.511,6.272 222.661 M197.700 384.687 C 198.305 384.778,199.295 384.778,199.900 384.687 C 200.505 384.595,200.010 384.520,198.800 384.520 C 197.590 384.520,197.095 384.595,197.700 384.687 " stroke="none" fill="#959595" fill-rule="evenodd"></path><path id="path4" d="M184.000 11.207 C 183.010 11.390,181.210 11.552,180.000 11.566 C 177.565 11.595,171.219 12.224,167.200 12.835 C 160.857 13.799,151.617 15.474,149.600 16.025 C 148.830 16.235,145.410 17.109,142.000 17.968 C 117.412 24.156,93.971 35.232,72.000 51.044 C 69.845 52.595,63.921 57.278,63.200 58.000 C 63.090 58.111,61.650 59.354,60.000 60.764 C 39.247 78.493,20.918 105.598,13.315 129.800 C 12.762 131.560,12.165 133.360,11.988 133.800 C 11.811 134.240,11.554 135.050,11.415 135.600 C 11.277 136.150,10.928 137.500,10.641 138.600 C 10.354 139.700,9.893 141.680,9.617 143.000 C 9.340 144.320,8.968 145.850,8.790 146.400 C 8.611 146.950,8.348 148.210,8.205 149.200 C 8.062 150.190,7.705 152.620,7.413 154.600 C 6.692 159.488,5.825 171.367,6.132 172.166 C 6.353 172.744,7.666 172.801,18.690 172.706 L 31.000 172.600 31.265 167.525 C 31.664 159.876,33.392 149.065,35.248 142.600 C 36.770 137.298,38.447 132.196,39.222 130.504 C 39.650 129.572,40.000 128.624,40.000 128.399 C 40.000 128.174,40.165 127.677,40.366 127.295 C 40.568 126.913,41.041 125.880,41.418 125.000 C 45.786 114.795,56.274 97.872,61.772 92.155 C 62.007 91.910,64.055 89.646,66.322 87.124 C 72.759 79.964,79.812 73.607,88.260 67.350 C 92.529 64.188,101.792 58.000,102.255 58.000 C 102.377 58.000,102.975 57.645,103.585 57.210 C 109.562 52.955,128.897 44.439,140.800 40.820 C 148.217 38.565,148.318 38.537,150.800 37.988 C 152.010 37.720,153.450 37.350,154.000 37.167 C 155.188 36.769,159.544 35.901,164.800 35.014 C 166.890 34.662,169.590 34.199,170.800 33.986 C 183.985 31.669,213.201 31.669,226.400 33.986 C 227.610 34.198,230.850 34.750,233.600 35.211 C 239.654 36.228,252.944 39.401,255.400 40.416 C 255.840 40.598,256.830 40.938,257.600 41.170 C 264.889 43.374,270.319 45.509,279.400 49.740 C 282.480 51.175,286.330 53.080,287.955 53.974 C 289.581 54.868,290.963 55.600,291.026 55.600 C 291.089 55.600,292.639 56.527,294.471 57.660 C 296.302 58.793,298.160 59.921,298.600 60.167 C 300.344 61.141,310.996 68.545,311.600 69.203 C 311.710 69.323,312.610 70.046,313.600 70.810 C 324.666 79.354,342.284 98.856,346.473 107.200 C 346.750 107.750,347.448 108.920,348.024 109.800 C 349.647 112.275,353.381 119.430,355.018 123.200 C 355.829 125.070,356.889 127.500,357.372 128.600 C 357.855 129.700,358.496 131.410,358.797 132.400 C 359.098 133.390,359.459 134.380,359.600 134.600 C 359.857 135.001,360.054 135.649,361.614 141.200 C 363.365 147.434,363.845 149.684,364.770 156.000 C 365.205 158.970,365.781 163.965,366.049 167.100 L 366.538 172.800 378.869 172.800 L 391.200 172.800 391.191 170.100 C 391.163 162.121,389.133 147.746,386.829 139.200 C 386.621 138.430,386.108 136.537,385.690 134.994 C 381.031 117.827,369.847 96.863,356.886 81.000 C 340.308 60.712,313.181 40.128,289.987 30.238 C 289.004 29.819,287.120 28.995,285.800 28.406 C 284.480 27.817,281.420 26.568,279.000 25.630 C 276.580 24.692,274.240 23.779,273.800 23.601 C 266.155 20.509,248.042 15.764,237.000 13.960 C 235.680 13.745,233.610 13.398,232.400 13.191 C 229.701 12.728,224.110 12.087,218.000 11.540 C 212.151 11.017,186.386 10.764,184.000 11.207 M210.577 11.585 C 213.009 11.796,217.340 12.172,220.200 12.420 C 224.891 12.827,228.639 13.293,235.800 14.359 C 248.401 16.234,272.246 22.861,279.295 26.447 C 279.677 26.641,280.167 26.800,280.385 26.800 C 280.602 26.800,281.909 27.308,283.290 27.930 C 284.670 28.551,286.430 29.307,287.200 29.609 C 290.929 31.075,301.731 36.694,310.110 41.527 C 313.905 43.716,326.848 52.695,329.600 55.048 C 330.150 55.518,332.310 57.317,334.400 59.046 C 339.442 63.215,350.633 74.405,354.756 79.400 C 358.702 84.179,358.512 83.940,360.922 87.200 C 361.980 88.630,363.060 90.078,363.322 90.418 C 367.655 96.022,379.600 117.526,379.600 119.723 C 379.600 119.880,379.940 120.772,380.356 121.704 C 385.857 134.047,390.397 155.199,390.399 168.500 L 390.400 172.400 378.600 172.400 L 366.800 172.400 366.799 170.100 C 366.792 147.441,356.528 119.064,340.654 97.817 C 339.332 96.048,338.149 94.510,338.025 94.400 C 337.901 94.290,336.994 93.210,336.009 92.000 C 323.017 76.039,304.715 61.699,284.200 51.407 C 278.129 48.361,276.770 47.727,273.000 46.180 C 272.120 45.819,270.860 45.292,270.200 45.009 C 269.540 44.726,268.370 44.275,267.600 44.007 C 266.180 43.512,265.127 43.105,263.500 42.422 C 243.833 34.162,204.023 29.411,179.400 32.384 C 161.075 34.597,151.952 36.528,137.400 41.273 C 134.760 42.134,132.240 42.993,131.800 43.182 C 131.360 43.371,130.190 43.827,129.200 44.196 C 126.925 45.043,126.153 45.372,119.800 48.203 C 113.247 51.124,107.140 54.310,101.772 57.606 C 100.247 58.543,98.370 59.681,97.600 60.136 C 96.830 60.592,96.110 61.080,96.000 61.222 C 95.890 61.364,95.350 61.714,94.800 62.000 C 93.384 62.735,89.496 65.584,83.856 70.019 C 62.174 87.070,45.945 109.324,37.362 133.772 C 33.629 144.405,30.380 161.445,30.396 170.300 L 30.400 172.400 18.353 172.400 L 6.306 172.400 6.573 169.500 C 6.720 167.905,7.007 164.710,7.212 162.400 C 7.775 156.042,8.811 148.753,9.599 145.600 C 9.847 144.610,10.146 143.260,10.264 142.600 C 11.008 138.441,14.629 127.211,17.434 120.359 C 26.278 98.754,42.071 77.006,60.400 61.189 C 62.050 59.765,63.490 58.502,63.600 58.383 C 63.865 58.096,67.947 54.834,69.430 53.725 C 78.701 46.793,85.352 42.411,93.600 37.798 C 96.835 35.989,110.673 29.200,111.125 29.200 C 111.308 29.200,112.573 28.660,113.935 28.000 C 115.298 27.340,116.592 26.800,116.812 26.800 C 117.031 26.800,117.523 26.633,117.905 26.430 C 118.287 26.226,119.860 25.579,121.400 24.991 C 124.004 23.998,125.676 23.436,129.200 22.370 C 129.970 22.138,130.960 21.788,131.400 21.592 C 134.665 20.145,153.861 15.514,161.400 14.356 C 168.743 13.228,176.322 12.362,182.275 11.972 C 185.974 11.730,189.075 11.457,189.167 11.366 C 189.497 11.037,206.254 11.209,210.577 11.585 M191.600 107.446 C 187.327 107.668,180.338 108.406,178.200 108.861 C 170.645 110.468,166.395 111.569,165.820 112.070 C 165.611 112.251,165.114 112.400,164.715 112.400 C 164.316 112.400,163.677 112.560,163.295 112.756 C 162.913 112.952,160.671 113.965,158.312 115.007 C 147.706 119.692,139.081 127.268,133.795 136.543 C 124.628 152.627,126.106 177.809,137.085 192.611 C 141.781 198.942,155.687 208.754,160.020 208.794 C 160.361 208.797,160.811 208.949,161.020 209.130 C 161.229 209.312,162.210 209.693,163.200 209.977 C 164.190 210.261,165.450 210.640,166.000 210.821 C 170.414 212.268,178.652 213.821,197.800 216.816 C 217.038 219.825,222.408 222.810,222.396 230.487 C 222.384 238.374,216.676 241.995,202.352 243.203 C 186.952 244.502,176.273 240.246,170.433 230.483 C 166.259 223.506,163.007 222.937,151.600 227.186 C 149.730 227.883,147.390 228.720,146.400 229.047 C 145.410 229.373,144.240 229.802,143.800 230.000 C 143.360 230.198,142.190 230.629,141.200 230.958 C 126.914 235.707,124.340 238.618,127.184 246.814 C 136.084 272.466,165.765 286.735,204.566 284.016 C 251.344 280.738,276.379 255.675,270.249 218.258 C 267.325 200.409,256.857 187.679,239.800 181.229 C 238.480 180.730,237.040 180.176,236.600 179.997 C 235.292 179.466,234.282 179.130,232.800 178.731 C 232.030 178.524,230.770 178.180,230.000 177.967 C 229.230 177.754,227.700 177.396,226.600 177.172 C 225.500 176.948,223.880 176.603,223.000 176.406 C 218.496 175.394,217.157 175.137,214.400 174.758 C 210.774 174.260,208.584 173.940,199.972 172.649 C 182.351 170.009,176.800 166.758,176.800 159.077 C 176.800 151.910,181.729 148.591,193.800 147.629 C 208.601 146.449,216.187 149.552,222.589 159.401 C 226.710 165.742,228.738 167.121,232.274 165.992 C 233.986 165.444,241.159 162.564,244.206 161.200 C 245.303 160.709,246.740 160.079,247.400 159.801 C 249.598 158.874,251.381 158.101,253.296 157.247 C 254.338 156.781,255.296 156.400,255.425 156.400 C 255.554 156.400,257.491 155.530,259.729 154.466 C 267.761 150.651,268.949 147.466,265.158 139.909 C 259.001 127.636,249.899 118.950,237.800 113.800 C 233.113 111.804,231.823 111.369,227.800 110.421 C 226.700 110.162,225.170 109.793,224.400 109.603 C 222.772 109.199,218.747 108.579,214.200 108.030 C 210.738 107.612,195.825 107.227,191.600 107.446 M213.200 108.602 C 239.795 111.558,255.450 121.226,264.741 140.429 C 268.441 148.077,266.856 150.969,256.646 155.206 C 254.471 156.109,251.861 157.217,250.846 157.670 C 249.831 158.123,248.415 158.742,247.700 159.047 C 243.373 160.889,242.521 161.256,239.400 162.627 C 229.941 166.782,227.844 166.540,224.235 160.881 C 220.668 155.290,220.264 154.752,218.310 152.995 C 213.467 148.641,207.470 146.801,198.120 146.800 C 193.144 146.800,191.803 146.946,186.400 148.075 C 180.208 149.369,176.623 152.857,176.144 158.053 C 175.361 166.541,182.161 170.929,199.600 173.190 C 201.470 173.433,203.990 173.793,205.200 173.991 C 206.410 174.188,208.750 174.552,210.400 174.800 C 239.000 179.091,253.800 186.051,262.489 199.297 C 272.679 214.829,273.184 241.070,263.563 255.054 C 262.923 255.983,262.400 256.922,262.400 257.139 C 262.400 257.356,262.264 257.593,262.097 257.667 C 261.930 257.740,261.165 258.610,260.397 259.599 C 256.040 265.209,248.470 271.038,240.800 274.687 C 232.964 278.416,227.203 280.146,215.200 282.371 C 204.842 284.291,183.212 283.722,172.000 281.234 C 171.010 281.014,169.660 280.720,169.000 280.581 C 165.962 279.942,161.241 278.436,159.505 277.553 C 159.123 277.359,158.583 277.198,158.305 277.197 C 158.027 277.195,156.036 276.298,153.879 275.204 C 142.852 269.611,134.977 261.995,130.179 252.285 C 124.394 240.580,125.669 237.014,137.053 233.049 C 144.884 230.322,148.277 229.119,149.000 228.813 C 151.514 227.749,155.111 226.523,158.200 225.677 C 164.237 224.025,166.437 225.039,170.300 231.254 C 175.807 240.114,184.119 243.999,197.567 244.001 C 214.597 244.003,222.813 239.648,222.880 230.585 C 222.938 222.685,216.865 219.019,199.400 216.412 C 190.779 215.125,184.071 214.044,179.200 213.157 C 177.990 212.937,176.100 212.597,175.000 212.401 C 171.991 211.867,166.995 210.567,163.000 209.280 C 135.961 200.565,123.069 176.398,130.098 147.600 C 136.947 119.539,170.393 103.843,213.200 108.602 M391.152 223.687 C 391.337 224.798,391.393 224.855,391.519 224.054 C 391.601 223.533,391.503 222.943,391.301 222.741 C 391.079 222.519,391.021 222.893,391.152 223.687 M192.691 384.689 C 193.401 384.777,194.661 384.779,195.491 384.692 C 196.321 384.605,195.740 384.533,194.200 384.531 C 192.660 384.529,191.981 384.600,192.691 384.689 M201.900 384.689 C 202.615 384.778,203.785 384.778,204.500 384.689 C 205.215 384.601,204.630 384.528,203.200 384.528 C 201.770 384.528,201.185 384.601,201.900 384.689 " stroke="none" fill="#fc9f9b" fill-rule="evenodd"></path></g></svg>