<svg width="560" height="560" viewBox="0 0 560 560" fill="none" xmlns="http://www.w3.org/2000/svg">
<rect width="560" height="560" fill="white"/>
<line x1="27.5" y1="388.301" x2="27.5" y2="421.333" stroke="#F5980C" stroke-width="9"/>
<line x1="467.93" y1="388.301" x2="467.93" y2="421.333" stroke="#F5980C" stroke-width="9"/>
<ellipse cx="247.803" cy="421.333" rx="224.803" ry="64.2294" fill="#F5980C"/>
<path d="M465.106 386.466C465.106 391.528 461.455 398.015 450.741 405.252C440.29 412.312 424.673 418.966 404.702 424.672C364.862 436.055 309.387 443.195 247.803 443.195C186.219 443.195 130.744 436.055 90.9036 424.672C70.9325 418.966 55.3159 412.312 44.8643 405.252C34.151 398.015 30.5 391.528 30.5 386.466C30.5 381.404 34.151 374.917 44.8643 367.68C55.3159 360.62 70.9325 353.966 90.9036 348.26C130.744 336.877 186.219 329.737 247.803 329.737C309.387 329.737 364.862 336.877 404.702 348.26C424.673 353.966 440.29 360.62 450.741 367.68C461.455 374.917 465.106 381.404 465.106 386.466Z" fill="#F2C94C" stroke="#F5980C" stroke-width="15"/>
<line x1="89.8943" y1="307.556" x2="89.8943" y2="340.588" stroke="#F5980C" stroke-width="9"/>
<line x1="530.324" y1="307.556" x2="530.324" y2="340.588" stroke="#F5980C" stroke-width="9"/>
<ellipse cx="310.197" cy="340.588" rx="224.803" ry="64.2294" fill="#F5980C"/>
<path d="M527.5 305.72C527.5 310.782 523.849 317.27 513.136 324.507C502.684 331.567 487.068 338.22 467.096 343.926C427.256 355.309 371.781 362.45 310.197 362.45C248.613 362.45 193.138 355.309 153.298 343.926C133.327 338.22 117.71 331.567 107.259 324.507C96.5453 317.27 92.8943 310.782 92.8943 305.72C92.8943 300.659 96.5453 294.171 107.259 286.934C117.71 279.874 133.327 273.221 153.298 267.515C193.138 256.132 248.613 248.991 310.197 248.991C371.781 248.991 427.256 256.132 467.096 267.515C487.068 273.221 502.684 279.874 513.136 286.934C523.849 294.171 527.5 300.659 527.5 305.72Z" fill="#F2C94C" stroke="#F5980C" stroke-width="15"/>
<line x1="27.5" y1="226.81" x2="27.5" y2="259.842" stroke="#F5980C" stroke-width="9"/>
<line x1="467.93" y1="226.81" x2="467.93" y2="259.842" stroke="#F5980C" stroke-width="9"/>
<ellipse cx="247.803" cy="259.842" rx="224.803" ry="64.2294" fill="#F5980C"/>
<path d="M465.106 224.975C465.106 230.037 461.455 236.524 450.741 243.761C440.29 250.821 424.673 257.474 404.702 263.18C364.862 274.563 309.387 281.704 247.803 281.704C186.219 281.704 130.744 274.563 90.9036 263.18C70.9325 257.474 55.3159 250.821 44.8643 243.761C34.151 236.524 30.5 230.037 30.5 224.975C30.5 219.913 34.151 213.426 44.8643 206.189C55.3159 199.129 70.9325 192.475 90.9036 186.769C130.744 175.386 186.219 168.245 247.803 168.245C309.387 168.245 364.862 175.386 404.702 186.769C424.673 192.475 440.29 199.129 450.741 206.189C461.455 213.426 465.106 219.913 465.106 224.975Z" fill="#F2C94C" stroke="#F5980C" stroke-width="15"/>
<line x1="89.8943" y1="146.064" x2="89.8943" y2="179.097" stroke="#F5980C" stroke-width="9"/>
<line x1="530.324" y1="146.064" x2="530.324" y2="179.097" stroke="#F5980C" stroke-width="9"/>
<ellipse cx="310.197" cy="179.097" rx="224.803" ry="64.2294" fill="#F5980C"/>
<path d="M527.5 144.229C527.5 149.291 523.849 155.779 513.136 163.015C502.684 170.076 487.068 176.729 467.096 182.435C427.256 193.818 371.781 200.959 310.197 200.959C248.613 200.959 193.138 193.818 153.298 182.435C133.327 176.729 117.71 170.076 107.259 163.015C96.5453 155.779 92.8943 149.291 92.8943 144.229C92.8943 139.167 96.5453 132.68 107.259 125.443C117.71 118.383 133.327 111.73 153.298 106.024C193.138 94.6409 248.613 87.5 310.197 87.5C371.781 87.5 427.256 94.6409 467.096 106.024C487.068 111.73 502.684 118.383 513.136 125.443C523.849 132.68 527.5 139.167 527.5 144.229Z" fill="#F2C94C" stroke="#F5980C" stroke-width="15"/>
</svg>
