<svg id="svg" xmlns="http://www.w3.org/2000/svg" viewBox="0 0 87.02 87.02"><defs><style>.cls-1{fill:#f79367;}.cls-1,.cls-2{fill-rule:evenodd;}.cls-2{fill:#415876;}</style></defs><path class="cls-1" d="M63.29,15.51,59.11,26.94c-8.27-4.5-19-5-21.46-1.33-2,2.95-1.64,7.67,6.27,10.19a1.49,1.49,0,0,1,.64,2.43l-5.49,6a5.93,5.93,0,0,1-7.17,1.23C27.84,43.3,22.41,38.79,22,30.22,21.23,12.1,43.44,6.94,63.29,15.51Z"/><path class="cls-2" d="M41.32,46.79a1.56,1.56,0,0,0,.6,2.53c4.27,1.57,10.59,4,9.27,9.68-1.56,6.75-17.3,4.88-26.26.73L21,71.08a49.74,49.74,0,0,0,31.74,3.19C70.46,70.11,65.86,52,64.29,48.69c-1.39-2.9-4.88-7.12-11.6-9.85a4.4,4.4,0,0,0-4.83,1Z"/></svg>