<svg id="Layer_1" data-name="Layer 1" xmlns="http://www.w3.org/2000/svg" xmlns:xlink="http://www.w3.org/1999/xlink" viewBox="0 0 600 600"><defs><style>.cls-1{stroke:#010101;stroke-miterlimit:10;fill:url(#linear-gradient);}.cls-2{fill:#fff;}</style><linearGradient id="linear-gradient" y1="300" x2="600" y2="300" gradientUnits="userSpaceOnUse"><stop offset="0" stop-color="#141b30"/><stop offset="1" stop-color="#1c3d6f"/></linearGradient></defs><rect class="cls-1" width="600" height="600"/><polygon class="cls-2" points="498.16 210.2 498.16 188.72 355.71 120.28 101.84 172.8 101.84 196.67 353.32 156.88 498.16 210.2"/><polygon class="cls-2" points="498.16 219.75 498.16 242.04 334.22 210.2 101.84 236.47 101.84 210.2 340.59 173.6 498.16 219.75"/><polygon class="cls-2" points="498.16 252.38 498.16 275.46 319.1 263.92 101.84 275.46 101.84 247.61 321.49 227.71 498.16 252.38"/><polygon class="cls-2" points="498.16 287.4 498.16 311.27 299.69 317.64 101.84 311.27 101.84 287.4 303.98 281.83 498.16 287.4"/><polygon class="cls-2" points="498.16 324 498.16 348.15 280.71 373.57 101.84 345.61 101.84 324 282.62 337.34 498.16 324"/><polygon class="cls-2" points="498.16 362.77 498.16 387.56 262.27 426.33 101.84 379.93 101.84 357.05 264.18 391.69 498.16 362.77"/><polygon class="cls-2" points="101.84 388.19 101.84 409.8 245.12 479.72 498.16 426.33 498.16 401.54 247.02 443.49 101.84 388.19"/></svg>