<?xml version="1.0" encoding="utf-8"?>
<!-- Generator: Adobe Illustrator 25.2.1, SVG Export Plug-In . SVG Version: 6.00 Build 0)  -->
<svg version="1.1" id="Warstwa_1" xmlns="http://www.w3.org/2000/svg" xmlns:xlink="http://www.w3.org/1999/xlink" x="0px" y="0px"
	 viewBox="0 0 1280 1024" style="enable-background:new 0 0 1280 1024;" xml:space="preserve">
<style type="text/css">
	.st0{fill:#FFFFFF;}
	.st1{fill:url(#SVGID_1_);}
	.st2{fill:#2E3796;}
</style>
<desc>Created with Fabric.js 3.6.3</desc>
<rect x="0" y="0" class="st0" width="1280" height="1024"/>
<g>
	<g transform="matrix(1.1119801836805576 0 0 -1.1119801836805576 0 0)">
		
			<linearGradient id="SVGID_1_" gradientUnits="userSpaceOnUse" x1="-287.3662" y1="-947.0234" x2="-286.3662" y2="-947.0234" gradientTransform="matrix(-581.3623 -26.2763 -26.2763 581.3623 -191112.1719 542643.9375)">
			<stop  offset="0" style="stop-color:#2BC4F3"/>
			<stop  offset="1" style="stop-color:#2E3192"/>
		</linearGradient>
		<path class="st1" d="M503-221.7l-117-48c-3.2-1.3-5.6-3.9-6.8-7.1l0,0c-1.2-3.2-1-6.8,0.6-9.8l0,0l9.1-17.7
			c1.1-2.1,0.8-4.6-0.7-6.3l0,0l-35.3-42.1c-0.1-0.1-0.5-0.5-1.1-0.2l0,0c-0.6,0.3-0.5,0.8-0.5,1l0,0l11.6,47.4c0.5,1.9,0.5,4,0,5.9
			l0,0l-4.9,19c-1,4.1-4.1,7.3-8.1,8.6l0,0c-4,1.3-8.4,0.5-11.6-2.3l0,0l-40.4-33.8c-2.8-2.3-4.4-5.8-4.4-9.4l0,0v-18
			c0-3.3,1.4-6.5,3.8-8.8l0,0l13.3-12.8c1.4-1.3,2-3.2,1.7-5.1l0,0l-7.4-43c-0.6-3.7,0.5-7.6,3.1-10.4l0,0l41.2-44.5
			c2.3-2.5,5.4-3.8,8.7-3.9l0,0c3.5-0.1,6.5,1.2,8.9,3.5l0,0l46.9,46.3c1.7,1.7,4,2.1,6.2,1.2l0,0c2.2-0.9,3.5-2.8,3.6-5.2l0,0
			l0.2-9.3c0.1-6.6,5.6-12,12.2-12l0,0h81.2c1.5,0,2.9-0.6,4-1.6l0,0l43.6-42.2c1.1-1,1.7-2.4,1.8-3.9l0,0l0.6-16.4
			c0-1.2-0.3-2.3-0.9-3.3l0,0l-5.1-8c-2.4-3.8-2.6-8.5-0.4-12.5l0,0c2.2-4,6.2-6.4,10.7-6.4l0,0h13.8c4.1,0,7.9,2,10.2,5.4l0,0
			l10.5,15.5c1.4,2,2.1,4.4,2.1,6.8l0,0v79.1c0,1.2,0.4,2.4,1.1,3.3l0,0l2.4,3.3c1.8,2.5,4.5,2.8,6.4,2.1l0,0c1.9-0.6,4-2.4,4-5.5
			l0,0v-15.8c0-6.8,5.5-12.2,12.2-12.2l0,0h107.6c1.3,0,2.6-0.4,3.6-1.2l0,0l48.7-38.5c1.4-1.1,2.2-2.7,2.2-4.5l0,0v-15.8
			c0-1.1-0.3-2.2-0.9-3.1l0,0c-2.5-3.8-2.6-8.5-0.4-12.5l0,0c2.2-4,6.2-6.4,10.7-6.4l0,0h8c5.1,0,9.6,3.1,11.4,7.8l0,0l3.3,8.5
			c0.5,1.4,0.8,2.9,0.8,4.4l0,0v48.4c0,3.5-1.5,6.8-4.1,9.2l0,0l-7.1,6.4c-0.2,4.3-3.1,7.8-7.1,9l0,0v73.5l33.8-20.6v-22.3
			c-3.9-1.3-6.6-5-6.6-9.3l0,0c0-5.5,4.4-9.9,9.9-9.9l0,0c5.4,0,9.9,4.4,9.9,9.9l0,0c0,4.3-2.8,7.9-6.6,9.3l0,0v25.9L805.7-355
			c-1.2,0.9-2.5,1.6-4,2.1l0,0l-76.9,21.9c-0.4,0.1-0.7,0.2-1.1,0.4l0,0l-15.2,7.8c0,0.2,0,0.3,0,0.5l0,0c0,5.5-4.4,9.9-9.9,9.9l0,0
			c-2.3,0-4.4-0.8-6.1-2.1l0,0L649-292.1c0,0.1,0,0.2,0,0.4l0,0c0,5.4-4.4,9.9-9.9,9.9l0,0c-2.3,0-4.3-0.8-6-2.1l0,0l-119.9,61.8
			c-1.8,0.9-3.7,1.4-5.6,1.4l0,0C506.1-220.8,504.5-221.1,503-221.7 M505.5-227.7c1.6,0.6,3.3,0.6,4.8-0.2l0,0l61.7-31.8
			c-2.7-1-4.9-3.2-5.9-6l0,0H533L522.5-277h-43l-16,16h46.2c1.4-3.9,5-6.6,9.3-6.6l0,0c5.5,0,9.9,4.4,9.9,9.9l0,0
			c0,5.4-4.4,9.9-9.9,9.9l0,0c-4.3,0-7.9-2.8-9.3-6.6l0,0h-69.4L505.5-227.7z M515.8-258.6v1.8c0.4,1.4,1.7,2.5,3.2,2.5l0,0
			c1.9,0,3.4-1.5,3.4-3.4l0,0c0-1.9-1.5-3.4-3.4-3.4l0,0C517.5-261.1,516.2-260.1,515.8-258.6 M385.6-283.7
			c-0.7,1.4-0.8,3.1-0.3,4.6l0,0c0.6,1.5,1.7,2.7,3.2,3.3l0,0l36,14.8h29.8l22.4-22.5h48.6l10.5,11.2h30.4c1.4-3.9,5-6.6,9.3-6.6
			l0,0c5.5,0,9.9,4.4,9.9,9.9l0,0c0,0.9-0.2,1.7-0.4,2.6l0,0l44.7-23c0,0,0-0.1,0-0.1l0,0h-77.4l-29.6-29.6h-133l3.5,4.2
			c3.2,3.8,3.8,9.1,1.5,13.5l0,0l-2.8,5.4h29.4l12.4-12.9h66.1c1.4-3.9,5-6.6,9.3-6.6l0,0c5.4,0,9.9,4.4,9.9,9.9l0,0
			c0,5.4-4.4,9.9-9.9,9.9l0,0c-4.3,0-7.9-2.8-9.3-6.6l0,0h-34.2c4.4,1,7.7,4.9,7.7,9.6l0,0c0,5.5-4.4,9.9-9.9,9.9l0,0
			c-4.3,0-7.9-2.8-9.3-6.6l0,0h-65.7L385.6-283.7z M572.1-269c0,1.9,1.5,3.4,3.4,3.4l0,0c1.9,0,3.4-1.5,3.4-3.4l0,0
			c0-1.9-1.5-3.4-3.4-3.4l0,0C573.6-272.4,572.1-270.8,572.1-269 M300-316.5c0,1.7,0.8,3.3,2.1,4.4l0,0l40.4,33.8
			c1.5,1.3,3.5,1.7,5.5,1.1l0,0c1.9-0.6,3.3-2.1,3.8-4.1l0,0l4.9-19c0.2-0.9,0.2-1.9,0-2.8l0,0L345-350.6c-0.8-3.4,0.7-6.7,3.8-8.3
			l0,0c0.7-0.4,1.5-0.6,2.3-0.7l0,0l-0.1-0.2h55.7c1.4-3.9,5-6.6,9.3-6.6l0,0c5.5,0,9.9,4.4,9.9,9.9l0,0c0,5.4-4.4,9.9-9.9,9.9l0,0
			c-4.3,0-7.9-2.8-9.3-6.6l0,0H394l5.1,8.5h23.2c1.4-3.9,5-6.6,9.3-6.6l0,0c5.5,0,9.9,4.4,9.9,9.9l0,0c0,5.5-4.4,9.9-9.9,9.9l0,0
			c-4.3,0-7.9-2.8-9.3-6.6l0,0h-26.9l-9.1-14.9H361l23.2,27.7H426l42.9-26.4h201.3c1.4-3.9,5-6.6,9.3-6.6l0,0c5.5,0,9.9,4.4,9.9,9.9
			l0,0c0,5.5-4.4,9.9-9.9,9.9l0,0c-4.3,0-7.9-2.8-9.3-6.6l0,0h-47.5l16.1,20h50.7c1.4-3.9,5-6.6,9.3-6.6l0,0c3,0,5.6,1.3,7.4,3.4
			l0,0l14.7-7.6c0.7-0.4,1.5-0.7,2.3-0.9l0,0l67.3-19.2c-3.2-0.8-5.7-3.2-6.8-6.3l0,0h-78.3L678.1-392h-37.4l-21.6,16h30
			c1.4-3.9,5-6.6,9.3-6.6l0,0c5.4,0,9.9,4.4,9.9,9.9l0,0c0,5.5-4.4,9.9-9.9,9.9l0,0c-4.3,0-7.9-2.8-9.3-6.6l0,0H317.4l1.2,7.2
			c0.7,4-0.7,8.1-3.6,10.9l0,0l-13.3,12.8c-0.3,0.3-0.4,0.6-0.6,0.9l0,0h23.7c1.4-3.9,5-6.6,9.3-6.6l0,0c5.5,0,9.9,4.4,9.9,9.9l0,0
			c0,5.4-4.4,9.9-9.9,9.9l0,0c-4.3,0-7.9-2.8-9.3-6.6l0,0H300V-316.5z M460.1-292.8c0,1.9,1.5,3.4,3.4,3.4l0,0
			c1.9,0,3.4-1.5,3.4-3.4l0,0c0-1.9-1.5-3.4-3.4-3.4l0,0C461.7-296.2,460.1-294.6,460.1-292.8 M554.9-296h75.4
			c1.6-3.3,5-5.6,8.9-5.6l0,0c3,0,5.6,1.4,7.4,3.5l0,0l40.6-20.9h-51.6l-21.3-26.4H470.7l-32.4,20h146.2c1.4-3.9,5-6.6,9.3-6.6l0,0
			c5.4,0,9.9,4.4,9.9,9.9l0,0c0,5.5-4.4,9.9-9.9,9.9l0,0c-4.3,0-7.9-2.8-9.3-6.6l0,0h-52.8L554.9-296z M430.3-296h23.9
			c1.1-3.2,3.8-5.6,7.1-6.4l0,0h-24.9L430.3-296z M590.5-322.4c0,1.9,1.5,3.4,3.4,3.4l0,0c1.9,0,3.4-1.5,3.4-3.4l0,0
			c0-1.9-1.5-3.4-3.4-3.4l0,0C592-325.8,590.5-324.2,590.5-322.4 M698-325.6h1.6c-0.3-0.1-0.5-0.2-0.8-0.2l0,0
			C698.5-325.8,698.2-325.7,698-325.6 M676.1-348.8c0,1.9,1.5,3.4,3.4,3.4l0,0c1.9,0,3.4-1.5,3.4-3.4l0,0c0-1.9-1.5-3.4-3.4-3.4l0,0
			C677.7-352.2,676.1-350.7,676.1-348.8 M413.2-358.2v3.3c0.6,1,1.7,1.8,2.9,1.8l0,0c1.9,0,3.4-1.5,3.4-3.4l0,0
			c0-1.9-1.5-3.4-3.4-3.4l0,0C414.9-359.9,413.8-359.2,413.2-358.2 M802.8-366c0,2.6-1,5-2.7,6.7l0,0c0.4-0.1,0.7-0.3,1-0.5l0,0
			l0-0.1l1-0.6c1.3-1.1,2.1-2.6,2.1-4.3l0,0v-74.5c0-0.1,0-0.2,0-0.3l0,0c-3-1.2-5.3-3.9-5.9-7.1l0,0h-8.9l-48.1,48.1h8.5
			c1.1-4.3,4.9-7.4,9.5-7.4l0,0c5.4,0,9.9,4.4,9.9,9.9l0,0c0,5.4-4.4,9.9-9.9,9.9l0,0c-4,0-7.5-2.4-9-5.9l0,0H687l21.2,22.8h75.5
			c1.3-3.9,5-6.6,9.3-6.6l0,0C798.4-375.9,802.8-371.5,802.8-366 M789.5-366c0,1.9,1.5,3.4,3.4,3.4l0,0c1.9,0,3.4-1.5,3.4-3.4l0,0
			c0-1.9-1.5-3.4-3.4-3.4l0,0C791.1-369.4,789.5-367.9,789.5-366 M655-372.8c0,1.9,1.5,3.4,3.4,3.4l0,0c1.9,0,3.4-1.5,3.4-3.4l0,0
			c0-1.9-1.5-3.4-3.4-3.4l0,0C656.6-376.2,655-374.7,655-372.8 M496.8-376h111.5l30.3-22.5h19.1l27.6-33.9h43.2
			c1.4-3.9,5-6.6,9.3-6.6l0,0c5.4,0,9.9,4.4,9.9,9.9l0,0c0,5.4-4.4,9.9-9.9,9.9l0,0c-4.3,0-7.9-2.8-9.3-6.6l0,0h-40.1l-22.4,27.4h66
			l54.6-54.6h12.5c1.6-3.2,4.9-5.4,8.8-5.4l0,0c3.1,0,5.8,1.4,7.6,3.7l0,0l5.1-4.5c1.2-1.1,1.9-2.7,1.9-4.3l0,0v-48.4
			c0-0.7-0.1-1.4-0.4-2.1l0,0l-3.3-8.5c-0.9-2.2-3-3.7-5.4-3.7l0,0h-8c-2.1,0-4,1.1-5.1,3l0,0c-1,1.9-0.9,4.1,0.2,5.9l0,0
			c1.3,2,1.9,4.3,1.9,6.6l0,0v15.8c0,3.8-1.7,7.3-4.6,9.6l0,0l-48.7,38.5c-2.2,1.7-4.9,2.6-7.6,2.6l0,0H634c-3.2,0-5.8,2.6-5.8,5.8
			l0,0v15.8c0,5.4-3.3,10-8.5,11.7l0,0c-1.3,0.4-2.6,0.6-3.8,0.6l0,0c-3.9,0-7.5-1.8-9.9-5.2l0,0l-2.4-3.3c-1.5-2.1-2.3-4.5-2.3-7.1
			l0,0v-6h-29.5l-14.3,14.3h25.5c1.3-3.9,5-6.6,9.3-6.6l0,0c5.5,0,9.9,4.4,9.9,9.9l0,0c0,5.4-4.4,9.9-9.9,9.9l0,0
			c-4.3,0-7.9-2.8-9.3-6.6l0,0h-42.4L496.8-376z M312.7-410.3c-1.2,1.3-1.7,3.1-1.4,4.9l0,0l5,29.4h170.1l52.1-41.7h10l20.8-20.8
			h32.2v-66.6c0-1.1-0.3-2.3-1-3.2l0,0L590-523.8c-1.1-1.6-2.9-2.5-4.8-2.5l0,0h-13.8c-2.1,0-4,1.1-5.1,3l0,0c-1,1.9-1,4.1,0.2,5.9
			l0,0l5.1,8c1.3,2.1,2,4.5,1.9,7l0,0l-0.6,16.4c-0.1,3.2-1.4,6.2-3.7,8.4l0,0l-40.5,39.1h13.2l39.7-35.9c-0.8-1.4-1.3-3-1.3-4.8
			l0,0c0-5.5,4.4-9.9,9.9-9.9l0,0c5.4,0,9.9,4.4,9.9,9.9l0,0c0,5.4-4.4,9.9-9.9,9.9l0,0c-1.3,0-2.6-0.3-3.7-0.7l0,0l-42,38.1h-27.3
			h-81.2c-3.1,0-5.7,2.5-5.8,5.6l0,0l-0.2,9.3c-0.1,5-3,9.2-7.6,11.1l0,0c-0.4,0.2-0.8,0.2-1.2,0.3l0,0l7.2,7.2h14.2l17.1-22h51.4
			v6.5h-48.2l-12,15.5h32.9c1.1-4.3,4.9-7.4,9.5-7.4l0,0c5.5,0,9.9,4.4,9.9,9.9l0,0c0,5.4-4.4,9.9-9.9,9.9l0,0c-4,0-7.5-2.4-9-5.9
			l0,0h-58.5l-45.2-45l0,0l-18.2-18c-1.1-1.1-2.7-1.6-4.2-1.7l0,0c-1.6,0-3,0.7-4.1,1.8l0,0l-15.4,16.7l25.5,28.8h21.6
			c1.3-4,5-6.9,9.4-6.9l0,0c5.4,0,9.9,4.4,9.9,9.9l0,0c0,5.4-4.4,9.9-9.9,9.9l0,0c-4.2,0-7.8-2.7-9.2-6.4l0,0H361l-27-30.5
			L312.7-410.3z M755.8-396c0,1.9,1.5,3.4,3.4,3.4l0,0c1.9,0,3.4-1.5,3.4-3.4l0,0c0-1.9-1.5-3.4-3.4-3.4l0,0
			C757.3-399.4,755.8-397.9,755.8-396 M489.7-396c0,1.9,1.5,3.4,3.4,3.4l0,0c1.9,0,3.4-1.5,3.4-3.4l0,0c0-1.9-1.5-3.4-3.4-3.4l0,0
			C491.2-399.4,489.7-397.9,489.7-396 M391.9-407.9v3.3c0.6,1,1.6,1.8,2.9,1.8l0,0c1.9,0,3.4-1.5,3.4-3.4l0,0c0-1.9-1.5-3.4-3.4-3.4
			l0,0C393.6-409.7,392.5-409,391.9-407.9 M844.3-417.7c0,1.7,1.2,3,2.8,3.3l0,0h1.2c1.6-0.3,2.8-1.6,2.8-3.3l0,0
			c0-1.9-1.5-3.4-3.4-3.4l0,0C845.9-421.1,844.3-419.6,844.3-417.7 M804.5-448.6c0,1.2,0.7,2.2,1.6,2.8l0,0c0.6-0.9,1.3-1.8,2.1-2.6
			l0,0l2.4-2.1c-0.6-0.9-1.6-1.5-2.7-1.5l0,0C806.1-452,804.5-450.5,804.5-448.6 M586.8-479.3c0,1.9,1.5,3.4,3.4,3.4l0,0
			c1.9,0,3.4-1.5,3.4-3.4l0,0c0-1.9-1.5-3.4-3.4-3.4l0,0C588.3-482.7,586.8-481.2,586.8-479.3 M479.3-447.7c-5.2,0-9.7-3.1-11.5-8
			l0,0c-1.8-4.9-0.4-10.2,3.5-13.5l0,0l13.1-11.2c0.8-0.7,1.6-1.2,2.6-1.7l0,0l12-5.9c1.6-0.8,2.7-2.2,3.1-4l0,0
			c0.4-1.7-0.1-3.5-1.2-4.9l0,0l-13.2-15.7c-3.1-3.7-3.7-8.7-1.7-13l0,0c2-4.4,6.3-7.1,11.1-7.1l0,0h10.9c3.8,0,7.5,1.8,9.8,4.9l0,0
			l26.3,34.8c3.9,5.1,3.1,12.4-1.7,16.6l0,0l-29.7,25.8c-2.2,1.9-5.1,3-8,3l0,0H479.3z M491.8-523c-1,2.1-0.7,4.4,0.8,6.1l0,0
			l13.2,15.7c2.4,2.9,3.4,6.7,2.6,10.4l0,0c-0.8,3.7-3.2,6.8-6.6,8.5l0,0l-12,5.9c-0.4,0.2-0.8,0.5-1.2,0.8l0,0l-13.1,11.2
			c-2.2,1.9-2.3,4.6-1.6,6.4l0,0c0.7,1.8,2.4,3.8,5.4,3.8l0,0h25.1c1.4,0,2.7-0.5,3.8-1.4l0,0l29.7-25.8c2.3-2,2.6-5.4,0.8-7.8l0,0
			l-26.3-34.8c-1.1-1.4-2.8-2.3-4.6-2.3l0,0H497C494.7-526.3,492.8-525.1,491.8-523 M719-460.8c-5.1,0-9.4-2.9-11.3-7.6l0,0
			c-1.9-4.7-0.9-9.8,2.8-13.4l0,0l8.7-8.5c1-1,2.1-1.7,3.3-2.3l0,0l9.3-4.4c1.5-0.7,2.6-2,3.1-3.6l0,0c0.5-1.6,0.2-3.3-0.7-4.7l0,0
			l-7.5-11.9c-2.4-3.8-2.5-8.5-0.3-12.4l0,0c2.2-4,6.2-6.3,10.7-6.3l0,0h2.4c3.9,0,7.5,1.9,9.8,5l0,0l21.4,29
			c3.7,5.1,3.1,12.1-1.6,16.3l0,0L745.3-464c-2.3,2.1-5.2,3.2-8.3,3.2l0,0H719z M732-526.5c-1,1.9-1,4,0.2,5.9l0,0l7.5,12
			c1.9,3,2.4,6.6,1.4,10l0,0c-1,3.4-3.4,6.1-6.5,7.6l0,0l-9.3,4.4c-0.6,0.3-1.1,0.6-1.6,1.1l0,0l-8.7,8.5c-1.7,1.7-2.2,4.1-1.3,6.3
			l0,0c0.9,2.2,2.9,3.6,5.3,3.6l0,0h18.1c1.4,0,2.8-0.5,3.9-1.5l0,0l23.8-21.7c2.2-2,2.5-5.3,0.8-7.7l0,0l-21.4-29
			c-1.1-1.5-2.8-2.3-4.6-2.3l0,0H737C734.9-529.5,733-528.4,732-526.5"/>
	</g>
</g>
<path class="st2" d="M283.2,701.2L283.2,701.2c0-3.5,1.3-5.3,3.9-5.3c2.6,0,3.8,1.6,3.8,4.9l0,0c0,3.3,0.6,5.7,1.7,7.1
	c1.1,1.4,3.3,2.1,6.4,2.1l0,0h36.7c5.8,0,8.7-3.6,8.7-10.9l0,0c0-3.7-0.8-6.7-2.4-9s-3.7-3.4-6.3-3.4l0,0h-33.5
	c-6.8,0-11.6-1.8-14.6-5.3c-3-3.5-4.5-8.2-4.5-14l0,0c0-5.9,1.5-10.3,4.6-13.4c3.1-3,8.4-4.6,16-4.6l0,0h33.3c3.2,0,5.8,0.5,7.9,1.4
	c2.1,0.9,3.6,2.3,4.5,4c0.9,1.7,1.6,3.5,1.9,5.1c0.3,1.7,0.5,3.7,0.5,6l0,0c0,3.5-1.3,5.2-3.8,5.2c-2.6,0-3.9-1.6-3.9-4.9l0,0
	c0-3.5-0.6-5.9-1.8-7.2c-1.2-1.3-3.3-1.9-6.3-1.9l0,0h-36.4c-5.8,0-8.7,3.4-8.7,10.2l0,0c0,3.7,0.8,6.6,2.4,8.6c1.6,2,3.7,3,6.3,3
	l0,0h33.6c2.9,0,5.5,0.4,7.7,1.2c2.2,0.8,4.1,1.8,5.4,3.1c1.4,1.3,2.5,2.8,3.4,4.6c0.9,1.8,1.5,3.6,1.9,5.5c0.3,1.8,0.5,3.8,0.5,5.8
	l0,0c0,6.1-1.6,10.7-4.7,13.9c-3.1,3.2-8.3,4.8-15.8,4.8l0,0H298c-2.6,0-4.8-0.3-6.7-1s-3.3-1.5-4.3-2.5c-1-1-1.8-2.3-2.4-3.8
	c-0.6-1.6-1-3-1.2-4.4C283.3,704.6,283.2,703,283.2,701.2z M368.1,652.9L368.1,652.9c0-2.2,1.5-3.4,4.6-3.6l0,0V634
	c0-3.5,1.2-5.3,3.5-5.3l0,0c2.8,0,4.2,1.8,4.2,5.3l0,0v15.4h20.4c3.5,0,5.3,1.4,5.3,4.2l0,0c0,2.4-1.8,3.6-5.3,3.6l0,0h-20.4v34.3
	c0,2.8,0.2,5.2,0.6,7.2c0.4,2,1.1,3.7,2,5.1c0.9,1.4,2,2.5,3.1,3.3c1.1,0.8,2.7,1.4,4.7,1.9c2,0.4,4,0.7,5.9,0.8
	c2,0.1,4.5,0.2,7.5,0.2l0,0c3.5,0,5.2,1.2,5.2,3.5l0,0c0,2.8-1.7,4.2-5.2,4.2l0,0c-4.1,0-7.7-0.2-10.7-0.6c-3-0.4-5.9-1.1-8.7-2.3
	c-2.8-1.1-5-2.6-6.7-4.5c-1.7-1.9-3.1-4.4-4-7.5c-1-3.1-1.5-6.8-1.5-11.2l0,0v-34.7C369.6,656.8,368.1,655.4,368.1,652.9z
	 M420.9,699.4L420.9,699.4c0-3.5,0.3-6.6,1-9.3c0.7-2.7,1.7-5,3.1-6.8s3-3.4,4.8-4.6c1.8-1.2,4-2.2,6.6-2.9c2.6-0.7,5.3-1.2,8-1.5
	c2.8-0.3,6-0.4,9.6-0.4l0,0h21.8v-8.4c0-3.1-0.6-5.2-1.7-6.5c-1.1-1.3-3.3-1.9-6.4-1.9l0,0h-20.9c-12.1,0-18.1,3-18.1,8.9l0,0
	c0,1.7-0.3,3-0.8,3.9c-0.6,0.9-1.6,1.3-3.2,1.3l0,0c-2.5,0-3.7-1.7-3.7-5.2l0,0c0-5.7,2.3-9.9,6.8-12.6c4.5-2.7,10.5-4,17.9-4l0,0
	h23c5.8,0,9.7,1.4,11.7,4.2c2,2.8,3.1,7.6,3.1,14.5l0,0v45.6c0,3.4-1.3,5-3.9,5c-2.6,0-3.8-1.7-3.8-5.2l0,0v-5.2
	c-2.8,3.1-6.4,5.4-10.8,7c-4.4,1.5-9.2,2.3-14.4,2.3l0,0h-13.8c-4.6,0-8.4-1.7-11.4-5C422.4,709.4,420.9,704.9,420.9,699.4z
	 M428.6,700.2L428.6,700.2c0,2.6,0.9,4.8,2.6,6.8c1.7,2,3.6,3,5.6,3l0,0h13.8c8.3,0,14.6-2.2,18.8-6.7c4.3-4.5,6.4-10.9,6.4-19.4
	l0,0v-2.2H454c-2.9,0-5.2,0-7.1,0.1c-1.9,0.1-3.8,0.3-5.7,0.6c-2,0.3-3.5,0.7-4.7,1.2c-1.2,0.5-2.3,1.3-3.4,2.1
	c-1.1,0.9-1.9,2-2.5,3.3c-0.6,1.3-1,2.9-1.4,4.7C428.8,695.6,428.6,697.7,428.6,700.2z M505.2,714.1L505.2,714.1v-86.8
	c0-3.3,1.3-4.9,3.8-4.9c2.6,0,3.9,1.6,3.9,4.9l0,0v50.5l28.7-27.4c1.3-1.2,2.5-1.8,3.5-1.8l0,0c0.9,0,1.7,0.4,2.5,1.1
	c0.8,0.7,1.2,1.6,1.2,2.8l0,0c0,1.1-0.6,2.2-1.8,3.4l0,0l-24.6,22.5l35.4,32.9c1.1,1.2,1.6,2.4,1.6,3.5l0,0c0,0.9-0.3,1.7-1,2.5
	s-1.5,1.2-2.5,1.2l0,0c-1,0-2.3-0.6-3.7-1.8l0,0l-35.1-33.9l-4.3,4.3v26.8c0,3.2-1.3,4.7-4,4.7l0,0c-1,0-1.9-0.3-2.6-1
	C505.6,717,505.2,715.8,505.2,714.1z M568,691.6L568,691.6v-16.1c0-4.3,0.5-8.1,1.5-11.2c1-3.1,2.4-5.6,4.1-7.5
	c1.7-1.9,4-3.4,6.9-4.5c2.9-1.1,5.9-1.8,9.1-2.2c3.2-0.4,7-0.6,11.4-0.6l0,0h4.3c4.4,0,8.2,0.2,11.3,0.6c3.2,0.4,6.2,1.1,9,2.2
	c2.9,1.1,5.2,2.6,6.9,4.5c1.7,1.9,3.1,4.4,4.1,7.5c1,3.1,1.5,6.9,1.5,11.2l0,0v5.9h-62.5v10.1c0,2.4,0.2,4.5,0.5,6.4
	c0.3,1.8,0.8,3.4,1.4,4.7s1.4,2.4,2.5,3.3c1.1,0.9,2.2,1.6,3.4,2.1c1.2,0.6,2.8,1,4.7,1.2c1.9,0.3,3.9,0.5,5.7,0.6
	c1.9,0.1,4.2,0.2,7.1,0.2l0,0h19.9c3.2,0,5.3-0.7,6.4-2.1c1.1-1.4,1.7-3.8,1.7-7.1l0,0c0-3.3,1.3-4.9,3.9-4.9c2.6,0,3.8,1.8,3.8,5.3
	l0,0c0,1.8-0.1,3.4-0.3,4.8c-0.2,1.4-0.6,2.8-1.1,4.4c-0.6,1.5-1.4,2.8-2.4,3.8c-1,1-2.5,1.8-4.3,2.5c-1.9,0.7-4.1,1-6.7,1l0,0H601
	c-4.4,0-8.2-0.2-11.4-0.6c-3.2-0.4-6.2-1.1-9.1-2.2c-2.9-1.1-5.2-2.6-6.9-4.5c-1.7-1.9-3.1-4.4-4.1-7.6
	C568.5,699.6,568,695.9,568,691.6z M575.7,673.7L575.7,673.7h54.8c0-3-0.4-5.4-1.1-7.4s-1.6-3.6-2.8-4.8c-1.2-1.2-2.8-2.2-5-2.8
	c-2.2-0.6-4.5-1-6.9-1.2c-2.4-0.2-5.5-0.3-9.4-0.3l0,0H601c-3.9,0-7,0.1-9.4,0.3c-2.4,0.2-4.7,0.6-6.9,1.2c-2.2,0.6-3.9,1.5-5.1,2.8
	c-1.2,1.2-2.1,2.8-2.8,4.8C576.1,668.2,575.7,670.7,575.7,673.7z M657.4,713.6L657.4,713.6v-60.1c0-3.5,1.2-5.2,3.5-5.2l0,0
	c2.8,0,4.2,1.8,4.2,5.3l0,0v5c5.8-6.2,14.2-9.3,25.3-9.3l0,0h4.3c4.4,0,8.2,0.2,11.3,0.6c3.2,0.4,6.2,1.1,9,2.2
	c2.9,1.1,5.2,2.6,6.9,4.5c1.7,1.9,3.1,4.4,4.1,7.5c1,3.1,1.5,6.9,1.5,11.2l0,0v38.2c0,3.4-1.2,5-3.7,5l0,0c-2.7,0-4-1.7-4-5l0,0
	v-38.1c0-2.9-0.2-5.3-0.6-7.3s-1.1-3.7-2-5.1c-1-1.4-2-2.5-3.2-3.3c-1.2-0.8-2.8-1.4-5-1.9c-2.1-0.4-4.2-0.7-6.3-0.8
	c-2.1-0.1-4.8-0.2-8.1-0.2l0,0h-4.3c-8.4,0-14.7,2.2-19,6.7c-4.2,4.5-6.4,11-6.4,19.6l0,0v30.2c0,3.4-1.3,5-3.8,5
	C658.7,718.7,657.4,717,657.4,713.6z M747,691.6L747,691.6v-16.1c0-4.3,0.5-8.1,1.5-11.2c1-3.1,2.4-5.6,4.1-7.5
	c1.7-1.9,4-3.4,6.9-4.5c2.9-1.1,5.9-1.8,9.1-2.2c3.2-0.4,7-0.6,11.4-0.6l0,0h4.3c4.4,0,8.2,0.2,11.3,0.6c3.2,0.4,6.2,1.1,9,2.2
	c2.9,1.1,5.2,2.6,6.9,4.5c1.7,1.9,3.1,4.4,4.1,7.5c1,3.1,1.5,6.9,1.5,11.2l0,0v16.1c0,4.3-0.5,8.1-1.5,11.2c-1,3.1-2.4,5.7-4.1,7.6
	c-1.7,1.9-4,3.4-6.9,4.5c-2.9,1.1-5.9,1.9-9,2.2c-3.2,0.4-6.9,0.6-11.3,0.6l0,0H780c-4.4,0-8.2-0.2-11.4-0.6
	c-3.2-0.4-6.2-1.1-9.1-2.2c-2.9-1.1-5.2-2.6-6.9-4.5c-1.7-1.9-3.1-4.4-4.1-7.6C747.5,699.6,747,695.9,747,691.6z M754.7,675.6v15.9
	c0,2.4,0.2,4.5,0.5,6.4c0.3,1.8,0.8,3.4,1.4,4.7c0.6,1.3,1.4,2.4,2.5,3.3c1.1,0.9,2.2,1.6,3.4,2.1c1.2,0.6,2.8,1,4.7,1.2
	c1.9,0.3,3.9,0.5,5.7,0.6c1.9,0.1,4.2,0.2,7.1,0.2l0,0h4.3c3.3,0,6-0.1,8.1-0.2c2.1-0.1,4.2-0.4,6.3-0.8c2.1-0.4,3.8-1,5-1.9
	c1.2-0.8,2.3-1.9,3.2-3.3c1-1.4,1.6-3.1,2-5.1c0.4-2,0.6-4.4,0.6-7.3l0,0v-15.9c0-2.9-0.2-5.3-0.6-7.3c-0.4-2-1.1-3.7-2-5.1
	c-1-1.4-2-2.5-3.2-3.3c-1.2-0.8-2.8-1.4-5-1.9c-2.1-0.4-4.2-0.7-6.3-0.8s-4.8-0.2-8.1-0.2l0,0H780c-2.9,0-5.2,0-7.1,0.1
	c-1.9,0.1-3.8,0.3-5.7,0.6c-2,0.3-3.5,0.7-4.7,1.2c-1.2,0.6-2.3,1.3-3.4,2.1c-1.1,0.9-1.9,2-2.5,3.3c-0.6,1.3-1,2.9-1.4,4.7
	C754.9,671,754.7,673.2,754.7,675.6L754.7,675.6z M835.6,691.6L835.6,691.6v-16.1c0-4.3,0.5-8.1,1.5-11.2c1-3.1,2.4-5.6,4.1-7.5
	c1.7-1.9,4-3.4,6.9-4.5c2.9-1.1,5.9-1.8,9-2.2c3.2-0.4,6.9-0.6,11.3-0.6l0,0H898v-21.6c0-3.6,1.4-5.3,4.2-5.3l0,0
	c2.4,0,3.5,1.8,3.5,5.3l0,0v85.9c0,3.4-1.3,5-3.8,5c-2.6,0-3.9-1.7-3.9-5.2l0,0v-5.2c-5.8,6.2-14.2,9.3-25.3,9.3l0,0h-4.3
	c-4.4,0-8.2-0.2-11.3-0.6c-3.2-0.4-6.2-1.1-9-2.2s-5.2-2.6-6.9-4.5c-1.7-1.9-3.1-4.4-4.1-7.6C836.1,699.6,835.6,695.9,835.6,691.6z
	 M843.3,675.6v15.9c0,2.9,0.2,5.3,0.6,7.3c0.4,2,1.1,3.7,2,5.1c1,1.4,2,2.5,3.2,3.3c1.2,0.8,2.8,1.4,5,1.9c2.1,0.4,4.2,0.7,6.3,0.8
	c2.1,0.1,4.7,0.2,8.1,0.2l0,0h4.3c8.4,0,14.7-2.2,19-6.7c4.2-4.5,6.4-10.9,6.4-19.4l0,0v-26.8h-29.6c-3.3,0-6,0.1-8.1,0.2
	c-2.1,0.1-4.2,0.4-6.3,0.8c-2.1,0.4-3.8,1-5,1.9s-2.3,1.9-3.2,3.3c-1,1.4-1.7,3.1-2,5.1C843.5,670.3,843.3,672.7,843.3,675.6
	L843.3,675.6z M926,691.6L926,691.6v-16.1c0-4.3,0.5-8.1,1.5-11.2c1-3.1,2.4-5.6,4.1-7.5c1.7-1.9,4-3.4,6.9-4.5
	c2.9-1.1,5.9-1.8,9.1-2.2c3.2-0.4,7-0.6,11.4-0.6l0,0h4.3c4.4,0,8.2,0.2,11.3,0.6c3.2,0.4,6.2,1.1,9,2.2c2.9,1.1,5.2,2.6,6.9,4.5
	c1.7,1.9,3.1,4.4,4.1,7.5c1,3.1,1.5,6.9,1.5,11.2l0,0v5.9h-62.5v10.1c0,2.4,0.2,4.5,0.5,6.4c0.3,1.8,0.8,3.4,1.4,4.7
	c0.6,1.3,1.4,2.4,2.5,3.3c1.1,0.9,2.2,1.6,3.4,2.1c1.2,0.6,2.8,1,4.7,1.2c2,0.3,3.9,0.5,5.7,0.6c1.9,0.1,4.2,0.2,7.1,0.2l0,0h19.9
	c3.2,0,5.3-0.7,6.4-2.1c1.1-1.4,1.7-3.8,1.7-7.1l0,0c0-3.3,1.3-4.9,3.8-4.9c2.6,0,3.9,1.8,3.9,5.3l0,0c0,1.8-0.1,3.4-0.3,4.8
	c-0.2,1.4-0.6,2.8-1.1,4.4c-0.6,1.5-1.4,2.8-2.4,3.8c-1,1-2.5,1.8-4.3,2.5c-1.9,0.7-4.1,1-6.7,1l0,0h-20.9c-4.4,0-8.2-0.2-11.4-0.6
	c-3.2-0.4-6.2-1.1-9.1-2.2s-5.2-2.6-6.9-4.5c-1.7-1.9-3.1-4.4-4.1-7.6C926.5,699.6,926,695.9,926,691.6z M933.7,673.7L933.7,673.7
	h54.8c-0.1-3-0.4-5.4-1.1-7.4c-0.7-2-1.6-3.6-2.8-4.8c-1.2-1.2-2.8-2.2-5-2.8c-2.2-0.6-4.5-1-6.9-1.2c-2.4-0.2-5.5-0.3-9.4-0.3l0,0
	h-4.3c-3.9,0-7,0.1-9.4,0.3c-2.4,0.2-4.7,0.6-6.9,1.2c-2.2,0.6-3.9,1.5-5.1,2.8c-1.2,1.2-2.1,2.8-2.8,4.8S933.8,670.7,933.7,673.7z"
	/>
</svg>
