 <svg version="1.0" xmlns="http://www.w3.org/2000/svg" width="700.000000pt" height="700.000000pt" viewBox="0 0 700.000000 700.000000" preserveAspectRatio="xMidYMid meet">
<metadata>
Created by potrace 1.12, written by Peter Selinger 2001-2015
</metadata>
<g transform="translate(0.000000,700.000000) scale(0.100000,-0.100000)" fill="#000000" stroke="none">
<path d="M3268 5045 c-341 -57 -630 -276 -778 -588 -66 -138 -91 -242 -97
-399 -6 -147 5 -246 39 -356 15 -50 23 -62 36 -58 9 3 30 8 45 12 21 5 26 11
22 24 -8 25 26 36 42 15 11 -16 30 -11 215 45 228 70 540 177 883 303 275 101
699 264 737 283 l27 14 -33 79 c-186 441 -667 705 -1138 626z m112 -106 c0
-15 -7 -19 -35 -19 -28 0 -35 4 -35 19 0 14 8 21 28 23 35 5 42 1 42 -23z
m120 6 c0 -21 -5 -25 -29 -25 -17 0 -33 5 -36 10 -13 21 4 40 35 40 25 0 30
-4 30 -25z m104 9 c9 -3 16 -15 16 -26 0 -30 -54 -21 -58 10 -3 23 11 28 42
16z m-350 -21 c8 -20 -2 -30 -34 -35 -19 -2 -26 2 -28 19 -2 16 3 23 20 26 13
2 26 5 29 6 4 0 10 -7 13 -16z m484 -32 c3 -21 1 -23 -20 -18 -12 4 -26 7 -30
7 -5 0 -8 9 -8 21 0 32 54 23 58 -10z m-598 -17 c0 -18 -51 -28 -61 -12 -14
21 -11 26 19 36 27 9 42 1 42 -24z m701 -4 c21 -12 23 -18 10 -38 -6 -10 -13
-11 -34 -1 -26 12 -34 29 -20 42 9 10 21 9 44 -3z m-831 -60 c-31 -24 -36 -24
-44 -3 -5 11 1 23 16 35 20 15 25 15 38 2 13 -13 12 -17 -10 -34z m940 0 c22
-17 23 -21 10 -34 -13 -13 -18 -13 -38 2 -15 12 -21 24 -16 35 8 21 13 21 44
-3z m-1031 -34 c10 -12 7 -18 -13 -32 -22 -14 -29 -14 -42 -3 -15 12 -14 15 6
31 27 22 34 22 49 4z m634 -63 l32 -7 -32 -8 c-25 -7 -35 -16 -41 -41 -10 -32
-11 -31 -27 18 -2 8 -19 18 -37 23 l-33 8 33 7 c18 4 35 13 37 22 16 49 17 50
27 17 7 -26 15 -34 41 -39z m517 6 c0 -4 -7 -12 -16 -19 -13 -11 -19 -10 -36
8 -18 17 -19 24 -9 36 12 14 16 14 37 -2 13 -9 24 -20 24 -23z m-1257 -51
c-19 -18 -24 -19 -38 -8 -14 12 -13 15 7 37 20 21 23 22 37 8 14 -13 13 -17
-6 -37z m1332 -47 c-13 -14 -17 -13 -37 6 -18 19 -19 24 -8 38 12 14 15 13 37
-7 21 -20 22 -23 8 -37z m-1414 -40 c-12 -22 -36 -28 -46 -11 -4 6 1 22 10 37
15 22 19 24 32 10 12 -11 13 -19 4 -36z m1489 -27 c12 -22 12 -27 0 -34 -10
-6 -21 -3 -32 7 -21 19 -23 39 -5 46 21 9 23 8 37 -19z m-1561 -38 c15 -18 -2
-56 -24 -56 -21 0 -26 16 -14 44 14 30 22 32 38 12z m1626 -66 c14 -28 14 -31
-1 -37 -11 -4 -24 2 -36 17 -19 23 -19 25 -2 37 23 17 21 18 39 -17z m-1686
-39 c12 -8 13 -14 3 -35 -12 -28 -19 -31 -40 -17 -10 6 -11 13 -1 34 13 29 17
31 38 18z m1733 -109 c-19 -14 -28 -7 -37 30 -9 37 25 45 42 9 10 -22 9 -28
-5 -39z m-1769 -8 c3 -3 1 -18 -4 -34 -8 -21 -15 -27 -30 -23 -21 6 -21 8 -13
41 6 20 33 30 47 16z m-31 -139 c-5 -36 -11 -45 -27 -39 -9 4 -15 18 -15 36 0
25 4 29 23 26 16 -2 21 -9 19 -23z m408 -9 c5 -14 19 -26 32 -28 23 -4 23 -4
-3 -15 -15 -7 -30 -22 -34 -35 l-8 -23 -4 23 c-3 13 -16 28 -31 34 l-27 10 23
9 c13 5 26 18 29 29 7 26 12 25 23 -4z m-420 -121 c0 -28 -4 -35 -20 -35 -16
0 -20 7 -20 35 0 28 4 35 20 35 16 0 20 -7 20 -35z m4 -107 c10 -39 7 -48 -19
-48 -21 0 -25 5 -25 28 0 46 33 61 44 20z m20 -120 c10 -40 7 -50 -16 -46 -38
5 -34 67 3 68 4 0 9 -10 13 -22z"></path>
<path d="M5023 4659 c-40 -5 -94 -12 -120 -17 l-48 -8 80 -7 c89 -9 145 -23
145 -39 0 -44 -279 -195 -605 -327 -1028 -419 -2145 -781 -2494 -808 -79 -6
-80 -6 -92 20 -10 22 -7 35 19 91 29 61 29 65 10 55 -70 -37 -248 -250 -248
-296 -1 -93 368 -35 1005 156 1056 317 2377 864 2608 1079 55 52 62 91 17 103
-34 9 -189 8 -277 -2z"></path>
<path d="M4443 4028 c-39 -17 -43 -22 -43 -54 0 -31 -3 -35 -22 -32 -18 2 -22
8 -20 27 3 17 0 22 -10 18 -548 -223 -1063 -407 -1696 -606 l-52 -16 60 -67
c83 -92 206 -182 325 -239 516 -246 1135 -37 1390 471 75 150 121 338 113 466
l-3 50 -42 -18z m-58 -149 c13 -19 -4 -59 -25 -59 -21 0 -24 10 -14 48 7 23
28 30 39 11z m-32 -115 c22 -8 6 -59 -19 -59 -10 0 -19 6 -18 13 1 6 2 21 3
32 1 21 9 24 34 14z m-295 -151 c8 -7 27 -13 41 -14 21 0 18 -3 -14 -13 -34
-10 -41 -17 -51 -51 -11 -35 -13 -36 -13 -12 -1 35 -33 67 -68 68 -26 1 -25 2
7 9 39 9 60 33 61 69 1 22 2 21 11 -9 5 -19 17 -41 26 -47z m265 31 c3 -4 -1
-20 -9 -35 -12 -25 -18 -28 -34 -19 -17 9 -18 14 -8 35 10 23 37 33 51 19z
m-53 -120 c0 -2 -7 -16 -16 -29 -13 -20 -19 -22 -34 -13 -18 11 -18 14 -3 39
13 22 20 26 35 18 10 -5 18 -12 18 -15z m-75 -95 c8 -12 -23 -49 -41 -49 -22
0 -27 21 -8 41 19 21 39 25 49 8z m-1420 -88 c-13 -14 -17 -13 -37 6 -18 19
-19 24 -8 38 12 14 15 13 37 -7 21 -20 22 -23 8 -37z m1334 -4 c14 -18 -21
-52 -44 -44 -20 8 -19 34 3 46 23 14 28 13 41 -2z m-1245 -46 c14 -16 15 -20
2 -30 -25 -21 -72 20 -49 42 11 12 29 8 47 -12z m1137 -62 c-22 -18 -26 -18
-39 -5 -14 13 -13 17 9 35 21 18 26 18 39 5 13 -14 12 -17 -9 -35z m-834 -20
c14 0 13 -2 -4 -9 -13 -5 -23 -17 -24 -27 0 -14 -2 -13 -9 5 -5 12 -17 22 -27
23 -14 0 -13 2 5 9 12 5 22 17 23 27 0 14 2 13 9 -4 5 -13 17 -23 27 -24z
m-210 16 c22 -16 21 -45 -1 -45 -24 0 -47 25 -40 43 8 21 14 21 41 2z m948
-60 c-24 -18 -49 -15 -53 6 -4 23 39 41 58 23 12 -12 12 -16 -5 -29z m-842 4
c17 -8 23 -17 20 -30 -6 -22 -22 -24 -48 -5 -11 8 -16 19 -12 30 8 19 9 19 40
5z m740 -50 c-5 -4 -20 -11 -35 -14 -23 -6 -28 -4 -28 12 0 28 41 46 58 25 6
-9 9 -19 5 -23z m-614 2 c8 -5 11 -16 7 -26 -5 -13 -13 -15 -34 -10 -34 8 -34
9 -26 29 7 17 31 21 53 7z m494 -22 c5 -20 -1 -25 -38 -31 -31 -5 -34 39 -3
45 13 2 26 5 29 6 4 0 9 -8 12 -20z m-365 -23 c-2 -17 -9 -20 -33 -18 -37 5
-38 6 -31 29 9 29 68 19 64 -11z m245 5 c6 -25 0 -31 -35 -31 -36 0 -41 36 -5
43 12 2 25 5 28 6 4 0 9 -8 12 -18z m-123 -10 c0 -26 -13 -33 -43 -26 -36 9
-25 45 14 45 22 0 29 -5 29 -19z"></path>
<path d="M2685 2795 c-41 -15 -74 -49 -75 -77 0 -26 25 -45 80 -58 58 -14 71
-31 45 -60 -22 -24 -101 -27 -131 -6 -17 13 -21 12 -36 -1 -24 -21 -23 -28 7
-41 38 -17 131 -15 172 5 42 19 73 75 57 101 -6 9 -35 25 -65 35 -74 25 -84
35 -62 60 15 16 27 19 80 14 44 -3 66 -1 73 8 8 10 3 16 -21 24 -42 14 -75 13
-124 -4z"></path>
<path d="M2866 2785 c-4 -12 4 -15 39 -15 54 0 53 5 21 -129 l-24 -101 28 0
c31 0 31 1 61 163 l12 67 49 0 c36 0 48 4 48 15 0 12 -19 15 -114 15 -92 0
-115 -3 -120 -15z"></path>
<path d="M3133 2670 l-82 -130 28 0 c23 0 34 8 50 35 l20 35 76 0 76 0 15 -35
c12 -29 20 -35 43 -35 l29 0 -58 128 c-53 116 -61 127 -87 130 -26 2 -34 -7
-110 -128z m127 44 c29 -66 27 -69 -32 -68 -29 1 -52 6 -50 10 5 13 57 104 59
104 1 0 11 -21 23 -46z"></path>
<path d="M3430 2670 l0 -130 30 0 c28 0 30 2 30 38 0 27 7 45 23 60 l23 22 59
-60 c46 -47 66 -60 89 -60 30 0 29 1 -44 75 l-74 75 54 55 54 55 -30 0 c-23 0
-43 -13 -89 -60 -33 -33 -63 -60 -67 -60 -4 0 -8 27 -8 60 0 57 -1 60 -25 60
l-25 0 0 -130z"></path>
<path d="M3741 2678 c10 -68 19 -126 19 -130 0 -5 52 -8 116 -8 105 0 115 2
112 18 -3 14 -17 17 -88 20 -90 3 -100 8 -100 55 0 27 0 27 71 27 61 0 70 2
65 16 -3 9 -6 18 -6 20 0 2 -31 4 -69 4 -72 0 -81 6 -81 51 0 17 8 19 75 19
60 0 75 3 75 15 0 12 -18 15 -103 15 l-104 0 18 -122z"></path>
<path d="M4005 2753 c7 -27 23 -85 35 -130 21 -79 23 -83 51 -83 l28 0 -14 40
c-15 43 -14 45 32 49 26 2 41 -6 81 -43 35 -33 57 -46 78 -46 29 1 29 1 -21
45 -48 42 -49 44 -32 63 23 25 22 64 -4 96 -34 44 -70 56 -163 56 l-85 0 14
-47z m158 6 c14 -6 30 -23 37 -37 10 -23 9 -29 -10 -44 -14 -11 -39 -18 -66
-18 -42 0 -44 1 -54 41 -6 22 -14 47 -17 55 -4 11 5 14 40 14 26 0 57 -5 70
-11z"></path>
<path d="M2565 2367 c-76 -43 -109 -133 -65 -177 10 -10 45 -27 77 -36 81 -24
94 -33 91 -68 -7 -66 -117 -92 -195 -46 l-37 22 -24 -27 c-28 -33 -25 -44 19
-70 26 -15 52 -20 109 -20 64 0 82 4 123 28 53 31 87 86 87 139 0 53 -23 75
-101 99 -65 20 -99 40 -99 58 0 5 9 20 20 34 27 34 83 43 141 23 42 -15 45
-15 62 5 24 29 22 35 -14 48 -55 19 -149 13 -194 -12z"></path>
<path d="M2886 2373 c-8 -28 -76 -394 -76 -410 0 -10 10 -13 38 -11 l37 3 10
65 10 65 85 5 c141 10 201 60 202 169 0 97 -53 131 -207 131 -81 0 -94 -2 -99
-17z m220 -68 c24 -33 17 -83 -15 -116 -27 -27 -35 -29 -100 -29 -39 0 -71 3
-71 7 0 12 21 138 26 152 7 22 142 11 160 -14z"></path>
<path d="M3341 2308 c-21 -46 -66 -142 -100 -215 -33 -72 -61 -134 -61 -137 0
-3 17 -6 38 -6 37 0 39 2 61 55 l23 56 110 -3 111 -3 20 -52 c19 -52 20 -53
62 -53 l43 0 -101 220 -101 220 -33 0 c-33 0 -35 -3 -72 -82z m94 -40 c9 -24
26 -64 36 -90 l19 -48 -79 0 -79 0 36 90 c20 49 40 90 43 90 4 0 15 -19 24
-42z"></path>
<path d="M3760 2379 c-67 -27 -104 -90 -104 -179 0 -133 94 -242 222 -257 63
-7 122 10 157 47 l29 30 -25 26 -26 25 -38 -25 c-107 -73 -245 17 -245 158 0
53 3 61 34 92 29 29 41 34 83 34 29 0 63 -8 85 -19 36 -20 36 -20 54 0 18 20
18 21 -1 36 -54 41 -163 56 -225 32z"></path>
<path d="M4070 2377 c0 -16 90 -420 94 -424 2 -2 75 -2 163 -1 l159 3 -8 33
-9 32 -123 0 -124 0 -15 62 c-9 34 -14 66 -11 70 3 4 47 8 99 8 l94 0 -10 30
-11 30 -98 0 -97 0 -6 29 c-3 16 -9 40 -13 55 l-6 26 106 0 c58 0 106 2 106 4
0 3 -4 16 -10 30 l-10 26 -135 0 c-105 0 -135 -3 -135 -13z"></path>
</g>
</svg>