<?xml version="1.0" encoding="UTF-8" standalone="no"?>
<!-- Created with Inkscape (http://www.inkscape.org/) -->

<svg
   version="1.1"
   id="svg1335"
   width="817.79321"
   height="613.27356"
   viewBox="0 0 817.79321 613.27356"
   xmlns="http://www.w3.org/2000/svg"
   xmlns:svg="http://www.w3.org/2000/svg">
  <defs
     id="defs1339" />
  <g
     id="layer3"
     style="display:none"
     transform="translate(6.866405e-4,206.00068)">
    <path
       style="display:inline;fill:#bda5a5;fill-opacity:1;stroke:#e702d8;stroke-width:0;stroke-miterlimit:4;stroke-dasharray:none;stroke-opacity:1"
       d="m 140.11174,501.38694 c -13.90563,-13.21893 -24.88468,-25.62073 -29.00601,-30.33481 h -10e-6 C 75.805057,430.67438 47.074039,378.82135 29.043819,322.94882 21.293302,298.93131 15.808658,274.24848 11.822947,245.44882 9.622252,229.5472 8.767926,184.47147 10.321001,166.2035 15.92279,100.31274 40.498723,31.71029 78.477267,-24.05118 c 21.40965,-31.43443 48.823533,-60.97012 78.896143,-85.00265 19.33362,-15.45046 50.71278,-35.32254 75.00507,-47.4999 33.47548,-16.78074 58.16012,-25.10494 95.99493,-32.37158 33.51842,-6.43763 45.73351,-7.62587 78.39385,-7.62587 84.79158,0 156.31186,21.78693 227.60615,69.33472 8.56371,5.71134 19.02286,12.79332 37.56371,29.960769 13.73396,10.47215 30.43997,28.372731 30.43997,28.372731 28.11528,26.20592 52.70157,67.20624 69.88788,105.01217 37.69657,82.92369 46.14299,176.23153 23.97207,264.81961 -23.17385,92.59545 -79.38805,175.25561 -155.66928,228.90387 -54.41418,38.26925 -116.30583,61.82813 -184.19435,70.11305 -12.90942,1.57543 -61.57456,2.80534 -73.5,1.85756 -68.54016,-5.44724 -129.43109,-24.47908 -182.21297,-56.95179 -12.94994,-7.96712 -38.41139,-26.00507 -38.41139,-26.00507"
       id="path7200" />
  </g>
  <g
     id="g11149"
     style="display:inline"
     transform="translate(6.866405e-4,2.00068)">
    <path
       style="display:inline;fill:#ffcc00;fill-opacity:1;stroke:#e702d8;stroke-width:0;stroke-miterlimit:4;stroke-dasharray:none;stroke-opacity:1"
       d="m 140.11174,501.38694 c -13.90563,-13.21893 -24.88468,-25.62073 -29.00601,-30.33481 h -10e-6 C 75.805057,430.67438 47.074039,378.82135 29.043819,322.94882 21.293302,298.93131 15.808658,274.24848 11.822947,245.44882 9.622252,229.5472 8.767926,184.47147 10.321001,166.2035 15.92279,100.31274 40.498723,31.71029 78.477267,-24.05118 c 21.40965,-31.43443 48.823533,-60.97012 78.896143,-85.00265 19.33362,-15.45046 50.71278,-35.32254 75.00507,-47.4999 33.47548,-16.78074 58.16012,-25.10494 95.99493,-32.37158 33.51842,-6.43763 45.73351,-7.62587 78.39385,-7.62587 84.79158,0 156.31186,21.78693 227.60615,69.33472 8.56371,5.71134 19.02286,12.79332 37.56371,29.960769 13.73396,10.47215 30.43997,28.372731 30.43997,28.372731 28.11528,26.20592 52.70157,67.20624 69.88788,105.01217 37.69657,82.92369 46.14299,176.23153 23.97207,264.81961 -23.17385,92.59545 -79.38805,175.25561 -155.66928,228.90387 -54.41418,38.26925 -116.30583,61.82813 -184.19435,70.11305 -12.90942,1.57543 -61.57456,2.80534 -73.5,1.85756 -68.54016,-5.44724 -129.43109,-24.47908 -182.21297,-56.95179 -12.94994,-7.96712 -38.41139,-26.00507 -38.41139,-26.00507"
       id="path11147" />
  </g>
  <g
     id="layer4"
     style="display:inline"
     transform="translate(6.866405e-4,2.00068)">
    <path
       style="display:inline;fill:#ff0000;fill-opacity:1;stroke:#e702d8;stroke-width:0;stroke-miterlimit:4;stroke-dasharray:none;stroke-opacity:1"
       d="M 19.904167,289.87945 C 16.669901,275.93409 14.018918,261.31631 11.822947,245.44882 9.622252,229.5472 8.767926,184.47147 10.321001,166.2035 15.92279,100.31274 40.498723,31.71029 78.477267,-24.05118 c 21.40965,-31.43443 48.823533,-60.97012 78.896143,-85.00265 19.33362,-15.45046 50.71278,-35.32254 75.00507,-47.4999 33.47548,-16.78074 58.16012,-25.10494 95.99493,-32.37158 33.51842,-6.43763 45.73351,-7.62587 78.39385,-7.62587 84.79158,0 156.31186,21.78693 227.60615,69.33472 8.56371,5.71134 19.02286,12.79332 37.56371,29.960769 13.73396,10.47215 30.43997,28.372731 30.43997,28.372731 28.11528,26.20592 52.70155,67.20625 69.88788,105.01217 36.26227,79.76857 45.4579,168.20789 26.36988,253.74979"
       id="path8966" />
  </g>
  <g
     id="layer2"
     style="display:inline"
     transform="translate(6.866405e-4,2.00068)">
    <path
       style="display:inline;fill:#000000;fill-opacity:1;stroke:#e702d8;stroke-width:0;stroke-miterlimit:4;stroke-dasharray:none;stroke-opacity:1"
       d="m 14.704386,132.95152 c 9.823791,-55.25147 32.15321,-110.57756 63.772881,-157.0027 21.40965,-31.43443 48.823533,-60.97012 78.896143,-85.00265 19.33362,-15.45046 50.71278,-35.32254 75.00507,-47.4999 33.47548,-16.78074 58.16012,-25.10494 95.99493,-32.37158 33.51842,-6.43763 45.73351,-7.62587 78.39385,-7.62587 84.79158,0 156.31186,21.78693 227.60615,69.33472 8.56371,5.71134 19.02286,12.79332 37.56371,29.960769 13.73396,10.47215 30.43997,28.372731 30.43997,28.372731 28.11528,26.20592 52.70155,67.20625 69.88788,105.01217 14.25706,31.36221 24.33019,63.30699 30.14542,96.82279"
       id="path9491" />
  </g>
  <g
     id="g11257"
     style="display:inline"
     transform="translate(6.866405e-4,2.00068)">
    <path
       style="display:inline;fill:#c0c0cc;fill-opacity:1;stroke:#e702d8;stroke-width:0;stroke-miterlimit:4;stroke-dasharray:none;stroke-opacity:1"
       d="M 140.11174,501.38694 C 402.87816,184.0551 530.44407,45.82737 686.23254,-84.96588 c 8.88349,8.30266 16.14455,15.4598 16.14455,15.4598 28.11528,26.20592 52.36767,65.15057 70.62291,105.01217 37.94757,82.8612 45.40796,176.85465 23.23704,265.44273 -23.17385,92.59545 -79.38805,175.25561 -155.66928,228.90387 -54.41418,38.26925 -116.30583,61.82813 -184.19435,70.11305 -12.90942,1.57543 -61.57456,2.80534 -73.5,1.85756 -68.54016,-5.44724 -129.43109,-24.47908 -182.21297,-56.95179 -12.94994,-7.96712 -38.41139,-26.00507 -38.41139,-26.00507"
       id="path11255" />
  </g>
  <g
     id="layer1"
     style="display:inline"
     transform="translate(6.866405e-4,2.00068)">
    <g
       id="g1266"
       style="display:inline;fill:#5cba1f;fill-opacity:1;stroke:#636363;stroke-opacity:1"
       transform="translate(-42.626593,-245.55118)">
      <path
         style="fill:#ffffff;fill-opacity:1;stroke:#ddc725;stroke-width:0;stroke-miterlimit:4;stroke-dasharray:none;stroke-opacity:1"
         d="m 218.21613,759.96658 c 6.20613,-2.07231 17.13387,-5.87102 24.28387,-8.44159 9.808,-3.52617 16.31477,-5.14559 26.5,-6.59538 13.00876,-1.85169 23.08585,-4.63643 27.69948,-7.65457 1.20971,-0.79137 2.68768,-2.91812 3.28437,-4.72612 0.95703,-2.89983 0.68034,-4.175 -2.34767,-10.81953 -1.34681,-4.74974 -6.39446,-7.09757 -0.35428,-7.98407 7.71948,-1.13298 13.60721,1.73898 32.14384,15.67937 C 355.24082,748.83879 374.27963,757 393.75458,757 c 10.90429,0 19.52726,-1.92942 28.41276,-6.35747 7.64725,-3.81097 8.69305,-6.04972 8.77622,-18.78719 0.0912,-13.96668 -5.04422,-27.37807 -15.14009,-39.53912 -5.50695,-6.63343 -14.91005,-14.14343 -21.58226,-17.23716 -5.59587,-2.59466 -6.05862,-3.43848 -3.71811,-6.78003 2.11384,-3.01793 7.74441,-4.60795 15.95793,-4.50638 8.7906,0.10871 16.81631,2.56267 35.00088,10.70198 15.92045,7.1259 29.67944,10.88961 46.03809,12.59352 25.75959,2.68311 47.34509,-2.31543 59.63279,-13.80913 L 552,668.72632 551.9852,657.61316 c -0.0216,-16.25551 -2.8876,-26.58997 -9.57952,-34.54286 -1.47944,-1.75822 -6.33845,-5.97187 -10.7978,-9.36367 -9.69511,-7.37416 -15.06959,-12.61042 -19.39293,-18.89419 -5.53907,-8.05076 -6.7607,-7.78428 32.62125,-7.11561 73.41537,1.24653 108.87876,-5.21781 126.75129,-23.1045 8.61978,-8.6266 10.83911,-14.72229 10.04589,-27.59233 -0.70262,-11.39999 -1.67057,-15.09021 -5.57167,-21.24162 -4.41131,-6.9559 -11.30406,-10.93337 -29.06173,-16.7701 -15.00612,-4.93233 -22.33319,-8.27498 -24.88892,-11.35444 -1.88598,-2.27246 1.94298,-8.83961 7.89875,-13.54738 9.601,-7.58915 23.4275,-12.78998 55.99988,-21.06434 33.03491,-8.39185 38.18622,-10.5966 49.51147,-21.19081 20.9746,-19.62071 25.42084,-43.08142 10.85301,-57.26611 -5.57514,-5.42851 -11.50503,-8.09691 -28.14836,-12.66656 -22.58754,-6.2017 -24.24947,-7.17727 -25.73732,-15.1082 -0.8181,-4.36087 1.66354,-10.3856 8.81931,-21.41083 4.79897,-7.394 10.26638,-12.57482 24.69218,-23.39786 12.09346,-9.0732 19.22555,-16.66294 23.14913,-24.63456 3.12359,-6.34626 3.34443,-7.4537 3.25597,-16.3276 -0.1339,-13.43174 -0.51958,-14.0661 -11.83041,-19.45852 -13.30981,-6.34543 -13.43995,-6.63041 -9.20874,-20.16596 5.68391,-18.18268 12.64334,-26.91522 7.09252,-39.22689 l -9.72549,-21.57106 c 0,0 -13.5378,-10.11856 -25.65389,-10.42691 -17.64214,-0.44898 -27.55621,1.02961 -34.22049,5.10365 -12.04,7.36036 -14.61708,8.67845 -18.12729,9.2715 -4.51819,0.76334 -7.11345,-1.10904 -11.19818,-8.07911 -2.71791,-4.63776 -11.38359,-11.10632 -16.13585,-12.04471 -4.28045,-0.84523 -14.32999,1.87344 -24.04734,6.50544 -7.05501,3.36294 -9.74227,5.48502 -20,15.79368 -12.3521,12.41344 -18.26544,16.30306 -26.95734,17.73177 -3.78938,0.62287 -4.32489,0.41856 -6.91617,-2.63866 -1.54481,-1.8226 -5.01612,-8.03881 -7.71402,-13.81381 -11.17418,-23.91893 -14.82584,-30.7905 -18.70366,-35.19594 -10.45421,-11.87661 -24.20717,-11.72312 -41.28128,0.4607 -3.50784,2.50315 -7.57323,6.28009 -9.03421,8.3932 -4.74781,6.8671 -11.82635,23.38 -14.28927,33.33416 -1.3236,5.34947 -6.17387,20.25216 -10.77838,33.11709 -4.60451,12.86493 -9.5774,28.56579 -11.05086,34.89079 -3.93253,16.88085 -8.35258,23.28906 -14.92568,21.63931 -4.42732,-1.11118 -8.82693,-5.81954 -19.93231,-21.3311 -15.59672,-21.78486 -22.24697,-28.02057 -32.91027,-30.85877 -15.95425,-4.24646 -24.48965,-0.29798 -36.54446,16.90552 C 318.90862,242.7746 315,258.2048 315,281.90722 c 0,15.97101 0.85246,23.69363 5.53513,50.144 2.52291,14.25077 4.42648,21.94488 7.02153,28.38049 5.44867,13.51248 8.69302,26.8328 8.78493,36.06829 0.0804,8.07385 -1.36744,14.44663 -3.72689,16.40481 -2.67104,2.21676 -10.96104,-3.51761 -23.64734,-16.35736 -7.11857,-7.20467 -14.31582,-13.50778 -17.24334,-15.10114 -9.2454,-5.03198 -25.59799,-4.31829 -38.37291,1.67475 -10.1655,4.76888 -15.22433,12.16447 -17.37136,25.39545 -2.66353,16.41393 2.00588,37.82611 17.33315,79.48349 5.9946,16.29247 6.07096,16.63206 6.07139,27 3.3e-4,7.84262 -0.49114,11.89196 -1.94192,16 -1.90406,5.39153 -2.01911,5.5 -5.83338,5.5 -4.27386,0 -3.96065,0.36068 -8.50457,-9.79348 -5.9153,-13.21875 -17.14959,-24.51786 -30.81094,-30.98871 C 206.3652,492.90981 204.458,492.5 197.3183,492.5 c -7.53561,0 -8.40557,0.21428 -11.01655,2.71343 -4.29757,4.11351 -9.03737,12.59216 -10.75941,19.24667 -1.97973,7.65032 -2.00806,25.36169 -0.0656,41.02023 2.11028,17.0113 2.74007,18.12965 23.61876,41.94085 8.05146,9.18233 12.5392,17.3615 14.43522,26.30901 2.83812,13.39341 1.3867,14.30673 -9.21371,5.79782 -6.82391,-5.47752 -10.7225,-7.17339 -14.04454,-6.10931 -2.7235,0.87236 -8.06489,9.43149 -11.02402,17.66511 -2.49206,6.93398 -2.66883,8.55406 -2.71868,24.91619 l -0.0533,17.5 -6.82525,20 c -3.75389,11 13.08711,43.43812 13.08711,43.43812 0,0 29.27167,15.10076 35.4778,13.02846 z"
         id="path1264" />
    </g>
  </g>
  <g
     id="g12362"
     style="display:none"
     transform="translate(6.866405e-4,206.00068)">
    <path
       id="path12360"
       style="display:inline;fill:none;fill-opacity:1;stroke:#ffffff;stroke-width:18.898;stroke-miterlimit:4;stroke-dasharray:none;stroke-opacity:1"
       d="m 406.76758,-196.55078 c -32.66034,0 -44.87611,1.18737 -78.39453,7.625 -37.83481,7.26664 -62.51866,15.59035 -95.99414,32.37109 -24.29229,12.17736 -55.67224,32.04954 -75.00586,47.5 -30.07261,24.03253 -57.486838,53.56948 -78.896488,85.00391 -37.978544,55.76147 -62.554461,124.36314 -68.15625,190.2539 -1.5530745,18.26797 -0.6987414,63.34448 1.501954,79.2461 3.985711,28.79966 9.470186,53.48249 17.220703,77.5 18.03022,55.87253 46.76184,107.72576 82.062501,148.10351 4.12133,4.71408 15.10023,17.11506 29.00586,30.33399 0,0 -16.83983,-32.4375 -13.08594,-43.4375 l 6.82422,-20 0.0527,-17.5 c 0.0498,-16.36213 0.22669,-17.98204 2.71875,-24.91602 2.95913,-8.23362 8.30189,-16.79365 11.02539,-17.66601 3.32204,-1.06408 7.21906,0.63185 14.04297,6.10937 10.60041,8.50891 12.05297,7.59654 9.21485,-5.79687 -1.89602,-8.94751 -6.38409,-17.12822 -14.43555,-26.31055 -20.87869,-23.8112 -21.50886,-24.92815 -23.61914,-41.93945 -1.94246,-15.65854 -1.91332,-33.37117 0.0664,-41.02149 1.72204,-6.65451 6.46219,-15.13258 10.75976,-19.24609 2.61098,-2.49915 3.48002,-2.71289 11.01563,-2.71289 7.1397,0 9.04633,0.4088 14.97461,3.2168 13.66135,6.47085 24.8972,17.77148 30.8125,30.99023 4.54392,10.15416 4.23004,9.79297 8.5039,9.79297 3.81427,0 3.92993,-0.10847 5.83399,-5.5 1.45078,-4.10804 1.94173,-8.15738 1.9414,-16 -4.3e-4,-10.36794 -0.0777,-10.70753 -6.07226,-27 -15.32727,-41.65738 -19.99556,-63.07045 -17.33203,-79.48438 2.14703,-13.23098 7.20559,-20.62565 17.37109,-25.39453 12.77492,-5.99304 29.12765,-6.70776 38.37305,-1.67578 2.92752,1.59336 10.12361,7.89689 17.24218,15.10156 12.6863,12.83975 20.9774,18.57419 23.64844,16.35743 2.35945,-1.95818 3.80696,-8.33045 3.72656,-16.4043 -0.0919,-9.23549 -3.33648,-22.55588 -8.78515,-36.06836 -2.59505,-6.43561 -4.49858,-14.13009 -7.02149,-28.38086 -4.68267,-26.45037 -5.53515,-34.17352 -5.53515,-50.14453 0,-23.70242 3.90911,-39.13114 13.3125,-52.55078 12.05481,-17.2035 20.59067,-21.15271 36.54492,-16.90625 10.6633,2.8382 17.31343,9.07451 32.91015,30.85937 11.10539,15.51156 15.50433,20.2189 19.93165,21.33008 6.5731,1.64975 10.99325,-4.75782 14.92578,-21.63867 1.47346,-6.325 6.44627,-22.0257 11.05078,-34.89063 4.60451,-12.86493 9.4557,-27.76771 10.77929,-33.11718 2.46292,-9.95416 9.54126,-26.46689 14.28907,-33.33399 1.46098,-2.11311 5.52536,-5.89138 9.0332,-8.39453 17.07411,-12.18382 30.82704,-12.33755 41.28125,-0.46094 3.87782,4.40544 7.5309,11.27834 18.70508,35.19727 2.6979,5.775 6.16808,11.9899 7.71289,13.8125 2.59128,3.05722 3.12663,3.26154 6.91601,2.63867 8.6919,-1.42871 14.60494,-5.31703 26.95704,-17.73047 10.25773,-10.30866 12.94499,-12.43198 20,-15.79492 9.71735,-4.632 19.76837,-7.34914 24.04882,-6.50391 4.75226,0.93839 13.41686,7.40717 16.13477,12.04493 4.08473,6.97007 6.68103,8.84146 11.19922,8.07812 3.51021,-0.59305 6.08695,-1.91112 18.12695,-9.27148 6.66428,-4.07404 16.57856,-5.5525 34.2207,-5.10352 12.11609,0.30835 25.65235,10.42774 25.65235,10.42774 l 9.72656,21.57031 c 5.55082,12.31167 -1.40789,21.04388 -7.0918,39.22656 -4.23121,13.53555 -4.10277,13.82059 9.20704,20.16602 11.31083,5.39242 11.69813,6.02724 11.83203,19.45898 0.0885,8.8739 -0.13227,9.98187 -3.25586,16.32813 -3.92358,7.97162 -11.05693,15.55961 -23.15039,24.63281 -14.4258,10.82304 -19.89244,16.00443 -24.69141,23.39843 -7.15577,11.02523 -9.63841,17.05124 -8.82031,21.41211 1.48785,7.93093 3.15074,8.90573 25.73828,15.10743 16.64333,4.56965 22.5733,7.2375 28.14844,12.66601 14.56783,14.18469 10.12108,37.64492 -10.85352,57.26563 -11.32525,10.59421 -16.47681,12.79955 -49.51172,21.1914 -32.57238,8.27436 -46.399,13.47531 -56,21.06446 -5.95577,4.70777 -9.78442,11.27441 -7.89843,13.54687 2.55572,3.07946 9.88255,6.42314 24.88867,11.35547 17.75767,5.83673 24.65119,9.81363 29.0625,16.76953 3.9011,6.15141 4.86769,9.8422 5.57031,21.24219 0.79322,12.87004 -1.42514,18.9652 -10.04492,27.5918 -17.87253,17.88669 -53.33659,24.35199 -126.75196,23.10546 -39.38195,-0.66867 -38.16016,-0.93552 -32.62109,7.11524 4.32334,6.28377 9.69747,11.52037 19.39258,18.89453 4.45935,3.3918 9.31939,7.60506 10.79883,9.36328 6.69192,7.95289 9.55847,18.28746 9.58008,34.54297 l 0.0137,11.11328 -4.86719,4.55274 c -12.2877,11.4937 -33.87322,16.4917 -59.63281,13.80859 -16.35865,-1.70391 -30.11666,-5.46785 -46.03711,-12.59375 -18.18457,-8.13931 -26.21136,-10.59246 -35.00196,-10.70117 -8.21352,-0.10157 -13.84319,1.48793 -15.95703,4.50586 -2.34051,3.34155 -1.87907,4.18463 3.7168,6.77929 6.67221,3.09373 16.07703,10.60486 21.58398,17.23828 10.09587,12.16106 15.22988,25.57239 15.13868,39.53907 -0.0832,12.73747 -1.12814,14.97614 -8.77539,18.78711 -8.8855,4.42805 -17.50782,6.35742 -28.41211,6.35742 -19.47495,0 -38.515,-8.16207 -64.33008,-27.57617 -18.53663,-13.94039 -24.4231,-16.81267 -32.14258,-15.67969 -6.04018,0.8865 -0.99329,3.23463 0.35352,7.98437 3.02801,6.64453 3.30468,7.92049 2.34765,10.82032 -0.59669,1.808 -2.07544,3.93519 -3.28515,4.72656 -4.61363,3.01814 -14.69046,5.80261 -27.69922,7.6543 -10.18523,1.44979 -16.692,3.06953 -26.5,6.5957 -7.15,2.57057 -18.07708,6.3691 -24.28321,8.44141 -6.20613,2.0723 -35.47851,-13.0293 -35.47851,-13.0293 L 162.25,518.86719 c 0,0 25.46022,18.03678 38.41016,26.0039 52.78188,32.47271 113.67273,51.50589 182.21289,56.95313 11.92544,0.94778 60.59058,-0.28395 73.5,-1.85938 67.88852,-8.28492 129.78113,-31.84207 184.19531,-70.11132 76.28123,-53.64826 132.49412,-136.30885 155.66797,-228.9043 22.17092,-88.58808 13.72586,-181.89662 -23.97071,-264.82031 -17.1863,-37.80593 -41.77339,-78.8058 -69.88867,-105.01172 0,0 -16.70549,-17.9009 -30.43945,-28.37305 -18.54085,-17.16745 -29.00074,-24.2496 -37.56445,-29.96094 -71.29429,-47.54779 -142.81389,-69.33398 -227.60547,-69.33398 z" />
  </g>
  <g
     id="layer5"
     style="display:inline"
     transform="translate(6.866405e-4,2.00068)">
    <path
       style="display:inline;fill:none;fill-opacity:1;stroke:#ffffff;stroke-width:18.899;stroke-miterlimit:4;stroke-dasharray:none;stroke-opacity:1"
       d="m 111.10573,471.05213 h -10e-6 C 75.805057,430.67438 47.074039,378.82135 29.043819,322.94882 21.293302,298.93131 15.808658,274.24848 11.822947,245.44882 9.622252,229.5472 8.767926,184.47147 10.321001,166.2035 15.92279,100.31274 40.498723,31.71029 78.477267,-24.05118 c 21.40965,-31.43443 48.823533,-60.97012 78.896143,-85.00265 19.33362,-15.45046 50.71278,-35.32254 75.00507,-47.4999 33.47548,-16.78074 58.16012,-25.10494 95.99493,-32.37158 33.51842,-6.43763 45.73351,-7.62587 78.39385,-7.62587 84.79158,0 156.31186,21.78693 227.60615,69.33472 8.56371,5.71134 19.02286,12.79332 37.56371,29.960769 13.73396,10.47215 30.43997,28.372731 30.43997,28.372731 28.11528,26.20592 52.70157,67.20624 69.88788,105.01217 37.69657,82.92369 46.14299,176.23153 23.97207,264.81961 -23.17385,92.59545 -79.38805,175.25561 -155.66928,228.90387 -54.41418,38.26925 -116.30583,61.82813 -184.19435,70.11305 -12.90942,1.57543 -61.57456,2.80534 -73.5,1.85756 -68.54016,-5.44724 -129.43109,-24.47908 -182.21297,-56.95179 -12.94994,-7.96712 -49.48005,-34.74482 -49.48005,-34.74482 -24.97428,-21.95868 -35.95333,-34.36048 -40.07466,-39.07456 z"
       id="path854" />
  </g>
</svg>
