
<svg version="1.1" id="Layer_1" xmlns="http://www.w3.org/2000/svg" xmlns:xlink="http://www.w3.org/1999/xlink" x="0px" y="0px"
	 width="100%" viewBox="0 0 512 512" enable-background="new 0 0 512 512" xml:space="preserve">
<path fill="#000000" opacity="1.000000" stroke="none" 
	d="
M338.000000,513.000000 
	C225.360703,513.000000 113.221397,513.000000 1.041047,513.000000 
	C1.041047,342.402344 1.041047,171.804672 1.041047,1.103501 
	C171.555969,1.103501 342.112030,1.103501 512.834045,1.103501 
	C512.834045,171.666534 512.834045,342.333252 512.834045,513.000000 
	C454.804657,513.000000 396.652313,513.000000 338.000000,513.000000 
M258.581757,301.966766 
	C259.248688,302.010651 259.915588,302.054535 260.749329,302.928406 
	C260.356140,305.878998 261.572235,307.150482 264.593323,306.831512 
	C266.036987,306.679077 267.516998,306.871033 269.260101,307.361816 
	C269.866180,307.010376 270.472260,306.658936 271.597870,305.888916 
	C272.779602,303.497986 274.619690,301.204315 274.990753,298.693573 
	C275.565460,294.804779 275.224701,290.765411 275.113739,286.794312 
	C274.964447,281.450531 272.505493,279.033173 267.083466,278.846985 
	C265.107635,278.779053 263.122070,278.993042 260.280609,279.008911 
	C259.420135,279.065887 258.559692,279.122894 256.886414,278.977142 
	C254.020782,278.298035 253.029892,279.512085 253.102020,282.342377 
	C253.232254,287.451965 253.121445,292.567383 253.140060,297.680237 
	C253.148727,300.060211 253.256836,302.308716 249.999130,302.903717 
	C249.202530,303.049225 248.682648,304.709778 248.035538,305.673767 
	C249.117020,306.168884 250.628159,307.380188 251.204941,307.034149 
	C253.594284,305.600677 255.701157,303.696350 258.581757,301.966766 
M279.790558,239.489212 
	C289.829803,246.450638 306.562775,247.396698 315.834351,241.351471 
	C315.220001,238.270096 314.585297,235.086670 313.909760,231.698380 
	C303.147339,234.130493 292.605408,237.832581 283.755219,227.571777 
	C286.948669,223.335693 289.885437,219.327362 292.941132,215.411835 
	C298.200378,208.672745 301.515625,201.212921 301.891571,192.560806 
	C302.335083,182.354294 298.719299,173.955948 289.563477,169.231506 
	C279.432587,164.003906 268.752716,164.100723 259.166687,170.651794 
	C250.475677,176.591217 247.981079,185.556412 249.572815,195.767502 
	C251.314590,206.941299 257.623138,215.747681 264.680267,224.010773 
	C267.498291,227.310349 266.605713,229.059433 263.684723,231.150894 
	C258.183777,235.089600 252.086227,234.744247 245.914688,233.725616 
	C243.026245,233.248840 240.186722,232.475693 237.257065,231.821701 
	C236.851151,233.345734 236.485703,234.454468 236.264496,235.591278 
	C234.896271,242.623520 234.901138,242.653717 241.762787,244.102921 
	C254.271332,246.744766 265.978668,245.849243 275.404694,235.851410 
	C276.910004,237.113647 278.051392,238.070709 279.790558,239.489212 
M114.862534,214.579285 
	C114.862534,211.503494 114.862534,208.427704 114.862534,205.022079 
	C111.702026,205.022079 109.390236,205.064163 107.080399,205.014572 
	C98.371490,204.827591 92.932198,201.214584 90.062531,192.977020 
	C85.939445,181.141418 85.780602,169.079590 89.876213,157.232986 
	C93.013138,148.159409 99.902512,144.093262 109.702538,144.613251 
	C118.379265,145.073639 123.882744,149.850266 126.418900,159.080811 
	C126.631035,159.852890 127.033890,160.572571 127.252968,161.091263 
	C131.460114,161.091263 135.374313,161.091263 139.501511,161.091263 
	C139.501511,160.096024 139.575958,159.445190 139.490509,158.816101 
	C137.856613,146.788086 129.661697,137.595581 117.960938,134.639038 
	C103.471298,130.977814 89.090919,135.462280 81.564583,145.904434 
	C74.893044,155.160629 73.436890,165.674500 73.614334,176.730499 
	C73.957787,198.129852 81.050034,208.573090 101.276367,216.186737 
	C101.276367,225.136322 101.276367,234.345322 101.276367,243.422058 
	C106.157295,243.422058 110.383728,243.422058 114.862518,243.422058 
	C114.862518,233.845413 114.862518,224.700577 114.862534,214.579285 
M385.152893,140.703629 
	C379.321411,145.466644 375.237427,151.146393 374.876038,159.458298 
	C378.636444,159.458298 381.804199,159.664398 384.918488,159.346619 
	C386.009796,159.235275 387.466034,158.045547 387.911041,156.991638 
	C391.463379,148.579010 397.280518,144.641327 406.463715,144.734161 
	C415.536346,144.825897 421.904022,148.924927 424.733459,157.487396 
	C428.371399,168.496674 428.406952,179.811935 425.136597,190.898193 
	C422.294067,200.533981 415.910950,204.858246 405.805817,205.015976 
	C403.363464,205.054108 400.919952,205.021652 398.307617,205.021652 
	C398.307617,218.183685 398.307617,230.746582 398.307617,243.532776 
	C402.984955,243.532776 407.366119,243.532776 412.149872,243.532776 
	C412.149872,235.416336 412.269226,227.615417 412.089294,219.821442 
	C412.020325,216.833054 412.824554,215.455276 415.958740,214.753998 
	C427.190735,212.240814 434.092560,204.764435 437.963745,194.275742 
	C441.696228,184.162796 441.763092,173.697021 440.017914,163.245728 
	C435.502716,136.205994 408.393463,124.795982 385.152893,140.703629 
M191.591599,196.521866 
	C194.937912,204.396729 201.536514,207.563278 210.218613,205.460693 
	C217.461624,203.706635 221.223648,197.737839 220.584167,189.014877 
	C219.930603,180.100189 214.020065,174.816162 205.074829,175.149551 
	C196.249237,175.478485 191.091507,180.804718 190.993637,189.785370 
	C190.972031,191.767090 191.203629,193.751541 191.591599,196.521866 
M356.102509,201.572067 
	C360.481354,196.268005 360.492462,190.204453 358.646149,184.108459 
	C356.836029,178.131866 351.101410,174.854507 344.065918,175.152786 
	C336.970337,175.453629 332.009277,179.185913 330.419128,185.419418 
	C328.539154,192.789078 330.619995,199.992294 335.633301,203.468903 
	C341.212097,207.337677 349.329376,206.781921 356.102509,201.572067 
M208.335541,298.638916 
	C208.618271,300.280609 208.619446,302.045990 209.269928,303.526062 
	C209.822250,304.782776 211.123932,305.710175 212.094055,306.783264 
	C213.027451,305.673553 214.288528,304.698761 214.814575,303.421265 
	C215.536331,301.668579 215.700775,299.686371 216.104050,297.802551 
	C217.632797,300.165314 217.857544,302.479675 218.613846,304.604858 
	C218.943848,305.532196 220.302979,306.502167 221.307724,306.642242 
	C222.022766,306.741913 223.514816,305.594299 223.655945,304.820251 
	C225.197021,296.367676 226.540054,287.878967 227.923645,279.480865 
	C220.840942,276.993774 222.615707,283.007690 221.411957,285.747711 
	C219.590530,283.231262 217.993698,281.025116 216.396866,278.818970 
	C214.782700,281.027649 213.168549,283.236328 211.590256,285.395935 
	C208.611633,278.743927 208.611633,278.743927 204.966812,279.669220 
	C206.028381,285.702301 207.094009,291.758362 208.335541,298.638916 
M245.246002,288.798157 
	C245.245346,288.135284 245.268127,287.471436 245.240341,286.809692 
	C245.019806,281.556763 242.388275,278.524628 238.043900,278.503632 
	C233.687332,278.482574 230.870941,281.604340 230.782089,286.742279 
	C230.704712,291.215149 230.635544,295.696411 230.822098,300.163177 
	C231.001495,304.458160 233.522278,306.848755 237.760971,307.142700 
	C241.824738,307.424469 244.961823,304.478119 245.191589,300.159119 
	C245.376221,296.688629 245.239960,293.201050 245.246002,288.798157 
M287.544617,278.928833 
	C280.950012,278.111511 277.959381,280.476257 277.823792,286.770935 
	C277.730743,291.089966 277.700226,295.416168 277.839752,299.732758 
	C277.985260,304.235382 280.811127,307.093567 284.888885,307.175262 
	C289.171417,307.261139 292.120453,304.311646 292.256165,299.549286 
	C292.379181,295.231689 292.762268,290.834076 292.110229,286.613983 
	C291.706787,284.002747 289.583618,281.657227 287.544617,278.928833 
M304.283142,304.676727 
	C304.283142,297.733704 304.283142,290.790680 304.283142,285.177979 
	C306.483246,283.217865 307.744781,282.093933 309.006348,280.970032 
	C307.293823,280.251343 305.637939,279.230591 303.853394,278.895752 
	C301.928070,278.534515 299.835876,278.560577 297.907013,278.913116 
	C296.787964,279.117584 295.847107,280.296783 294.826080,281.037384 
	C295.808594,281.790009 296.770294,282.572418 297.784271,283.279999 
	C298.166168,283.546509 298.669037,283.639740 299.527008,283.969757 
	C299.527008,290.337402 299.539032,296.789856 299.522614,303.242218 
	C299.512238,307.305878 301.009399,308.148895 304.283142,304.676727 
z"/>
<path fill="#F7F7F7" opacity="1.000000" stroke="none" 
	d="
M279.491669,239.258484 
	C278.051392,238.070709 276.910004,237.113647 275.404694,235.851410 
	C265.978668,245.849243 254.271332,246.744766 241.762787,244.102921 
	C234.901138,242.653717 234.896271,242.623520 236.264496,235.591278 
	C236.485703,234.454468 236.851151,233.345734 237.257065,231.821701 
	C240.186722,232.475693 243.026245,233.248840 245.914688,233.725616 
	C252.086227,234.744247 258.183777,235.089600 263.684723,231.150894 
	C266.605713,229.059433 267.498291,227.310349 264.680267,224.010773 
	C257.623138,215.747681 251.314590,206.941299 249.572815,195.767502 
	C247.981079,185.556412 250.475677,176.591217 259.166687,170.651794 
	C268.752716,164.100723 279.432587,164.003906 289.563477,169.231506 
	C298.719299,173.955948 302.335083,182.354294 301.891571,192.560806 
	C301.515625,201.212921 298.200378,208.672745 292.941132,215.411835 
	C289.885437,219.327362 286.948669,223.335693 283.755219,227.571777 
	C292.605408,237.832581 303.147339,234.130493 313.909760,231.698380 
	C314.585297,235.086670 315.220001,238.270096 315.834351,241.351471 
	C306.562775,247.396698 289.829803,246.450638 279.491669,239.258484 
z"/>
<path fill="#F3F3F3" opacity="1.000000" stroke="none" 
	d="
M114.862526,215.067505 
	C114.862518,224.700577 114.862518,233.845413 114.862518,243.422058 
	C110.383728,243.422058 106.157295,243.422058 101.276367,243.422058 
	C101.276367,234.345322 101.276367,225.136322 101.276367,216.186737 
	C81.050034,208.573090 73.957787,198.129852 73.614334,176.730499 
	C73.436890,165.674500 74.893044,155.160629 81.564583,145.904434 
	C89.090919,135.462280 103.471298,130.977814 117.960938,134.639038 
	C129.661697,137.595581 137.856613,146.788086 139.490509,158.816101 
	C139.575958,159.445190 139.501511,160.096024 139.501511,161.091263 
	C135.374313,161.091263 131.460114,161.091263 127.252968,161.091263 
	C127.033890,160.572571 126.631035,159.852890 126.418900,159.080811 
	C123.882744,149.850266 118.379265,145.073639 109.702538,144.613251 
	C99.902512,144.093262 93.013138,148.159409 89.876213,157.232986 
	C85.780602,169.079590 85.939445,181.141418 90.062531,192.977020 
	C92.932198,201.214584 98.371490,204.827591 107.080399,205.014572 
	C109.390236,205.064163 111.702026,205.022079 114.862534,205.022079 
	C114.862534,208.427704 114.862534,211.503494 114.862526,215.067505 
z"/>
<path fill="#F3F3F3" opacity="1.000000" stroke="none" 
	d="
M385.432037,140.484863 
	C408.393463,124.795982 435.502716,136.205994 440.017914,163.245728 
	C441.763092,173.697021 441.696228,184.162796 437.963745,194.275742 
	C434.092560,204.764435 427.190735,212.240814 415.958740,214.753998 
	C412.824554,215.455276 412.020325,216.833054 412.089294,219.821442 
	C412.269226,227.615417 412.149872,235.416336 412.149872,243.532776 
	C407.366119,243.532776 402.984955,243.532776 398.307617,243.532776 
	C398.307617,230.746582 398.307617,218.183685 398.307617,205.021652 
	C400.919952,205.021652 403.363464,205.054108 405.805817,205.015976 
	C415.910950,204.858246 422.294067,200.533981 425.136597,190.898193 
	C428.406952,179.811935 428.371399,168.496674 424.733459,157.487396 
	C421.904022,148.924927 415.536346,144.825897 406.463715,144.734161 
	C397.280518,144.641327 391.463379,148.579010 387.911041,156.991638 
	C387.466034,158.045547 386.009796,159.235275 384.918488,159.346619 
	C381.804199,159.664398 378.636444,159.458298 374.876038,159.458298 
	C375.237427,151.146393 379.321411,145.466644 385.432037,140.484863 
z"/>
<path fill="#F6F6F6" opacity="1.000000" stroke="none" 
	d="
M191.455124,196.128296 
	C191.203629,193.751541 190.972031,191.767090 190.993637,189.785370 
	C191.091507,180.804718 196.249237,175.478485 205.074829,175.149551 
	C214.020065,174.816162 219.930603,180.100189 220.584167,189.014877 
	C221.223648,197.737839 217.461624,203.706635 210.218613,205.460693 
	C201.536514,207.563278 194.937912,204.396729 191.455124,196.128296 
z"/>
<path fill="#F6F6F6" opacity="1.000000" stroke="none" 
	d="
M355.853882,201.836777 
	C349.329376,206.781921 341.212097,207.337677 335.633301,203.468903 
	C330.619995,199.992294 328.539154,192.789078 330.419128,185.419418 
	C332.009277,179.185913 336.970337,175.453629 344.065918,175.152786 
	C351.101410,174.854507 356.836029,178.131866 358.646149,184.108459 
	C360.492462,190.204453 360.481354,196.268005 355.853882,201.836777 
z"/>
<path fill="#E4E4E4" opacity="1.000000" stroke="none" 
	d="
M208.247589,298.226685 
	C207.094009,291.758362 206.028381,285.702301 204.966812,279.669220 
	C208.611633,278.743927 208.611633,278.743927 211.590256,285.395935 
	C213.168549,283.236328 214.782700,281.027649 216.396866,278.818970 
	C217.993698,281.025116 219.590530,283.231262 221.411957,285.747711 
	C222.615707,283.007690 220.840942,276.993774 227.923645,279.480865 
	C226.540054,287.878967 225.197021,296.367676 223.655945,304.820251 
	C223.514816,305.594299 222.022766,306.741913 221.307724,306.642242 
	C220.302979,306.502167 218.943848,305.532196 218.613846,304.604858 
	C217.857544,302.479675 217.632797,300.165314 216.104050,297.802551 
	C215.700775,299.686371 215.536331,301.668579 214.814575,303.421265 
	C214.288528,304.698761 213.027451,305.673553 212.094055,306.783264 
	C211.123932,305.710175 209.822250,304.782776 209.269928,303.526062 
	C208.619446,302.045990 208.618271,300.280609 208.247589,298.226685 
z"/>
<path fill="#E0E0E0" opacity="1.000000" stroke="none" 
	d="
M245.246063,289.259613 
	C245.239960,293.201050 245.376221,296.688629 245.191589,300.159119 
	C244.961823,304.478119 241.824738,307.424469 237.760971,307.142700 
	C233.522278,306.848755 231.001495,304.458160 230.822098,300.163177 
	C230.635544,295.696411 230.704712,291.215149 230.782089,286.742279 
	C230.870941,281.604340 233.687332,278.482574 238.043900,278.503632 
	C242.388275,278.524628 245.019806,281.556763 245.240341,286.809692 
	C245.268127,287.471436 245.245346,288.135284 245.246063,289.259613 
M235.343948,288.878387 
	C235.352325,292.348785 235.164780,295.837311 235.483032,299.279053 
	C235.584549,300.376862 237.028519,301.350525 237.858246,302.380981 
	C238.683014,301.347900 240.132874,300.364288 240.219208,299.272797 
	C240.518005,295.494995 240.567947,291.660217 240.242508,287.887665 
	C240.100922,286.246216 238.817429,284.703247 238.052551,283.115570 
	C237.150269,284.737579 236.247986,286.359589 235.343948,288.878387 
z"/>
<path fill="#E1E1E1" opacity="1.000000" stroke="none" 
	d="
M287.888550,279.060638 
	C289.583618,281.657227 291.706787,284.002747 292.110229,286.613983 
	C292.762268,290.834076 292.379181,295.231689 292.256165,299.549286 
	C292.120453,304.311646 289.171417,307.261139 284.888885,307.175262 
	C280.811127,307.093567 277.985260,304.235382 277.839752,299.732758 
	C277.700226,295.416168 277.730743,291.089966 277.823792,286.770935 
	C277.959381,280.476257 280.950012,278.111511 287.888550,279.060638 
M286.837463,284.078064 
	C283.794769,281.886047 282.574554,283.520538 282.444305,286.415863 
	C282.257660,290.564484 282.196167,294.741913 282.504517,298.875488 
	C282.596954,300.114716 284.101440,301.248627 284.958984,302.430786 
	C285.784149,301.218231 287.260620,300.035736 287.318298,298.787689 
	C287.532410,294.151947 287.279602,289.494629 286.837463,284.078064 
z"/>
<path fill="#E6E6E6" opacity="1.000000" stroke="none" 
	d="
M261.140961,279.078461 
	C263.122070,278.993042 265.107635,278.779053 267.083466,278.846985 
	C272.505493,279.033173 274.964447,281.450531 275.113739,286.794312 
	C275.224701,290.765411 275.565460,294.804779 274.990753,298.693573 
	C274.619690,301.204315 272.779602,303.497986 271.054260,306.048645 
	C270.000610,306.441254 269.490601,306.674133 268.980560,306.907043 
	C267.516998,306.871033 266.036987,306.679077 264.593323,306.831512 
	C261.572235,307.150482 260.356140,305.878998 260.830566,302.063843 
	C260.988190,293.825684 261.064575,286.452057 261.140961,279.078461 
M265.314178,288.823669 
	C265.314178,293.231873 265.314178,297.640076 265.314178,302.042542 
	C268.938538,302.946594 270.668121,302.016754 270.667908,298.652527 
	C270.667694,294.856873 270.672516,291.061218 270.665771,287.265564 
	C270.660065,284.046173 269.066193,282.870361 265.585144,283.543549 
	C265.491699,285.055939 265.403076,286.490051 265.314178,288.823669 
z"/>
<path fill="#E5E5E5" opacity="1.000000" stroke="none" 
	d="
M304.245850,305.086151 
	C301.009399,308.148895 299.512238,307.305878 299.522614,303.242218 
	C299.539032,296.789856 299.527008,290.337402 299.527008,283.969757 
	C298.669037,283.639740 298.166168,283.546509 297.784271,283.279999 
	C296.770294,282.572418 295.808594,281.790009 294.826080,281.037384 
	C295.847107,280.296783 296.787964,279.117584 297.907013,278.913116 
	C299.835876,278.560577 301.928070,278.534515 303.853394,278.895752 
	C305.637939,279.230591 307.293823,280.251343 309.006348,280.970032 
	C307.744781,282.093933 306.483246,283.217865 304.283142,285.177979 
	C304.283142,290.790680 304.283142,297.733704 304.245850,305.086151 
z"/>
<path fill="#D5D5D5" opacity="1.000000" stroke="none" 
	d="
M257.911743,301.964905 
	C255.701157,303.696350 253.594284,305.600677 251.204941,307.034149 
	C250.628159,307.380188 249.117020,306.168884 248.035538,305.673767 
	C248.682648,304.709778 249.202530,303.049225 249.999130,302.903717 
	C253.256836,302.308716 253.148727,300.060211 253.140060,297.680237 
	C253.121445,292.567383 253.232254,287.451965 253.102020,282.342377 
	C253.029892,279.512085 254.020782,278.298035 257.300903,279.535339 
	C257.780853,287.384003 257.846283,294.674469 257.911743,301.964905 
z"/>
<path fill="#303030" opacity="1.000000" stroke="none" 
	d="
M258.246765,301.965820 
	C257.846283,294.674469 257.780853,287.384003 257.707336,279.636719 
	C258.559692,279.122894 259.420135,279.065887 260.710785,279.043701 
	C261.064575,286.452057 260.988190,293.825684 260.747131,301.648834 
	C259.915588,302.054535 259.248688,302.010651 258.246765,301.965820 
z"/>
<path fill="#303030" opacity="1.000000" stroke="none" 
	d="
M269.120331,307.134430 
	C269.490601,306.674133 270.000610,306.441254 270.794495,306.257935 
	C270.472260,306.658936 269.866180,307.010376 269.120331,307.134430 
z"/>
<path fill="#202020" opacity="1.000000" stroke="none" 
	d="
M235.344818,288.429993 
	C236.247986,286.359589 237.150269,284.737579 238.052551,283.115570 
	C238.817429,284.703247 240.100922,286.246216 240.242508,287.887665 
	C240.567947,291.660217 240.518005,295.494995 240.219208,299.272797 
	C240.132874,300.364288 238.683014,301.347900 237.858246,302.380981 
	C237.028519,301.350525 235.584549,300.376862 235.483032,299.279053 
	C235.164780,295.837311 235.352325,292.348785 235.344818,288.429993 
z"/>
<path fill="#202020" opacity="1.000000" stroke="none" 
	d="
M287.019806,284.461731 
	C287.279602,289.494629 287.532410,294.151947 287.318298,298.787689 
	C287.260620,300.035736 285.784149,301.218231 284.958984,302.430786 
	C284.101440,301.248627 282.596954,300.114716 282.504517,298.875488 
	C282.196167,294.741913 282.257660,290.564484 282.444305,286.415863 
	C282.574554,283.520538 283.794769,281.886047 287.019806,284.461731 
z"/>
<path fill="#2E2E2E" opacity="1.000000" stroke="none" 
	d="
M265.314331,288.373901 
	C265.403076,286.490051 265.491699,285.055939 265.585144,283.543549 
	C269.066193,282.870361 270.660065,284.046173 270.665771,287.265564 
	C270.672516,291.061218 270.667694,294.856873 270.667908,298.652527 
	C270.668121,302.016754 268.938538,302.946594 265.314178,302.042542 
	C265.314178,297.640076 265.314178,293.231873 265.314331,288.373901 
z"/>
</svg>