<svg id="Layer_1" data-name="Layer 1" xmlns="http://www.w3.org/2000/svg" viewBox="0 0 372.78 498.62"><defs><style>.cls-2{fill:#e6007a;}</style></defs><path class="dark" d="M260.4,6.38C156.25,6.8,71.92,91.12,71.51,195.27a193.86,193.86,0,0,0,10,61.36,27,27,0,0,0,33.23,16.55,26.88,26.88,0,0,0,16-33.11,124.53,124.53,0,0,1-7.35-48.15A136.26,136.26,0,1,1,267.87,332s-26.51,1.61-39.7,3.23a134.73,134.73,0,0,0-14.45,2.87,1.75,1.75,0,0,1-2.47,0l0,0a1.77,1.77,0,0,1,0-2.12l4.11-22.39,24.9-112a25.89,25.89,0,0,0-50.64-10.84s-59.23,274.13-59.23,276.63a24.9,24.9,0,0,0,18,30.26,3.48,3.48,0,0,0,.44.1h1.38a24.89,24.89,0,0,0,30.32-17.87,6.77,6.77,0,0,0,.16-.68,6.42,6.42,0,0,1,0-1.24c.73-3.22,8.2-39.7,8.2-39.7a67.19,67.19,0,0,1,55.62-52.89c5.72-.88,29.75-2.49,29.75-2.49C378,372.57,453.7,280.08,443.34,176.33A188.78,188.78,0,0,0,260.4,6.38Z" transform="translate(-71.51 -6.38)"/><path class="cls-2" d="M271.85,441.92a31.47,31.47,0,0,0-37.23,24.4c0,.16-.06.32-.1.48a31.36,31.36,0,0,0,24,37.31.07.07,0,0,1,.06,0h.87a30.86,30.86,0,0,0,37.24-22.75c0-.12.06-.26.1-.38v-1.73A32.64,32.64,0,0,0,271.85,441.92Z" transform="translate(-71.51 -6.38)"/></svg>