<svg id="Layer_1" data-name="Layer 1" xmlns="http://www.w3.org/2000/svg" viewBox="0 0 512 512"><defs><style>.mtaspn-1{fill:#fff;}.mtaspn-2,.mtaspn-3{fill:none;stroke:#010101;}.mtaspn-2{stroke-width:26px;}.mtaspn-3{stroke-width:18px;}</style></defs><rect class="mtaspn-1" width="512" height="512"/><path class="mtaspn-2" d="M251.47,64.72c-107.7.55-194.55,88.3-194,196s88.3,194.55,196,194,194.55-88.3,194-196c-.54-106.91-87.08-193.45-194-194Z"/><path class="mtaspn-3" d="M252.47,64.72v390m195-195h-390m44-120a260,260,0,0,0,302,0m0,240a260,260,0,0,0-302,0m136-310C132,158.8,118.68,316.53,207.77,422a250.18,250.18,0,0,0,29.7,29.7m30,0C373,362.63,386.25,204.9,297.16,99.41a250,250,0,0,0-29.69-29.69"/></svg>