<svg id="Layer_1" data-name="Layer 1" xmlns="http://www.w3.org/2000/svg" viewBox="0 0 512 512"><defs><style>.paran-1{fill:#fff}.paran-2{fill:#231f20}</style></defs><path class="paran-1" d="M0 0h512M512 512H0M0 0h512v512H0z"/><path class="paran-2" d="M34.71 289.6v-43.53h35.65a7.68 7.68 0 014 1.09 8.16 8.16 0 012.87 2.84 7.47 7.47 0 011.06 3.9v12.23a7.61 7.61 0 01-1.06 4 7.93 7.93 0 01-6.87 3.9l-29.11.06v15.5zm8-22.16h27.53a1.4 1.4 0 001-.42 1.41 1.41 0 00.42-1v-11.89a1.5 1.5 0 00-.42-1.06 1.33 1.33 0 00-1-.46H42.76a1.56 1.56 0 00-1.51 1.52V266a1.36 1.36 0 00.45 1 1.51 1.51 0 001.06.44zM83.07 253.88a7.67 7.67 0 011.06-4 8.1 8.1 0 012.87-2.81 7.67 7.67 0 014-1.06h27.79a7.83 7.83 0 014 1.06 8 8 0 012.88 2.85 7.67 7.67 0 011.06 4v35.68h-6.6v-15.26H89.61v15.26h-6.54zm37 13.93v-13.75a1.49 1.49 0 00-.42-1.05 1.35 1.35 0 00-1-.46H91.12a1.57 1.57 0 00-1.51 1.51v13.75zM133.56 289.6v-43.53h35.65a7.7 7.7 0 014 1.09 8.24 8.24 0 012.87 2.88 7.47 7.47 0 011.06 3.9v12.23a7.61 7.61 0 01-1.06 4 7.89 7.89 0 01-2.87 2.84 7.77 7.77 0 01-4 1.06l-29.12.06v15.5zm8.05-22.16h27.48a1.43 1.43 0 001.45-1.45v-11.86a1.5 1.5 0 00-.42-1.06 1.34 1.34 0 00-1-.46h-27.51a1.42 1.42 0 00-1.06.46 1.45 1.45 0 00-.46 1.06V266a1.37 1.37 0 00.46 1 1.5 1.5 0 001.06.44zm27.66 22.16l-13.62-16.29h8.54l12.71 15.08v1.21zM183.62 253.88a7.58 7.58 0 011.06-4 8 8 0 012.84-2.85 7.68 7.68 0 014-1.06h27.78a7.9 7.9 0 014 1.06 8 8 0 012.87 2.85 7.58 7.58 0 011.06 4v35.72h-6.6v-15.26h-30.48v15.26h-6.53zm37 13.93v-13.75a1.49 1.49 0 00-.42-1.05 1.34 1.34 0 00-1-.46h-27.53a1.42 1.42 0 00-1.06.46 1.45 1.45 0 00-.46 1.05v13.75zM234.1 289.6V246h7.81l29.18 34.75V246h6.59v43.6h-7.8l-29.24-34.81v34.81zM292.21 289.6a7.58 7.58 0 01-4-1.06 8 8 0 01-2.85-2.85 7.58 7.58 0 01-1.06-4v-27.81a7.58 7.58 0 011.06-4 8 8 0 012.85-2.85 7.67 7.67 0 014-1.06h27.84a7.68 7.68 0 014 1.06 8 8 0 012.84 2.85 7.58 7.58 0 011.06 4v27.85a7.58 7.58 0 01-1.06 4 8 8 0 01-2.84 2.85 7.59 7.59 0 01-4 1.06zm.18-6.54h27.48a1.35 1.35 0 001-.45 1.54 1.54 0 00.43-1.06v-27.49a1.5 1.5 0 00-.43-1.05 1.33 1.33 0 00-1-.46h-27.48a1.56 1.56 0 00-1.51 1.51v27.49a1.48 1.48 0 00.45 1.06 1.46 1.46 0 001.06.45zM334.7 289.6V246h35.66a7.83 7.83 0 014 1.06 8 8 0 012.88 2.85 7.67 7.67 0 011.06 4v27.85a7.67 7.67 0 01-1.06 4 8 8 0 01-2.88 2.85 7.74 7.74 0 01-4 1.06zm8-6.54h27.54a1.35 1.35 0 001-.45 1.54 1.54 0 00.43-1.06v-27.49a1.5 1.5 0 00-.43-1.05 1.33 1.33 0 00-1-.46h-27.55a1.35 1.35 0 00-1 .46 1.49 1.49 0 00-.42 1.05v27.49a1.53 1.53 0 00.42 1.06 1.38 1.38 0 001 .45zM385.19 289.6V246h39.95v6.54h-33.36v12h26.82v6.53h-26.82v12h33.36v6.54zM439.06 289.6a7.61 7.61 0 01-4-1.06 8 8 0 01-2.84-2.85 7.58 7.58 0 01-1.06-4v-2.54h6.54v2.36a1.48 1.48 0 00.45 1.06 1.46 1.46 0 001.06.45h27.48a1.36 1.36 0 001-.45 1.53 1.53 0 00.42-1.06v-9a1.47 1.47 0 00-.42-1.09 1.42 1.42 0 00-1-.43h-27.63a7.7 7.7 0 01-4-1.05 8 8 0 01-2.84-2.85 7.58 7.58 0 01-1.06-4v-9.33a7.58 7.58 0 011.06-4 8 8 0 012.84-2.85 7.71 7.71 0 014-1.06h27.84a7.68 7.68 0 014 1.06 8 8 0 012.84 2.85 7.58 7.58 0 011.06 4v2.55h-6.6v-2.37a1.49 1.49 0 00-.42-1.05 1.34 1.34 0 00-1-.46h-27.54a1.56 1.56 0 00-1.51 1.51v9a1.42 1.42 0 00.45 1.09 1.48 1.48 0 001.06.43h27.66a7.59 7.59 0 014 1.06 7.89 7.89 0 012.84 2.84 7.59 7.59 0 011.06 4v9.32a7.58 7.58 0 01-1.06 4 8 8 0 01-2.84 2.85 7.59 7.59 0 01-4 1.06z"/></svg>