<svg xmlns="http://www.w3.org/2000/svg" viewBox="0 0 600.03 135.6"><g data-name="Layer 2"><g data-name="Layer 1"><path class="primary" d="M140.5 56.7a35.07 35.07 0 00-28.7 14.4 51.39 51.39 0 00-11.5 33.4 31.17 31.17 0 007.2 21.5 23.79 23.79 0 0019.2 8.1 34.77 34.77 0 0027.6-13.6 53.12 53.12 0 0012.4-34.9 34.06 34.06 0 00-6.1-21c-4.3-5.2-11.1-7.9-20.1-7.9zm.5 57.4a19.8 19.8 0 01-13.8 5.9 10.47 10.47 0 01-9-4.1 17 17 0 01-3.2-11.3 40.1 40.1 0 017-24.2 20.87 20.87 0 0117.9-9.7c8.1 0 12.2 5 12.2 14.9a41.63 41.63 0 01-11.1 28.5zm437.2-21.7a6.91 6.91 0 00-8.6 3.8c-6.3 15.8-14 23.7-23.5 23.7-5 0-7.5-4.3-7.5-12.4a179.7 179.7 0 014-27.3l2-9.5H564a7 7 0 001.4-13.9 5.7 5.7 0 00-1.3-.1H548l3.2-15.8a7.45 7.45 0 00-5.6-8.7 6.75 6.75 0 00-1.4-.2 7 7 0 00-7 5.7L533 56.4h-45.2A34.72 34.72 0 00459.1 71a51.39 51.39 0 00-11.5 33.4 45.08 45.08 0 001.1 9.7 16.12 16.12 0 01-11.8 5.7 7.13 7.13 0 01-6.1-2.5 14.41 14.41 0 01-1.8-8.1 132.68 132.68 0 013.2-24.2l11.7-54.6a7.18 7.18 0 00-14-3.2l-6.8 33.4a30.53 30.53 0 00-15.8-4.3 37.36 37.36 0 00-29.4 13.6 51.62 51.62 0 00-11.7 34.3 38.45 38.45 0 001.6 11.7 15.3 15.3 0 01-9.9 3.8 8 8 0 01-6.5-2.5 12.32 12.32 0 01-2-8.1 80.13 80.13 0 012.3-16.1 7.39 7.39 0 00-5.9-8.7c-.2 0-.4-.1-.6-.1a7.23 7.23 0 00-7.9 5.4 63.77 63.77 0 01-9.9 21.5 19.27 19.27 0 01-14.9 8.8 9.26 9.26 0 01-7.7-4.5 22.8 22.8 0 01-3-12 37.2 37.2 0 017-23.7 22.1 22.1 0 0118.5-9.5 27.7 27.7 0 0110.9 2.3 6.59 6.59 0 006.5-.5 7 7 0 002.4-9.6 7.15 7.15 0 00-3.3-2.9 28.11 28.11 0 00-5.6-1.8 42.5 42.5 0 00-10.6-1.6 37.71 37.71 0 00-29.1 13.6 44.36 44.36 0 00-9.3 16.7c-7 22.3-16 33.1-26.9 33.1a9.3 9.3 0 01-8.1-3.6 13.92 13.92 0 01-2.5-8.8 9.25 9.25 0 01.2-2.9 38.28 38.28 0 0016.5-12.4 31 31 0 006.5-18.5c0-11.3-6.1-17-18.5-17a32.55 32.55 0 00-23 9.5l7.7-35.5a7.1 7.1 0 00-5.5-8.4 3.81 3.81 0 00-1.5-.1 7 7 0 00-7 5.7l-21 98a7.07 7.07 0 005.5 8.4 7.72 7.72 0 001.5.2 7 7 0 006.7-5.8l6.5-30a57.23 57.23 0 014.5-11.5 35.12 35.12 0 019.5-10.8 21.12 21.12 0 0114.2-5.2 4.74 4.74 0 015.4 4 3.3 3.3 0 010 1.4 16.49 16.49 0 01-6.8 12 28.82 28.82 0 01-14.7 7 89.44 89.44 0 00-.7 9.3 35.92 35.92 0 006.3 21.8 21 21 0 0018.1 7.9 31.62 31.62 0 0024.6-12.2l2.7-3.2a25 25 0 004.3 7.2 22.1 22.1 0 0018.1 8.1c9.7 0 17.9-4.5 24.6-14 2.9 9.5 9.7 14 21 14a27.93 27.93 0 0017.3-6.4 22.56 22.56 0 0016.1 6.1c9.7 0 17.8-4.5 24.6-14 2.9 9.5 9.7 14 21 14a28 28 0 0019.4-7.5 24.3 24.3 0 0018.3 7.5 34.77 34.77 0 0027.6-13.6 53.94 53.94 0 0012.4-34.8 38.85 38.85 0 00-2.7-15.1h18.8l-1.8 8.1a173.19 173.19 0 00-4.5 28.7c0 17.6 7.2 26.6 21.4 26.6 16.1 0 28.2-10.9 36.8-32.3a6.55 6.55 0 00-3.2-8.6 5.74 5.74 0 00-.7-.4zM418 83.8c-2.5 12.4-6.5 21.5-11.1 27.4s-9.9 8.8-15.3 8.8a9.26 9.26 0 01-7.7-4.5 21.89 21.89 0 01-2.9-11.7 37.81 37.81 0 017-23.7 21 21 0 0129-6.1 24.72 24.72 0 012.7 2.1l-1.7 7.7zm78.7 17a65.11 65.11 0 01-8.1 13.1 19.58 19.58 0 01-13.8 6.1 10.59 10.59 0 01-9-4.1 17 17 0 01-3.2-11.3 40.1 40.1 0 017-24.2 21.1 21.1 0 0117.9-9.7c8.1 0 12.2 5 12.2 14.9a48.27 48.27 0 01-3 15.1zm-295-79.1a7 7 0 00-7 5.7l-21 98a7.07 7.07 0 005.5 8.4 7.72 7.72 0 001.5.2 7 7 0 007-5.7l21-98a7.33 7.33 0 00-5.7-8.5c-.4 0-.8-.1-1.3-.1zM51.5 0A51.68 51.68 0 000 51.5a52.62 52.62 0 002.7 16.7 7.3 7.3 0 009 4.5 7.28 7.28 0 004.4-9 34.54 34.54 0 01-2-13.1 37.12 37.12 0 1139.3 38.2s-7.2.5-10.8.9a27 27 0 00-3.9.8.49.49 0 01-.7-.1.64.64 0 010-.6l1.1-6.1L45.9 53a7.06 7.06 0 00-13.8-3S16 125 16 125.7a6.82 6.82 0 005 8.3c.1 0 .3.1.4.1a6.88 6.88 0 008.3-5.1c0-.1.1-.2.1-.3.2-.9 2.3-10.9 2.3-10.9a18.31 18.31 0 0115.1-14.4c1.6-.2 8.1-.7 8.1-.7A51.46 51.46 0 0051.5 0z"/><path d="M593.2 118.6a8.73 8.73 0 00-10.2 6.7 8.47 8.47 0 006.5 10.1h.2a8.52 8.52 0 0010.1-6.3c0-.2.1-.3.1-.5a8.85 8.85 0 00-6.7-10z" fill="#e6007a"/></g></g></svg>