<svg id="svg" version="1.1" xmlns="http://www.w3.org/2000/svg" xmlns:xlink="http://www.w3.org/1999/xlink" width="400" height="400" viewBox="0, 0, 400,400"><g id="svgg"><path id="path0" d="M169.476 176.657 C 169.324 176.809,169.200 177.975,169.200 179.249 L 169.200 181.564 170.700 181.805 C 171.525 181.938,172.607 182.130,173.104 182.232 L 174.008 182.417 173.904 200.702 L 173.800 218.987 172.386 219.216 C 170.192 219.573,170.000 219.831,170.000 222.424 L 170.000 224.800 178.400 224.800 L 186.800 224.800 186.800 222.424 C 186.800 219.831,186.607 219.572,184.414 219.218 C 182.911 218.976,182.370 217.367,182.978 214.947 C 183.184 214.125,187.447 210.447,187.734 210.844 C 187.796 210.930,189.051 212.562,190.523 214.472 C 193.427 218.239,193.801 219.434,192.200 219.836 C 191.275 220.068,191.200 220.263,191.200 222.443 L 191.200 224.800 199.400 224.800 L 207.600 224.800 207.600 222.205 L 207.600 219.609 205.931 219.343 C 203.857 219.011,200.259 215.263,197.000 210.041 C 196.780 209.688,196.505 209.310,196.390 209.200 C 193.844 206.780,193.295 204.690,194.949 203.717 C 195.245 203.543,196.788 202.230,198.378 200.800 C 201.498 197.992,202.735 197.201,204.600 196.815 C 205.784 196.571,205.800 196.532,205.800 193.984 L 205.800 191.400 197.600 191.400 L 189.400 191.400 189.278 193.763 C 189.148 196.282,189.450 196.783,191.100 196.794 C 191.596 196.797,192.000 197.048,192.000 197.353 C 192.000 197.986,184.115 205.400,183.443 205.400 C 183.131 205.400,182.941 201.137,182.800 191.000 L 182.600 176.600 176.176 176.490 C 172.643 176.430,169.628 176.505,169.476 176.657 M84.400 179.781 C 70.655 183.705,70.055 197.862,83.400 203.391 C 86.113 204.515,86.531 204.669,88.800 205.379 C 95.611 207.511,98.092 209.577,98.092 213.114 C 98.092 218.871,89.292 221.135,82.206 217.201 C 80.994 216.528,81.005 216.558,80.056 211.600 L 79.789 210.200 76.494 210.084 L 73.200 209.968 73.200 215.299 L 73.200 220.631 76.212 222.141 C 82.913 225.499,93.829 226.262,99.212 223.749 C 111.345 218.085,108.838 204.484,94.800 199.813 C 84.460 196.372,82.586 195.080,82.621 191.414 C 82.665 186.844,90.198 183.912,95.525 186.392 C 96.116 186.668,96.870 187.024,97.200 187.183 C 97.884 187.515,99.120 190.854,99.168 192.500 L 99.200 193.600 102.400 193.600 L 105.600 193.600 105.600 188.870 C 105.600 183.393,105.532 183.272,101.435 181.420 C 97.086 179.455,88.453 178.624,84.400 179.781 M114.715 187.086 L 114.600 191.000 112.400 191.200 L 110.200 191.400 110.200 194.200 L 110.200 197.000 112.128 197.221 C 114.790 197.527,114.784 197.504,114.818 207.600 C 114.859 220.052,115.062 220.943,118.483 223.712 C 120.090 225.012,124.472 225.566,128.000 224.915 C 130.027 224.540,130.309 223.856,129.809 220.524 L 129.551 218.800 127.794 218.800 C 123.483 218.800,123.200 218.060,123.200 206.764 C 123.200 196.864,122.962 197.495,126.800 197.200 L 129.400 197.000 129.517 194.563 C 129.662 191.559,129.376 191.280,125.985 191.121 L 123.400 191.000 123.200 187.200 L 123.000 183.400 118.915 183.286 L 114.829 183.172 114.715 187.086 M222.400 191.116 C 221.410 191.180,220.033 191.495,219.340 191.816 C 218.646 192.137,217.973 192.400,217.844 192.400 C 216.962 192.400,212.784 196.670,211.946 198.428 C 207.357 208.051,210.341 219.760,218.393 223.723 C 221.253 225.131,230.178 225.640,232.445 224.524 C 232.970 224.266,234.120 223.734,235.000 223.342 C 237.696 222.143,237.811 221.890,236.792 219.380 C 235.710 216.715,235.521 216.581,233.947 217.367 C 228.196 220.236,222.408 219.278,219.987 215.056 C 219.020 213.370,218.448 211.089,218.900 210.718 C 218.955 210.673,223.410 210.538,228.800 210.418 L 238.600 210.200 238.719 207.241 C 239.168 196.041,233.461 190.402,222.400 191.116 M141.355 192.003 C 140.231 192.392,138.650 193.024,137.842 193.407 L 136.373 194.104 136.487 198.152 L 136.600 202.200 139.600 202.200 L 142.600 202.200 142.836 200.434 C 143.196 197.736,144.594 196.805,148.287 196.802 C 152.690 196.799,155.003 199.685,154.123 204.084 L 153.900 205.200 149.850 205.205 C 139.093 205.217,133.967 209.507,134.935 217.684 C 135.792 224.918,149.288 228.261,152.920 222.139 C 153.495 221.170,154.765 221.508,155.026 222.700 C 155.158 223.305,155.336 224.025,155.421 224.300 C 155.534 224.668,157.006 224.800,160.987 224.800 L 166.400 224.800 166.400 222.433 L 166.400 220.067 164.700 219.500 L 163.000 218.934 162.800 208.967 C 162.556 196.799,161.891 194.927,157.000 192.633 C 156.120 192.220,155.087 191.729,154.705 191.541 C 153.385 190.893,143.586 191.232,141.355 192.003 M227.561 197.580 C 229.746 198.695,231.375 202.578,230.413 204.377 C 229.806 205.510,219.353 205.663,218.923 204.545 C 217.405 200.589,223.626 195.573,227.561 197.580 M154.150 211.250 C 154.897 214.984,154.281 216.702,151.689 218.113 C 146.841 220.751,141.623 217.992,143.403 213.732 C 144.471 211.175,146.741 210.076,151.050 210.030 L 153.900 210.000 154.150 211.250 " stroke="none" fill="#f6f6f6" fill-rule="evenodd"></path><path id="path1" d="M0.000 200.000 L 0.000 400.000 200.000 400.000 L 400.000 400.000 400.000 200.000 L 400.000 0.000 200.000 0.000 L 0.000 0.000 0.000 200.000 M183.105 190.100 C 183.163 197.965,183.353 204.400,183.527 204.400 C 183.701 204.400,184.459 203.764,185.212 202.987 C 185.965 202.211,187.530 200.817,188.691 199.892 C 190.996 198.052,191.347 197.200,189.800 197.200 C 188.816 197.200,188.800 197.147,188.800 193.992 L 188.800 190.785 197.900 190.892 L 207.000 191.000 207.000 193.935 L 207.000 196.871 204.646 197.685 C 203.351 198.133,201.832 198.882,201.270 199.350 C 199.854 200.528,196.872 203.193,195.582 204.434 L 194.508 205.468 195.664 207.034 C 196.299 207.895,197.049 208.875,197.329 209.211 C 197.610 209.547,198.640 210.897,199.620 212.211 C 200.599 213.525,201.805 215.048,202.300 215.596 C 202.795 216.144,203.200 216.791,203.200 217.035 C 203.200 217.547,205.728 218.716,207.200 218.885 C 208.159 218.995,208.205 219.127,208.317 222.100 L 208.434 225.200 199.617 225.200 L 190.800 225.200 190.800 222.423 C 190.800 220.134,190.936 219.550,191.571 219.106 C 192.425 218.507,191.976 217.609,188.832 213.641 C 187.510 211.972,187.506 211.970,186.454 212.657 C 182.528 215.220,182.050 218.009,185.417 218.706 L 187.000 219.034 187.117 222.124 L 187.234 225.215 178.117 225.108 L 169.000 225.000 168.880 222.465 C 168.742 219.548,169.158 218.800,170.917 218.800 C 173.684 218.800,173.600 219.373,173.600 200.525 C 173.600 184.734,173.552 183.560,172.900 183.351 C 172.515 183.228,171.840 182.973,171.400 182.784 C 170.960 182.596,170.240 182.385,169.800 182.316 C 169.104 182.208,168.985 181.835,168.880 179.436 C 168.701 175.297,168.185 175.565,176.091 175.691 L 183.000 175.800 183.105 190.100 M59.905 176.384 C 60.287 176.596,61.680 177.243,63.000 177.823 C 64.320 178.403,66.350 179.310,67.511 179.838 C 68.672 180.367,69.893 180.800,70.223 180.800 C 71.536 180.800,71.176 182.235,68.545 187.504 C 64.879 194.845,65.184 194.631,61.000 192.796 C 60.560 192.603,59.210 192.010,58.000 191.478 C 52.824 189.201,50.148 189.499,48.820 192.499 C 48.283 193.714,48.747 197.071,49.608 198.200 C 50.878 199.862,51.642 207.652,50.754 209.881 C 48.987 214.320,47.936 215.515,44.377 217.130 C 42.285 218.079,38.426 219.200,37.250 219.200 C 36.633 219.200,36.108 219.837,35.188 221.700 C 33.292 225.538,33.260 225.555,30.308 224.223 C 27.009 222.735,24.141 221.449,22.340 220.649 C 21.536 220.292,20.681 220.000,20.440 220.000 C 19.427 220.000,24.204 208.836,25.974 207.066 C 26.339 206.701,28.054 207.270,33.000 209.399 C 33.660 209.683,34.650 210.091,35.200 210.304 C 35.750 210.518,36.674 210.916,37.253 211.189 C 38.549 211.799,40.583 211.173,42.497 209.575 C 44.327 208.048,44.504 204.681,42.990 200.200 C 39.952 191.206,43.311 182.991,50.094 182.827 C 53.319 182.748,54.567 182.005,55.784 179.440 C 57.514 175.797,58.082 175.375,59.905 176.384 M297.904 196.963 C 298.016 219.384,297.953 218.800,300.235 218.800 C 301.972 218.800,302.475 219.743,302.320 222.710 L 302.200 225.000 293.228 225.108 C 283.276 225.227,283.616 225.319,283.606 222.526 C 283.596 219.640,284.131 218.800,285.982 218.800 C 288.134 218.800,288.040 219.716,287.911 200.000 L 287.800 183.000 285.920 182.536 C 283.272 181.882,283.200 181.799,283.200 179.409 C 283.200 175.767,282.745 175.967,290.746 176.091 L 297.800 176.200 297.904 196.963 M98.000 179.267 C 100.825 180.119,104.517 181.888,105.638 182.926 C 106.353 183.588,106.413 184.119,106.311 188.926 L 106.200 194.200 102.515 194.315 L 98.831 194.430 98.237 192.315 C 97.910 191.152,97.588 189.756,97.521 189.213 C 97.278 187.237,88.433 185.128,87.400 186.800 C 87.264 187.020,86.822 187.200,86.418 187.200 C 86.014 187.200,85.124 187.836,84.441 188.614 C 82.039 191.351,83.036 194.144,87.082 196.010 C 88.137 196.497,89.313 197.054,89.695 197.248 C 90.077 197.441,90.717 197.600,91.118 197.600 C 91.519 197.600,92.196 197.864,92.624 198.187 C 93.051 198.510,93.807 198.780,94.305 198.787 C 94.803 198.794,95.523 198.955,95.905 199.145 C 96.287 199.334,97.680 200.009,99.000 200.645 C 109.843 205.864,110.640 219.201,100.400 224.052 C 95.617 226.318,89.333 227.016,84.665 225.800 C 83.398 225.470,82.007 225.200,81.575 225.200 C 81.143 225.200,80.477 225.042,80.095 224.850 C 79.713 224.657,77.960 223.802,76.200 222.950 L 73.000 221.400 73.000 215.200 L 73.000 209.000 76.296 208.884 L 79.592 208.768 80.395 210.084 C 80.910 210.929,81.198 212.104,81.199 213.369 C 81.200 215.450,81.980 216.800,83.182 216.800 C 83.544 216.800,84.059 217.019,84.327 217.287 C 85.185 218.145,93.959 217.963,95.291 217.060 C 96.466 216.263,97.600 214.335,97.600 213.133 C 97.600 211.767,95.163 208.400,94.174 208.400 C 93.912 208.400,93.474 208.130,93.200 207.800 C 92.926 207.470,92.285 207.200,91.775 207.200 C 91.265 207.200,90.736 207.020,90.600 206.800 C 90.464 206.580,89.858 206.400,89.253 206.400 C 88.648 206.400,87.804 206.136,87.376 205.813 C 86.949 205.490,86.283 205.220,85.895 205.213 C 85.507 205.206,84.877 205.045,84.495 204.855 C 84.113 204.666,82.722 203.991,81.404 203.355 C 74.998 200.267,71.593 194.496,73.186 189.428 C 73.398 188.753,73.668 187.720,73.785 187.133 C 74.273 184.692,78.533 181.153,83.400 179.147 C 85.296 178.365,95.282 178.448,98.000 179.267 M269.245 179.606 C 271.580 180.045,275.332 181.720,276.575 182.878 C 277.002 183.275,277.481 183.600,277.640 183.600 C 278.140 183.600,281.200 188.743,281.200 189.584 C 281.200 190.027,281.413 191.184,281.673 192.157 C 282.382 194.808,281.237 199.630,279.240 202.400 C 275.920 207.005,272.477 208.404,263.600 208.755 L 257.400 209.000 257.286 213.568 C 257.160 218.620,257.234 218.784,259.620 218.794 C 261.637 218.803,262.000 219.365,262.000 222.480 L 262.000 225.200 252.400 225.200 L 242.800 225.200 242.800 222.243 C 242.800 219.019,242.958 218.800,245.289 218.800 C 247.579 218.800,247.573 218.840,247.587 201.908 L 247.600 186.415 246.500 186.172 C 242.732 185.337,242.800 185.406,242.800 182.436 C 242.800 180.949,242.920 179.613,243.067 179.467 C 243.497 179.037,266.883 179.161,269.245 179.606 M123.771 183.029 C 124.249 183.506,124.400 184.514,124.400 187.211 L 124.400 190.765 127.300 190.882 L 130.200 191.000 130.318 194.138 C 130.466 198.114,130.240 198.400,126.944 198.400 L 124.386 198.400 124.493 207.900 L 124.600 217.400 126.986 217.523 C 130.325 217.694,130.542 218.027,130.911 223.533 C 131.160 227.262,120.643 227.253,116.821 223.521 C 114.196 220.959,113.843 219.226,113.680 208.100 L 113.538 198.400 111.997 198.400 C 109.608 198.400,109.147 197.662,109.284 194.055 L 109.400 191.000 111.500 190.879 L 113.600 190.758 113.600 186.999 C 113.600 183.841,113.712 183.175,114.300 182.832 C 115.498 182.135,123.034 182.291,123.771 183.029 M257.400 187.255 C 257.279 187.572,257.229 190.794,257.290 194.415 L 257.400 201.000 262.000 200.970 C 267.300 200.936,268.220 200.760,269.620 199.510 C 273.052 196.448,272.639 190.734,268.788 187.992 C 267.238 186.888,257.776 186.276,257.400 187.255 M154.000 190.599 C 157.324 191.205,160.966 193.937,162.758 197.168 C 163.192 197.952,163.386 200.654,163.565 208.400 L 163.800 218.600 165.400 218.800 L 167.000 219.000 167.117 222.100 L 167.234 225.200 161.017 225.200 C 155.202 225.200,154.800 225.151,154.800 224.449 C 154.800 222.831,153.729 222.635,152.121 223.961 C 151.294 224.642,150.335 225.200,149.989 225.200 C 149.643 225.200,149.170 225.390,148.937 225.623 C 146.456 228.104,134.800 223.920,134.800 220.548 C 134.800 220.297,134.531 219.576,134.202 218.946 C 132.458 215.601,135.798 206.819,138.820 206.803 C 139.161 206.801,139.650 206.590,139.907 206.333 C 140.880 205.360,143.568 204.800,148.500 204.543 L 153.600 204.277 153.600 202.800 C 153.600 198.643,149.498 196.072,145.724 197.863 C 144.955 198.228,144.269 198.723,144.199 198.963 C 144.129 199.203,143.834 200.261,143.544 201.314 L 143.017 203.228 139.409 203.114 L 135.800 203.000 135.686 198.699 C 135.553 193.652,135.720 193.235,138.269 192.264 C 139.331 191.860,140.560 191.383,141.000 191.206 C 143.608 190.152,149.932 189.857,154.000 190.599 M228.694 190.459 C 233.477 191.612,238.400 196.014,238.400 199.138 C 238.400 199.586,238.580 200.064,238.800 200.200 C 239.035 200.345,239.200 202.671,239.200 205.824 L 239.200 211.200 229.357 211.200 L 219.513 211.200 219.787 212.300 C 221.130 217.686,227.410 219.707,233.400 216.680 C 235.684 215.525,235.757 215.559,237.390 218.521 C 239.015 221.468,238.456 222.926,235.200 224.232 C 234.870 224.364,234.240 224.623,233.800 224.806 C 233.360 224.990,232.550 225.231,232.000 225.342 C 231.450 225.454,230.190 225.753,229.200 226.008 C 227.089 226.551,221.761 226.321,221.099 225.659 C 220.846 225.406,220.322 225.200,219.934 225.200 C 217.828 225.200,212.516 220.870,211.220 218.098 C 210.938 217.494,210.515 216.640,210.280 216.200 C 208.688 213.213,208.667 203.050,210.248 200.514 C 210.551 200.027,210.810 199.397,210.822 199.114 C 210.870 197.962,213.941 194.176,216.000 192.730 C 219.502 190.270,224.328 189.407,228.694 190.459 M362.600 190.426 C 366.388 190.937,368.454 191.475,370.513 192.486 L 372.025 193.229 371.913 197.915 L 371.800 202.600 368.644 202.600 C 365.259 202.600,365.080 202.496,364.608 200.266 C 363.692 195.938,355.200 196.143,355.200 200.493 C 355.200 201.794,356.701 203.043,358.952 203.617 C 359.858 203.848,361.050 204.188,361.600 204.372 C 362.150 204.557,363.410 204.941,364.400 205.226 C 370.619 207.018,373.207 209.983,373.188 215.292 C 373.158 223.344,364.305 228.010,353.706 225.559 C 345.719 223.713,345.612 223.619,345.612 218.400 C 345.611 212.698,345.550 212.800,348.915 212.800 C 352.245 212.800,353.200 213.397,353.200 215.480 C 353.200 217.966,354.556 218.800,358.600 218.800 C 361.715 218.800,362.128 218.708,363.018 217.818 C 365.234 215.603,363.407 213.212,358.600 212.037 C 357.720 211.822,356.370 211.482,355.600 211.282 C 344.433 208.387,342.024 197.333,351.390 191.961 C 352.495 191.326,354.030 190.793,354.800 190.776 C 355.570 190.758,356.560 190.589,357.000 190.400 C 358.104 189.925,358.915 189.929,362.600 190.426 M317.200 202.600 C 317.455 217.377,317.670 218.000,322.514 218.000 C 324.287 218.000,324.981 217.782,326.340 216.797 L 328.000 215.595 328.000 207.046 C 328.000 197.735,328.051 197.944,325.600 197.311 L 324.200 196.949 324.200 193.975 L 324.200 191.000 330.569 190.889 C 334.722 190.817,337.089 190.929,337.369 191.209 C 337.652 191.491,337.869 196.286,338.000 205.113 L 338.200 218.587 339.742 218.837 C 341.728 219.160,342.029 219.684,341.903 222.600 L 341.800 225.000 335.400 225.000 L 329.000 225.000 328.876 223.500 C 328.734 221.785,328.436 221.655,327.363 222.841 C 323.025 227.634,313.102 226.731,309.854 221.248 C 308.017 218.148,307.894 217.360,307.707 207.533 L 307.527 198.067 306.464 197.671 C 305.879 197.453,305.085 197.174,304.700 197.050 C 303.979 196.818,303.619 191.715,304.276 191.057 C 304.428 190.905,307.353 190.830,310.776 190.890 L 317.000 191.000 317.200 202.600 M222.500 198.636 C 221.785 199.001,221.200 199.532,221.200 199.817 C 221.200 200.101,221.041 200.393,220.847 200.467 C 220.653 200.540,220.367 201.365,220.212 202.300 L 219.930 204.000 224.765 204.000 L 229.600 204.000 229.600 202.300 C 229.599 198.828,225.882 196.910,222.500 198.636 M145.533 212.300 C 142.286 215.816,144.615 219.196,149.481 218.029 C 152.601 217.280,153.600 216.171,153.600 213.453 L 153.600 211.200 150.075 211.200 C 146.742 211.200,146.494 211.260,145.533 212.300 " stroke="none" fill="#040404" fill-rule="evenodd"></path><path id="path2" d="M284.243 177.033 C 284.109 177.381,284.000 178.540,284.000 179.608 L 284.000 181.551 285.900 181.826 C 289.006 182.275,288.800 180.924,288.800 200.841 L 288.800 218.785 287.700 219.025 C 284.597 219.702,284.400 219.906,284.400 222.449 L 284.400 224.800 293.019 224.800 L 301.638 224.800 301.519 222.300 L 301.400 219.800 299.800 219.400 C 298.920 219.180,297.975 218.854,297.700 218.676 C 297.311 218.424,297.200 213.845,297.200 198.009 C 297.200 186.820,297.091 177.381,296.957 177.033 C 296.750 176.494,295.807 176.400,290.600 176.400 C 285.393 176.400,284.450 176.494,284.243 177.033 M57.730 177.300 C 57.528 177.575,57.011 178.520,56.583 179.400 C 54.890 182.875,54.528 183.200,52.356 183.200 C 44.249 183.200,40.103 191.091,43.635 199.800 C 46.297 206.364,44.869 210.243,39.089 212.149 C 38.483 212.349,33.963 210.817,31.703 209.647 C 30.467 209.006,27.826 208.032,27.005 207.914 C 26.355 207.821,25.755 208.688,23.721 212.666 C 21.023 217.941,20.419 219.600,21.196 219.600 C 21.673 219.600,22.498 219.939,26.800 221.900 C 33.354 224.889,32.736 225.032,35.395 219.913 C 36.204 218.357,36.425 218.261,40.300 217.784 C 41.454 217.641,42.500 217.362,42.623 217.163 C 42.746 216.963,43.135 216.800,43.486 216.800 C 43.837 216.800,44.714 216.350,45.436 215.800 C 46.157 215.250,46.898 214.800,47.084 214.800 C 47.818 214.800,49.590 211.361,50.170 208.813 C 50.909 205.561,50.269 201.355,48.371 197.000 C 46.198 192.015,50.772 187.434,55.597 189.762 C 56.781 190.333,57.891 190.800,58.064 190.800 C 58.379 190.800,62.353 192.524,63.739 193.262 C 64.683 193.764,64.428 194.115,67.424 188.199 C 70.862 181.410,71.000 181.973,65.300 179.578 C 64.805 179.370,63.995 179.030,63.500 178.822 C 63.005 178.614,61.755 178.074,60.722 177.622 C 58.529 176.662,58.224 176.629,57.730 177.300 M89.100 179.082 C 89.595 179.178,90.405 179.178,90.900 179.082 C 91.395 178.987,90.990 178.909,90.000 178.909 C 89.010 178.909,88.605 178.987,89.100 179.082 M95.400 179.600 C 95.840 179.789,96.470 179.944,96.800 179.944 C 97.178 179.944,97.104 179.817,96.600 179.600 C 96.160 179.411,95.530 179.256,95.200 179.256 C 94.822 179.256,94.896 179.383,95.400 179.600 M243.200 182.380 C 243.200 184.703,243.241 184.800,244.213 184.800 C 244.770 184.800,245.852 185.062,246.617 185.381 L 248.009 185.963 247.904 202.481 L 247.800 219.000 246.600 219.116 C 243.688 219.398,243.200 219.878,243.200 222.456 L 243.200 224.815 252.300 224.708 L 261.400 224.600 261.519 222.564 C 261.659 220.155,261.145 219.553,258.665 219.222 L 257.000 219.000 257.000 213.600 L 257.000 208.200 263.600 207.947 C 267.638 207.792,270.744 207.481,271.601 207.147 C 275.576 205.596,279.405 202.240,279.879 199.892 C 280.003 199.282,280.260 198.686,280.452 198.568 C 280.643 198.450,280.800 196.556,280.800 194.360 C 280.800 187.749,278.585 184.164,272.812 181.435 L 270.200 180.200 256.700 180.080 L 243.200 179.960 243.200 182.380 M117.312 183.095 C 118.364 183.177,119.984 183.176,120.912 183.092 C 121.840 183.008,120.980 182.941,119.000 182.942 C 117.020 182.943,116.260 183.012,117.312 183.095 M114.397 187.082 C 114.289 189.327,114.342 191.021,114.516 190.846 C 114.690 190.671,114.778 188.834,114.713 186.764 L 114.595 183.000 114.397 187.082 M105.685 188.884 L 105.600 193.568 102.300 193.702 L 99.000 193.837 102.313 193.919 C 106.271 194.016,106.069 194.317,105.899 188.574 L 105.770 184.200 105.685 188.884 M89.305 185.887 C 89.914 185.979,90.814 185.977,91.305 185.882 C 91.797 185.787,91.300 185.711,90.200 185.714 C 89.100 185.717,88.697 185.795,89.305 185.887 M267.062 186.500 C 270.617 187.449,272.400 189.976,272.400 194.066 C 272.400 199.896,269.110 202.162,261.000 201.920 L 257.000 201.800 256.891 194.413 C 256.830 190.350,256.870 186.795,256.978 186.513 C 257.241 185.827,264.505 185.818,267.062 186.500 M73.693 191.600 C 73.693 192.370,73.775 192.685,73.876 192.300 C 73.976 191.915,73.976 191.285,73.876 190.900 C 73.775 190.515,73.693 190.830,73.693 191.600 M82.493 191.600 C 82.493 192.370,82.575 192.685,82.676 192.300 C 82.776 191.915,82.776 191.285,82.676 190.900 C 82.575 190.515,82.493 190.830,82.493 191.600 M146.515 191.096 C 147.788 191.176,149.768 191.175,150.915 191.094 C 152.062 191.014,151.020 190.949,148.600 190.950 C 146.180 190.951,145.242 191.016,146.515 191.096 M222.100 191.076 C 222.485 191.176,223.115 191.176,223.500 191.076 C 223.885 190.975,223.570 190.893,222.800 190.893 C 222.030 190.893,221.715 190.975,222.100 191.076 M225.705 191.087 C 226.314 191.179,227.214 191.177,227.705 191.082 C 228.197 190.987,227.700 190.911,226.600 190.914 C 225.500 190.917,225.097 190.995,225.705 191.087 M205.800 194.000 C 205.800 195.498,205.935 196.640,206.100 196.538 C 206.265 196.436,206.400 195.294,206.400 194.000 C 206.400 192.706,206.265 191.564,206.100 191.462 C 205.935 191.360,205.800 192.502,205.800 194.000 M304.890 191.670 C 303.650 192.910,304.576 196.795,306.114 196.806 C 308.162 196.820,308.183 196.913,308.447 207.085 C 308.743 218.500,309.204 220.474,312.146 222.906 C 316.292 226.334,324.949 225.549,327.793 221.488 C 328.518 220.454,328.877 220.777,329.397 222.930 L 329.800 224.600 335.400 224.600 L 341.000 224.600 341.124 222.658 C 341.270 220.364,340.474 219.200,338.762 219.200 C 337.036 219.200,337.012 219.027,336.800 204.800 L 336.600 191.400 331.055 191.288 C 324.785 191.162,324.400 191.300,324.400 193.675 C 324.400 195.845,324.991 196.800,326.334 196.800 C 328.344 196.800,328.400 197.076,328.400 206.880 C 328.400 217.743,327.853 218.813,322.313 218.794 C 317.338 218.777,317.040 217.949,316.800 203.472 L 316.600 191.400 310.990 191.290 C 306.966 191.210,305.242 191.318,304.890 191.670 M352.158 192.368 C 344.962 195.699,344.465 205.839,351.343 208.977 C 353.819 210.106,355.708 210.800,356.306 210.800 C 360.480 210.800,365.195 214.086,364.574 216.562 C 363.508 220.809,352.800 220.679,352.800 216.419 C 352.800 214.317,351.827 213.600,348.977 213.600 L 346.400 213.600 346.400 218.102 L 346.400 222.605 347.500 223.056 C 351.281 224.608,353.108 224.915,358.839 224.957 C 364.515 224.999,365.401 224.857,367.600 223.551 C 367.930 223.355,368.456 223.075,368.769 222.928 C 370.879 221.939,372.783 218.085,372.794 214.782 C 372.806 211.098,367.899 206.000,364.339 206.000 C 363.959 206.000,363.536 205.820,363.400 205.600 C 363.264 205.380,362.792 205.200,362.352 205.200 C 358.698 205.200,354.800 202.623,354.800 200.209 C 354.800 195.347,364.925 195.253,365.278 200.111 L 365.400 201.800 368.200 201.800 L 371.000 201.800 371.000 197.613 L 371.000 193.427 369.200 192.757 C 365.473 191.369,364.417 191.200,359.572 191.218 C 354.978 191.235,354.414 191.323,352.158 192.368 M233.600 193.325 C 233.600 193.394,234.185 193.979,234.900 194.625 L 236.200 195.800 235.025 194.500 C 233.930 193.288,233.600 193.016,233.600 193.325 M136.093 195.600 C 136.093 196.370,136.175 196.685,136.276 196.300 C 136.376 195.915,136.376 195.285,136.276 194.900 C 136.175 194.515,136.093 194.830,136.093 195.600 M110.366 197.326 C 110.547 197.507,111.393 197.593,112.247 197.519 L 113.800 197.383 111.919 197.190 C 110.884 197.084,110.185 197.145,110.366 197.326 M126.800 197.200 L 124.200 197.462 126.676 197.531 C 128.038 197.569,129.264 197.420,129.400 197.200 C 129.536 196.980,129.592 196.831,129.524 196.869 C 129.456 196.907,128.230 197.056,126.800 197.200 M224.500 197.076 C 224.885 197.176,225.515 197.176,225.900 197.076 C 226.285 196.975,225.970 196.893,225.200 196.893 C 224.430 196.893,224.115 196.975,224.500 197.076 M114.570 207.000 C 114.571 211.840,114.629 213.765,114.699 211.278 C 114.769 208.791,114.769 204.831,114.698 202.478 C 114.628 200.125,114.570 202.160,114.570 207.000 M196.000 202.881 C 194.790 204.006,194.340 204.555,195.000 204.100 C 196.139 203.315,198.746 200.780,198.375 200.818 C 198.279 200.828,197.210 201.757,196.000 202.881 M162.880 210.076 C 162.836 214.848,162.935 218.837,163.100 218.939 C 163.265 219.042,163.354 216.487,163.297 213.263 C 163.106 202.442,162.962 201.337,162.880 210.076 M136.662 202.500 C 136.764 202.665,138.086 202.800,139.600 202.800 C 141.114 202.800,142.436 202.665,142.538 202.500 C 142.640 202.335,141.318 202.200,139.600 202.200 C 137.882 202.200,136.560 202.335,136.662 202.500 M103.000 204.400 C 103.859 205.280,104.652 206.000,104.762 206.000 C 104.872 206.000,104.259 205.280,103.400 204.400 C 102.541 203.520,101.748 202.800,101.638 202.800 C 101.528 202.800,102.141 203.520,103.000 204.400 M184.990 204.010 C 184.281 204.750,183.591 205.130,183.215 204.987 C 182.718 204.798,182.697 204.851,183.107 205.263 C 183.517 205.676,183.896 205.490,185.100 204.287 C 185.918 203.469,186.488 202.800,186.368 202.800 C 186.248 202.800,185.628 203.345,184.990 204.010 M218.961 204.000 L 219.000 205.000 224.368 205.112 C 227.320 205.174,229.877 205.084,230.049 204.912 C 230.222 204.740,227.864 204.654,224.810 204.721 C 219.287 204.841,219.256 204.837,219.090 203.921 C 218.937 203.081,218.926 203.088,218.961 204.000 M148.912 205.095 C 149.964 205.177,151.584 205.176,152.512 205.092 C 153.440 205.008,152.580 204.941,150.600 204.942 C 148.620 204.943,147.860 205.012,148.912 205.095 M209.724 208.600 C 209.726 209.920,209.801 210.412,209.890 209.693 C 209.979 208.974,209.977 207.894,209.886 207.293 C 209.795 206.692,209.722 207.280,209.724 208.600 M74.400 209.847 C 76.749 210.145,79.911 210.177,79.739 209.900 C 79.637 209.735,78.168 209.627,76.476 209.660 C 74.784 209.693,73.850 209.777,74.400 209.847 M149.511 210.293 C 150.451 210.378,151.891 210.377,152.711 210.291 C 153.530 210.205,152.760 210.136,151.000 210.137 C 149.240 210.139,148.570 210.209,149.511 210.293 M229.000 210.400 L 219.400 210.622 228.876 210.711 C 234.861 210.767,238.444 210.653,238.600 210.400 C 238.736 210.180,238.792 210.040,238.724 210.089 C 238.656 210.138,234.280 210.278,229.000 210.400 M218.893 212.000 C 218.893 212.770,218.975 213.085,219.076 212.700 C 219.176 212.315,219.176 211.685,219.076 211.300 C 218.975 210.915,218.893 211.230,218.893 212.000 M154.120 213.600 C 154.120 214.810,154.195 215.305,154.287 214.700 C 154.378 214.095,154.378 213.105,154.287 212.500 C 154.195 211.895,154.120 212.390,154.120 213.600 M134.524 215.800 C 134.526 217.120,134.601 217.612,134.690 216.893 C 134.779 216.174,134.777 215.094,134.686 214.493 C 134.595 213.892,134.522 214.480,134.524 215.800 M126.500 218.687 C 127.105 218.778,128.095 218.778,128.700 218.687 C 129.305 218.595,128.810 218.520,127.600 218.520 C 126.390 218.520,125.895 218.595,126.500 218.687 M88.700 219.089 C 89.415 219.178,90.585 219.178,91.300 219.089 C 92.015 219.001,91.430 218.928,90.000 218.928 C 88.570 218.928,87.985 219.001,88.700 219.089 M146.900 219.087 C 147.505 219.178,148.495 219.178,149.100 219.087 C 149.705 218.995,149.210 218.920,148.000 218.920 C 146.790 218.920,146.295 218.995,146.900 219.087 M226.705 219.083 C 227.202 219.179,227.922 219.175,228.305 219.075 C 228.687 218.975,228.280 218.896,227.400 218.901 C 226.520 218.905,226.207 218.987,226.705 219.083 M165.300 219.665 C 166.325 220.039,166.405 220.236,166.476 222.533 L 166.551 225.000 166.698 222.611 C 166.851 220.121,166.316 219.156,164.824 219.232 C 164.481 219.249,164.695 219.444,165.300 219.665 M170.028 219.766 C 169.744 220.108,169.616 221.257,169.703 222.666 L 169.849 225.000 169.924 222.520 C 169.982 220.634,170.168 219.942,170.700 219.632 C 171.085 219.408,171.197 219.219,170.949 219.212 C 170.701 219.205,170.286 219.455,170.028 219.766 M236.828 219.400 C 236.828 219.620,237.086 220.250,237.400 220.800 C 237.714 221.350,237.972 221.620,237.972 221.400 C 237.972 221.180,237.714 220.550,237.400 220.000 C 237.086 219.450,236.828 219.180,236.828 219.400 M207.728 222.400 C 207.728 223.830,207.801 224.415,207.889 223.700 C 207.978 222.985,207.978 221.815,207.889 221.100 C 207.801 220.385,207.728 220.970,207.728 222.400 M213.200 220.125 C 213.200 220.194,213.785 220.779,214.500 221.425 L 215.800 222.600 214.625 221.300 C 213.530 220.088,213.200 219.816,213.200 220.125 M116.000 221.725 C 116.000 221.794,116.585 222.379,117.300 223.025 L 118.600 224.200 117.425 222.900 C 116.330 221.688,116.000 221.416,116.000 221.725 M153.003 221.995 C 152.858 222.229,153.035 222.285,153.437 222.130 C 153.864 221.966,154.336 222.153,154.712 222.635 C 155.261 223.340,155.288 223.343,155.054 222.667 C 154.914 222.264,154.800 221.859,154.800 221.767 C 154.800 221.419,153.236 221.618,153.003 221.995 M84.100 225.076 C 84.485 225.176,85.115 225.176,85.500 225.076 C 85.885 224.975,85.570 224.893,84.800 224.893 C 84.030 224.893,83.715 224.975,84.100 225.076 M88.100 225.494 C 89.145 225.576,90.855 225.576,91.900 225.494 C 92.945 225.412,92.090 225.344,90.000 225.344 C 87.910 225.344,87.055 225.412,88.100 225.494 M123.300 225.487 C 123.905 225.578,124.895 225.578,125.500 225.487 C 126.105 225.395,125.610 225.320,124.400 225.320 C 123.190 225.320,122.695 225.395,123.300 225.487 M144.100 225.487 C 144.705 225.578,145.695 225.578,146.300 225.487 C 146.905 225.395,146.410 225.320,145.200 225.320 C 143.990 225.320,143.495 225.395,144.100 225.487 M224.291 225.489 C 225.001 225.577,226.261 225.579,227.091 225.492 C 227.921 225.405,227.340 225.333,225.800 225.331 C 224.260 225.329,223.581 225.400,224.291 225.489 " stroke="none" fill="#53b96a" fill-rule="evenodd"></path><path id="path3" d="M168.800 178.983 C 168.800 181.932,168.819 181.989,169.900 182.228 C 170.505 182.362,171.585 182.650,172.300 182.867 L 173.600 183.262 173.600 200.551 C 173.600 219.283,173.659 218.800,171.369 218.800 C 169.556 218.800,169.141 219.528,169.280 222.465 L 169.400 225.000 178.200 225.000 L 187.000 225.000 187.120 222.465 C 187.255 219.605,186.827 218.776,185.251 218.847 C 184.239 218.893,184.245 218.904,185.400 219.150 C 186.574 219.400,186.603 219.464,186.718 222.103 L 186.837 224.800 178.218 224.800 L 169.600 224.800 169.600 222.480 C 169.600 219.961,170.042 219.200,171.506 219.200 C 174.139 219.200,174.001 220.216,173.994 200.886 C 173.987 181.488,174.138 182.575,171.392 182.117 L 169.400 181.784 169.282 179.092 L 169.163 176.400 175.977 176.400 L 182.790 176.400 182.895 190.700 C 182.970 200.948,183.127 205.000,183.449 205.000 C 183.827 205.000,186.610 202.647,191.113 198.521 C 192.265 197.465,191.980 196.800,190.376 196.800 L 189.200 196.800 189.200 193.992 L 189.200 191.184 197.700 191.292 L 206.200 191.400 206.319 193.906 C 206.428 196.196,206.359 196.445,205.519 196.802 L 204.600 197.192 205.600 197.096 C 206.569 197.003,206.600 196.908,206.600 194.000 L 206.600 191.000 197.800 191.000 L 189.000 191.000 189.000 194.000 L 189.000 197.000 190.352 197.200 L 191.704 197.400 187.691 201.100 C 185.483 203.135,183.572 204.800,183.444 204.800 C 183.315 204.800,183.163 198.365,183.105 190.500 L 183.000 176.200 175.900 176.091 L 168.800 175.982 168.800 178.983 M83.400 179.449 L 82.200 180.033 83.400 179.785 C 84.060 179.648,85.500 179.396,86.600 179.224 L 88.600 178.913 86.600 178.889 C 85.500 178.876,84.060 179.128,83.400 179.449 M94.000 179.208 C 97.609 179.671,98.987 180.075,102.127 181.592 C 105.884 183.407,106.051 183.745,105.914 189.250 L 105.800 193.800 102.635 193.918 C 100.386 194.002,99.364 193.886,99.104 193.518 C 98.823 193.119,98.776 193.138,98.902 193.600 C 99.111 194.372,104.976 194.684,105.838 193.969 C 106.497 193.422,106.648 185.504,106.030 183.880 C 105.270 181.879,98.635 179.179,94.000 178.984 L 91.400 178.875 94.000 179.208 M79.967 180.928 C 77.190 182.618,74.000 185.933,74.000 187.128 C 74.000 187.449,74.468 187.012,75.040 186.156 C 76.670 183.717,78.383 182.096,80.266 181.211 C 81.220 180.763,82.000 180.307,82.000 180.198 C 82.000 179.836,81.415 180.046,79.967 180.928 M114.267 183.067 C 114.120 183.213,114.000 185.004,114.000 187.046 L 114.000 190.758 111.900 190.879 L 109.800 191.000 109.800 194.400 L 109.800 197.800 111.800 198.000 L 113.800 198.200 114.000 208.268 C 114.110 213.805,114.297 218.432,114.415 218.550 C 114.654 218.788,114.441 198.881,114.197 198.123 C 114.112 197.860,113.178 197.590,112.121 197.523 L 110.200 197.400 110.084 194.321 L 109.967 191.243 112.084 191.121 L 114.200 191.000 114.314 187.127 C 114.410 183.864,114.536 183.225,115.114 183.073 C 115.679 182.925,115.688 182.885,115.167 182.846 C 114.818 182.821,114.413 182.920,114.267 183.067 M122.700 183.040 C 123.044 183.196,123.200 184.351,123.200 186.753 C 123.200 191.014,123.355 191.200,126.897 191.200 L 129.634 191.200 129.517 194.300 L 129.400 197.400 126.815 197.521 C 123.052 197.698,123.197 197.348,123.217 206.149 C 123.243 217.541,123.540 218.400,127.443 218.400 C 128.741 218.400,129.610 218.590,129.735 218.900 C 129.856 219.199,129.950 219.118,129.968 218.700 C 129.995 218.108,129.632 218.000,127.629 218.000 C 123.868 218.000,123.967 218.295,124.093 207.464 L 124.200 198.200 127.000 198.000 L 129.800 197.800 129.800 194.400 L 129.800 191.000 126.914 190.883 L 124.029 190.766 123.914 186.887 C 123.810 183.352,123.729 183.001,123.000 182.912 C 122.560 182.858,122.425 182.916,122.700 183.040 M85.456 186.956 C 84.607 187.452,83.726 188.204,83.499 188.629 C 83.188 189.211,83.371 189.146,84.243 188.364 C 85.431 187.300,87.039 186.562,88.800 186.273 C 89.519 186.155,89.407 186.101,88.400 186.082 C 87.628 186.067,86.308 186.459,85.456 186.956 M92.200 186.424 C 93.300 186.596,94.740 186.849,95.400 186.987 C 96.594 187.237,96.593 187.235,95.254 186.619 C 94.514 186.279,93.074 186.025,92.054 186.056 L 90.200 186.113 92.200 186.424 M73.387 190.162 C 73.063 192.762,73.694 196.021,74.856 197.746 C 75.783 199.121,78.859 202.075,79.106 201.827 C 79.191 201.742,78.422 200.899,77.397 199.954 C 74.570 197.349,73.874 195.680,73.870 191.500 C 73.866 187.446,73.763 187.159,73.387 190.162 M98.046 190.200 C 98.027 190.860,98.187 191.670,98.400 192.000 C 98.890 192.758,98.890 191.530,98.400 190.000 C 98.086 189.020,98.079 189.024,98.046 190.200 M82.874 191.422 C 82.795 193.583,83.968 195.231,86.400 196.374 C 87.346 196.819,87.357 196.811,86.600 196.233 C 83.341 193.746,83.245 193.614,83.094 191.475 L 82.948 189.400 82.874 191.422 M145.800 190.400 C 145.283 190.622,146.343 190.737,148.800 190.725 C 151.362 190.712,152.209 190.606,151.400 190.400 C 149.759 189.983,146.772 189.983,145.800 190.400 M221.600 190.564 C 217.335 191.459,214.217 193.617,212.104 197.139 C 210.926 199.101,209.808 201.941,210.099 202.232 C 210.193 202.327,210.515 201.638,210.813 200.702 C 212.748 194.636,217.363 191.249,224.200 190.878 C 226.819 190.735,227.855 190.560,227.200 190.370 C 225.812 189.967,224.175 190.024,221.600 190.564 M141.200 191.297 C 140.650 191.541,139.279 192.145,138.154 192.640 C 136.253 193.476,135.591 194.175,135.606 195.333 C 135.609 195.590,135.839 195.350,136.117 194.800 C 136.683 193.680,138.339 192.768,141.600 191.780 C 142.810 191.413,143.980 191.057,144.200 190.988 C 144.420 190.919,144.060 190.861,143.400 190.859 C 142.740 190.856,141.750 191.053,141.200 191.297 M153.800 191.181 C 158.756 192.417,162.023 195.684,162.818 200.200 L 163.100 201.800 163.150 200.284 C 163.280 196.357,157.644 190.701,153.742 190.841 L 152.600 190.882 153.800 191.181 M229.467 191.184 C 235.597 192.644,239.033 198.511,238.729 207.000 L 238.600 210.600 228.800 210.814 L 219.000 211.029 229.000 211.014 L 239.000 211.000 239.122 206.600 C 239.355 198.226,234.633 190.644,229.308 190.841 C 228.215 190.881,228.217 190.886,229.467 191.184 M88.546 197.402 C 89.176 197.731,89.896 197.994,90.146 197.986 C 90.800 197.965,88.717 196.831,88.000 196.817 C 87.670 196.810,87.916 197.074,88.546 197.402 M136.163 199.800 L 136.200 203.000 139.600 203.000 C 142.934 203.000,143.002 202.981,143.096 202.000 L 143.192 201.000 142.802 201.918 C 142.440 202.772,142.211 202.827,139.506 202.718 L 136.600 202.600 136.363 199.600 L 136.126 196.600 136.163 199.800 M148.200 197.165 C 152.137 197.627,153.167 198.662,153.609 202.600 L 153.878 205.000 153.939 202.662 C 154.038 198.851,151.916 196.736,148.120 196.865 L 146.200 196.930 148.200 197.165 M144.075 198.016 C 143.562 198.494,143.215 199.279,143.236 199.916 C 143.271 200.966,143.284 200.960,143.645 199.708 C 143.863 198.956,144.475 198.168,145.109 197.824 C 145.757 197.473,145.946 197.226,145.575 197.216 C 145.232 197.207,144.557 197.567,144.075 198.016 M202.200 197.953 C 200.098 199.266,194.199 204.891,194.224 205.558 C 194.238 205.911,195.678 208.072,197.424 210.361 C 202.501 217.012,203.762 218.524,204.400 218.724 C 204.730 218.828,204.550 218.482,204.000 217.956 C 203.450 217.430,201.650 215.200,200.000 213.000 C 198.350 210.800,196.900 208.910,196.779 208.800 C 196.657 208.690,196.038 207.908,195.403 207.062 L 194.248 205.525 196.824 203.046 C 199.702 200.277,202.101 198.387,203.600 197.707 C 204.150 197.458,204.330 197.243,204.000 197.229 C 203.670 197.215,202.860 197.540,202.200 197.953 M222.600 197.944 C 220.485 199.250,219.200 201.491,219.200 203.871 L 219.200 204.823 224.700 204.711 L 230.200 204.600 230.269 203.200 C 230.336 201.838,230.331 201.832,230.066 203.000 L 229.793 204.200 224.650 204.312 L 219.506 204.425 219.787 202.926 C 220.450 199.395,222.139 197.831,225.240 197.878 C 226.313 197.894,227.092 197.748,226.971 197.554 C 226.587 196.932,223.841 197.177,222.600 197.944 M91.400 198.400 C 92.501 198.873,92.892 198.873,92.600 198.400 C 92.464 198.180,91.958 198.013,91.476 198.028 C 90.631 198.055,90.629 198.069,91.400 198.400 M228.486 199.100 C 229.056 199.705,229.609 200.560,229.715 201.000 C 229.898 201.763,229.909 201.761,229.954 200.954 C 230.005 200.020,228.598 198.000,227.896 198.000 C 227.651 198.000,227.917 198.495,228.486 199.100 M94.346 199.416 C 95.086 199.737,95.896 199.994,96.146 199.986 C 96.936 199.961,94.637 198.828,93.800 198.830 C 93.248 198.831,93.417 199.012,94.346 199.416 M98.200 200.905 C 99.081 201.397,100.320 202.068,100.954 202.396 C 101.589 202.725,103.005 203.985,104.101 205.196 C 105.197 206.408,105.905 207.029,105.674 206.576 C 104.615 204.500,98.715 199.988,97.080 200.005 C 96.816 200.007,97.320 200.412,98.200 200.905 M79.600 202.153 C 79.600 202.475,84.690 204.732,87.330 205.581 C 90.025 206.448,89.288 205.782,86.493 204.825 C 85.012 204.317,82.911 203.474,81.825 202.951 C 79.769 201.961,79.600 201.900,79.600 202.153 M209.386 206.236 C 209.228 208.126,209.257 210.601,209.450 211.736 C 209.738 213.437,209.806 212.832,209.836 208.300 C 209.878 201.917,209.782 201.477,209.386 206.236 M142.800 205.178 C 142.470 205.360,141.235 205.930,140.055 206.444 C 137.811 207.422,134.775 210.394,134.832 211.556 C 134.858 212.098,134.897 212.105,135.080 211.600 C 136.134 208.675,141.240 205.675,146.200 205.067 C 146.869 204.985,146.515 204.904,145.400 204.883 C 144.300 204.863,143.130 204.996,142.800 205.178 M90.546 206.602 C 91.176 206.931,91.986 207.193,92.346 207.184 C 92.706 207.176,92.394 206.906,91.654 206.584 C 89.894 205.820,89.072 205.834,90.546 206.602 M93.200 207.350 C 93.200 207.444,93.828 207.892,94.596 208.345 C 100.910 212.070,97.685 218.217,89.443 218.165 C 86.672 218.148,85.773 218.249,86.443 218.502 C 93.310 221.094,100.830 214.815,96.764 209.883 C 95.712 208.606,93.200 206.821,93.200 207.350 M106.016 208.076 C 106.007 208.448,106.180 208.864,106.400 209.000 C 106.620 209.136,106.830 210.002,106.867 210.924 L 106.934 212.600 107.090 211.119 C 107.180 210.268,106.988 209.163,106.639 208.519 C 106.232 207.770,106.027 207.623,106.016 208.076 M73.082 209.452 C 72.927 209.607,72.800 212.195,72.800 215.205 C 72.800 221.482,72.623 221.134,76.800 223.089 C 80.684 224.907,81.533 225.204,82.719 225.159 C 83.841 225.117,83.432 224.957,80.072 224.126 C 79.561 223.999,77.851 223.228,76.272 222.413 L 73.400 220.930 73.400 215.365 L 73.400 209.800 76.600 209.800 L 79.800 209.800 80.402 212.800 C 81.164 216.597,82.350 218.011,84.761 217.996 C 85.113 217.994,84.479 217.563,83.353 217.039 C 81.313 216.089,81.306 216.079,81.126 213.943 C 80.787 209.913,80.304 209.418,76.577 209.285 C 74.810 209.222,73.236 209.297,73.082 209.452 M146.657 210.811 C 143.194 211.849,142.082 216.998,145.030 218.341 C 146.551 219.034,147.172 218.860,145.800 218.126 C 144.225 217.283,144.013 216.911,144.006 214.975 C 143.996 212.201,145.446 211.210,149.945 210.918 L 153.600 210.682 153.600 213.271 C 153.600 216.260,152.857 217.299,150.157 218.088 C 149.094 218.398,148.833 218.594,149.335 218.707 C 149.739 218.798,150.909 218.354,151.935 217.720 L 153.800 216.569 153.917 213.484 L 154.034 210.400 150.917 210.434 C 149.203 210.453,147.286 210.623,146.657 210.811 M184.882 213.124 C 183.006 214.858,182.806 215.204,182.864 216.624 L 182.928 218.200 183.093 216.800 C 183.260 215.382,184.467 213.798,186.489 212.344 L 187.578 211.561 190.143 215.059 L 192.708 218.557 191.736 219.322 C 190.866 220.006,190.776 220.345,190.882 222.543 L 191.000 225.000 199.600 225.000 L 208.200 225.000 208.233 222.698 L 208.266 220.396 208.113 222.598 L 207.960 224.800 199.580 224.800 L 191.200 224.800 191.200 222.363 C 191.200 220.291,191.316 219.895,191.972 219.723 C 193.414 219.346,193.156 218.468,190.536 214.831 C 187.487 210.597,187.584 210.627,184.882 213.124 M219.228 212.516 C 219.160 214.254,222.059 218.008,223.462 217.997 C 223.648 217.996,223.295 217.662,222.678 217.255 C 221.312 216.354,220.537 215.287,219.809 213.305 C 219.505 212.477,219.244 212.122,219.228 212.516 M134.267 212.667 C 133.808 213.126,133.988 217.730,134.525 219.272 C 135.401 221.788,139.023 225.225,140.756 225.185 C 141.110 225.177,140.651 224.819,139.735 224.390 C 136.171 222.718,134.082 218.796,134.516 214.590 C 134.748 212.349,134.729 212.205,134.267 212.667 M106.739 215.000 C 106.602 215.880,106.370 217.050,106.222 217.600 C 105.968 218.550,105.987 218.544,106.600 217.481 C 106.974 216.832,107.191 215.738,107.116 214.881 L 106.987 213.400 106.739 215.000 M210.028 214.676 C 210.013 215.158,210.180 215.664,210.400 215.800 C 210.873 216.092,210.873 215.701,210.400 214.600 C 210.069 213.829,210.055 213.831,210.028 214.676 M233.400 216.916 C 232.200 217.537,230.799 217.790,227.800 217.927 C 225.257 218.043,224.091 218.225,224.600 218.427 C 226.785 219.292,232.064 218.356,235.287 216.532 C 236.050 216.100,238.067 221.263,237.416 221.982 C 236.613 222.869,233.209 224.539,231.400 224.933 C 230.903 225.041,231.054 225.113,231.800 225.122 C 233.131 225.137,237.540 222.949,238.120 221.984 C 238.551 221.267,236.159 215.971,235.436 216.044 C 235.196 216.068,234.280 216.460,233.400 216.916 M210.800 216.786 C 210.800 217.721,215.281 223.200,216.047 223.200 C 216.203 223.200,215.356 222.202,214.165 220.982 C 212.974 219.762,211.994 218.547,211.987 218.282 C 211.969 217.586,210.800 216.112,210.800 216.786 M163.434 218.856 C 163.551 219.045,164.008 219.200,164.450 219.200 C 166.296 219.200,166.800 219.889,166.800 222.414 L 166.800 224.800 161.050 224.800 L 155.300 224.800 155.058 223.591 C 154.711 221.853,153.829 221.716,152.199 223.147 C 150.269 224.841,146.915 225.766,143.828 225.453 C 142.187 225.287,141.595 225.334,142.000 225.598 C 144.159 227.001,150.437 225.506,152.955 222.988 C 153.754 222.189,154.678 222.738,154.876 224.129 C 154.997 224.979,155.142 225.000,161.000 225.000 L 167.000 225.000 167.103 222.600 C 167.160 221.280,167.047 219.955,166.852 219.655 C 166.472 219.072,163.077 218.278,163.434 218.856 M104.000 220.724 C 100.573 224.300,95.047 225.916,87.684 225.498 C 84.761 225.331,84.142 225.374,85.184 225.671 C 86.582 226.070,93.816 225.895,96.400 225.400 C 99.452 224.815,103.559 222.304,105.175 220.036 C 106.363 218.367,106.126 218.506,104.000 220.724 M206.000 219.076 C 206.550 219.187,207.254 219.484,207.565 219.738 C 208.011 220.103,208.089 220.073,207.934 219.600 C 207.817 219.240,207.190 218.975,206.369 218.938 C 205.417 218.895,205.304 218.937,206.000 219.076 M114.854 219.677 C 114.717 221.388,118.198 225.212,119.873 225.191 C 120.341 225.185,120.130 224.950,119.280 224.531 C 117.734 223.770,115.316 221.079,115.076 219.853 C 114.964 219.282,114.891 219.224,114.854 219.677 M130.180 221.926 C 130.315 224.212,130.247 224.485,129.464 224.801 L 128.600 225.149 129.513 225.175 C 130.740 225.209,130.926 224.524,130.441 221.746 L 130.032 219.400 130.180 221.926 M216.925 223.471 C 217.194 223.894,219.397 224.955,221.228 225.542 C 222.965 226.099,229.168 226.138,230.000 225.598 C 230.402 225.337,229.608 225.290,227.600 225.454 C 224.232 225.729,220.661 225.145,218.258 223.924 C 217.410 223.494,216.810 223.289,216.925 223.471 M121.339 225.694 C 121.950 226.083,127.267 226.073,127.883 225.681 C 128.149 225.512,126.682 225.379,124.622 225.387 C 122.562 225.394,121.085 225.532,121.339 225.694 " stroke="none" fill="#5f5f5f" fill-rule="evenodd"></path><path id="path4" d="M171.400 175.872 C 177.258 176.161,183.110 176.175,182.939 175.900 C 182.837 175.735,179.658 175.635,175.876 175.677 C 172.094 175.719,170.080 175.807,171.400 175.872 M57.320 176.500 C 57.112 176.775,56.421 178.098,55.784 179.440 C 54.567 182.005,53.319 182.748,50.094 182.827 C 43.311 182.991,39.952 191.206,42.990 200.200 C 44.504 204.681,44.327 208.048,42.497 209.575 C 40.583 211.173,38.549 211.799,37.253 211.189 C 36.674 210.916,35.750 210.518,35.200 210.304 C 34.650 210.091,33.660 209.683,33.000 209.399 C 28.054 207.270,26.339 206.701,25.974 207.066 C 24.204 208.836,19.427 220.000,20.440 220.000 C 20.681 220.000,21.536 220.292,22.340 220.649 C 24.141 221.449,27.009 222.735,30.308 224.223 C 33.260 225.555,33.292 225.538,35.188 221.700 C 36.108 219.837,36.633 219.200,37.250 219.200 C 38.426 219.200,42.285 218.079,44.377 217.130 C 47.936 215.515,48.987 214.320,50.754 209.881 C 51.642 207.652,50.878 199.862,49.608 198.200 C 48.747 197.071,48.283 193.714,48.820 192.499 C 50.148 189.499,52.824 189.201,58.000 191.478 C 65.705 194.867,64.673 195.256,68.545 187.504 C 71.176 182.235,71.536 180.800,70.223 180.800 C 69.893 180.800,68.672 180.367,67.511 179.838 C 66.350 179.310,64.320 178.403,63.000 177.823 C 61.680 177.243,60.287 176.596,59.905 176.384 C 58.943 175.852,57.770 175.904,57.320 176.500 M283.446 176.624 C 283.040 177.683,283.169 181.533,283.620 181.812 C 283.851 181.955,284.886 182.281,285.920 182.536 L 287.800 183.000 287.911 200.000 C 288.040 219.716,288.134 218.800,285.982 218.800 C 284.131 218.800,283.596 219.640,283.606 222.526 C 283.616 225.319,283.276 225.227,293.228 225.108 L 302.200 225.000 302.320 222.710 C 302.475 219.743,301.972 218.800,300.235 218.800 C 297.953 218.800,298.016 219.384,297.904 196.963 L 297.800 176.200 290.746 176.091 C 284.577 175.996,283.662 176.062,283.446 176.624 M296.957 177.033 C 297.091 177.381,297.200 186.820,297.200 198.009 C 297.200 213.845,297.311 218.424,297.700 218.676 C 297.975 218.854,298.920 219.180,299.800 219.400 L 301.400 219.800 301.519 222.300 L 301.638 224.800 293.019 224.800 L 284.400 224.800 284.400 222.449 C 284.400 219.906,284.597 219.702,287.700 219.025 L 288.800 218.785 288.800 200.841 C 288.800 180.924,289.006 182.275,285.900 181.826 L 284.000 181.551 284.000 179.608 C 284.000 176.260,283.712 176.400,290.600 176.400 C 295.807 176.400,296.750 176.494,296.957 177.033 M60.722 177.622 C 61.755 178.074,63.005 178.614,63.500 178.822 C 63.995 179.030,64.805 179.370,65.300 179.578 C 71.000 181.973,70.862 181.410,67.424 188.199 C 64.428 194.115,64.683 193.764,63.739 193.262 C 62.353 192.524,58.379 190.800,58.064 190.800 C 57.891 190.800,56.781 190.333,55.597 189.762 C 50.772 187.434,46.198 192.015,48.371 197.000 C 50.269 201.355,50.909 205.561,50.170 208.813 C 49.590 211.361,47.818 214.800,47.084 214.800 C 46.898 214.800,46.157 215.250,45.436 215.800 C 44.714 216.350,43.837 216.800,43.486 216.800 C 43.135 216.800,42.746 216.963,42.623 217.163 C 42.500 217.362,41.454 217.641,40.300 217.784 C 36.425 218.261,36.204 218.357,35.395 219.913 C 32.736 225.032,33.354 224.889,26.800 221.900 C 22.498 219.939,21.673 219.600,21.196 219.600 C 20.419 219.600,21.023 217.941,23.721 212.666 C 25.755 208.688,26.355 207.821,27.005 207.914 C 27.826 208.032,30.467 209.006,31.703 209.647 C 33.963 210.817,38.483 212.349,39.089 212.149 C 44.869 210.243,46.297 206.364,43.635 199.800 C 40.103 191.091,44.249 183.200,52.356 183.200 C 54.528 183.200,54.890 182.875,56.583 179.400 C 58.040 176.408,57.994 176.428,60.722 177.622 M89.100 178.689 C 89.815 178.778,90.985 178.778,91.700 178.689 C 92.415 178.601,91.830 178.528,90.400 178.528 C 88.970 178.528,88.385 178.601,89.100 178.689 M243.067 179.467 C 242.920 179.613,242.800 180.949,242.800 182.436 C 242.800 185.406,242.732 185.337,246.500 186.172 L 247.600 186.415 247.587 201.908 C 247.573 218.840,247.579 218.800,245.289 218.800 C 242.958 218.800,242.800 219.019,242.800 222.243 L 242.800 225.200 252.400 225.200 L 262.000 225.200 262.000 222.480 C 262.000 219.365,261.637 218.803,259.620 218.794 C 257.234 218.784,257.160 218.620,257.286 213.568 L 257.400 209.000 263.600 208.755 C 272.477 208.404,275.920 207.005,279.240 202.400 C 281.237 199.630,282.382 194.808,281.673 192.157 C 281.413 191.184,281.200 190.027,281.200 189.584 C 281.200 188.743,278.140 183.600,277.640 183.600 C 277.481 183.600,277.002 183.275,276.575 182.878 C 275.332 181.720,271.580 180.045,269.245 179.606 C 266.883 179.161,243.497 179.037,243.067 179.467 M272.812 181.435 C 278.585 184.164,280.800 187.749,280.800 194.360 C 280.800 196.556,280.643 198.450,280.452 198.568 C 280.260 198.686,280.003 199.282,279.879 199.892 C 279.405 202.240,275.576 205.596,271.601 207.147 C 270.744 207.481,267.638 207.792,263.600 207.947 L 257.000 208.200 257.000 213.600 L 257.000 219.000 258.665 219.222 C 261.145 219.553,261.659 220.155,261.519 222.564 L 261.400 224.600 252.300 224.708 L 243.200 224.815 243.200 222.456 C 243.200 219.878,243.688 219.398,246.600 219.116 L 247.800 219.000 247.904 202.481 L 248.009 185.963 246.617 185.381 C 245.852 185.062,244.770 184.800,244.213 184.800 C 243.241 184.800,243.200 184.703,243.200 182.380 L 243.200 179.960 256.700 180.080 L 270.200 180.200 272.812 181.435 M116.915 182.696 C 118.188 182.776,120.168 182.775,121.315 182.694 C 122.462 182.614,121.420 182.549,119.000 182.550 C 116.580 182.551,115.642 182.616,116.915 182.696 M113.771 183.332 C 113.659 183.624,113.621 185.469,113.687 187.432 L 113.807 191.000 114.003 186.899 C 114.198 182.832,114.164 182.307,113.771 183.332 M124.144 187.200 C 124.144 189.290,124.212 190.145,124.294 189.100 C 124.376 188.055,124.376 186.345,124.294 185.300 C 124.212 184.255,124.144 185.110,124.144 187.200 M256.978 186.513 C 256.870 186.795,256.830 190.350,256.891 194.413 L 257.000 201.800 261.000 201.920 C 269.110 202.162,272.400 199.896,272.400 194.066 C 272.400 188.178,269.371 186.000,261.182 186.000 C 258.292 186.000,257.120 186.143,256.978 186.513 M268.788 187.992 C 272.639 190.734,273.052 196.448,269.620 199.510 C 268.220 200.760,267.300 200.936,262.000 200.970 L 257.400 201.000 257.290 194.415 C 257.229 190.794,257.279 187.572,257.400 187.255 C 257.776 186.276,267.238 186.888,268.788 187.992 M84.204 188.396 C 83.574 189.054,83.135 189.656,83.229 189.734 C 83.323 189.812,83.913 189.274,84.539 188.538 C 85.954 186.877,85.745 186.788,84.204 188.396 M73.043 189.833 C 72.708 190.705,72.749 193.300,73.106 193.862 C 73.268 194.116,73.400 193.171,73.400 191.762 C 73.400 188.951,73.394 188.918,73.043 189.833 M357.000 190.400 C 356.560 190.589,355.570 190.758,354.800 190.776 C 354.030 190.793,352.495 191.326,351.390 191.961 C 342.024 197.333,344.433 208.387,355.600 211.282 C 356.370 211.482,357.720 211.822,358.600 212.037 C 363.407 213.212,365.234 215.603,363.018 217.818 C 360.380 220.457,353.200 218.747,353.200 215.480 C 353.200 213.397,352.245 212.800,348.915 212.800 C 345.550 212.800,345.611 212.698,345.612 218.400 C 345.612 223.619,345.719 223.713,353.706 225.559 C 364.305 228.010,373.158 223.344,373.188 215.292 C 373.207 209.983,370.619 207.018,364.400 205.226 C 363.410 204.941,362.150 204.557,361.600 204.372 C 361.050 204.188,359.858 203.848,358.952 203.617 C 356.701 203.043,355.200 201.794,355.200 200.493 C 355.200 196.143,363.692 195.938,364.608 200.266 C 365.080 202.496,365.259 202.600,368.644 202.600 L 371.800 202.600 371.913 197.915 L 372.025 193.229 370.513 192.486 C 366.925 190.724,359.068 189.511,357.000 190.400 M109.368 191.340 C 109.254 191.637,109.217 193.122,109.285 194.640 L 109.410 197.400 109.605 194.099 C 109.800 190.803,109.758 190.322,109.368 191.340 M129.800 194.337 L 129.800 197.800 127.000 198.000 L 124.200 198.200 124.189 207.400 L 124.178 216.600 124.296 207.500 L 124.415 198.400 126.927 198.400 C 128.348 198.400,129.649 198.191,129.920 197.920 C 130.447 197.393,130.605 191.374,130.100 191.061 C 129.935 190.959,129.800 192.433,129.800 194.337 M206.600 194.000 C 206.600 195.718,206.735 197.040,206.900 196.938 C 207.065 196.836,207.200 195.514,207.200 194.000 C 207.200 192.486,207.065 191.164,206.900 191.062 C 206.735 190.960,206.600 192.282,206.600 194.000 M304.276 191.057 C 303.619 191.715,303.979 196.818,304.700 197.050 C 305.085 197.174,305.879 197.453,306.464 197.671 L 307.527 198.067 307.707 207.533 C 307.894 217.360,308.017 218.148,309.854 221.248 C 313.102 226.731,323.025 227.634,327.363 222.841 C 328.436 221.655,328.734 221.785,328.876 223.500 L 329.000 225.000 335.400 225.000 L 341.800 225.000 341.903 222.600 C 342.029 219.684,341.728 219.160,339.742 218.837 L 338.200 218.587 338.000 205.113 C 337.869 196.286,337.652 191.491,337.369 191.209 C 337.089 190.929,334.722 190.817,330.569 190.889 L 324.200 191.000 324.200 193.975 L 324.200 196.949 325.600 197.311 C 328.051 197.944,328.000 197.735,328.000 207.046 L 328.000 215.595 326.340 216.797 C 324.981 217.782,324.287 218.000,322.514 218.000 C 317.670 218.000,317.455 217.377,317.200 202.600 L 317.000 191.000 310.776 190.890 C 307.353 190.830,304.428 190.905,304.276 191.057 M316.800 203.472 C 317.040 217.949,317.338 218.777,322.313 218.794 C 327.853 218.813,328.400 217.743,328.400 206.880 C 328.400 197.076,328.344 196.800,326.334 196.800 C 324.991 196.800,324.400 195.845,324.400 193.675 C 324.400 191.300,324.785 191.162,331.055 191.288 L 336.600 191.400 336.800 204.800 C 337.012 219.027,337.036 219.200,338.762 219.200 C 340.474 219.200,341.270 220.364,341.124 222.658 L 341.000 224.600 335.400 224.600 L 329.800 224.600 329.397 222.930 C 328.877 220.777,328.518 220.454,327.793 221.488 C 324.949 225.549,316.292 226.334,312.146 222.906 C 309.204 220.474,308.743 218.500,308.447 207.085 C 308.183 196.913,308.162 196.820,306.114 196.806 C 305.004 196.798,304.400 195.705,304.400 193.706 C 304.400 191.272,304.690 191.166,310.990 191.290 L 316.600 191.400 316.800 203.472 M365.972 191.643 C 366.757 191.887,368.210 192.388,369.200 192.757 L 371.000 193.427 371.000 197.613 L 371.000 201.800 368.200 201.800 L 365.400 201.800 365.278 200.111 C 364.925 195.253,354.800 195.347,354.800 200.209 C 354.800 202.623,358.698 205.200,362.352 205.200 C 362.792 205.200,363.264 205.380,363.400 205.600 C 363.536 205.820,363.959 206.000,364.339 206.000 C 367.899 206.000,372.806 211.098,372.794 214.782 C 372.783 218.085,370.879 221.939,368.769 222.928 C 368.456 223.075,367.930 223.355,367.600 223.551 C 365.401 224.857,364.515 224.999,358.839 224.957 C 353.108 224.915,351.281 224.608,347.500 223.056 L 346.400 222.605 346.400 218.102 L 346.400 213.600 348.977 213.600 C 351.827 213.600,352.800 214.317,352.800 216.419 C 352.800 220.679,363.508 220.809,364.574 216.562 C 365.195 214.086,360.480 210.800,356.306 210.800 C 355.708 210.800,353.819 210.106,351.343 208.977 C 344.465 205.839,344.962 195.699,352.158 192.368 C 354.870 191.112,362.902 190.691,365.972 191.643 M234.000 192.925 C 234.000 192.994,234.585 193.579,235.300 194.225 L 236.600 195.400 235.425 194.100 C 234.330 192.888,234.000 192.616,234.000 192.925 M135.664 199.076 C 135.629 201.098,135.735 202.837,135.900 202.939 C 136.065 203.042,136.150 201.928,136.090 200.463 C 135.897 195.823,135.730 195.279,135.664 199.076 M111.990 198.283 L 113.585 198.445 113.704 207.423 L 113.823 216.400 113.812 207.300 L 113.800 198.200 112.097 198.161 L 110.394 198.122 111.990 198.283 M143.646 199.667 C 143.621 200.034,143.496 200.664,143.370 201.067 C 143.152 201.762,143.163 201.763,143.597 201.087 C 143.848 200.696,143.973 200.066,143.873 199.687 C 143.711 199.068,143.688 199.066,143.646 199.667 M209.989 200.821 C 209.747 201.272,209.606 201.914,209.675 202.246 C 209.744 202.579,209.998 202.209,210.240 201.425 C 210.735 199.823,210.642 199.600,209.989 200.821 M163.280 209.476 C 163.236 214.358,163.335 218.437,163.500 218.539 C 163.665 218.641,163.754 215.997,163.697 212.663 C 163.509 201.615,163.362 200.489,163.280 209.476 M185.330 202.809 C 184.191 203.904,183.388 204.800,183.545 204.800 C 183.702 204.800,184.717 203.900,185.800 202.800 C 188.344 200.218,188.017 200.224,185.330 202.809 M229.654 202.700 L 229.600 204.000 224.829 204.000 C 220.622 204.000,220.037 203.917,219.876 203.300 C 219.738 202.773,219.681 202.823,219.646 203.500 C 219.601 204.388,219.667 204.400,224.613 204.400 C 229.979 204.400,230.260 204.290,229.886 202.329 C 229.751 201.622,229.696 201.710,229.654 202.700 M104.845 205.381 C 105.200 205.831,105.690 206.560,105.933 207.000 C 106.177 207.440,106.381 207.578,106.388 207.306 C 106.395 207.035,105.905 206.306,105.300 205.687 C 104.695 205.068,104.490 204.930,104.845 205.381 M148.512 204.695 C 149.564 204.777,151.184 204.776,152.112 204.692 C 153.040 204.608,152.180 204.541,150.200 204.542 C 148.220 204.543,147.460 204.612,148.512 204.695 M209.050 205.650 C 208.709 207.353,208.745 211.295,209.106 211.858 C 209.268 212.110,209.401 210.535,209.402 208.358 C 209.403 203.936,209.399 203.904,209.050 205.650 M87.376 205.770 C 87.804 206.117,88.524 206.385,88.976 206.366 C 89.637 206.338,89.589 206.267,88.731 206.009 C 88.144 205.831,87.424 205.563,87.131 205.413 C 86.839 205.263,86.949 205.424,87.376 205.770 M73.060 209.100 C 72.958 209.265,74.307 209.341,76.058 209.269 C 78.271 209.178,79.450 209.300,79.922 209.669 C 80.532 210.147,80.545 210.130,80.051 209.500 C 79.479 208.770,73.479 208.427,73.060 209.100 M149.491 211.089 C 150.201 211.177,151.461 211.179,152.291 211.092 C 153.121 211.005,152.540 210.933,151.000 210.931 C 149.460 210.929,148.781 211.000,149.491 211.089 M107.314 213.000 C 107.317 214.100,107.395 214.503,107.487 213.895 C 107.579 213.286,107.577 212.386,107.482 211.895 C 107.387 211.403,107.311 211.900,107.314 213.000 M145.031 212.368 C 144.415 213.010,144.008 213.775,144.124 214.068 C 144.290 214.483,144.344 214.473,144.368 214.022 C 144.386 213.704,144.884 212.939,145.475 212.322 C 146.066 211.705,146.460 211.200,146.350 211.200 C 146.240 211.200,145.646 211.726,145.031 212.368 M133.724 215.800 C 133.726 217.120,133.801 217.612,133.890 216.893 C 133.979 216.174,133.977 215.094,133.886 214.493 C 133.795 213.892,133.722 214.480,133.724 215.800 M126.307 217.890 C 127.026 217.979,128.106 217.977,128.707 217.886 C 129.308 217.795,128.720 217.722,127.400 217.724 C 126.080 217.726,125.588 217.801,126.307 217.890 M88.900 218.287 C 89.505 218.378,90.495 218.378,91.100 218.287 C 91.705 218.195,91.210 218.120,90.000 218.120 C 88.790 218.120,88.295 218.195,88.900 218.287 M147.800 218.400 C 146.693 218.682,146.677 218.709,147.600 218.747 C 148.150 218.769,148.870 218.613,149.200 218.400 C 149.881 217.960,149.529 217.960,147.800 218.400 M169.280 219.280 C 168.758 219.802,168.605 224.631,169.100 224.939 C 169.265 225.042,169.339 223.965,169.265 222.546 C 169.180 220.927,169.310 219.749,169.614 219.383 C 170.197 218.681,169.954 218.606,169.280 219.280 M214.000 221.800 C 214.746 222.570,215.447 223.200,215.557 223.200 C 215.667 223.200,215.146 222.570,214.400 221.800 C 213.654 221.030,212.953 220.400,212.843 220.400 C 212.733 220.400,213.254 221.030,214.000 221.800 M130.590 223.382 C 130.596 224.338,130.735 225.038,130.900 224.936 C 131.288 224.699,131.277 222.741,130.884 222.122 C 130.717 221.859,130.585 222.426,130.590 223.382 M88.100 226.294 C 89.145 226.376,90.855 226.376,91.900 226.294 C 92.945 226.212,92.090 226.144,90.000 226.144 C 87.910 226.144,87.055 226.212,88.100 226.294 M123.107 226.290 C 123.826 226.379,124.906 226.377,125.507 226.286 C 126.108 226.195,125.520 226.122,124.200 226.124 C 122.880 226.126,122.388 226.201,123.107 226.290 M143.907 226.290 C 144.626 226.379,145.706 226.377,146.307 226.286 C 146.908 226.195,146.320 226.122,145.000 226.124 C 143.680 226.126,143.188 226.201,143.907 226.290 M224.100 226.291 C 224.925 226.378,226.275 226.378,227.100 226.291 C 227.925 226.205,227.250 226.134,225.600 226.134 C 223.950 226.134,223.275 226.205,224.100 226.291 " stroke="none" fill="#31683c" fill-rule="evenodd"></path></g></svg>