<svg xmlns="http://www.w3.org/2000/svg" version="1.1" xmlns:xlink="http://www.w3.org/1999/xlink" xmlns:svgjs="http://svgjs.dev/svgjs" width="378.347" height="277.511"><svg id="SvgjsSvg1016" xmlns="http://www.w3.org/2000/svg" viewBox="0 0 378.347 277.511"><g id="SvgjsG1015"><path d="M101.823,277.427h193.175c.516.055,1.042.084,1.573.084,18.707,0,42.282-4.452,59.645-21.816,29.507-29.507,29.507-77.349-.001-106.856-9.721-9.721-21.451-16.245-33.849-19.561,2.595-25.294,2.868-56.004-15.812-82.754C271.536-3.619,201.93-14.768,151.271,20.61c-9.877,6.898-20.247,17.556-28.466,29.094-5.199,7.298-10.06,15.68-13.263,24.365-2.55-.191-5.124-.289-7.719-.289C45.588,73.78,0,119.368,0,175.603s45.588,101.824,101.823,101.824Z" style="fill:#d33079; fill-rule:evenodd;"></path></g></svg><style>@media (prefers-color-scheme: light) { :root { filter: none; } }
@media (prefers-color-scheme: dark) { :root { filter: none; } }
</style></svg>