<?xml version="1.0" standalone="no"?>
<!DOCTYPE svg PUBLIC "-//W3C//DTD SVG 20010904//EN"
 "http://www.w3.org/TR/2001/REC-SVG-20010904/DTD/svg10.dtd">
<svg version="1.0" xmlns="http://www.w3.org/2000/svg"
 width="1536.000000pt" height="1536.000000pt" viewBox="0 0 1536.000000 1536.000000"
 preserveAspectRatio="xMidYMid meet">
<metadata>
Created by potrace 1.14, written by Peter Selinger 2001-2017
</metadata>
<g transform="translate(0.000000,1536.000000) scale(0.100000,-0.100000)"
fill="#000000" stroke="none">
<path d="M7479 14336 c-2 -3 -27 -7 -54 -11 -112 -13 -278 -72 -393 -140 -196
-115 -341 -271 -463 -498 -27 -50 -78 -211 -94 -296 -16 -87 -22 -275 -10
-331 3 -14 7 -47 11 -75 3 -27 8 -53 10 -57 3 -5 7 -20 10 -34 35 -191 213
-463 404 -616 87 -70 275 -169 369 -194 156 -42 368 -61 481 -43 176 28 255
53 386 119 221 113 422 321 522 540 30 68 73 191 78 225 2 11 9 54 16 95 47
263 -25 579 -185 815 -158 232 -412 410 -675 471 -37 9 -76 18 -87 21 -26 7
-320 15 -326 9z"/>
<path d="M4980 12985 c-94 -16 -150 -30 -220 -57 -403 -155 -689 -508 -756
-933 -15 -93 -12 -266 6 -370 44 -256 144 -449 330 -636 133 -135 283 -229
460 -289 68 -23 70 -24 190 -45 76 -13 306 -13 385 0 146 25 341 107 470 196
271 187 467 510 500 825 7 60 8 252 2 279 -3 11 -8 45 -12 75 -4 30 -13 72
-21 92 -7 21 -11 38 -7 38 3 0 1 6 -4 13 -6 6 -13 25 -17 40 -11 46 -76 177
-123 250 -152 233 -380 405 -648 487 -160 50 -363 63 -535 35z"/>
<path d="M9900 12993 c-123 -19 -274 -65 -372 -113 -335 -166 -571 -482 -643
-860 -14 -72 -13 -314 1 -395 79 -451 414 -824 844 -940 128 -34 174 -40 320
-40 141 1 198 7 285 30 33 9 65 17 70 19 53 13 192 76 260 119 129 80 244 186
336 307 48 64 154 258 164 302 3 13 17 66 31 118 23 83 27 116 28 255 0 88 -3
184 -7 213 -18 118 -80 297 -134 384 -13 21 -23 40 -23 43 0 6 -65 98 -95 134
-174 211 -444 369 -710 414 -74 13 -296 19 -355 10z"/>
<path d="M2658 11549 c-89 -7 -277 -50 -326 -73 -15 -8 -54 -26 -87 -41 -137
-61 -310 -201 -418 -337 -101 -126 -180 -299 -223 -483 -28 -123 -26 -378 5
-504 41 -166 129 -353 215 -458 101 -122 241 -246 336 -297 19 -10 54 -29 76
-41 79 -44 248 -96 366 -112 64 -9 265 -8 328 1 480 72 867 428 982 905 23 96
34 339 18 426 -5 28 -12 67 -15 89 -23 139 -134 371 -234 491 -209 249 -501
406 -801 431 -121 9 -135 10 -222 3z"/>
<path d="M7540 11548 c-234 -18 -457 -106 -639 -252 -67 -53 -196 -195 -247
-272 -83 -124 -158 -309 -178 -439 -25 -161 -23 -318 5 -450 15 -69 67 -225
85 -252 8 -12 14 -27 14 -33 0 -6 23 -47 51 -93 68 -111 140 -193 259 -298
111 -98 327 -203 492 -239 165 -36 386 -33 534 6 32 9 66 17 75 19 34 7 176
70 234 104 98 57 165 109 255 200 179 180 290 404 328 661 9 58 8 270 -1 335
-16 117 -84 322 -129 387 -10 14 -18 29 -18 33 0 32 -197 263 -279 328 -240
190 -536 280 -841 255z"/>
<path d="M12412 11548 c-66 -5 -141 -18 -202 -33 -171 -43 -359 -149 -503
-285 -183 -172 -299 -383 -353 -645 -29 -141 -22 -340 17 -497 37 -147 120
-323 199 -422 91 -113 133 -156 230 -230 360 -278 848 -319 1268 -107 241 122
471 388 560 646 53 156 67 245 65 426 -3 410 -226 786 -593 999 -36 20 -76 41
-90 45 -14 4 -27 11 -30 14 -5 7 -161 58 -202 67 -123 24 -251 32 -366 22z"/>
<path d="M5005 10149 c-139 -23 -234 -53 -355 -112 -347 -169 -596 -515 -648
-902 -16 -120 -5 -323 23 -435 89 -347 317 -629 630 -780 186 -90 332 -120
550 -115 152 3 235 18 366 63 401 140 702 506 769 934 12 76 15 262 6 323 -43
278 -148 493 -334 683 -173 176 -391 290 -642 337 -55 11 -310 13 -365 4z"/>
<path d="M9890 10149 c-25 -4 -63 -10 -85 -14 -125 -20 -358 -125 -458 -205
-164 -132 -277 -270 -357 -434 -47 -96 -90 -224 -105 -311 -11 -67 -14 -296
-4 -369 41 -317 234 -626 506 -812 116 -79 252 -140 382 -170 36 -9 75 -18 86
-21 44 -10 294 -12 364 -2 501 71 906 466 995 968 18 102 18 296 0 401 -69
396 -339 735 -708 889 -141 59 -265 84 -426 86 -80 1 -165 -1 -190 -6z"/>
<path d="M2648 8764 c-2 -1 -25 -5 -53 -8 -171 -22 -398 -117 -541 -224 -70
-53 -160 -140 -219 -213 -107 -130 -208 -348 -232 -504 -3 -16 -9 -50 -13 -75
-13 -69 -4 -315 15 -399 32 -147 128 -364 195 -441 11 -13 20 -27 20 -31 0 -4
44 -52 98 -106 142 -144 319 -254 492 -305 250 -73 503 -69 743 14 155 53 348
178 457 295 66 70 110 121 110 127 0 2 15 26 33 54 84 124 151 301 175 462 9
60 9 292 0 355 -52 359 -300 705 -624 869 -173 88 -331 127 -526 130 -71 2
-129 2 -130 0z"/>
<path d="M12428 8765 c-2 -2 -28 -5 -58 -9 -96 -11 -123 -17 -233 -53 -434
-143 -754 -547 -794 -1001 -27 -302 51 -584 224 -817 119 -159 257 -273 438
-360 323 -157 684 -159 1019 -5 125 57 313 202 397 307 186 231 274 474 273
758 0 162 -18 267 -71 410 -149 405 -504 691 -943 761 -42 6 -247 14 -252 9z"/>
<path d="M7585 8712 c-47 -2 -143 -15 -208 -27 -117 -23 -307 -108 -421 -189
-270 -193 -451 -497 -491 -826 -6 -43 -7 -226 -2 -260 2 -14 7 -50 12 -80 10
-78 66 -243 113 -336 170 -338 525 -588 897 -632 302 -35 590 36 835 206 54
38 211 188 257 245 33 41 97 149 124 207 17 36 34 72 39 81 16 29 59 202 69
274 12 96 6 294 -12 386 -72 358 -306 664 -633 828 -125 63 -275 106 -403 117
-104 8 -123 9 -176 6z"/>
<path d="M5035 7313 c-83 -10 -264 -57 -311 -81 -11 -5 -41 -20 -69 -32 -146
-67 -319 -210 -429 -357 -100 -133 -191 -336 -211 -473 -4 -25 -9 -48 -12 -53
-9 -15 -12 -272 -3 -317 4 -25 11 -65 15 -90 10 -70 52 -197 95 -285 139 -285
378 -497 683 -604 48 -17 87 -28 87 -26 0 2 11 0 25 -5 14 -5 46 -12 72 -16
26 -3 59 -8 73 -10 34 -5 220 -5 245 0 11 2 43 7 70 11 478 68 900 487 970
960 4 22 8 47 11 56 7 24 7 229 -1 284 -44 344 -217 635 -495 830 -124 87
-311 169 -431 189 -19 3 -45 8 -59 12 -28 7 -279 12 -325 7z"/>
<path d="M9970 7313 c-146 -21 -271 -59 -393 -119 -127 -63 -200 -116 -303
-218 -218 -218 -339 -493 -348 -792 -11 -347 104 -636 348 -879 56 -55 134
-122 175 -149 121 -79 290 -150 406 -171 22 -4 50 -9 62 -11 189 -35 452 -5
634 72 313 131 550 379 664 694 29 82 29 81 51 190 16 78 22 287 11 353 -4 20
-9 54 -12 75 -11 74 -58 209 -106 307 -77 156 -180 285 -312 390 -148 117
-282 184 -467 231 -85 21 -131 27 -245 29 -77 1 -151 0 -165 -2z"/>
<path d="M2657 5924 c-1 -1 -22 -5 -47 -8 -266 -36 -488 -146 -679 -334 -160
-158 -261 -335 -316 -552 -24 -92 -30 -148 -30 -285 0 -178 20 -292 76 -430
238 -589 872 -886 1472 -690 245 80 465 249 612 469 30 46 66 109 80 142 14
32 30 68 35 79 17 35 48 147 64 230 24 123 15 361 -18 485 -91 348 -312 620
-630 775 -112 55 -249 97 -362 111 -52 6 -252 12 -257 8z"/>
<path d="M7568 5925 c-2 -1 -34 -5 -72 -9 -189 -18 -408 -107 -573 -232 -350
-267 -527 -721 -447 -1148 46 -245 154 -448 333 -626 222 -220 482 -333 798
-344 310 -12 629 113 852 333 186 183 304 409 345 656 14 87 15 317 2 375 -3
14 -11 50 -17 80 -65 316 -313 635 -612 786 -76 39 -250 99 -312 109 -22 3
-53 8 -70 11 -34 6 -222 14 -227 9z"/>
<path d="M12400 5922 c-14 -1 -70 -12 -125 -23 -534 -107 -933 -588 -938
-1129 -4 -435 207 -817 573 -1037 258 -156 559 -203 880 -138 55 12 169 54
248 92 350 169 606 530 650 913 40 362 -77 712 -325 965 -107 109 -173 159
-305 229 -56 30 -187 82 -228 91 -8 2 -35 8 -60 13 -98 22 -286 35 -370 24z"/>
<path d="M4955 4513 c-33 -8 -70 -16 -82 -18 -46 -10 -170 -59 -236 -92 -321
-161 -555 -475 -627 -838 -40 -204 -6 -492 81 -690 15 -35 100 -188 108 -195
4 -3 25 -30 48 -61 47 -61 146 -159 208 -204 22 -17 42 -32 45 -35 11 -12 108
-67 171 -97 70 -33 210 -80 263 -88 17 -3 56 -9 86 -14 54 -9 295 -7 336 2 12
3 37 8 56 11 61 10 214 64 294 104 145 73 307 205 389 317 17 22 32 42 35 45
14 12 89 140 113 193 29 61 66 167 74 206 2 14 6 27 8 31 2 4 7 29 11 56 3 27
8 58 10 69 6 30 6 261 0 282 -2 10 -7 36 -11 58 -3 22 -17 81 -31 130 -121
422 -488 752 -924 829 -104 18 -340 17 -425 -1z"/>
<path d="M9887 4524 c-1 -2 -18 -6 -37 -9 -420 -74 -779 -378 -914 -775 -49
-146 -61 -224 -60 -395 1 -209 28 -330 111 -504 158 -331 480 -582 829 -647
119 -22 330 -27 424 -9 33 6 103 22 125 29 6 1 29 8 52 15 99 28 248 106 353
187 233 177 404 466 449 759 13 87 11 288 -5 376 -88 495 -464 872 -964 964
-63 11 -353 19 -363 9z"/>
<path d="M7567 3084 c-1 -1 -32 -5 -69 -8 -37 -4 -81 -11 -98 -16 -16 -5 -30
-7 -30 -5 0 2 -37 -9 -82 -24 -215 -73 -335 -146 -489 -300 -154 -155 -264
-352 -310 -556 -17 -78 -17 -80 -25 -152 -36 -353 85 -692 339 -952 152 -155
385 -282 590 -322 99 -19 122 -21 220 -23 142 -3 231 9 372 51 435 131 755
505 823 963 9 61 9 262 0 330 -49 370 -301 720 -643 892 -57 29 -207 84 -251
92 -16 2 -40 7 -53 10 -59 13 -284 29 -294 20z"/>
</g>
</svg>
